<svg xmlns="http://www.w3.org/2000/svg" viewBox="0 0 7.99 39.9"><defs><style>.cls-1{fill:#fff;}</style></defs><title>Asset 11</title><g id="Layer_2" data-name="Layer 2"><g id="Pontas"><line class="cls-1" x1="3.6" y1="39.89" x2="3.6" y2="0.01"/><path class="cls-1" d="M3.6,0V0Z"/><path class="cls-1" d="M3.6.4c0,.07,0,.15,0,.1l0-.16V.13a2.42,2.42,0,0,0,0,.27s0,0,0,0"/><path class="cls-1" d="M3.39,6.05l0,0,0,0"/><path class="cls-1" d="M3.14,9.56a.05.05,0,0,0-.05,0,.07.07,0,0,0,.05,0"/><path class="cls-1" d="M2.83,10.16l0,0s0,0,0,0"/><path class="cls-1" d="M3.39,6.05l-.05.1c.05,0,0-.05.05-.1"/><path class="cls-1" d="M3.68,1.18a.43.43,0,0,1,0-.05v.05Z"/><path class="cls-1" d="M3.35,4.51v0l0,0Z"/><path class="cls-1" d="M3.41,3.32s.06,0,.09.05a.05.05,0,0,1,0-.06h0"/><path class="cls-1" d="M3.57,1.44v0Z"/><path class="cls-1" d="M3.28,5.36h0"/><path class="cls-1" d="M7.43,38.52h0"/><path class="cls-1" d="M3.38,39.89l0,0H2.87Z"/><path class="cls-1" d="M2.44,11.25h0s0,0,0,0"/><path class="cls-1" d="M1.74,21.3c.41-.11.51.19,1,0-.18,0-.69-.16-1,0"/><path class="cls-1" d="M3.68,1.21v0"/><path class="cls-1" d="M2.7,21.32h0l0,0,0,0"/><path class="cls-1" d="M2.36,13.77l.13,0-.13,0"/><path class="cls-1" d="M2.89,11.9l0,0,0,0"/><path class="cls-1" d="M2.71,14.75s-.07,0,0,.07h0s-.06,0,0-.06"/><path class="cls-1" d="M2.65,15.77l.07,0,0,0Z"/><path class="cls-1" d="M6.76,35.43l-.67,0c.53,0,.73.13.67,0"/><path class="cls-1" d="M3.66,1.18l0,0v0s0,0,0,0"/><path class="cls-1" d="M5.17,14.79l0,.16a.21.21,0,0,0,0-.16"/><path class="cls-1" d="M6,28.14l.08,0s0,0-.08,0"/><path class="cls-1" d="M5.24,15.43a.81.81,0,0,0-.22.09l.09,0Z"/><path class="cls-1" d="M6.08,35.48h0Z"/><path class="cls-1" d="M8,36.54c0-.15-1-.07-1.59-.11-.3-.18.74-.08,1.25-.14-.28-.12-1.21-.21-1.17-.29a2,2,0,0,1,.43,0c-.81-.13-.08-.36-1.07-.51h.24c-.49,0-1,0-1.35,0,0-.07-.63-.13,0-.16,0,0,.24,0,.44.07l-.28-.07c.92-.07.32.1,1,.1-.32-.14-1.08-.31-.83-.42.9,0,.32.26,1.11.11l-.34.17c1.42-.13-.09.1,1.42,0,.24-.22-.48-.24-.24-.46-.5,0-.73,0-1.22,0-.9-.31,2.2-.24,1-.47-.59-.06-1.69-.08-1.12-.25l1,.06c.07-.21-1.42-.12-.78-.34.39,0,.34.16.45.13.76-.14-.56-.1-.57-.21l.86,0c-.15-.23-.79-.48-1-.73a2.84,2.84,0,0,0,.77,0c-.44-.32,0-.68.5-1l-.71-.12a1,1,0,0,1,.45,0c.25-.12-.45,0-.73-.07,0-.06.4-.08.61,0-.62-.21-1.31-.6-.59-.82l.21,0c.26-.17-1.41-.19-.79-.35l.12,0c.27-.37-.36-.79.61-1.07-.94-.06.38-.37-.92-.4.63-.21.86-.15,1.26-.45,0-.08-.8-.12-.94-.22H6.2l-.7-.14.78-.07-.18-.09a1.06,1.06,0,0,1-.48.07c-.3-.14.43-.35.76-.36l-.58-.34a2,2,0,0,1,.52.11c-.67-.18.67,0,.06-.2a2.86,2.86,0,0,1-.51,0c.38-.08.36-.27.19-.41l.43,0c.08-.26-.26-.54-.28-.83a1.84,1.84,0,0,1-1,0l.64,0c-.4-.05-.24.09-.73,0,.07-.11.72-.07.94,0L5.83,26c.19,0,.3,0,.54,0-.4,0,.61-.23-.08-.3h.19c0-.29-.26-.42-.31-.65-.53,0-.42-.09-.85-.16.15-.18.54-.37.48-.57-.27-.15-.44,0-.75-.11.47,0,.41-.22.75-.11-.1-.25-.12-.32-.51-.63a1.33,1.33,0,0,1-.42.05c-.08-.05.18-.13.4-.12l.05,0c-.69-.36,1.21-.82.27-1.1l0,0-.49-.29c.06-.13.33.08.58,0-.73-.31.06-.49-.43-.75,1.19-.2-.14-.71.58-1H5.61c-.27-.06.15-.08.2-.13-.21,0-.23.08-.38,0-.37-.59.28-1.22.42-1.82,0-.22-1.28-.13-.73-.41l.46.08C5,17.67,5.5,17.2,5,16.76c.1,0,.22,0,.22.07.3-.09,0-.34-.26-.34,0-.07.22,0,.34-.06s-.4-.23-.11-.28a.17.17,0,0,1,.12,0c-.15-.06,0-.28-.32-.22.14-.17-.18-.32,0-.45-.37-.08.14-.28-.36-.3.52,0,.38-.29.14-.4.15,0,.15-.09.36-.05,0-.11-.12-.22-.37-.2.56-.22-.5-.44.22-.56a3.62,3.62,0,0,1-.6-1c.44,0,.07.35.54.34-.22-.3-.6-.47-.52-.77.06-.08.19,0,.27.07-.2-.3,0-.58-.26-.85a.23.23,0,0,1,.12.06s0-.13-.14-.12l.06,0c-.27.09-.56-.21-.7-.22.52.09.12-.26.77-.12a.36.36,0,0,0-.24-.07c0-.05.09-.07.23,0-.11-.19-.29-.12-.29-.3.08,0,.11,0,.21.06C4.3,11,4.14,11,4.2,10.81s.11,0,.11,0c0-.24-.43-.42-.29-.69.33.08.1-.09.38-.11L4.31,9.9,4.18,10c0-.13-.21-.24-.13-.36l.12.1-.06-.24L4,9.6c-.14-.13-.34,0-.27-.16,0,0,0-.13.16-.2h0c-.09-.07-.18-.13-.11-.23s.28,0,.33,0c-.21-.07-.07-.3-.29-.38a.5.5,0,0,0,.2,0l-.17-.06c.06-.06.08-.06.18,0,0-.18-.3,0-.18-.16,0,0,0,0,.07,0,0-.21-.12-.41-.05-.6s.06.17.25.1c-.06-.28-.29-.58-.25-.85l0,0c-.28,0,.13-.21,0-.34,0,0,.16,0,.12,0,0-.19-.08-.38-.17-.66l.07,0c0-.11,0-.29,0-.41s-.06-.1-.14-.06c.3-.37-.18-.7,0-1,0,0,.05.09.05.06l-.06-.28c-.08,0-.05,0-.11.1a.26.26,0,0,1-.08-.19c0,.13.12,0,.16-.05s0,0-.07,0c.13-.15-.15,0-.07-.23h0a.55.55,0,0,1-.06-.22c.08,0,0,.08.11.09s-.15-.23-.08-.33a1.09,1.09,0,0,0,.05.17.29.29,0,0,0,.07-.21h0l0-.19,0,0c-.19-.14,0-.29-.16-.48.1.19.06,0,.13,0s0-.12,0-.1,0-.15,0-.28,0-.09,0-.07,0,0-.06,0c-.07-.18,0-.42,0-.68a4.4,4.4,0,0,1-.1-.47c0-.07,0,.06,0,.06a1.58,1.58,0,0,0,0-.31s0,0,0,0,0-.05,0-.17l0,.09c0-.09,0-.22,0-.3s0,.06,0,.1c0-.12,0-.31,0-.34V.66s0,0,0,0,0,.15,0,.15V.75c0,.07,0,.29,0,.44l0-.06,0,.15s0,.06,0,0c0,.11,0,.1,0,.19s0,0,0,0v.11s0,0,0-.05c0,.19,0,.3,0,.37h0c0,.26,0,0,.1.22l-.12.13,0,0s0,.08,0,.07,0,0,.06,0,0,.36-.08.38,0-.12.07,0,0,.16,0,.27,0-.14-.09,0c.11.07,0,.22,0,.32s0,.22.06.38c0,0-.07.32-.12.47h0c.12,0,.09.19.11.3a.12.12,0,0,1-.13-.09v.11a.26.26,0,0,1,.07.13l-.1,0c0,.15.1.3,0,.48.1,0,.27-.14.33.05,0,0-.14,0-.16,0s0,.06,0,.09l-.09-.08c0,.09.07,0,.07.11s-.06,0-.12,0,0-.06,0-.08a.26.26,0,0,1-.13.2c.05,0,.11,0,.12,0s-.1,0-.15.14,0,.13.12.13-.06.05-.1.07,0,.35.14.26V6h0c.13.24-.09.51,0,.75H3.34c.05.15,0,.32.13.43s-.1.1-.16.08.09.13,0,.29c-.1-.12-.09,0-.07-.12-.05.15-.15.18,0,.33-.14,0-.19.11-.15.18l.11-.1a.41.41,0,0,1,0,.22L3,8c-.28.29.4.53-.06.76.15.08.12-.16.3-.09,0,.13-.37.28-.37.32-.14.19.32.17.22.37.09,0,.31-.05.39.1s-.37.16-.43.08,0-.05,0-.05-.06-.1-.16,0l.09,0c-.09.07-.1.25-.24.21.08.1.14,0,.19,0-.14.17,0,.27-.12.45,0,0,.16,0,.16,0-.13.26.16.11.2.29-.15.1-.34,0-.23.14-.1.11-.25,0-.33,0,.17.17-.14.31-.19.4l-.07-.08a.15.15,0,0,1,0,.14l.2-.05c0,.05,0,.09-.12.09.12.05.33,0,.5.06-.11.07.1.21-.17.23.1-.21-.27,0-.3-.16,0,0,0,.08,0,.13a.06.06,0,0,1-.07,0c-.26.21.3.1.28.31-.16,0-.3,0-.27.08s.26,0,.37,0c-.13.13.08.14.07.22L3,11.81c.15,0,.13.1.18.19C3,12,3.05,11.92,3,12c.28.11-.31.24-.13.38-.11.07-.3,0-.39.07.21.16-.24.18-.08.35.24-.05.18-.06.39.06l-.14-.28.32.18c0-.08-.13-.18-.09-.23s.12.08.31,0c-.34.11.19.23,0,.36H2.57c-.28.2.27.36.1.62l.11-.08c.24,0,0,.16.12.25a.9.9,0,0,0-.41.08c.15,0,0,.19.38.22l-.28.11c-.13.22.59.25.51.45-.23-.06-.39,0-.55-.1,0,.06,0,.13.1.13-.14,0,.28.19.07.25.1,0,.32,0,.3.11h-.1c.1,0,.14.12.39.06-.71.21,0,.58-.59.77a1.54,1.54,0,0,1,.15.46c-.07,0-.12,0-.09,0-.24.18.68.11.43.32s-.21-.11-.36,0c-.81,0,.09.25-.39.4l0,0c-.29.11.3.27.23.45a.5.5,0,0,0-.13,0,1.11,1.11,0,0,1,.68.52c-.34-.05-.17-.08-.52,0,.05.07.55,0,.65.13a2.3,2.3,0,0,1-.73.17l0-.14c-.48.07,0,.19-.08.26H2.28c.05.22.6.23.55.47l.16,0c.55.13-.31.11.1.24l-.57,0a2.8,2.8,0,0,1,.64.46A3.29,3.29,0,0,1,2.29,19a.3.3,0,0,0,.3.33s-.19-.08-.1-.11c.44.1.66.24.65.41-1.13,0-.3.45-1.21.57.41.3-.23.6-.19.95,1-.13,0,.1,1,.08.06.08,0,.11,0,.12l-.61.24c-.29.06-.21-.07-.43-.07-.09.18-.43.08-.71.2.36,0,.51.06.36.16l.48-.14c.51.25-.87.21-.36.47l-.31-.08c.17.12-.06.47.76.6a1.1,1.1,0,0,1-.48,0c-.16.3.85.68.3.92l-.26,0c.07.06.49.1.22.17-.11,0-.27,0-.29,0s.46.15.3.23l-.3-.07c-.38.3.7.46.88.71A1.74,1.74,0,0,0,1,25H.9c-.15.35.63.59,1,.92-.95.2-.45.68-1,1a1.77,1.77,0,0,1,.78.07c-.19.07.61.21-.22.2l0,0c-.81.06-.62.21-.65.34H1.85c-1.63.32.54.84-.93,1,.27.07.26.17.54.24H.85c-.18.21-.27.32-.15.58l-.44-.05c-.06.15,1.79.19,1.82.33l-.94,0c0,.26-.88.52,0,.78a1.51,1.51,0,0,1-.45-.06c0,.12-.71.47.64.43-.88,0-.11.27.27.41l-.65,0c.83.11,1.06.12,1.28.28-.08,0-.53,0-.35,0-.36.13.62.1.26.26l-.42-.06c-.06.13.16.12.66.19.26.09-.18.26-.79.28.37,0,.86.09.68.17a2,2,0,0,1-.44,0c-.48.22.78.33.1.48l-.41,0c0-.18.07-.32.12-.31a6.9,6.9,0,0,1-1.61,0c.46.12,1.48.32,1.17.46H.88c-.06,0,0,.06.1.09-.11,0-.19.07-.2.11-.54,0-.31.17-.34.24a5.14,5.14,0,0,0,1.18,0,.09.09,0,0,1-.11-.06l-.07,0H1.5a.8.8,0,0,1,0-.18c.36,0,.65.11.26.19l1.13.1c-1,.1-1.53.29-2.15.32.38.22.22.51,1.58.65.17.06-.4.07-.61.1s-.11-.08-.31-.1c.34.12.11.37,1.08.4C2,35,1.55,34.74,1.7,35l-.3,0c-1.6.42,2.48.69.43,1.16A1.23,1.23,0,0,1,2.19,36c-.95.54.83,1.11-.68,1.64-.31.15.36.16.87.26l-.87,0,1,.16c.74.22-2.15.38-.77.66l.59,0c-.11.1.35.32-.34.3.11,0,.62,0,.31.07H1.82l.79.25c-.34.19-1.85,0-2,.25a6,6,0,0,0,1.68.26,1.53,1.53,0,0,1,.77-.11l.25.09a17.94,17.94,0,0,0,3.79-.14l-.86-.17.66-.05.06.14c.62-.08.06-.13-.33-.18a5.32,5.32,0,0,0,.73-.07l-1.32-.16a6.27,6.27,0,0,0,1.36,0c-.62-.08-1.2.07-1.61-.05.62-.08,1.12-.06.59-.15a3.42,3.42,0,0,1,.73,0c-.43-.08-.2-.21-.92-.26.75-.08-.22-.27,1.06-.26a4.34,4.34,0,0,1-1.07-.22c1.53.13.07-.29,1.69-.25-1.37-.1-.64-.37-1.4-.55.11,0,.33,0,.26,0a2.93,2.93,0,0,1,.75-.2,11.45,11.45,0,0,1-2-.25,17.54,17.54,0,0,1,2.3,0c-.88,0-.9-.22-1.63-.18a7.13,7.13,0,0,1,1.2-.13c-1.36,0-.23-.09-1.07-.17.65-.13,1.26,0,.83-.18a2.27,2.27,0,0,1,.9.06M5.46,33h0l0,.07L5.46,33m0-.3a.18.18,0,0,0,0,.13,1.13,1.13,0,0,1-.47,0,2,2,0,0,0,.49-.1m-4.84.63c-.09,0,.05-.06.19-.07s0,0,.08.09H.94l-.35,0"/><path class="cls-1" d="M1.51,33.37l.05,0,.16,0H1.5Z"/><path class="cls-1" d="M3.41,6h0l0,0Z"/><polygon class="cls-1" points="6.35 28.48 6.2 28.48 6.33 28.5 6.35 28.48"/><path class="cls-1" d="M3.78,4.35l0,0,0,0"/><path class="cls-1" d="M3.77,3.63l0-.1a.58.58,0,0,0,0,.1"/><path class="cls-1" d="M3.78,3.08h0Z"/><path class="cls-1" d="M4.56,11.86s0,0,0,0,0,0,0,0"/><path class="cls-1" d="M3.9,9.25A.34.34,0,0,1,4,9.33c0-.05,0-.08-.09-.08"/><polygon class="cls-1" points="5.18 14.77 5.17 14.77 5.17 14.79 5.18 14.77"/><path class="cls-1" d="M4,9.45a.08.08,0,0,0,0-.12s0,.08,0,.12"/><polygon class="cls-1" points="3.65 0.69 3.65 0.66 3.64 0.66 3.65 0.69"/><path class="cls-1" d="M3.64.66v0"/><path class="cls-1" d="M3.63.57V.63s0-.05,0-.06"/><path class="cls-1" d="M3.68,1.42h0s0,0,0,0"/><path class="cls-1" d="M3.7,1.64a1.46,1.46,0,0,0,0-.21h0s0,.16,0,.21"/><path class="cls-1" d="M3.51,2.57l0-.19s0,.08,0,0c-.07.24,0-.05,0,.2"/><path class="cls-1" d="M3.45,3.14c0-.1,0,0-.05,0s0,.08.05,0"/><path class="cls-1" d="M3.25,7.31H3.11c0,.08.05,0,.14,0"/><polygon class="cls-1" points="4.02 8.11 4.11 8.04 3.97 8 4.02 8.11"/><polygon class="cls-1" points="2.87 8.58 2.85 8.55 2.89 8.68 2.87 8.58"/><path class="cls-1" d="M2.37,15.58l.37,0c-.06-.05-.47-.06-.37,0"/><path class="cls-1" d="M2.58,18.61c-.22,0-.37.12-.16.17,0-.07.22-.14.16-.17"/><polygon class="cls-1" points="1.01 27.68 0.8 27.61 0.97 27.73 1.01 27.68"/></g></g></svg>