<svg xmlns="http://www.w3.org/2000/svg" viewBox="0 0 7.08 21.76"><defs><style>.cls-1{fill:#fff;}</style></defs><g id="Camada_2" data-name="Camada 2"><g id="Camada_1-2" data-name="Camada 1"><path class="cls-1" d="M5.62,0l0,.06.13,0A.38.38,0,0,1,5.62,0Z"/><path class="cls-1" d="M5,.24a.16.16,0,0,0,0,.1c.64,0,.49.06.87-.08C5.69.2,5.55.06,5.41.07s.15.11.09.17S5.4.14,5.26.1s.07.06-.06.16Z"/><path class="cls-1" d="M5.48.4a1.76,1.76,0,0,0-.31,0C5.28.38,5.41.44,5.48.4Z"/><path class="cls-1" d="M5.55.47c0,.06-.27,0-.3,0l.46.11Z"/><path class="cls-1" d="M5.49.73l0,0C5.64.77,5.56.75,5.49.73Z"/><path class="cls-1" d="M5.55.87c.23,0,.09-.05,0-.1h0c-.19,0-.61,0-.46-.09C5,.61,5.36.64,5.14.57L4.79.62C4.76.72,5.37.82,5.55.87Z"/><path class="cls-1" d="M5.49.73s0,0,0,0S5.44.72,5.49.73Z"/><polygon class="cls-1" points="5.55 0.6 5.47 0.56 5.32 0.56 5.55 0.6"/><path class="cls-1" d="M5.59,1.1C4.88,1,5.67.94,5.16.89c0,.09-.54.12-.92.07l.15.11A6.67,6.67,0,0,0,5.59,1.1Z"/><path class="cls-1" d="M3.54,1.14l.11,0A.21.21,0,0,0,3.54,1.14Z"/><path class="cls-1" d="M4.77,1.72l-.85-.29a3.48,3.48,0,0,1,.66.11c.16-.09-.41-.14-.27-.21.82,0,0,.14.75.15,0-.06,0-.15-.66-.24L5,1.19l-.83,0c-.27,0,.61.12,0,.1-.39,0-.42-.06-.47-.09.11.07-.86.1-.89.22A14.25,14.25,0,0,0,4.77,1.72Z"/><polygon class="cls-1" points="3.64 1.65 3.22 1.63 3.77 1.66 3.64 1.65"/><path class="cls-1" d="M4.91,2l-.64-.17h.52l-.85-.08c-1,0,.21.16.38.23-.55.13-.54,0-1.56-.05.07-.05.32,0,.44-.09-1.24,0-.31.21,0,.3.12,0,.46,0,.38,0l.32.09C4.78,2.2,5,2.15,4.91,2Z"/><path class="cls-1" d="M5,1.78c.06.05,0,.06-.15.05C5.06,1.84,5.25,1.84,5,1.78Z"/><path class="cls-1" d="M3.19,2.18c.07,0,.05,0,0,0S3.11,2.15,3.19,2.18Z"/><path class="cls-1" d="M4.51,2.21l-.14.07H4.9A1.07,1.07,0,0,0,4.51,2.21Z"/><path class="cls-1" d="M1.15,5.13c.7,0,1.05,0,.94,0a7.58,7.58,0,0,1,1.24.22,18.32,18.32,0,0,1,2,.13c.1-.09-1.09-.22-.83-.3l1,.06c-.57-.16-1.37-.43-.6-.49.35-.09-.06-.2-.42-.36C4.9,4,4.2,3.5,5,3.11L3.59,3c.7,0,.05-.1.92,0-.18,0,0,.05,0,.08,1.2,0-.05-.26.4-.34-.23,0-1.34-.07-1.52-.11,1.39.11.05-.13,1.62,0,.4-.09-1.18-.09-.92-.19-.77-.07-.43.08-1,0s.34-.08-.48-.13c-.57.15.88.61,1.39.94l-.86-.1c.55.19.55.43-1,.43.91,0-.61.18,1.48.31a1.7,1.7,0,0,0-.62.06l.67.06c0,.08-1.08,0-1,.08a15.41,15.41,0,0,1,2,.17l-2.94.09c.31,0,.67,0,1.09,0-.36,0,.56.09.89.13a13.47,13.47,0,0,1-1.84-.09c-.44.08,2,.3,1.13.32l1,0c.23.13-.92.14-.6.28a5.68,5.68,0,0,1-1.79-.28c-.31,0-.41,0-.88,0l2.34.38C1.24,4.94,1.28,5.1,1.15,5.13Z"/><path class="cls-1" d="M.55,4.75,0,4.67c.08,0,.17,0,.1,0Z"/><path class="cls-1" d="M1.15,5.13H1A.34.34,0,0,0,1.15,5.13Z"/><path class="cls-1" d="M5,4.71h-.1l0,0Z"/><path class="cls-1" d="M.42,4.29l1.11,0A5,5,0,0,0,.42,4.29Z"/><path class="cls-1" d="M1.9,3.65c-.15,0-.43,0-.72-.08C1.11,3.61,1.41,3.65,1.9,3.65Z"/><polygon class="cls-1" points="0.22 4.86 0.51 4.97 0.78 5.03 0.22 4.86"/><path class="cls-1" d="M5.55,7.13c1.33,0,.53-.16.81-.24-.68-.23-2.89-.24-3-.42L6,6.7c-.14-.19.42-.4-1.93-.72a6.48,6.48,0,0,1,1.12.09c-.1-.13-3.82-.35-2.91-.44a31.87,31.87,0,0,0,3.24.23l.18,0c-.17-.11-1-.31-.91-.36A11.55,11.55,0,0,1,3,5.37a14,14,0,0,1-1.58-.1,6.78,6.78,0,0,0,1.14.28c-.91,0-.28,0-1.18-.07l.81.14a10.09,10.09,0,0,0-1.09-.06c.52.05,1.08.16.94.22l-.3,0c.35.08-.11.12,1.39.2l-1.5,0L2.7,6c-.42.1-2.89,0-1.63.24a5.19,5.19,0,0,1,1.05.1c.73,0-.76-.15-.89-.23,1,.07,2.25.28,2.87.24a9.91,9.91,0,0,1-2.44,0c-.17.1,1.09.24.49.31l-.39,0c1.7.14-.77,0,1,.24l.38,0A2.2,2.2,0,0,1,4,7a5,5,0,0,0-.6,0,11.72,11.72,0,0,1,1.77.29C5.34,7.17,4.33,7,4,7A10.41,10.41,0,0,1,5.55,7.13Z"/><path class="cls-1" d="M1.2,5.66l.58.07Z"/><path class="cls-1" d="M3.4,7.48c-.28.06-1-.09-1.57-.06.83.13,1.71,0,3,.2-.72,0,.52.16.54.19-.7-.09-2.29-.19-2.62-.2.45.06-.33.07-.37.11,1,0,.59.14,1.66.12s1.6.23.89.22S4.36,8,4.33,8c-1.27-.11-.68,0-1.83,0,1.77.24,1.63.58,4.37.69.54,0-.12-.08-.23-.13a10.24,10.24,0,0,1-2-.16c.45,0-.43-.16.57-.07l1,.16c.57-.21.44-.56,0-.88l-.07.12a5.92,5.92,0,0,1-1.21-.21L3.13,7.35c.14,0-.14-.08.55,0a19.18,19.18,0,0,0-2-.15c-.34-.11.41-.07-.86-.24-1.57,0,1.32.23,0,.3Z"/><polygon class="cls-1" points="2.34 7.07 3.32 7.18 2.83 7.09 2.34 7.07"/><path class="cls-1" d="M6.6,7.44l-1-.09C5.27,7.4,5.86,7.43,6.6,7.44Z"/><path class="cls-1" d="M2.43,8l.33.12.35,0A5.27,5.27,0,0,1,2.43,8Z"/><path class="cls-1" d="M7.08,9c-.14-.14-1-.25,0-.33-1.16-.16-2.21-.13-3.27-.24-.26.05,1.72.19,2.1.29-1,0,.2.13,0,.18C6.25,8.91,6.71,9,7.08,9Z"/><path class="cls-1" d="M3.32,9.16c0,.05.73.17.28.18s-.81-.1-.66-.12c-1.34-.08.22.08-.67.07.15,0,.37,0,.66,0-.29.14,1.09.17.35.32a7.32,7.32,0,0,0,1.21.15c-1.08,0-1.08,0-2,0,.5,0,1.63.07,2.7.15-1.5.09.19.22-.92.26,0,0-.33-.05-.18-.07-1.46-.1.26.12,0,.17l-1.23-.1c.2.08,1,.25.12.27l-.61-.06c.93.23.51.39,1,.57l-.72,0c.89.26.4-.16,2.16.11-2.16-.14.69.15-.17.2s-.44-.15-1.42-.16c1.1.1.32.08.63.16-1-.09-.13.12-1.29,0l1.88.35c-.57,0-.47.06-.33.11,0-.11,1.49.14,2,0-.46-.21-.78-.54-.2-.73-1.45-.13,0-.14-1.15-.27L6,10.93c-.29-.16-.8,0-1.33-.1-.19-.07.7-.06,1.23,0,.09-.1-.4-.05-1.19-.16l1.64.05c-.43-.36-1.57-.88-.51-1.17L4.7,9.48C5.35,9.36,2.18,9,4.63,9l-1-.12c.57.07,1.74.1,2.53.2-.39-.07.06-.09-.3-.16L5.31,9c-1-.13-.37-.15.51-.11a19.94,19.94,0,0,0-3-.12C5,9.11.74,8.8,1.67,9A9.64,9.64,0,0,0,3.32,9.16Z"/><path class="cls-1" d="M6.47,9.17l-.3-.05Z"/><path class="cls-1" d="M4,11.81s0,0,0,.06C4.32,11.9,4.16,11.86,4,11.81Z"/><path class="cls-1" d="M5.84,8.89h0Z"/><polygon class="cls-1" points="2.94 8.59 2.91 8.64 3.45 8.67 2.94 8.59"/><path class="cls-1" d="M2.87,12.23l.48,0C3.2,12.25,3,12.23,2.87,12.23Z"/><path class="cls-1" d="M2.68,13.57l0,0C2.63,13.55,2.65,13.56,2.68,13.57Z"/><path class="cls-1" d="M3.64,16.89a2.32,2.32,0,0,0,.83.34l-.29,0a2.16,2.16,0,0,0,1.09.18l-.24,0c-.41-.14.49-.05.71-.12-.1-.11-1.23-.25-1-.33,0,0,.28,0,.51,0s-.78-.19-.9-.26c2.41.15-.63-.34.95-.36-.19-.1.06-.2-.43-.35.64.11.07-.1.81,0-1.55-.15.77-.27-1.22-.43.58-.11-.14,0,.36-.16a.53.53,0,0,1,.26.06c.44,0-.86-.17.09-.16.18-.12-.56-.06-1.12-.19A4.6,4.6,0,0,1,5.54,15c-1-.08-.52-.13-1-.24a1.22,1.22,0,0,1-.65,0c.17-.16-.69-.19-1-.37,1.18,0,0,.16,1,.09a6.55,6.55,0,0,0,1.32.33c.08-.13-.08-.31-.57-.49.17-.07.56.08.68,0,.56-.11-1.22-.32-.67-.39l.63.07c-.84-.14.23-.24-.24-.41a7.25,7.25,0,0,1-.77-.05c1.67.13-.87-.25.33-.3a5.15,5.15,0,0,1-1.82-.33c.3,0,.76,0,1,0-.65.09,1.19.22,1.68.36-.56-.13,0-.23-.74-.36l.86.09c.15-.11-2-.25-1.12-.32l.65.06c-.08-.26,1.17-.47-.33-.79-.56-.06-1.87-.05-2.31-.08.5.16,1.47.3,1.94.43l-1-.08a11.65,11.65,0,0,0,1.68.2c.52.12-.91,0-.33.12-1.06-.08-1.18-.15-2.08-.21l.53.11c-.41-.05-.35,0-.77,0,1.29.24-.48.16.11.35l.18-.07a1.68,1.68,0,0,1,.69.14,3.34,3.34,0,0,0-1,.06,8.68,8.68,0,0,1,1.47.3c-1.08-.1-.58.1-1.47,0,1.05.1.38.2,1,.26.21.06.1.12-.45.08l-.18,0,0,0-.23,0s.73.1.23.11a1.08,1.08,0,0,1-.38-.08c-.16.1,1.55.31.64.34a9.27,9.27,0,0,0,1.57.23c-.38,0-1.21-.07-1.06,0,.87.12-.31.08.25.19-.92-.16-.26,0-1.13-.16-.35,0,.82.22.66.32l-.65,0c.3.07,1,.16.3.15l.59,0c-.3.06-.11.18-.73.21l1.09.18c-1.14,0-.09.29.83.46a.83.83,0,0,1-.47.08l-.37-.08c0,.07-.61.11.22.21.25.09-.57,0-.7,0,1.13.23-.8.37.89.53,0-.05.35-.14.29-.26a3.59,3.59,0,0,1,.58.1c.06.11-.57.12-.31.25l-1-.09C2.67,16.5,5.08,16.85,3.64,16.89Z"/><path class="cls-1" d="M3.63,15.46,3,15.5l.51,0C3.46,15.5,3.46,15.47,3.63,15.46Z"/><path class="cls-1" d="M3.55,15.53l.24.06s0,0-.11-.06Z"/><path class="cls-1" d="M3.81,17.23s-.11,0,0,.09S4,17.26,3.81,17.23Z"/><polygon class="cls-1" points="4.09 17.34 4.23 17.31 4.13 17.3 4.09 17.34"/><path class="cls-1" d="M4.48,19.75l.31.15c-.18,0,0,.17-.28.1.36.11,0,.24.49.22-.08-.39.52-.87,0-1.35l.27.09c-.54-.27.79-.25-.41-.53l.65.07c.23-.08-.91-.26-.17-.32H5.08s.13,0,.14-.06H5.09c-.26-.09-.22-.14,0-.2s.09.05.15.07c.24,0-.23-.11-.22-.17a1.21,1.21,0,0,1,.43,0c-.29-.2.55-.21-.58-.42-.21,0-.4,0-.49-.06-.37.09.08.22.36.35v0c1,.16-.26,0,.18.21a4.74,4.74,0,0,1-.64-.17c-.8.1.58.27-.42.3h0c-.1,0,.09.07.18.11a1.25,1.25,0,0,0,.29-.05,4.78,4.78,0,0,0,.7.12c-.44,0,.21.07,0,.12a1.51,1.51,0,0,1-.56-.12l.26.09c0,.07-.44,0-.65.06.29.08.21,0,.62.06-.49,0-.36.37-.06.55,0-.06-.37-.05-.3-.11-.09,0,.09.11.35.13s0,.24-.22.33h.25c.38.11-.34.18-.13.34h0c0,.05.57.13.43.21A2.56,2.56,0,0,0,4.48,19.75Z"/><path class="cls-1" d="M4.81,20.29l-.24-.07c-.07.05.24.14.4.14,0,0,.09-.07,0-.09S4.79,20.26,4.81,20.29Z"/><path class="cls-1" d="M4.5,21.25a.49.49,0,0,0,.14,0c.07-.2.09-.45.3-.52s-.23-.1-.28-.19l.25,0c-.14-.05.19-.18-.24-.16,0,0,.18.06.09.09H4.63l0,.09-.16,0c-.26.11.46.13.25.27l-.3,0c-.05.11,0,.17-.15.24,0,0,.13,0,.08,0a.45.45,0,0,1,.21,0c.16.17-.15,0-.29.07.16.14.17.4,0,.47.14-.06.24,0,.19.12s-.1,0-.15-.05-.09.06-.07.09.24,0,.25.09C4.72,21.59,4.43,21.43,4.5,21.25Z"/><path class="cls-1" d="M4.67,21.32s0,0,0,0l0,.08Z"/></g></g></svg>