<svg xmlns="http://www.w3.org/2000/svg" viewBox="0 0 7.39 33.14"><defs><style>.cls-1{fill:#fff;}</style></defs><g id="Camada_2" data-name="Camada 2"><g id="Camada_1-2" data-name="Camada 1"><path class="cls-1" d="M5.27,0l0,.09.13,0A.47.47,0,0,1,5.27,0Z"/><path class="cls-1" d="M4.62.43a.45.45,0,0,0,0,.16c.65-.09.5,0,.86-.21C5.35.29,5.2.1,5.07.13s.15.15.09.24S5.05.23,4.92.19c-.21.15.07.09-.06.25Z"/><path class="cls-1" d="M5.16.62l-.31,0C5,.61,5.09.68,5.16.62Z"/><path class="cls-1" d="M5.23.72c0,.1-.26,0-.3,0L5.4.84Z"/><path class="cls-1" d="M5.19,1.13l.06,0C5.34,1.16,5.26,1.15,5.19,1.13Z"/><path class="cls-1" d="M5.27,1.33c.22,0,.08-.09,0-.16h0c-.18.06-.6,0-.46-.09C4.69,1,5.06,1,4.83.92L4.49,1C4.46,1.19,5.07,1.27,5.27,1.33Z"/><path class="cls-1" d="M5.19,1.13a.14.14,0,0,1,0-.06C5.1,1.1,5.14,1.11,5.19,1.13Z"/><polygon class="cls-1" points="5.24 0.92 5.17 0.87 5.01 0.88 5.24 0.92"/><path class="cls-1" d="M5.32,1.67c-.71,0,.07-.24-.45-.27,0,.13-.52.24-.91.21l.16.15A3.91,3.91,0,0,0,5.32,1.67Z"/><path class="cls-1" d="M3.27,2l.12,0A.22.22,0,0,0,3.27,2Z"/><path class="cls-1" d="M4.54,2.71c-.32-.12-.6-.23-.87-.35a1.87,1.87,0,0,1,.67.1c.15-.15-.42-.17-.28-.3.82,0,0,.22.76.15,0-.09-.05-.22-.68-.29l.56-.14-.83,0c-.28.06.61.12,0,.15-.38,0-.42,0-.48-.08.12.1-.84.25-.86.44S4.08,2.58,4.54,2.71Z"/><polygon class="cls-1" points="3.41 2.72 3 2.74 3.55 2.73 3.41 2.72"/><path class="cls-1" d="M4.71,3.1l-.66-.18c.1,0,.33,0,.52,0-.25,0-.65,0-.85,0-1,.08.22.22.4.32-.54.25-.55,0-1.56.08.06-.07.31-.07.43-.17-1.24.16-.29.35,0,.45.12,0,.46,0,.38-.09l.33.1C4.59,3.43,4.81,3.34,4.71,3.1Z"/><path class="cls-1" d="M4.73,2.77c.07.07,0,.1-.14.1C4.85,2.86,5,2.83,4.73,2.77Z"/><path class="cls-1" d="M3,3.58c.08,0,.06,0,0-.06S2.92,3.55,3,3.58Z"/><path class="cls-1" d="M4.33,3.47l-.14.13.53-.05A.78.78,0,0,0,4.33,3.47Z"/><path class="cls-1" d="M1.19,8.29c.7,0,1.05-.06.93-.16a5,5,0,0,1,1.25.2,12.52,12.52,0,0,1,2,0c.09-.14-1.11-.21-.85-.36.25,0,.66,0,1,0-.58-.18-1.39-.49-.63-.67.34-.18-.08-.3-.45-.5.44-.62-.3-1.28.44-1.95L3.47,4.7c.69,0,0-.16.9-.14-.17,0,0,.07,0,.12,1.2-.15-.06-.39.37-.56a11,11,0,0,1-1.52,0c1.4,0,0-.21,1.61-.26.4-.17-1.18,0-.93-.19-.77,0-.42.18-1,.21s.34-.16-.49-.15C1.79,4,3.28,4.55,3.8,5L2.93,5c.57.22.58.59-1,.77.91,0-.59.33,1.51.3a1.25,1.25,0,0,0-.61.16l.67,0c0,.12-1.07.1-1,.23a9.75,9.75,0,0,1,2,.05L1.5,6.94c.32,0,.67,0,1.09-.07-.35.1.57.08.9.11a10.08,10.08,0,0,1-1.85.07c-.43.16,2,.24,1.15.36l1,0c.24.16-.91.3-.58.49a3.6,3.6,0,0,1-1.81-.23,5.44,5.44,0,0,1-.87.14c.7.08,1.68.22,2.36.31C1.26,8,1.31,8.23,1.19,8.29Z"/><path class="cls-1" d="M.56,7.77,0,7.72c.08,0,.18,0,.1.06Z"/><path class="cls-1" d="M1.19,8.29H1C1.12,8.31,1.16,8.31,1.19,8.29Z"/><path class="cls-1" d="M4.94,7.22l-.09,0s0,0,0,0Z"/><path class="cls-1" d="M.4,7.09l1.1-.15A3.44,3.44,0,0,0,.4,7.09Z"/><path class="cls-1" d="M1.82,6c-.15,0-.44,0-.73,0C1,6,1.32,6,1.82,6Z"/><polygon class="cls-1" points="0.24 7.98 0.53 8.12 0.81 8.17 0.24 7.98"/><path class="cls-1" d="M5.73,10.83c1.32-.12.51-.3.78-.46-.69-.28-2.9,0-3.06-.3l2.73,0c-.16-.27.39-.65-2-.88a5.27,5.27,0,0,1,1.12,0c-.1-.18-3.83-.1-2.92-.33a23.36,23.36,0,0,0,3.24,0l.18,0c-.17-.15-1.05-.35-.94-.45a6.86,6.86,0,0,1-1.79-.05,12.93,12.93,0,0,1-1.58,0c.73.14.26.21,1.15.29-.9.08-.28,0-1.17,0l.81.11c-.21.08-.89-.08-1.09,0,.52,0,1.09.12,1,.22l-.31,0c.35.08-.1.18,1.41.15l-1.51.09,1,0c-.41.21-2.88.29-1.61.56a3.29,3.29,0,0,1,1.06,0c.72-.12-.77-.14-.9-.25a23.79,23.79,0,0,0,2.87,0c-1.22.14.16.26-2.42.32-.16.17,1.1.24.5.41H1.91c1.7,0-.77.14,1,.27l.38-.1c.69,0,.72,0,.85.11l-.61,0A7.58,7.58,0,0,1,5.3,11c.22-.09-.8-.19-1.12-.28C4.91,10.77,5.94,10.75,5.73,10.83Z"/><path class="cls-1" d="M1.28,9.08l.58.05A3.75,3.75,0,0,0,1.28,9.08Z"/><path class="cls-1" d="M3.6,11.6c-.27.11-1,0-1.57.08.85.11,1.72-.13,3,0-.73.06.52.17.55.22-.71-.05-2.3,0-2.63,0,.45,0-.33.13-.36.2,1-.17.59.15,1.66,0,.94,0,1.62.18.9.25s-.53-.06-.56-.11c-1.28,0-.68.12-1.83.14,1.78.17,1.66.7,4.41.55.53-.06-.12-.1-.24-.17a6.76,6.76,0,0,1-2,0c.44-.07-.44-.2.56-.17l1,.12c.55-.38.4-.9,0-1.33l-.06.18a4.39,4.39,0,0,1-1.22-.18l-1.92.1c.14-.06-.15-.11.54-.11a12.8,12.8,0,0,0-2,0c-.35-.14.4-.16-.87-.27-1.57.23,1.33.19,0,.46Z"/><polygon class="cls-1" points="2.52 11.09 3.5 11.15 3.01 11.06 2.52 11.09"/><path class="cls-1" d="M6.79,11.18l-1,0C5.46,11.26,6.05,11.25,6.79,11.18Z"/><path class="cls-1" d="M2.68,12.49l.33.14.35-.09A2.56,2.56,0,0,1,2.68,12.49Z"/><path class="cls-1" d="M7.39,13.48c-.15-.2-1-.28,0-.5-1.18-.11-2.22,0-3.29,0-.25.11,1.74.1,2.12.21-1,.05.21.17,0,.28A10.36,10.36,0,0,1,7.39,13.48Z"/><path class="cls-1" d="M3.65,14.15c0,.09.74.18.29.25s-.82-.06-.66-.12c-1.35,0,.22.1-.67.2a3.21,3.21,0,0,1,.66,0c-.28.24,1.1.14.38.45A5.43,5.43,0,0,0,4.87,15c-1.09.18-1.08.09-2,.3.49,0,1.63-.08,2.69-.08-1.49.3.21.31-.9.5,0,0-.32-.05-.18-.1-1.46,0,.27.16,0,.27H3.23c.21.1,1,.27.14.39l-.61,0c.94.25.54.55,1,.76L3,17.11c.91.29.39-.3,2.16-.08-2.16,0,.7.15-.16.32s-.45-.17-1.42-.08c1.1,0,.32.09.64.18-1,0-.13.18-1.29.13l1.91.31c-.57.05-.47.14-.33.21,0-.17,1.49,0,2-.14-.47-.28-.82-.74-.25-1.09-1.45,0,0-.22-1.17-.28l1.34,0c-.31-.22-.81.05-1.34,0-.19-.1.69-.18,1.23-.17.08-.16-.41,0-1.2-.1l1.63-.1c-.45-.5-1.62-1.16-.59-1.73l-1.12,0c.64-.26-2.55-.43-.1-.66l-1-.08c.57.05,1.75,0,2.54,0-.4-.07,0-.15-.31-.22l-.56.13c-1-.09-.38-.19.5-.22a12,12,0,0,0-3,.16c2.16.27-2.07.27-1.12.53A6.12,6.12,0,0,0,3.65,14.15Z"/><path class="cls-1" d="M6.79,13.82l-.3,0Z"/><path class="cls-1" d="M4.55,18.1s0,0,.06.08C4.85,18.2,4.68,18.16,4.55,18.1Z"/><path class="cls-1" d="M6.14,13.47h0Z"/><polygon class="cls-1" points="3.23 13.34 3.2 13.41 3.74 13.4 3.23 13.34"/><path class="cls-1" d="M3.42,18.86h0Z"/><path class="cls-1" d="M3.33,20.92l0-.05C3.29,20.89,3.3,20.9,3.33,20.92Z"/><path class="cls-1" d="M4.54,25.86a2,2,0,0,0,.85.41H5.1a1.5,1.5,0,0,0,1.1.15l-.24,0c-.42-.17.48-.13.69-.26-.11-.16-1.24-.25-1-.4,0-.06.28,0,.5,0,.11-.14-.79-.2-.91-.3,2.41,0-.66-.43.92-.64-.19-.14,0-.32-.46-.49.65.09.06-.16.81-.12-1.56-.05.75-.49-1.25-.52.57-.23-.14,0,.35-.27.23,0,.23,0,.27.06.43-.11-.88-.16.08-.25.16-.21-.57,0-1.14-.16.25-.23.54-.16,1.43-.29-1,0-.52-.15-1.06-.26a.77.77,0,0,1-.65.08c.15-.26-.7-.2-1-.44,1.18-.13.06.24,1,0a4.26,4.26,0,0,0,1.35.35c.07-.2-.1-.45-.61-.67.16-.13.57.06.68,0,.55-.22-1.24-.34-.7-.52l.64,0c-.85-.11.21-.39-.27-.6a3.43,3.43,0,0,1-.77,0c1.67,0-.88-.29.3-.49a3.31,3.31,0,0,1-1.83-.31,9.27,9.27,0,0,1,1.05,0c-.64.2,1.2.2,1.69.36-.56-.13,0-.36-.76-.47l.87,0c.14-.18-2-.16-1.14-.36l.65,0c-.1-.39,1.13-.85-.39-1.16-.56,0-1.87.13-2.3.13.5.19,1.48.3,2,.44h-1A8,8,0,0,0,5.6,19c.53.12-.91.09-.32.22-1.07,0-1.19-.09-2.09-.09l.54.12c-.42,0-.36.07-.78,0,1.31.22-.46.3.14.53l.17-.13a1.16,1.16,0,0,1,.7.13,2.45,2.45,0,0,0-1,.21c.47.1,1.5.16,1.49.29-1.07,0-.57.22-1.46.25,1.06,0,.4.26,1,.27.22.08.11.17-.44.17l-.19,0,0,.07H3.08c0,.06.73.06.23.14A.66.66,0,0,1,2.93,21c-.15.17,1.57.3.66.44a5.88,5.88,0,0,0,1.58.18c-.37.05-1.2,0-1,.18.88.08-.31.16.26.27-.92-.15-.25,0-1.13-.13-.35.1.83.24.68.41l-.65,0c.31.07,1,.14.31.2h.59c-.29.12-.1.28-.72.4l1.11.15c-1.13.19-.07.45.86.6a.65.65,0,0,1-.47.18l-.37-.08c0,.11-.6.24.24.29.26.11-.58.08-.7.16,1.15.22-.77.64.93.71,0-.09.34-.26.27-.43.21.05.55,0,.59.07s-.57.26-.29.43l-1.06,0C3.54,25.36,6,25.63,4.54,25.86Z"/><path class="cls-1" d="M4.43,23.68l-.59.13.5,0C4.26,23.75,4.26,23.72,4.43,23.68Z"/><path class="cls-1" d="M4.34,23.79a1.09,1.09,0,0,0,.25.07s0-.05-.12-.07Z"/><path class="cls-1" d="M4.73,26.34s-.11.09,0,.14S4.87,26.37,4.73,26.34Z"/><polygon class="cls-1" points="5.02 26.49 5.16 26.43 5.05 26.42 5.02 26.49"/><path class="cls-1" d="M5.59,30.09l.31.2c-.17,0,0,.26-.27.18.37.12,0,.38.5.28-.1-.58.47-1.38-.07-2.05l.28.11c-.56-.35.77-.48-.45-.76l.65,0c.22-.16-.93-.31-.19-.48l-.28,0s.13-.06.14-.1H6.08c-.27-.11-.24-.18,0-.3s.1.05.15.09c.24,0-.24-.14-.23-.23a.77.77,0,0,1,.44,0c-.31-.27.52-.39-.61-.58-.22,0-.4.07-.5,0-.36.18.1.32.38.48v0c1.06.12-.25.09.2.3a4.62,4.62,0,0,1-.65-.18c-.79.24.6.34-.4.5l0,0c-.1,0,.1.1.19.15a1,1,0,0,0,.28-.11,3.21,3.21,0,0,0,.71.11c-.44.06.21.08,0,.17-.4,0-.36-.08-.57-.11l.27.11c0,.11-.44.11-.65.16.3.09.21-.05.63,0-.49.12-.34.61,0,.84,0-.08-.37,0-.31-.13s.1.16.36.16c.22.16,0,.37-.2.52l.25,0c.39.12-.32.32-.1.54h0c0,.08.57.14.44.27C5.82,30.15,5.85,30.08,5.59,30.09Z"/><path class="cls-1" d="M6,30.88l-.25-.08c-.06.08.25.18.41.17,0-.06.09-.13-.06-.14S5.93,30.84,6,30.88Z"/><path class="cls-1" d="M5.72,32.37s.1,0,.14,0c.06-.32.06-.71.26-.84s-.23-.12-.29-.26l.24-.06c-.13-.07.18-.29-.25-.21,0,0,.19.06.1.12H5.79l0,.14-.16,0c-.25.19.47.13.27.37h-.3c0,.16,0,.24-.13.38,0,0,.13,0,.08,0a.26.26,0,0,1,.21,0c.17.24-.16,0-.29.13.17.2.21.6,0,.71.14-.1.24,0,.2.16s-.1,0-.16,0-.08.1-.06.15a.16.16,0,0,1,.26.1C6,32.87,5.67,32.65,5.72,32.37Z"/><path class="cls-1" d="M5.9,32.45a0,0,0,0,0,0,0l0,.11Z"/></g></g></svg>