<svg xmlns="http://www.w3.org/2000/svg" viewBox="0 0 6.83 17.64"><defs><style>.cls-1{fill:#fff;}</style></defs><g id="Camada_2" data-name="Camada 2"><g id="Camada_1-2" data-name="Camada 1"><path class="cls-1" d="M5.84,0l0,0,.13,0Z"/><path class="cls-1" d="M5.16.13a.24.24,0,0,0,0,.08c.64.05.49.1.87,0C5.9.17,5.76,0,5.63,0s.14.1.07.14S5.61.09,5.48.05s.06.06-.08.12Z"/><path class="cls-1" d="M5.68.31,5.37.25C5.47.27,5.6.34,5.68.31Z"/><path class="cls-1" d="M5.74.37s-.26,0-.3,0L5.9.46Z"/><path class="cls-1" d="M5.67.59l0,0C5.81.63,5.73.61,5.67.59Z"/><path class="cls-1" d="M5.72.71c.23,0,.09,0,0-.09h0C5.5.62,5.08.53,5.23.5c-.05-.06.32,0,.1-.08H5C4.94.5,5.54.65,5.72.71Z"/><path class="cls-1" d="M5.67.59a.08.08,0,0,1,0,0C5.58.56,5.62.57,5.67.59Z"/><polygon class="cls-1" points="5.73 0.48 5.66 0.45 5.51 0.43 5.73 0.48"/><path class="cls-1" d="M5.75.89c-.7-.12.09-.11-.42-.21,0,.08-.54,0-.92,0l.14.11A8.32,8.32,0,0,0,5.75.89Z"/><path class="cls-1" d="M3.7.73l.12,0S3.77.74,3.7.73Z"/><path class="cls-1" d="M4.9,1.32,4.07,1a4.3,4.3,0,0,1,.65.15c.16-.06-.4-.16-.26-.2.82.11,0,.12.75.2,0,0,0-.13-.65-.26h.56L4.3.8c-.28,0,.59.16,0,.08C3.91.83,3.87.8,3.82.77c.11.06-.86,0-.89.09A17.11,17.11,0,0,0,4.9,1.32Z"/><polygon class="cls-1" points="3.78 1.16 3.37 1.1 3.91 1.18 3.78 1.16"/><path class="cls-1" d="M5,1.55,4.4,1.36l.51.06-.84-.15c-1-.11.2.15.37.23a7.75,7.75,0,0,1-1.55-.2c.07,0,.32,0,.44,0-1.24-.11-.32.14,0,.24.12,0,.45.05.38,0l.31.1C4.89,1.71,5.11,1.7,5,1.55Z"/><path class="cls-1" d="M5.08,1.39c.06,0,0,.05-.15,0C5.19,1.45,5.37,1.47,5.08,1.39Z"/><path class="cls-1" d="M3.3,1.55c.08,0,.06,0,0,0S3.23,1.52,3.3,1.55Z"/><path class="cls-1" d="M4.62,1.7l-.15,0L5,1.8A1.28,1.28,0,0,0,4.62,1.7Z"/><path class="cls-1" d="M1.12,3.77c.69.1,1,.13.93.06a8.38,8.38,0,0,1,1.23.29c.6,0,1.07.17,2,.29.1-.06-1.07-.28-.81-.32s.65.11,1,.14c-.56-.18-1.33-.47-.56-.45.34,0-.06-.18-.41-.33.49-.27-.18-.73.6-1L3.67,2.21c.68.09,0-.08.9.07-.17,0,0,0,0,.06,1.2.11,0-.22.42-.24-.23,0-1.33-.18-1.51-.24,1.38.23.06-.1,1.61.12.41,0-1.16-.19-.9-.25-.76-.13-.43,0-1-.05s.34,0-.48-.16c-.57.07.85.59,1.34.9l-.85-.16c.54.21.52.41-1.06.26.9.12-.62.08,1.46.39a1.73,1.73,0,0,0-.62,0L3.57,3c0,.06-1.07-.11-1,0a18.7,18.7,0,0,1,1.95.33L1.54,3.1c.31,0,.67.09,1.09.13-.36,0,.55.13.87.19a14.22,14.22,0,0,1-1.83-.24c-.44,0,1.94.43,1.11.37l1,.13c.22.13-.92,0-.61.17a6,6,0,0,1-1.77-.4,8.77,8.77,0,0,1-.88-.06l2.31.53C1.22,3.62,1.25,3.75,1.12,3.77Z"/><path class="cls-1" d="M.54,3.39,0,3.28c.08,0,.17.05.09.05Z"/><path class="cls-1" d="M1.12,3.77,1,3.74A.52.52,0,0,0,1.12,3.77Z"/><path class="cls-1" d="M4.92,3.78h0Z"/><path class="cls-1" d="M.44,3l1.1.1A7.07,7.07,0,0,0,.44,3Z"/><path class="cls-1" d="M2,2.63c-.15,0-.43-.08-.72-.14C1.16,2.52,1.45,2.58,2,2.63Z"/><polygon class="cls-1" points="0.21 3.45 0.49 3.57 0.76 3.64 0.21 3.45"/><path class="cls-1" d="M5.39,5.81c1.32.14.54-.08.82-.12-.66-.26-2.87-.47-3-.63L5.9,5.5c-.13-.16.44-.28-1.88-.76a7.77,7.77,0,0,1,1.1.17C5,4.8,1.34,4.27,2.26,4.28c1.62.38,1.57.21,3.2.5l.19,0c-.17-.1-1-.34-.89-.38A13.91,13.91,0,0,1,3,4.14c-.14,0-.9-.12-1.57-.23a8.22,8.22,0,0,0,1.12.33c-.9-.1-.28-.07-1.17-.16l.8.18c-.22,0-.88-.18-1.08-.15.51.09,1.06.23.92.27l-.3-.07c.34.1-.11.09,1.38.3L1.6,4.42l1,.15c-.42,0-2.87-.29-1.63,0A6.31,6.31,0,0,1,2,4.8c.72,0-.75-.19-.88-.27C2.17,4.68,3.37,5,4,5a10.91,10.91,0,0,1-2.42-.2c-.18.07,1.06.3.46.3L1.65,5c1.68.28-.77,0,1,.3H3a2.66,2.66,0,0,1,.83.19l-.6-.09A16.21,16.21,0,0,1,5,5.83c.22,0-.77-.22-1.08-.32A11.65,11.65,0,0,1,5.39,5.81Z"/><path class="cls-1" d="M1.14,4.2l.57.11Z"/><path class="cls-1" d="M3.23,5.89c-.28,0-1-.17-1.56-.2.83.19,1.71.2,2.94.45-.72-.08.51.17.53.2-.7-.13-2.27-.37-2.6-.41C3,6,2.21,6,2.17,6c1,.06.57.17,1.64.25s1.58.34.87.27-.52-.12-.54-.14c-1.26-.22-.68,0-1.82-.21a26.78,26.78,0,0,0,4.31,1c.53,0-.12-.08-.23-.13a11.45,11.45,0,0,1-1.93-.31c.44,0-.42-.17.57,0l1,.22c.58-.11.47-.41.1-.71l-.08.09A7.24,7.24,0,0,1,4.88,6L3,5.76c.14,0-.13-.08.55,0-.81-.16-1.3-.22-1.95-.3-.34-.13.41,0-.84-.28-1.57-.12,1.3.31-.06.24Z"/><polygon class="cls-1" points="2.2 5.46 3.17 5.64 2.69 5.52 2.2 5.46"/><path class="cls-1" d="M6.41,6.16,5.39,6C5.1,6,5.68,6.08,6.41,6.16Z"/><path class="cls-1" d="M2.24,6.22l.33.13h.35A6.11,6.11,0,0,1,2.24,6.22Z"/><path class="cls-1" d="M6.82,7.47c-.14-.12-1-.3,0-.27C5.65,7,4.61,6.88,3.56,6.7c-.26,0,1.71.31,2.07.43-1-.13.2.12,0,.14C6,7.33,6.45,7.4,6.82,7.47Z"/><path class="cls-1" d="M3.07,7.25s.72.21.26.18-.8-.16-.64-.17c-1.33-.19.21.09-.67,0,.14,0,.36,0,.65.1-.3.08,1.08.24.33.29a10.5,10.5,0,0,0,1.2.23c-1.08-.07-1.08-.12-2-.15l2.67.38c-1.5-.07.18.19-.93.12,0,0-.32-.07-.17-.08-1.45-.21.25.13,0,.14L2.51,8.1c.2.08,1,.3.1.23L2,8.22c.92.28.49.37.93.55l-.72,0c.87.3.41-.09,2.14.3-2.14-.32.68.19-.18.14S3.75,9,2.78,8.9c1.09.19.31.1.62.19-1-.17-.14.08-1.28-.13L4,9.42c-.57-.06-.48,0-.34.06s1.47.26,2,.23c-.44-.22-.75-.52-.16-.61C4,8.85,5.47,9,4.3,8.77L5.62,9a6.86,6.86,0,0,0-1.32-.2c-.18-.09.7,0,1.23.1.09-.08-.4-.08-1.18-.24L6,8.81c-.4-.34-1.5-.87-.44-1L4.42,7.65c.65,0-2.48-.62,0-.37l-1-.19c.56.11,1.73.24,2.5.4-.38-.1.07-.07-.28-.16l-.57,0c-1-.2-.36-.16.51,0a24,24,0,0,0-3-.38C4.69,7.37.51,6.72,1.43,7A11.48,11.48,0,0,0,3.07,7.25Z"/><path class="cls-1" d="M6.2,7.56l-.3-.07Z"/><path class="cls-1" d="M3.63,9.48s0,0,.05,0C3.92,9.58,3.75,9.54,3.63,9.48Z"/><path class="cls-1" d="M5.58,7.27h0Z"/><polygon class="cls-1" points="2.72 6.76 2.69 6.79 3.22 6.87 2.72 6.76"/><path class="cls-1" d="M2.45,9.71l.48.08Z"/><path class="cls-1" d="M2.2,10.79l0,0C2.15,10.77,2.16,10.78,2.2,10.79Z"/><path class="cls-1" d="M3,13.59a2.71,2.71,0,0,0,.8.35l-.29,0a2.71,2.71,0,0,0,1.08.25l-.24-.05c-.39-.16.49,0,.71,0-.09-.1-1.2-.33-.92-.36,0,0,.28,0,.51.06s-.77-.23-.88-.3c2.38.35-.61-.33,1-.2-.18-.1.07-.16-.41-.33.63.15.07-.07.81.06-1.54-.26.78-.14-1.2-.46.59,0-.13,0,.37-.1.23,0,.22.06.26.08.44,0-.85-.22.1-.12.18-.09-.56-.11-1.11-.26A5.2,5.2,0,0,1,5,12.2c-1-.17-.51-.16-1-.3a1.54,1.54,0,0,1-.65-.06c.18-.12-.68-.22-1-.4,1.18.12,0,.14,1,.17a7.21,7.21,0,0,0,1.3.39c.08-.1-.06-.25-.54-.45.17,0,.55.12.67.08.57,0-1.19-.37-.65-.38l.63.12c-.83-.19.24-.17-.21-.36a5.42,5.42,0,0,1-.77-.11c1.65.26-.85-.29.34-.21a6.27,6.27,0,0,1-1.78-.44c.29,0,.75.09,1,.14-.66,0,1.16.29,1.64.45-.54-.16.07-.18-.72-.37l.86.16c.15-.08-1.94-.39-1.1-.37l.64.11c-.06-.22,1.19-.27-.28-.67-.56-.11-1.86-.22-2.29-.29.48.18,1.44.39,1.9.54l-1-.16a16,16,0,0,0,1.67.32c.51.14-.91-.1-.34.07L2.2,9.8l.52.15c-.4-.08-.35,0-.76-.1,1.27.31-.49.09.09.3l.18,0a2.32,2.32,0,0,1,.68.17,3.92,3.92,0,0,0-1,0,9.77,9.77,0,0,1,1.44.38c-1.06-.18-.58,0-1.46-.1,1,.18.37.2,1,.31.21.07.1.1-.45,0l-.17-.06,0,0-.22,0s.71.15.21.12a1.38,1.38,0,0,1-.37-.11c-.16.07,1.53.4.62.34A10.64,10.64,0,0,0,4,11.47c-.37,0-1.19-.17-1.05-.07.86.18-.32,0,.23.18-.9-.22-.25,0-1.11-.24-.35,0,.8.25.64.32L2,11.58c.3.08,1,.22.29.15l.59.09c-.3,0-.12.13-.74.1l1.08.25c-1.14-.08-.11.23.8.45a1,1,0,0,1-.48,0l-.36-.1c0,.05-.61,0,.21.2.25.09-.57-.05-.7,0,1.12.29-.82.22.86.52,0-.05.36-.08.3-.18.21,0,.55.09.58.12s-.58.05-.32.19l-1.05-.18C2,13.18,4.41,13.69,3,13.59Z"/><path class="cls-1" d="M3.05,12.42l-.6,0,.51.07C2.87,12.44,2.87,12.41,3.05,12.42Z"/><path class="cls-1" d="M3,12.47a1.3,1.3,0,0,0,.23.07s0,0-.11,0Z"/><path class="cls-1" d="M3.12,13.88s-.11,0,0,.07S3.27,13.92,3.12,13.88Z"/><polygon class="cls-1" points="3.4 14 3.54 13.99 3.44 13.97 3.4 14"/><path class="cls-1" d="M3.66,16l.3.15c-.17,0,0,.14-.28.06.34.12-.06.19.47.22-.05-.32.57-.66.09-1.09l.27.1c-.52-.28.8-.14-.38-.48l.64.12c.23-.05-.89-.3-.15-.28l-.28,0s.14,0,.15,0l-.13,0c-.26-.1-.22-.13,0-.16s.08,0,.14.07c.24,0-.23-.11-.21-.16a1.64,1.64,0,0,1,.43.07c-.28-.18.55-.12-.56-.4-.21,0-.39,0-.48-.09-.38,0,.06.19.33.32v0c1,.23-.25,0,.18.19-.42-.09-.4-.14-.63-.19-.8,0,.56.27-.44.2h0c-.09,0,.09.06.18.11a1.32,1.32,0,0,0,.29,0,5,5,0,0,0,.69.17c-.44,0,.2.07,0,.09a2.16,2.16,0,0,1-.56-.15l.26.1c0,.06-.44,0-.65,0,.28.09.21,0,.61.1-.49,0-.38.27-.09.44,0,0-.36-.07-.29-.11-.09,0,.08.1.34.14s0,.2-.24.24l.25,0c.38.13-.34.12-.15.27h0s.55.16.41.21A2.52,2.52,0,0,0,3.66,16Z"/><path class="cls-1" d="M4,16.47l-.24-.07c-.07,0,.24.13.4.15,0,0,.09-.06,0-.09S3.94,16.45,4,16.47Z"/><path class="cls-1" d="M3.6,17.23s.09,0,.13,0c.09-.16.12-.37.33-.4s-.22-.11-.26-.19H4c-.13-.06.2-.13-.22-.15,0,0,.17.06.08.08l-.13,0v.08l-.15-.05c-.27.07.45.15.23.24l-.3,0c0,.08,0,.13-.16.18,0,0,.13,0,.09,0a.52.52,0,0,1,.21,0c.15.15-.15-.05-.3,0,.15.14.15.35,0,.38.14,0,.23.07.18.12s-.1,0-.15-.05-.09,0-.07.07.24,0,.25.09C3.8,17.53,3.52,17.37,3.6,17.23Z"/><path class="cls-1" d="M3.77,17.3s0,0,0,0l0,.05Z"/></g></g></svg>