<svg xmlns="http://www.w3.org/2000/svg" viewBox="0 0 6.95 26.69"><defs><style>.cls-1{fill:#fff;}</style></defs><g id="Camada_2" data-name="Camada 2"><g id="Camada_1-2" data-name="Camada 1"><path class="cls-1" d="M6.64,0l0,.09.12.05A.91.91,0,0,1,6.64,0Z"/><path class="cls-1" d="M5.92.34a1,1,0,0,0,0,.17c.65,0,.49.11.89-.08C6.67.32,6.56.09,6.42.1s.13.18,0,.27C6.34.3,6.39.21,6.26.14c-.23.11.06.1-.1.25Z"/><path class="cls-1" d="M6.43.63A1.42,1.42,0,0,0,6.12.55C6.22.58,6.34.68,6.43.63Z"/><path class="cls-1" d="M6.48.74c-.05.1-.26-.05-.3,0l.44.19Z"/><path class="cls-1" d="M6.37,1.16a.21.21,0,0,0,0,.06C6.51,1.22,6.43,1.19,6.37,1.16Z"/><path class="cls-1" d="M6.4,1.38c.23,0,.1-.08,0-.16h0c-.18,0-.59-.1-.44-.17,0-.11.33,0,.12-.16L5.69,1C5.63,1.1,6.22,1.29,6.4,1.38Z"/><path class="cls-1" d="M6.37,1.16a.07.07,0,0,1,0-.06C6.28,1.11,6.32,1.14,6.37,1.16Z"/><polygon class="cls-1" points="6.45 0.95 6.38 0.89 6.23 0.88 6.45 0.95"/><path class="cls-1" d="M6.39,1.74c-.69-.14.12-.23-.39-.35,0,.14-.56.16-.93.07a1.88,1.88,0,0,0,.12.18A3.85,3.85,0,0,0,6.39,1.74Z"/><path class="cls-1" d="M4.33,1.7a.27.27,0,0,1,.11.06A.27.27,0,0,0,4.33,1.7Z"/><path class="cls-1" d="M5.44,2.69c-.29-.17-.55-.34-.79-.5.27.08.57.11.64.21.18-.13-.38-.25-.23-.36.82.1,0,.23.73.29,0-.1,0-.24-.61-.42l.57,0-.83-.1c-.28,0,.58.23,0,.16-.38,0-.41-.11-.46-.16.1.11-.88.11-.93.3S5,2.48,5.44,2.69Z"/><polygon class="cls-1" points="4.33 2.52 3.92 2.47 4.46 2.54 4.33 2.52"/><path class="cls-1" d="M5.54,3.12l-.61-.29a4,4,0,0,1,.52,0c-.25,0-.64-.15-.84-.18-1-.08.18.27.34.4-.58.17-.54-.11-1.56-.17.08-.07.32,0,.46-.11-1.25-.05-.35.32-.08.47.13,0,.46,0,.39,0l.31.16C5.37,3.45,5.6,3.39,5.54,3.12Z"/><path class="cls-1" d="M5.62,2.8c0,.08,0,.09-.16.07C5.72,2.9,5.91,2.91,5.62,2.8Z"/><path class="cls-1" d="M3.77,3.34c.08,0,.06,0,0-.06S3.7,3.3,3.77,3.34Z"/><path class="cls-1" d="M5.1,3.45l-.16.11.53,0A.83.83,0,0,0,5.1,3.45Z"/><path class="cls-1" d="M1.15,7.93c.69.11,1,.12.94,0,.91.16.69.26,1.2.41a12.35,12.35,0,0,1,2,.31c.11-.14-1.06-.41-.78-.52.25,0,.65.11,1,.15C4.9,8,4.16,7.52,4.94,7.47c.36-.13,0-.33-.36-.59.55-.58-.06-1.39.78-2L4,4.59c.69.08.06-.17.92,0-.18,0,0,.07,0,.12,1.22,0,0-.41.47-.52a8.69,8.69,0,0,1-1.5-.26c1.38.25.08-.2,1.63,0,.42-.12-1.16-.21-.88-.35-.76-.15-.45.11-1.06,0s.36-.12-.46-.25c-.6.21.77,1,1.21,1.57l-.85-.2c.52.33.46.71-1.13.63.9.11-.65.25,1.43.57A1.27,1.27,0,0,0,3.13,6l.66.14c-.06.11-1.08-.08-1.07.06a9.52,9.52,0,0,1,1.94.38h-3c.31,0,.66.09,1.08.12-.36,0,.55.17.87.25a8.15,8.15,0,0,1-1.83-.23c-.46.1,1.9.58,1.07.57l1,.12c.21.22-.95.17-.65.42A3.5,3.5,0,0,1,1.5,7.29a6.46,6.46,0,0,1-.89,0c.69.2,1.63.5,2.28.72C1.27,7.63,1.28,7.89,1.15,7.93Z"/><path class="cls-1" d="M.61,7.29.08,7.14c.08,0,.16.07.08.08Z"/><path class="cls-1" d="M1.15,7.93,1,7.91A.28.28,0,0,0,1.15,7.93Z"/><path class="cls-1" d="M5,7.46h-.1s0,0,0,0Z"/><path class="cls-1" d="M.58,6.55c.37,0,.74,0,1.12,0A3.59,3.59,0,0,0,.58,6.55Z"/><path class="cls-1" d="M2.18,5.61c-.14-.06-.42-.09-.71-.16C1.4,5.51,1.68,5.58,2.18,5.61Z"/><polygon class="cls-1" points="0.27 7.45 0.53 7.64 0.79 7.74 0.27 7.45"/><path class="cls-1" d="M5.17,11.34c1.32.09.56-.23.85-.35-.63-.4-2.85-.52-3-.83l2.68.51c-.1-.3.5-.6-1.79-1.24a5.08,5.08,0,0,1,1.1.19c-.07-.2-3.76-.74-2.82-.83,1.59.51,1.57.19,3.19.53l.18.07c-.15-.19-1-.54-.85-.63A6.4,6.4,0,0,1,3,8.41a11.46,11.46,0,0,1-1.56-.24c.7.27.22.27,1.09.5-.91-.07-.28-.1-1.17-.17l.78.25c-.22.05-.86-.23-1.08-.14.51.11,1.05.31.91.39l-.3-.08c.33.14-.13.17,1.36.39l-1.5-.16,1,.16c-.44.14-2.89-.19-1.68.3a3.67,3.67,0,0,1,1,.21c.72,0-.74-.27-.86-.41a23.77,23.77,0,0,0,2.83.53c-1.23-.06.11.3-2.44-.07-.19.15,1,.43.42.51l-.38-.07c1.68.32-.78,0,.92.44l.39,0c.69.12.7.17.82.26a3.17,3.17,0,0,0-.6-.09,7.4,7.4,0,0,1,1.72.55c.23,0-.75-.33-1-.48C4.37,11.13,5.39,11.29,5.17,11.34Z"/><path class="cls-1" d="M1.09,8.76l.57.16A3.53,3.53,0,0,0,1.09,8.76Z"/><path class="cls-1" d="M2.94,11.78c-.29.07-1-.2-1.56-.18.81.25,1.71.15,2.93.48-.73-.06.49.27.51.32C4.13,12.23,2.55,12,2.23,12c.43.12-.35.09-.4.16,1,0,.56.25,1.64.27.93.17,1.57.45.85.4s-.51-.15-.54-.2A13.89,13.89,0,0,0,2,12.42c1.72.47,1.51,1,4.24,1.31.54,0-.1-.13-.2-.21a6.68,6.68,0,0,1-1.94-.35c.46,0-.39-.28.59-.08l1,.29c.62-.3.56-.86.22-1.38l-.09.18a3.89,3.89,0,0,1-1.17-.39L2.7,11.56c.14,0-.13-.13.55,0a11.35,11.35,0,0,0-1.95-.33c-.32-.2.43-.1-.81-.43-1.58,0,1.28.43-.11.48Z"/><polygon class="cls-1" points="1.96 11.07 2.92 11.29 2.45 11.12 1.96 11.07"/><path class="cls-1" d="M6.15,11.88l-1-.2C4.83,11.74,5.42,11.83,6.15,11.88Z"/><path class="cls-1" d="M1.87,12.55l.3.21.36,0A2.85,2.85,0,0,1,1.87,12.55Z"/><path class="cls-1" d="M6.34,14.37c-.11-.22-.93-.45,0-.52-1.13-.31-2.19-.33-3.24-.55-.27.07,1.7.39,2.05.57-1-.13.18.21-.07.28C5.52,14.21,6,14.28,6.34,14.37Z"/><path class="cls-1" d="M2.53,14.44c0,.09.7.31.25.31s-.8-.2-.64-.23c-1.33-.2.2.13-.69.09a2.86,2.86,0,0,1,.66.09c-.33.2,1.06.33.28.53a5.11,5.11,0,0,0,1.19.29c-1.1,0-1.08-.09-2,0,.48.08,1.62.2,2.67.38-1.52.06.15.35-1,.36,0,0-.31-.1-.16-.13-1.44-.22.24.21-.06.28l-1.21-.22c.18.13,1,.45.06.43l-.6-.13c.89.42.44.65.85.95H1.4c.85.46.44-.24,2.15.28-2.14-.33.66.28-.21.31s-.42-.25-1.39-.32c1.08.22.3.14.6.29-1-.19-.16.17-1.29-.08l1.82.65c-.58-.05-.49.07-.36.16,0-.17,1.46.3,2,.18-.41-.36-.67-.91,0-1.17-1.43-.28.06-.23-1.1-.49l1.32.18c-.26-.28-.8-.08-1.32-.22-.17-.14.72-.07,1.24,0,.11-.15-.39-.09-1.16-.31l1.63.17c-.36-.59-1.39-1.48-.28-1.9L3.85,15c.67-.16-2.44-.88,0-.7l-1-.25c.55.14,1.73.25,2.49.45-.37-.14.08-.14-.26-.28l-.57,0c-1-.26-.35-.26.53-.14a11.84,11.84,0,0,0-3-.35c2.09.65-2.09-.06-1.2.37A5.79,5.79,0,0,0,2.53,14.44Z"/><path class="cls-1" d="M5.69,14.62l-.3-.09Z"/><path class="cls-1" d="M2.72,18.7a.16.16,0,0,0,0,.09C3,18.86,2.84,18.79,2.72,18.7Z"/><path class="cls-1" d="M5.11,14.15h0Z"/><polygon class="cls-1" points="2.26 13.53 2.22 13.6 2.75 13.67 2.26 13.53"/><path class="cls-1" d="M1.47,19.3l.48.08Z"/><path class="cls-1" d="M1,21.42l0,0C1,21.38,1,21.4,1,21.42Z"/><path class="cls-1" d="M2.61,26.59A3.1,3.1,0,0,0,3.71,26l-.18.23a1.66,1.66,0,0,0,.71-.83l-.15.19c-.35.3.15-.35.22-.5-.11.07-1,.83-.91.63-.07,0,.18-.2.36-.35,0-.08-.78.51-1,.58,1-.8.85-.71.49-.55a2.53,2.53,0,0,1-.5.19c-.12,0,.07-.14.47-.39-.18,0,.08-.21-.41-.13.65-.19.09-.16.83-.39-.77.26-.57.08-.43,0s.26-.19-.74-.06c.61-.29-.13,0,.4-.29.22,0,.21,0,.25,0,.45-.08-.83-.13.12-.19.2-.16-.54-.05-1.09-.23.29-.24.56-.1,1.46-.08-1-.19-.49-.25-1-.45a.75.75,0,0,1-.66,0c.21-.24-.65-.33-.91-.63,1.18.07,0,.26,1,.19a4.38,4.38,0,0,0,1.26.59c.1-.2,0-.49-.48-.81.19-.1.55.16.68.08.58-.14-1.16-.56-.6-.66l.63.15c-.82-.26.27-.37-.16-.67a2.94,2.94,0,0,1-.77-.11c1.65.29-.82-.45.39-.46a3.23,3.23,0,0,1-1.75-.62,7.22,7.22,0,0,1,1,.14c-.67.1,1.14.41,1.6.66-.52-.24.1-.37-.67-.62l.85.19c.17-.17-1.92-.5-1.06-.56l.64.13c0-.43,1.27-.7-.17-1.28-.55-.13-1.87-.18-2.3-.25.46.28,1.41.56,1.85.79l-1-.18a7.13,7.13,0,0,0,1.65.4c.5.21-.91-.06-.36.18-1.05-.19-1.16-.3-2-.45l.51.21c-.41-.11-.36,0-.77-.09,1.25.44-.52.23,0,.57l.19-.1c.58.1.51.16.67.25a2.19,2.19,0,0,0-1.06,0c.44.18,1.44.41,1.41.55-1-.21-.6.14-1.48,0,1,.21.35.34.94.46.21.11.08.2-.46.1A.56.56,0,0,1,1,21.42l0,.07-.22,0c0,.07.7.19.2.19a.65.65,0,0,1-.37-.15c-.17.16,1.5.58.58.57a5.89,5.89,0,0,0,1.53.46c-.38,0-1.2-.17-1.07,0,.85.24-.33.12.21.32-.88-.3-.25,0-1.1-.32-.35,0,.78.39.61.54L.7,23c.29.12,1,.31.26.26l.59.09a.5.5,0,0,0-.27.17.92.92,0,0,1-.53.27,10.54,10.54,0,0,0,1.07.28c-.6.11-.64.32-.42.45a2.31,2.31,0,0,0,1.17.16,1.12,1.12,0,0,1-.51.3,2.21,2.21,0,0,1-.38,0c-.06.13-.72.54.19.29.26,0-.66.34-.83.52.63-.12.36.17.16.47a2.19,2.19,0,0,0-.11.19s0,.1.08.06a4.11,4.11,0,0,0,1-.5s0,0,0-.05,0-.06.08-.14.18-.24.16-.31c.21-.06.57-.27.6-.25s-.14.18-.27.31-.09.14.12.07l-1.17.75c-.41.44.23.2.68,0S3.07,26,2.61,26.59Z"/><path class="cls-1" d="M1.56,24.76c-.22.1-.44.2-.66.32l.54-.14C1.36,24.9,1.37,24.84,1.56,24.76Z"/><path class="cls-1" d="M1.44,24.94a.78.78,0,0,0,.24,0s0-.06-.1-.07Z"/><path class="cls-1" d="M3.39,26.53s0,.11.17,0S3.52,26.4,3.39,26.53Z"/><polygon class="cls-1" points="3.73 26.29 3.75 26.14 3.68 26.24 3.73 26.29"/><path class="cls-1" d="M6.46,25.13a1.51,1.51,0,0,0-.22-.32c.12.05,0-.18.19,0-.3-.23,0-.28-.48-.34.1.14.19.37.09.4a.29.29,0,0,0-.06.2s0,.15,0,.18l-.06.18c0-.11,0-.22,0-.33,0,.31-.11.07-.16,0s0-.09-.17.57L5.6,25c0-.14-.36.92-.41.18l0,.29s0-.15-.09-.16v.13c-.15.25-.24.2-.28,0s0-.1.09-.16c0-.22-.14.25-.21.24a1.14,1.14,0,0,1,.11-.4c-.12.16-.16.06-.2.05s-.1.07-.43.52C4,25.82,4,26,3.9,26c0,.32.39,0,.6-.28h0c.39-.95,0,.23.3-.18-.12.4-.21.38-.31.59,0,.41.18.27.28.16s.17-.19.19.31l0,0c0,.1.12-.08.19-.17a1.46,1.46,0,0,0-.07-.3,3.63,3.63,0,0,0,.2-.69c0,.45.11-.19.18.05,0,.4-.13.34-.2.55l.16-.25c.12,0,0,.45.08.67.13-.29,0-.22.08-.64a.34.34,0,0,0,.67.07s.12.44,0,.36c.07.1.13-.1,0-.42,0-.1,0-.19.06-.2s.1,0,.17.07l-.14-.21c-.09-.26,0-.21,0-.19s.15,0,.1-.13h0c0-.1-.31-.43-.26-.44C6.32,25,6.3,25,6.46,25.13Z"/><path class="cls-1" d="M6.1,24.4l.24.11c.06-.05-.22-.23-.39-.23,0,.06-.11.12,0,.14S6.12,24.44,6.1,24.4Z"/><path class="cls-1" d="M6.6,22.89s-.09,0-.13-.06c-.11.32-.18.72-.4.82s.2.17.24.32l-.26,0c.13.1-.22.27.21.27,0,0-.17-.1-.07-.15l.13,0V24l.15.08c.28-.16-.44-.23-.2-.44l.3.05c.06-.16,0-.26.2-.37,0,0-.13,0-.09,0s-.14,0-.22,0c-.12-.28.15.06.31-.09-.13-.24-.09-.66.11-.74-.16.07-.23-.09-.17-.21s.1.06.15.09.1-.09.09-.15a.16.16,0,0,1-.24-.15C6.45,22.33,6.71,22.61,6.6,22.89Z"/><path class="cls-1" d="M6.44,22.77a.06.06,0,0,0,0,.06l0-.11Z"/></g></g></svg>