<svg xmlns="http://www.w3.org/2000/svg" viewBox="0 0 7.82 33.07"><defs><style>.cls-1{fill:#fff;}</style></defs><g id="Camada_2" data-name="Camada 2"><g id="Camada_1-2" data-name="Camada 1"><path class="cls-1" d="M4.78,0l0,.09.13,0A.35.35,0,0,1,4.78,0Z"/><path class="cls-1" d="M4.15.47a.81.81,0,0,0,0,.16C4.8.5,4.66.63,5,.36,4.88.29,4.72.11,4.58.14s.17.14.12.24S4.58.25,4.44.21c-.2.16.08.09,0,.26Z"/><path class="cls-1" d="M4.71.63a1.66,1.66,0,0,0-.31,0C4.5.63,4.64.7,4.71.63Z"/><path class="cls-1" d="M4.78.72c0,.1-.26,0-.3,0L5,.83Z"/><path class="cls-1" d="M4.77,1.13l.06,0C4.92,1.15,4.84,1.15,4.77,1.13Z"/><path class="cls-1" d="M4.86,1.33c.22-.05.07-.1,0-.16h0c-.17.07-.6,0-.47-.06C4.26,1,4.63,1,4.4,1l-.34.13C4,1.24,4.66,1.28,4.86,1.33Z"/><path class="cls-1" d="M4.77,1.13l0,0C4.68,1.11,4.72,1.12,4.77,1.13Z"/><polygon class="cls-1" points="4.81 0.92 4.73 0.88 4.58 0.9 4.81 0.92"/><path class="cls-1" d="M4.93,1.66c-.71,0,.06-.24-.46-.24,0,.14-.51.28-.9.27l.17.14A4.06,4.06,0,0,0,4.93,1.66Z"/><path class="cls-1" d="M2.91,2.08l.12,0A.19.19,0,0,0,2.91,2.08Z"/><path class="cls-1" d="M4.22,2.75c-.32-.1-.62-.19-.89-.29a1.93,1.93,0,0,1,.67,0c.15-.16-.42-.14-.3-.28.82-.09,0,.23.78.11,0-.09-.07-.22-.7-.26l.55-.17L3.5,2c-.27.07.62.08,0,.15-.38,0-.42,0-.48-.05.12.08-.83.3-.84.49S3.75,2.65,4.22,2.75Z"/><polygon class="cls-1" points="3.09 2.83 2.68 2.88 3.23 2.83 3.09 2.83"/><path class="cls-1" d="M4.41,3.13,3.75,3c.09,0,.32-.05.51-.08-.25,0-.65,0-.85,0-1,.15.24.21.42.29-.53.29-.55,0-1.56.19.06-.08.31-.1.42-.2-1.22.23-.27.37,0,.45.11,0,.45-.06.37-.12l.33.09C4.32,3.47,4.53,3.36,4.41,3.13Z"/><path class="cls-1" d="M4.42,2.8c.06.07,0,.1-.14.11C4.54,2.88,4.72,2.84,4.42,2.8Z"/><path class="cls-1" d="M2.74,3.71c.07,0,0,0,0,0S2.66,3.69,2.74,3.71Z"/><path class="cls-1" d="M4.05,3.53l-.12.13.52-.08A.88.88,0,0,0,4.05,3.53Z"/><path class="cls-1" d="M1.23,8.53c.69,0,1-.12.91-.21a4.77,4.77,0,0,1,1.26.12,11.7,11.7,0,0,1,2-.15c.08-.15-1.12-.14-.88-.31.26,0,.66,0,1-.08-.6-.15-1.43-.41-.68-.63.33-.2-.1-.3-.48-.47.41-.65-.38-1.26.32-2H3.27c.69-.08,0-.16.9-.2-.17,0,0,.08,0,.12,1.19-.22-.09-.38.34-.58A11.55,11.55,0,0,1,3,4.24c1.4-.07,0-.21,1.59-.35.38-.2-1.18.06-.94-.13-.77,0-.41.2-1,.27s.32-.19-.51-.13c-.54.33,1,.77,1.53,1.18H2.76c.57.19.6.55-1,.83.91-.1-.57.37,1.53.21a1.31,1.31,0,0,0-.6.19l.67,0c0,.12-1.07.17-1,.3a9.7,9.7,0,0,1,2-.08l-2.89.65c.31,0,.67-.06,1.09-.14-.35.12.57,0,.9,0a9.77,9.77,0,0,1-1.84.19c-.42.19,2,.11,1.17.28l1-.1c.25.15-.89.36-.55.53a3.64,3.64,0,0,1-1.82-.12,6.62,6.62,0,0,1-.86.2c.71,0,1.69.11,2.38.16C1.27,8.23,1.34,8.46,1.23,8.53Z"/><path class="cls-1" d="M.56,8.06,0,8c.09,0,.18,0,.1.05C.29,8.09.43,8.07.56,8.06Z"/><path class="cls-1" d="M1.23,8.53l-.18,0A.29.29,0,0,0,1.23,8.53Z"/><path class="cls-1" d="M4.9,7.24l-.09,0s0,0,0,0Z"/><path class="cls-1" d="M.36,7.38c.36-.06.73-.13,1.09-.21A3.45,3.45,0,0,0,.36,7.38Z"/><path class="cls-1" d="M1.7,6.16c-.15,0-.43,0-.72,0C.92,6.24,1.21,6.25,1.7,6.16Z"/><polygon class="cls-1" points="0.25 8.28 0.56 8.4 0.83 8.44 0.25 8.28"/><path class="cls-1" d="M5.91,10.79c1.31-.2.5-.34.75-.51-.7-.23-2.89.15-3.07-.11l2.73-.12c-.18-.26.35-.67-2-.75a5,5,0,0,1,1.12-.07c-.12-.17-3.84.15-2.94-.14A21.92,21.92,0,0,0,5.7,8.87l.19,0c-.19-.14-1.07-.29-1-.39a7.19,7.19,0,0,1-1.79.06,12.88,12.88,0,0,1-1.58.12c.74.09.27.2,1.17.23-.9.13-.29,0-1.17.1l.82.05c-.21.1-.9,0-1.09.12.52,0,1.09.05,1,.15H1.94c.36.06-.08.19,1.42.06l-1.5.18,1-.07c-.4.23-2.86.46-1.57.65a3.9,3.9,0,0,1,1.06,0c.71-.15-.78-.09-.92-.19a22.73,22.73,0,0,0,2.87-.14c-1.21.22.17.26-2.4.48-.15.18,1.11.16.53.37l-.39,0c1.71-.07-.75.19,1,.21l.37-.11c.7,0,.72,0,.86.05a4.82,4.82,0,0,0-.61,0A8.56,8.56,0,0,1,5.5,11c.2-.09-.81-.13-1.14-.21C5.09,10.78,6.12,10.7,5.91,10.79Z"/><path class="cls-1" d="M1.36,9.31l.58,0C1.84,9.32,1.67,9.31,1.36,9.31Z"/><path class="cls-1" d="M3.84,11.7c-.27.12-1,0-1.56.16.84.06,1.7-.23,3-.2-.72.11.54.14.57.19-.72,0-2.3.12-2.63.16.45,0-.32.16-.35.23,1-.24.61.11,1.66-.12.94,0,1.63.08.92.19s-.54,0-.57-.07c-1.27,0-.67.16-1.82.25,1.79.06,1.71.6,4.44.28.53-.09-.13-.1-.25-.15a6.92,6.92,0,0,1-2,.11c.44-.11-.45-.18.55-.21l1,.05c.52-.41.34-.92-.11-1.33l0,.2a4.57,4.57,0,0,1-1.23-.11l-1.91.21c.14-.06-.15-.09.54-.13a10.79,10.79,0,0,0-2,.13c-.36-.12.39-.19-.89-.22-1.54.33,1.34.11,0,.46Z"/><polygon class="cls-1" points="2.72 11.25 3.71 11.25 3.21 11.19 2.72 11.25"/><path class="cls-1" d="M7,11.08l-1,0C5.67,11.24,6.26,11.19,7,11.08Z"/><path class="cls-1" d="M3,12.64l.34.12.35-.11A3.18,3.18,0,0,1,3,12.64Z"/><path class="cls-1" d="M7.74,13.33c-.17-.18-1-.21-.09-.49-1.18,0-2.21.19-3.28.21-.25.12,1.74,0,2.12.07-1,.11.23.16,0,.28C6.9,13.36,7.36,13.33,7.74,13.33Z"/><path class="cls-1" d="M4.05,14.24c0,.08.75.13.3.23s-.82,0-.67-.08c-1.34.12.22.09-.65.24a3.21,3.21,0,0,1,.66-.06c-.27.26,1.1.07.4.42a5.36,5.36,0,0,0,1.22,0c-1.07.24-1.07.15-2,.42.49,0,1.62-.18,2.69-.24-1.47.39.22.29-.87.55-.05,0-.33,0-.19-.09-1.45.12.29.15,0,.27L3.74,16c.21.08,1,.2.15.38H3.28c1,.19.57.51,1.05.7l-.71.16c.92.23.37-.32,2.15-.21-2.16.16.71.1-.14.32s-.46-.14-1.42,0c1.1,0,.33.07.65.14-1,0-.12.19-1.28.21l1.92.2c-.57.08-.46.17-.31.23,0-.17,1.49-.05,1.95-.27-.48-.25-.86-.69-.32-1.07-1.45.05,0-.22-1.18-.2L7,16.46c-.31-.2-.8.1-1.33.08-.2-.09.68-.22,1.21-.24.08-.17-.4,0-1.2,0l1.62-.2c-.48-.47-1.69-1.06-.7-1.69l-1.11.11c.62-.3-2.57-.27-.14-.65l-1,0c.57,0,1.74-.15,2.53-.13-.4,0,.05-.15-.32-.2L6,13.65c-1,0-.39-.16.48-.25a11.86,11.86,0,0,0-3,.35c2.18.13-2.05.4-1.08.6A6.85,6.85,0,0,0,4.05,14.24Z"/><path class="cls-1" d="M7.16,13.71a1.51,1.51,0,0,0-.31,0Z"/><path class="cls-1" d="M5.19,18.13s0,0,.06.07C5.49,18.21,5.32,18.18,5.19,18.13Z"/><path class="cls-1" d="M6.49,13.4h0Z"/><polygon class="cls-1" points="3.57 13.45 3.55 13.52 4.09 13.48 3.57 13.45"/><path class="cls-1" d="M4.11,19l.48,0Z"/><path class="cls-1" d="M4.15,21V21C4.1,21,4.11,21,4.15,21Z"/><path class="cls-1" d="M5.66,25.87a1.94,1.94,0,0,0,.87.36H6.24a1.49,1.49,0,0,0,1.11.08l-.24,0c-.43-.14.47-.15.68-.3-.12-.15-1.26-.17-1-.33,0-.06.27-.07.5-.07s-.8-.14-.93-.23c2.41-.19-.68-.4.88-.71-.2-.12,0-.31-.49-.45.66.05,0-.17.8-.18-1.56,0,.72-.53-1.28-.44.56-.26-.14,0,.33-.29.23,0,.23,0,.27,0,.43-.13-.88-.1.06-.25.16-.22-.56,0-1.14-.09.23-.24.53-.2,1.41-.37-1,0-.53-.12-1.08-.2a.75.75,0,0,1-.64.12c.14-.27-.71-.16-1-.38,1.17-.2.07.23,1,0a4.8,4.8,0,0,0,1.36.26c.06-.21-.13-.45-.64-.64.15-.13.57,0,.67-.07.54-.26-1.25-.27-.73-.48h.65c-.86-.06.18-.41-.31-.58a3.26,3.26,0,0,1-.78.06c1.68-.1-.89-.23.28-.5A3.4,3.4,0,0,1,4.07,20a9.32,9.32,0,0,1,1-.1c-.63.25,1.21.13,1.71.26-.57-.1,0-.36-.79-.43h.87c.12-.19-2,0-1.16-.28l.65,0c-.12-.39,1.08-.93-.46-1.15-.56,0-1.86.25-2.29.29.51.15,1.5.2,2,.31l-1,.07a8.73,8.73,0,0,0,1.7,0c.53.08-.9.14-.3.24-1.08.06-1.2,0-2.1,0l.55.08c-.42,0-.35.1-.77.09,1.31.13-.45.33.16.51L4,19.76a1.17,1.17,0,0,1,.71.08,2.28,2.28,0,0,0-1,.28c.47.07,1.5.06,1.51.19-1.08,0-.56.26-1.45.34,1.06,0,.42.23,1,.21.23.06.13.17-.42.2l-.19,0,0,.07a1.58,1.58,0,0,1-.23,0c0,.07.73,0,.24.13a.82.82,0,0,1-.39,0c-.13.17,1.59.19.69.39A5.7,5.7,0,0,0,6,21.64c-.37.08-1.2.11-1,.24.88,0-.3.18.27.26-.93-.09-.25,0-1.14-.06-.34.12.84.19.71.37l-.65.07c.31.05,1,.08.32.18l.59,0c-.29.13-.08.28-.69.44l1.11.07c-1.12.27,0,.46.89.56a.61.61,0,0,1-.45.2l-.38-.05c0,.11-.58.27.26.28.27.09-.57.11-.69.2,1.17.14-.73.68,1,.65,0-.09.33-.28.25-.45.21,0,.55,0,.59,0s-.55.29-.26.44l-1.06.05C4.64,25.44,7.08,25.56,5.66,25.87Z"/><path class="cls-1" d="M5.41,23.71l-.58.16.51-.05C5.25,23.79,5.24,23.75,5.41,23.71Z"/><path class="cls-1" d="M5.34,23.82a1,1,0,0,0,.24.06s0-.05-.11-.07Z"/><path class="cls-1" d="M5.88,26.35s-.1.09,0,.13S6,26.37,5.88,26.35Z"/><polygon class="cls-1" points="6.17 26.48 6.32 26.4 6.21 26.4 6.17 26.48"/><path class="cls-1" d="M7,30l.33.17c-.17.05,0,.26-.26.21.37.09,0,.37.52.24-.14-.57.37-1.4-.21-2l.29.09c-.58-.31.74-.52-.5-.73h.65c.22-.18-.94-.25-.21-.46l-.29,0s.13-.07.14-.11l-.13,0c-.28-.1-.25-.17,0-.3s.09.05.15.08c.24-.07-.25-.13-.24-.22a.7.7,0,0,1,.43,0c-.32-.25.5-.43-.64-.55-.22,0-.4.1-.5,0-.35.2.12.31.41.46v-.05c1.07.06-.24.11.22.29A5.29,5.29,0,0,1,6.43,27c-.77.29.62.3-.37.52H6c-.09,0,.11.09.2.14a1.2,1.2,0,0,0,.28-.13,3.59,3.59,0,0,0,.72.06c-.44.09.21.07,0,.18-.4.06-.37-.06-.59-.08l.28.1c0,.1-.43.13-.63.2.3.07.2-.07.62,0-.48.14-.29.62,0,.83-.05-.07-.38,0-.32-.1s.11.15.37.14c.23.14,0,.36-.17.52l.25-.05c.4.1-.3.33-.07.54H7c0,.07.58.1.46.24C7.2,30.09,7.23,30,7,30Z"/><path class="cls-1" d="M7.39,30.8l-.25-.06c-.06.09.26.17.42.14,0-.05.08-.13-.07-.13S7.36,30.76,7.39,30.8Z"/><path class="cls-1" d="M7.25,32.31s.09,0,.14,0c0-.32,0-.71.2-.85s-.24-.11-.31-.24l.25-.07c-.15-.07.15-.31-.27-.2,0,0,.19.05.11.12H7.23l0,.15-.17,0c-.24.21.48.11.3.36l-.31,0c0,.16.07.23-.1.39,0,0,.13,0,.08,0a.29.29,0,0,1,.21-.06c.18.23-.16,0-.28.15.18.19.24.58.07.71.13-.11.24,0,.21.15s-.11,0-.16-.05-.08.11-.06.16a.16.16,0,0,1,.27.08C7.52,32.79,7.21,32.59,7.25,32.31Z"/><path class="cls-1" d="M7.43,32.38s0,0,0-.05l0,.11Z"/></g></g></svg>