<svg xmlns="http://www.w3.org/2000/svg" viewBox="0 0 11.98 38.37"><defs><style>.cls-1{fill:#fff;}</style></defs><g id="Camada_2" data-name="Camada 2"><g id="Camada_1-2" data-name="Camada 1"><line class="cls-1" x1="5.4" y1="38.37" x2="5.4" y2="0.01"/><path class="cls-1" d="M5.4,0s0,0,0,0V0Z"/><path class="cls-1" d="M5.41.38c0,.07,0,.14,0,.1s0-.08,0-.15,0-.1,0-.09V.13a1.19,1.19,0,0,0,0,.26S5.41.39,5.41.38Z"/><path class="cls-1" d="M5.09,5.82l0,0S5.09,5.81,5.09,5.82Z"/><path class="cls-1" d="M4.71,9.19a.08.08,0,0,0-.07,0S4.68,9.2,4.71,9.19Z"/><path class="cls-1" d="M4.25,9.77l0,0S4.22,9.76,4.25,9.77Z"/><path class="cls-1" d="M5.09,5.82,5,5.91C5.08,5.92,5.07,5.87,5.09,5.82Z"/><path class="cls-1" d="M5.52,1.13l0,0v0Z"/><path class="cls-1" d="M5,4.34v0L5,4.29Z"/><path class="cls-1" d="M5.11,3.2s.1,0,.15,0-.07,0-.07-.05Z"/><path class="cls-1" d="M5.36,1.39v0Z"/><path class="cls-1" d="M4.93,5.15h0Z"/><path class="cls-1" d="M11.14,37.05h-.22A1.39,1.39,0,0,0,11.14,37.05Z"/><path class="cls-1" d="M5.08,38.37l-.07,0H4.3Z"/><path class="cls-1" d="M3.67,10.82h0S3.64,10.81,3.67,10.82Z"/><path class="cls-1" d="M2.61,20.49c.61-.11.76.18,1.44,0A5.7,5.7,0,0,0,2.61,20.49Z"/><path class="cls-1" d="M5.51,1.16v.05A.07.07,0,0,0,5.51,1.16Z"/><path class="cls-1" d="M4.05,20.5h0Z"/><path class="cls-1" d="M3.54,13.25l.19,0Z"/><path class="cls-1" d="M4.33,11.44l-.06.05A.16.16,0,0,0,4.33,11.44Z"/><path class="cls-1" d="M4.07,14.19s-.11,0-.05.06h.06C4,14.23,4,14.22,4.07,14.19Z"/><path class="cls-1" d="M4,15.17l.1,0,0,0Z"/><path class="cls-1" d="M10.14,34.08l-1,0C9.93,34.11,10.24,34.25,10.14,34.08Z"/><path class="cls-1" d="M5.5,1.13a0,0,0,0,1,0,0v0Z"/><path class="cls-1" d="M7.76,14.23l0,.15A.17.17,0,0,0,7.76,14.23Z"/><path class="cls-1" d="M9,27.07l.11,0S9.14,27.08,9,27.07Z"/><path class="cls-1" d="M7.86,14.84a1.17,1.17,0,0,0-.32.09l.13,0Z"/><path class="cls-1" d="M9.12,34.12h0Z"/><path class="cls-1" d="M12,35.15a11.07,11.07,0,0,0-2.37-.1c-.45-.18,1.1-.09,1.87-.15-.42-.11-1.82-.19-1.77-.27a4.54,4.54,0,0,1,.65,0c-1.21-.11-.11-.34-1.6-.48l.36,0c-.74,0-1.49,0-2,0,0-.06-.93-.12,0-.14a2.55,2.55,0,0,0,.66.06L7.36,34c1.38-.06.49.1,1.51.1-.47-.14-1.61-.3-1.23-.4,1.34,0,.47.24,1.65.1L8.8,34c2.11-.12-.14.1,2.13,0,.35-.21-.73-.24-.37-.45-.74-.05-1.09,0-1.84,0-1.35-.3,3.3-.24,1.51-.46-.88,0-2.54-.08-1.68-.23l1.48,0c.12-.2-2.13-.12-1.16-.33.58,0,.5.16.67.13,1.14-.14-.84-.1-.85-.21l1.29,0c-.24-.22-1.19-.46-1.44-.7a5.62,5.62,0,0,0,1.16,0c-.67-.3.07-.65.74-.94l-1.07-.11a2.24,2.24,0,0,1,.68,0c.38-.12-.67,0-1.09-.07-.08-.06.59-.08.91,0-.92-.2-2-.58-.88-.79l.3,0c.39-.16-2.11-.18-1.17-.34l.18,0c.4-.36-.54-.75.9-1-1.41-.05.58-.35-1.37-.38a7.59,7.59,0,0,0,1.89-.43c.07-.08-1.21-.12-1.41-.21h1l-1.06-.13,1.17-.07-.26-.08a3.1,3.1,0,0,1-.72.07c-.45-.14.64-.35,1.14-.35l-.86-.33a3.64,3.64,0,0,1,.78.11c-1-.18,1,0,.08-.2-.21,0-.57,0-.76,0,.56-.08.54-.27.28-.4l.65,0c.12-.24-.39-.51-.42-.79a4.12,4.12,0,0,1-1.49,0l1,0c-.6-.05-.36.09-1.09,0a4,4,0,0,1,1.4,0L8.75,25c.28,0,.44,0,.8,0-.59-.06.92-.22-.11-.29h.28c0-.28-.39-.4-.47-.63A6.27,6.27,0,0,1,8,24c.24-.16.83-.34.73-.54a5,5,0,0,0-1.12-.1c.7,0,.61-.21,1.12-.11-.14-.24-.18-.31-.77-.61a2.35,2.35,0,0,1-.63.05c-.11-.05.28-.12.6-.11H8c-1-.34,1.83-.78.42-1.05l.07,0-.73-.28c.09-.13.49.07.87,0-1.1-.3.08-.48-.65-.73,1.78-.19-.21-.68.87-.94l-.4,0c-.42-.07.22-.08.3-.13-.31,0-.35.07-.58,0-.56-.57.42-1.17.63-1.76.05-.21-1.92-.12-1.08-.38l.68.07c-.86-.43-.12-.88-.83-1.3.15,0,.33,0,.34.07.44-.09,0-.33-.39-.33,0-.07.32,0,.5-.06s-.6-.22-.17-.27a.49.49,0,0,1,.19,0c-.23-.05,0-.27-.49-.21.22-.16-.26-.3,0-.43-.55-.08.22-.27-.54-.3.78,0,.58-.27.21-.37.24,0,.23-.09.55,0,0-.11-.19-.22-.57-.2.85-.21-.75-.42.34-.54a3.69,3.69,0,0,1-.9-1c.66,0,.1.33.81.32-.33-.29-.9-.46-.78-.74.08-.08.29,0,.4.07-.3-.29,0-.56-.38-.82a.39.39,0,0,1,.17.06c0-.06.07-.12-.2-.12l.08.05c-.39.08-.84-.2-1-.21.77.09.17-.25,1.14-.11A.59.59,0,0,0,6.47,11s.15-.07.36,0c-.17-.18-.44-.11-.45-.28.13,0,.18,0,.33,0-.26-.08-.5-.16-.41-.3s.17,0,.17,0C6.4,10.19,5.82,10,6,9.76c.5.08.15-.09.57-.1l-.14-.14-.19.06c0-.13-.32-.24-.19-.34l.17.09L6.16,9.1,6,9.23c-.22-.12-.51,0-.41-.15,0,0,0-.12.23-.19h0c-.12-.06-.25-.12-.16-.21s.42,0,.5,0c-.32-.06-.11-.29-.44-.36a1.84,1.84,0,0,0,.31,0L5.8,8.28c.07,0,.11-.06.26,0,0-.17-.45,0-.27-.15,0,0,.06,0,.1,0,.08-.2-.17-.39-.07-.58.33-.06.1.16.37.1-.09-.27-.43-.56-.37-.82l0,0c-.43,0,.2-.19,0-.32,0,0,.23,0,.18,0,0-.18-.13-.37-.26-.64l.1,0c.08-.1,0-.27.06-.39s-.08-.1-.21-.06c.45-.35-.27-.67.08-1,0,0,.07.09.07.06l-.09-.27c-.11,0-.07,0-.16.09a.21.21,0,0,1-.12-.17c.07.12.18,0,.24-.06s-.07,0-.11,0c.2-.14-.22,0-.09-.21h0c0-.08-.1-.14-.08-.22s0,.08.15.08-.22-.21-.11-.31c0,.05,0,.11.06.16.13-.11.1-.12.11-.2h0l0-.18,0,0c-.27-.13-.06-.27-.23-.45.15.18.09,0,.19,0s0-.12.08-.1,0-.14-.08-.26c0,0,0-.09.07-.07s0,0-.08,0c-.1-.17.07-.4-.07-.65a2.89,2.89,0,0,1-.14-.45c0-.06.06.06.06.06a.7.7,0,0,0,0-.29s0,0,0,0-.05-.06,0-.17l0,.08A2.47,2.47,0,0,1,5.44.79s0,.06,0,.1A2.74,2.74,0,0,0,5.43.57V.64s0,0,0,0a.19.19,0,0,1,0,.14V.72c0,.07,0,.28,0,.43l-.06-.06.05.14s-.05.06-.06,0c0,.11,0,.1,0,.18s0,0,0,0l0,.1s-.06,0,0-.05c-.06.18,0,.29,0,.36h0c0,.24.07,0,.15.21l-.18.12.07,0s0,.07,0,.06,0,0,.08,0,0,.34-.11.37c.07,0,.06-.12.11,0-.17,0,0,.16-.06.27s0-.14-.12,0c.15.07,0,.22,0,.32s0,.2.08.36c0,0-.09.3-.17.45h0c.17,0,.14.18.17.29A.21.21,0,0,1,5,4.21v.1a.18.18,0,0,1,.11.13L5,4.41c0,.14.15.28,0,.46.15,0,.4-.14.5,0-.08,0-.22,0-.25,0s.07.06,0,.09L5.19,4.9c-.06.08.11,0,.1.1s-.09,0-.18,0,0,0,0-.08a.32.32,0,0,1-.19.19c.06,0,.16,0,.17.06s-.15,0-.22.13c.08,0,0,.12.17.12,0,0-.09,0-.14.07s0,.33.21.25l0,0v0h0c.2.23-.14.49-.06.72H5c.08.14,0,.31.21.41C5.2,7,5.05,7,5,7s.15.12,0,.28c-.14-.11-.13,0-.1-.11-.08.14-.22.17,0,.32-.22-.05-.29.1-.23.17l.17-.1a.3.3,0,0,1,0,.21l-.3,0c-.42.29.6.52-.08.73.23.08.18-.15.44-.08,0,.13-.54.26-.55.3-.22.18.48.17.33.36.13,0,.46,0,.58.09,0,.13-.55.16-.64.08s0,0,.08,0a.19.19,0,0,0-.24-.05l.13,0c-.14.06-.15.24-.35.2.11.1.2,0,.28,0-.21.17,0,.26-.18.44.07,0,.24-.06.23,0-.19.25.25.11.3.28-.22.1-.5,0-.34.14-.16.11-.38,0-.49,0,.26.16-.22.3-.29.39l-.1-.09a.12.12,0,0,1,0,.14l.3-.05c-.05.05-.06.09-.18.09.18.05.49,0,.74.06-.15.06.15.2-.25.22.16-.2-.41,0-.45-.15,0,0,0,.07,0,.12a.1.1,0,0,1-.1,0c-.4.2.44.09.4.3-.22,0-.44,0-.4.08s.39,0,.56,0c-.19.13.13.14.1.21l.09-.08c.24,0,.2.1.27.19-.19,0-.12-.09-.21-.05.42.1-.46.22-.18.36-.18.07-.47,0-.59.07.31.16-.37.17-.12.33a.8.8,0,0,1,.59.06L4,12.05l.47.18c0-.09-.2-.18-.13-.23a.57.57,0,0,0,.46,0c-.51.11.29.22-.06.35H3.85c-.42.19.4.35.16.6l.16-.08c.36,0,0,.15.18.24a2.46,2.46,0,0,0-.62.07c.23,0,0,.19.58.21l-.43.12c-.19.2.88.23.77.43-.35-.06-.59,0-.82-.1,0,.06-.08.12.14.12-.21,0,.43.18.11.24.14,0,.49,0,.46.11H4.37c.17,0,.22.12.59.06-1.06.2.06.56-.88.74a1.07,1.07,0,0,1,.22.44c-.1,0-.18,0-.14,0-.35.18,1,.11.65.31-.6.11-.31-.11-.54,0-1.22,0,.15.25-.58.38l-.07,0c-.44.11.44.26.34.43a1.09,1.09,0,0,0-.19,0,1.77,1.77,0,0,1,1,.5,2.61,2.61,0,0,0-.79,0c.07.07.84,0,1,.13a5.7,5.7,0,0,1-1.1.16l0-.14c-.73.08,0,.19-.12.26H3.42c.08.21.89.22.82.45l.25,0c.81.13-.47.11.14.23l-.84,0a4.81,4.81,0,0,1,1,.44,6.23,6.23,0,0,1-1.3-.37c0,.09,0,.28.45.33-.08,0-.29-.08-.15-.11.66.1,1,.23,1,.39-1.69,0-.45.43-1.81.55.61.29-.35.57-.3.91,1.43-.12,0,.1,1.49.08.09.08.07.11,0,.11l-.9.24c-.44.06-.32-.07-.66-.07-.13.18-.64.08-1,.19.54,0,.75.06.53.16l.72-.14c.77.24-1.3.21-.54.45l-.47-.08c.27.13-.09.46,1.15.58a1.92,1.92,0,0,1-.72,0c-.25.3,1.27.66.45.89l-.4,0c.11.06.74.1.33.17a1.39,1.39,0,0,0-.42,0c.13,0,.68.15.44.22L2.07,23c-.58.29,1.06.44,1.33.68a3.52,3.52,0,0,0-1.88.35H1.35c-.22.34.94.57,1.42.89-1.43.19-.67.65-1.53,1A3.94,3.94,0,0,1,2.41,26c-.28.07.92.2-.32.19l0,0c-1.22.06-.93.21-1,.33l1.64,0c-2.45.3.81.8-1.41,1,.42.07.4.16.82.24H1.27c-.26.21-.4.31-.21.56l-.67,0c-.08.15,2.69.18,2.73.32l-1.41,0c0,.25-1.32.5,0,.74A2.92,2.92,0,0,1,1,29.24c-.05.12-1.07.46,1,.41-1.31,0-.17.26.41.4l-1,0a6.47,6.47,0,0,1,1.93.27c-.14,0-.8,0-.54,0-.53.12.93.09.39.25l-.63-.06c-.09.13.25.12,1,.19.4.08-.26.24-1.18.26.55,0,1.29.09,1,.17a4.45,4.45,0,0,1-.67,0c-.72.21,1.16.32.15.47-.35,0-.52,0-.62,0,0-.17.11-.31.18-.3a16.76,16.76,0,0,1-2.41,0c.69.11,2.22.3,1.76.44l-.33,0-.11,0c-.1,0,0,.06.15.09-.17,0-.29.07-.31.11-.79,0-.45.16-.5.23a14.85,14.85,0,0,0,1.77,0,.19.19,0,0,1-.17-.06l-.1,0h.09a.38.38,0,0,1-.06-.17c.53.06,1,.11.39.19l1.7.1c-1.48.09-2.31.27-3.23.3a3.72,3.72,0,0,0,2.37.63c.26.06-.59.07-.92.09a1.88,1.88,0,0,0-.46-.1c.52.12.17.36,1.62.39-.67.15-1.33-.09-1.11.12l-.44,0c-2.41.41,3.71.67.64,1.12a2.65,2.65,0,0,1,.53-.05c-1.42.51,1.25,1.06-1,1.57-.47.15.53.16,1.29.25l-1.29,0,1.48.15c1.11.22-3.23.37-1.16.65l.9,0c-.18.1.51.31-.52.29.16,0,.93,0,.46.07h-.7l1.19.24c-.52.18-2.79,0-2.95.24a13.91,13.91,0,0,0,2.51.25,3.62,3.62,0,0,1,1.16-.11l.37.09a40.17,40.17,0,0,0,5.68-.14L9.4,38.06l1-.06.08.14c.94-.08.09-.13-.49-.18a7.34,7.34,0,0,0,1.1-.07l-2-.15a16,16,0,0,0,2,0c-.92-.08-1.8.07-2.41-.05.93-.08,1.68-.06.88-.15a7.7,7.7,0,0,1,1.1,0c-.64-.07-.3-.2-1.38-.24,1.13-.08-.33-.27,1.59-.26a9.78,9.78,0,0,1-1.61-.21c2.3.13.11-.27,2.54-.24-2-.1-1-.35-2.1-.53.16,0,.49,0,.39,0a5.55,5.55,0,0,1,1.12-.19,23.64,23.64,0,0,1-3.07-.25c1.57-.12,1.94.08,3.45,0-1.33,0-1.35-.21-2.45-.17A14.43,14.43,0,0,1,11,35.43c-2,0-.36-.09-1.61-.16,1-.14,1.89,0,1.25-.18A5.48,5.48,0,0,1,12,35.15ZM8.19,31.69h0l.06.07Zm0-.29a.13.13,0,0,0,0,.13,2.54,2.54,0,0,1-.71,0A3.61,3.61,0,0,0,8.15,31.4ZM.89,32C.74,32,1,32,1.17,32a.26.26,0,0,0,.12.08H.89Z"/><path class="cls-1" d="M2.26,32.1l.08,0,.24,0-.33,0Z"/><path class="cls-1" d="M5.12,5.78h0Z"/><polygon class="cls-1" points="9.52 27.39 9.3 27.39 9.5 27.42 9.52 27.39"/><path class="cls-1" d="M5.67,4.18l0,0Z"/><path class="cls-1" d="M5.65,3.49l0-.09Z"/><path class="cls-1" d="M5.66,3h0Z"/><path class="cls-1" d="M6.85,11.41l0,0C7,11.47,6.91,11.44,6.85,11.41Z"/><path class="cls-1" d="M5.84,8.89,6,9S6,8.89,5.84,8.89Z"/><path class="cls-1" d="M7.77,14.21h0v0Z"/><path class="cls-1" d="M6,9.09C6.05,9.05,6,9,6,9S5.94,9.05,6,9.09Z"/><polygon class="cls-1" points="5.47 0.66 5.47 0.64 5.46 0.63 5.47 0.66"/><path class="cls-1" d="M5.47.63v0A0,0,0,0,0,5.47.63Z"/><path class="cls-1" d="M5.45.54V.6A.13.13,0,0,0,5.45.54Z"/><path class="cls-1" d="M5.52,1.36h0Z"/><path class="cls-1" d="M5.55,1.58a.67.67,0,0,0,0-.2h0S5.51,1.53,5.55,1.58Z"/><path class="cls-1" d="M5.26,2.47l0-.18s-.08.07-.08,0C5.11,2.51,5.29,2.23,5.26,2.47Z"/><path class="cls-1" d="M5.18,3c0-.09-.06,0-.08,0S5.14,3.1,5.18,3Z"/><path class="cls-1" d="M4.87,7H4.66C4.69,7.1,4.75,7,4.87,7Z"/><polygon class="cls-1" points="6.03 7.8 6.16 7.73 5.95 7.7 6.03 7.8"/><polygon class="cls-1" points="4.3 8.26 4.27 8.22 4.34 8.35 4.3 8.26"/><path class="cls-1" d="M3.56,15l.55,0C4,14.92,3.4,14.91,3.56,15Z"/><path class="cls-1" d="M3.87,17.9c-.33,0-.56.11-.23.16C3.69,18,4,17.93,3.87,17.9Z"/><polygon class="cls-1" points="1.52 26.62 1.2 26.56 1.46 26.67 1.52 26.62"/></g></g></svg>