<svg xmlns="http://www.w3.org/2000/svg" viewBox="0 0 11.98 38.46"><defs><style>.cls-1{fill:#fff;}</style></defs><g id="Camada_2" data-name="Camada 2"><g id="Camada_1-2" data-name="Camada 1"><line class="cls-1" x1="5.4" y1="38.45" x2="5.4" y2="0.01"/><path class="cls-1" d="M5.4,0s0,0,0,0V0Z"/><path class="cls-1" d="M5.41.38c0,.07,0,.15,0,.1s0-.08,0-.15,0-.09,0-.09V.13a1.19,1.19,0,0,0,0,.26S5.41.39,5.41.38Z"/><path class="cls-1" d="M5.09,5.84l0,0S5.09,5.82,5.09,5.84Z"/><path class="cls-1" d="M4.71,9.21a.08.08,0,0,0-.07,0S4.68,9.22,4.71,9.21Z"/><path class="cls-1" d="M4.25,9.79l0,0S4.22,9.78,4.25,9.79Z"/><path class="cls-1" d="M5.09,5.84,5,5.93C5.08,5.93,5.07,5.88,5.09,5.84Z"/><path class="cls-1" d="M5.52,1.14s0,0,0,0v0Z"/><path class="cls-1" d="M5,4.35v0L5,4.3Z"/><path class="cls-1" d="M5.11,3.2s.1,0,.15,0-.07,0-.07-.06Z"/><path class="cls-1" d="M5.36,1.39v0Z"/><path class="cls-1" d="M4.93,5.16l-.07,0Z"/><path class="cls-1" d="M11.14,37.13h0Z"/><path class="cls-1" d="M5.08,38.45l-.07,0H4.3Z"/><path class="cls-1" d="M3.67,10.85h0S3.64,10.83,3.67,10.85Z"/><path class="cls-1" d="M2.61,20.53c.61-.1.76.18,1.44,0A5.65,5.65,0,0,0,2.61,20.53Z"/><path class="cls-1" d="M5.51,1.17v0Z"/><path class="cls-1" d="M4.05,20.55h0l.06,0Z"/><path class="cls-1" d="M3.54,13.28l.19,0Z"/><path class="cls-1" d="M4.33,11.47l-.06,0Z"/><path class="cls-1" d="M4.07,14.22s-.11,0-.05.06h.06C4,14.26,4,14.25,4.07,14.22Z"/><path class="cls-1" d="M4,15.2l.1,0,0,0Z"/><path class="cls-1" d="M10.14,34.15l-1,.05C9.93,34.18,10.24,34.33,10.14,34.15Z"/><path class="cls-1" d="M5.5,1.14s0,0,0,0v0S5.5,1.13,5.5,1.14Z"/><path class="cls-1" d="M7.76,14.26l0,.15A.17.17,0,0,0,7.76,14.26Z"/><path class="cls-1" d="M9,27.13l.11,0S9.14,27.14,9,27.13Z"/><path class="cls-1" d="M7.86,14.88a1,1,0,0,0-.32.08l.13,0Z"/><path class="cls-1" d="M9.12,34.2h0Z"/><path class="cls-1" d="M12,35.22a11.07,11.07,0,0,0-2.37-.1c-.45-.18,1.1-.08,1.87-.14-.42-.11-1.82-.2-1.77-.28a4.68,4.68,0,0,1,.65,0c-1.21-.12-.11-.35-1.6-.49h.36c-.74,0-1.49,0-2,0,0-.07-.93-.13,0-.15a2.55,2.55,0,0,0,.66.06l-.42-.07c1.38-.06.49.1,1.51.1-.47-.14-1.61-.3-1.23-.4,1.34,0,.47.24,1.65.1L8.8,34c2.11-.13-.14.09,2.13,0,.35-.21-.73-.24-.37-.45-.74-.05-1.09,0-1.84,0-1.35-.3,3.3-.24,1.51-.46-.88,0-2.54-.08-1.68-.23l1.48,0c.12-.21-2.13-.12-1.16-.33.58,0,.5.16.67.13,1.14-.14-.84-.1-.85-.21l1.29,0c-.24-.22-1.19-.46-1.44-.7a7.49,7.49,0,0,0,1.16,0c-.67-.31.07-.65.74-1L9.37,30.7a2.24,2.24,0,0,1,.68,0c.38-.11-.67,0-1.09-.06-.08-.07.59-.09.91-.05-.92-.2-2-.57-.88-.79l.3,0c.39-.17-2.11-.19-1.17-.34l.18,0c.4-.36-.54-.75.9-1-1.41-.05.58-.36-1.37-.38a8.07,8.07,0,0,0,1.89-.43c.07-.08-1.21-.12-1.41-.22h1l-1.06-.13,1.17-.07-.26-.09a2.26,2.26,0,0,1-.72.07c-.45-.14.64-.34,1.14-.34l-.86-.33a3.72,3.72,0,0,1,.78.1c-1-.17,1,0,.08-.19a6.32,6.32,0,0,1-.76,0c.56-.08.54-.26.28-.4l.65,0c.12-.25-.39-.52-.42-.8a4.12,4.12,0,0,1-1.49,0l1,0a7,7,0,0,1-1.09,0,4.28,4.28,0,0,1,1.4,0l-.35-.12c.28,0,.44,0,.8,0-.59-.05.92-.22-.11-.29h.28c0-.27-.39-.4-.47-.62A8.09,8.09,0,0,1,8,24c.24-.17.83-.35.73-.55a5.6,5.6,0,0,0-1.12-.11c.7,0,.61-.2,1.12-.1-.14-.24-.18-.31-.77-.61a2.85,2.85,0,0,1-.63,0c-.11,0,.28-.12.6-.11H8c-1-.34,1.83-.78.42-1.05h.07l-.73-.28c.09-.13.49.08.87,0-1.1-.3.08-.47-.65-.72,1.78-.19-.21-.69.87-.95l-.4,0c-.42-.07.22-.08.3-.13a2.44,2.44,0,0,1-.58,0c-.56-.57.42-1.17.63-1.76.05-.21-1.92-.12-1.08-.39l.68.08c-.86-.43-.12-.88-.83-1.3.15,0,.33,0,.34.06.44-.09,0-.33-.39-.33,0-.06.32,0,.5-.05s-.6-.23-.17-.27a.36.36,0,0,1,.19,0c-.23-.06,0-.27-.49-.22.22-.16-.26-.3,0-.43-.55-.08.22-.27-.54-.29.78,0,.58-.28.21-.38.24,0,.23-.09.55,0,0-.11-.19-.22-.57-.2.85-.21-.75-.42.34-.54a3.55,3.55,0,0,1-.9-1c.66,0,.1.34.81.33-.33-.29-.9-.46-.78-.75.08-.07.29.05.4.07-.3-.29,0-.56-.38-.82a.58.58,0,0,1,.17.06s.07-.12-.2-.11l.08,0c-.39.08-.84-.2-1-.21.77.08.17-.26,1.14-.12A.67.67,0,0,0,6.47,11c0-.05.15-.06.36,0-.17-.19-.44-.12-.45-.29.13,0,.18,0,.33.06-.26-.09-.5-.17-.41-.31.08,0,.17,0,.17,0-.07-.24-.65-.4-.44-.67.5.08.15-.08.57-.1l-.14-.14-.19.06c0-.13-.32-.24-.19-.34l.17.09-.09-.23L6,9.25c-.22-.13-.51,0-.41-.15,0,0,0-.12.23-.19h0c-.12-.06-.25-.12-.16-.21s.42,0,.5,0c-.32-.06-.11-.29-.44-.37a.86.86,0,0,0,.31,0l-.25,0c.07-.05.11-.06.26-.05,0-.18-.45.05-.27-.15a.34.34,0,0,1,.1,0c.08-.21-.17-.4-.07-.59.33,0,.1.17.37.11-.09-.28-.43-.57-.37-.83l0,0c-.43,0,.2-.2,0-.33,0,0,.23,0,.18,0,0-.18-.13-.36-.26-.64l.1,0c.08-.11,0-.28.06-.4s-.08-.1-.21-.06c.45-.35-.27-.67.08-1,0,0,.07.09.07.06l-.09-.27c-.11,0-.07,0-.16.09a.21.21,0,0,1-.12-.17c.07.12.18,0,.24-.06s-.07,0-.11,0c.2-.14-.22,0-.09-.22h0c0-.07-.1-.13-.08-.21s0,.08.15.08-.22-.21-.11-.31,0,.11.06.16c.13-.11.1-.12.11-.2h0l0-.18,0,0c-.27-.13-.06-.27-.23-.46.15.18.09,0,.19,0s0-.12.08-.1,0-.14-.08-.26c0,0,0-.1.07-.08s0,0-.08,0c-.1-.17.07-.4-.07-.65a3.74,3.74,0,0,1-.14-.45c0-.07.06.05.06.05a.7.7,0,0,0,0-.29s0,0,0,0-.05-.06,0-.16l0,.08c0-.1,0-.19-.06-.29s0,.06,0,.09A2.74,2.74,0,0,0,5.43.57V.64s0,0,0,0a.18.18,0,0,1,0,.14V.72c0,.07,0,.29,0,.43l-.06-.06.05.15s-.05.05-.06,0c0,.1,0,.09,0,.18s0,0,0,0l0,.1s-.06,0,0,0c-.06.18,0,.29,0,.35h0c0,.25.07,0,.15.21l-.18.13.07,0s0,.08,0,.07,0,0,.08,0,0,.34-.11.37c.07,0,.06-.12.11,0-.17,0,0,.15-.06.27-.09,0,0-.15-.12,0,.15.07,0,.22,0,.31s0,.21.08.37c0,0-.09.3-.17.45h0c.17,0,.14.18.17.29A.2.2,0,0,1,5,4.21v.11a.17.17,0,0,1,.11.13L5,4.42c0,.14.15.28,0,.46.15,0,.4-.14.5,0-.08,0-.22,0-.25,0s.07.06,0,.09l-.13-.07c-.06.08.11,0,.1.11s-.09,0-.18,0,0,0,0-.08a.3.3,0,0,1-.19.19c.06,0,.16,0,.17.06s-.15,0-.22.13c.08,0,0,.12.17.12,0,0-.09,0-.14.07s0,.34.21.25h0c.2.24-.14.49-.06.73H5c.08.14,0,.31.21.41C5.2,7,5.05,7,5,7s.15.12,0,.27c-.14-.1-.13,0-.1-.11-.08.14-.22.17,0,.32-.22,0-.29.11-.23.18l.17-.1a.27.27,0,0,1,0,.2l-.3,0c-.42.28.6.51-.08.73.23.08.18-.15.44-.09,0,.13-.54.27-.55.31-.22.18.48.17.33.36.13,0,.46-.05.58.09,0,.13-.55.16-.64.08s0-.05.08,0a.19.19,0,0,0-.24,0l.13,0c-.14.06-.15.24-.35.2.11.1.2,0,.28,0-.21.17,0,.26-.18.44.07,0,.24-.06.23,0-.19.26.25.11.3.29-.22.09-.5,0-.34.13a.52.52,0,0,1-.49,0c.26.16-.22.3-.29.39l-.1-.08a.11.11,0,0,1,0,.13l.3-.05c-.05.05-.06.09-.18.09.18.05.49,0,.74.06-.15.07.15.2-.25.22.16-.2-.41,0-.45-.15,0,0,0,.08,0,.13l-.1,0c-.4.19.44.09.4.29-.22,0-.44,0-.4.08s.39,0,.56,0c-.19.13.13.14.1.21l.09-.08c.24,0,.2.09.27.18-.19,0-.12-.08-.21-.05.42.1-.46.23-.18.37-.18.06-.47,0-.59.06.31.16-.37.17-.12.34a.72.72,0,0,1,.59.06L4,12.08l.47.17c0-.08-.2-.17-.13-.22a.66.66,0,0,0,.46,0c-.51.11.29.22-.06.35H3.85c-.42.2.4.35.16.61l.16-.09c.36,0,0,.16.18.24a2.93,2.93,0,0,0-.62.08c.23,0,0,.19.58.21l-.43.12c-.19.2.88.23.77.43-.35-.06-.59,0-.82-.11,0,.07-.08.13.14.13-.21,0,.43.18.11.24.14,0,.49,0,.46.11H4.37c.17,0,.22.12.59.06-1.06.2.06.56-.88.74a1.1,1.1,0,0,1,.22.45c-.1,0-.18,0-.14,0-.35.18,1,.11.65.32-.6.1-.31-.11-.54-.05-1.22,0,.15.25-.58.39l-.07,0c-.44.1.44.25.34.42H3.77a1.7,1.7,0,0,1,1,.51,2.32,2.32,0,0,0-.79,0c.07.07.84,0,1,.12a4.87,4.87,0,0,1-1.1.17l0-.14c-.73.07,0,.18-.12.26H3.42c.08.21.89.21.82.44l.25,0c.81.13-.47.11.14.23l-.84,0a4.81,4.81,0,0,1,1,.44,6.23,6.23,0,0,1-1.3-.37c0,.08,0,.28.45.32-.08,0-.29-.07-.15-.1.66.1,1,.23,1,.39-1.69,0-.45.43-1.81.55.61.29-.35.58-.3.91,1.43-.12,0,.1,1.49.08.09.08.07.11,0,.12l-.9.24c-.44.05-.32-.08-.66-.07-.13.17-.64.07-1,.19.54,0,.75.06.53.15l.72-.14c.77.25-1.3.21-.54.46l-.47-.08c.27.12-.09.46,1.15.58a2.46,2.46,0,0,1-.72,0c-.25.29,1.27.66.45.89l-.4,0c.11.05.74.09.33.16a1.66,1.66,0,0,0-.42,0c.13,0,.68.15.44.22l-.45-.06c-.58.29,1.06.44,1.33.69a3.46,3.46,0,0,0-1.88.34H1.35c-.22.34.94.58,1.42.89-1.43.19-.67.66-1.53,1A4.31,4.31,0,0,1,2.41,26c-.28.08.92.21-.32.2l0,0c-1.22,0-.93.21-1,.32l1.64,0c-2.45.31.81.81-1.41,1,.42.07.4.16.82.24H1.27c-.26.21-.4.31-.21.56l-.67-.05c-.08.15,2.69.18,2.73.32l-1.41,0c0,.25-1.32.5,0,.75A2.81,2.81,0,0,1,1,29.3c-.05.12-1.07.46,1,.42-1.31,0-.17.26.41.39l-1,0a6.32,6.32,0,0,1,1.93.28c-.14,0-.8,0-.54,0-.53.13.93.1.39.25l-.63-.06c-.09.13.25.12,1,.19.4.09-.26.25-1.18.27.55,0,1.29.09,1,.16a3.37,3.37,0,0,1-.67,0c-.72.22,1.16.32.15.47l-.62,0c0-.17.11-.31.18-.3a16.76,16.76,0,0,1-2.41,0c.69.11,2.22.3,1.76.44H1.32c-.1,0,0,.06.15.09-.17,0-.29.07-.31.11-.79,0-.45.16-.5.23a14.85,14.85,0,0,0,1.77,0,.19.19,0,0,1-.17-.06.2.2,0,0,0-.1,0h.09A.38.38,0,0,1,2.19,32c.53.05,1,.11.39.19l1.7.09c-1.48.1-2.31.28-3.23.31a3.72,3.72,0,0,0,2.37.63c.26.06-.59.07-.92.09A2,2,0,0,0,2,33.19c.52.12.17.35,1.62.38-.67.15-1.33-.08-1.11.12l-.44,0c-2.41.4,3.71.66.64,1.11a3.68,3.68,0,0,1,.53-.05c-1.42.52,1.25,1.07-1,1.58-.47.14.53.16,1.29.25l-1.29,0,1.48.15c1.11.22-3.23.37-1.16.64l.9,0c-.18.1.51.31-.52.29.16,0,.93,0,.46.07h-.7L3.92,38c-.52.18-2.79,0-2.95.24a13.06,13.06,0,0,0,2.51.25,3.62,3.62,0,0,1,1.16-.11l.37.09a40.17,40.17,0,0,0,5.68-.14L9.4,38.14l1,0,.08.13c.94-.08.09-.12-.49-.18a9.79,9.79,0,0,0,1.1-.06l-2-.16a16,16,0,0,0,2,0c-.92-.08-1.8.07-2.41,0,.93-.08,1.68-.06.88-.15a7.7,7.7,0,0,1,1.1,0c-.64-.07-.3-.2-1.38-.24,1.13-.08-.33-.27,1.59-.26a9.78,9.78,0,0,1-1.61-.21c2.3.13.11-.28,2.54-.24-2-.1-1-.35-2.1-.53.16,0,.49,0,.39.05A5.55,5.55,0,0,1,11.26,36a27.87,27.87,0,0,1-3.07-.25c1.57-.12,1.94.07,3.45,0-1.33,0-1.35-.21-2.45-.17A16.16,16.16,0,0,1,11,35.5c-2,0-.36-.08-1.61-.16,1-.13,1.89,0,1.25-.18A5.48,5.48,0,0,1,12,35.22ZM8.19,31.76h0l.06.07Zm0-.29a.11.11,0,0,0,0,.12,2.16,2.16,0,0,1-.71,0A3.53,3.53,0,0,0,8.15,31.47Zm-7.26.61C.74,32,1,32,1.17,32c0,0,.05,0,.12.08h.12Z"/><path class="cls-1" d="M2.26,32.17l.08,0,.24,0-.33,0S2.26,32.16,2.26,32.17Z"/><path class="cls-1" d="M5.12,5.79h0Z"/><polygon class="cls-1" points="9.52 27.45 9.3 27.45 9.5 27.48 9.52 27.45"/><path class="cls-1" d="M5.67,4.19l0,0Z"/><path class="cls-1" d="M5.65,3.5l0-.1S5.66,3.48,5.65,3.5Z"/><path class="cls-1" d="M5.66,3h0Z"/><path class="cls-1" d="M6.85,11.43l0,0C7,11.5,6.91,11.47,6.85,11.43Z"/><path class="cls-1" d="M5.84,8.91,6,9S6,8.91,5.84,8.91Z"/><path class="cls-1" d="M7.77,14.24h0v0Z"/><path class="cls-1" d="M6,9.11C6.05,9.06,6,9,6,9S5.94,9.07,6,9.11Z"/><polygon class="cls-1" points="5.47 0.66 5.47 0.64 5.46 0.63 5.47 0.66"/><path class="cls-1" d="M5.47.63v0A0,0,0,0,0,5.47.63Z"/><path class="cls-1" d="M5.45.54V.6A.13.13,0,0,0,5.45.54Z"/><path class="cls-1" d="M5.52,1.37h0Z"/><path class="cls-1" d="M5.55,1.58a.67.67,0,0,0,0-.2h0S5.51,1.53,5.55,1.58Z"/><path class="cls-1" d="M5.26,2.47l0-.18s-.08.08-.08,0C5.11,2.51,5.29,2.24,5.26,2.47Z"/><path class="cls-1" d="M5.18,3c0-.1-.06,0-.08,0S5.14,3.1,5.18,3Z"/><path class="cls-1" d="M4.87,7.05H4.66C4.69,7.11,4.75,7,4.87,7.05Z"/><polygon class="cls-1" points="6.03 7.82 6.16 7.75 5.95 7.71 6.03 7.82"/><polygon class="cls-1" points="4.3 8.27 4.27 8.24 4.34 8.36 4.3 8.27"/><path class="cls-1" d="M3.56,15l.55,0C4,15,3.4,14.94,3.56,15Z"/><path class="cls-1" d="M3.87,17.94c-.33,0-.56.11-.23.16C3.69,18,4,18,3.87,17.94Z"/><polygon class="cls-1" points="1.52 26.68 1.2 26.62 1.46 26.73 1.52 26.68"/></g></g></svg>