<svg xmlns="http://www.w3.org/2000/svg" viewBox="0 0 7.23 11.96"><defs><style>.cls-1{fill:#fff;}</style></defs><g id="Camada_2" data-name="Camada 2"><g id="Camada_1-2" data-name="Camada 1"><path class="cls-1" d="M5.45,0l0,.05.12,0Z"/><path class="cls-1" d="M4.79.21a.28.28,0,0,0,0,.09c.65,0,.5,0,.87-.08a.91.91,0,0,0-.4-.16s.15.09.09.14S5.23.12,5.1.09,5.17.14,5,.23Z"/><path class="cls-1" d="M5.33.34,5,.31C5.12.32,5.26.37,5.33.34Z"/><path class="cls-1" d="M5.4.39c0,.06-.27,0-.3,0l.46.09Z"/><path class="cls-1" d="M5.35.62l.05,0C5.5.64,5.42.63,5.35.62Z"/><path class="cls-1" d="M5.42.74c.22,0,.08-.05,0-.09h0c-.18,0-.61,0-.47-.07C4.85.52,5.22.55,5,.49L4.65.54C4.62.62,5.23.69,5.42.74Z"/><path class="cls-1" d="M5.35.62s0,0,0,0S5.3.61,5.35.62Z"/><polygon class="cls-1" points="5.4 0.51 5.33 0.48 5.17 0.48 5.4 0.51"/><path class="cls-1" d="M5.46.92C4.75.88,5.54.79,5,.76c0,.07-.53.1-.91.07l.15.09A6.85,6.85,0,0,0,5.46.92Z"/><path class="cls-1" d="M3.41,1l.12,0A.33.33,0,0,0,3.41,1Z"/><path class="cls-1" d="M4.66,1.46,3.8,1.23a3,3,0,0,1,.66.09c.16-.08-.41-.12-.27-.18.82,0,0,.12.76.12,0-.05,0-.13-.67-.2L4.84,1H4c-.28,0,.6.09,0,.08-.38,0-.41,0-.47-.07.12.06-.85.1-.88.2A16.22,16.22,0,0,0,4.66,1.46Z"/><polygon class="cls-1" points="3.53 1.42 3.12 1.41 3.67 1.43 3.53 1.42"/><path class="cls-1" d="M4.81,1.68l-.64-.13h.52L3.84,1.5c-1,0,.21.13.38.19-.54.12-.54,0-1.56,0,.07,0,.32,0,.44-.08-1.24,0-.3.18,0,.25.12,0,.46,0,.38,0l.32.07C4.69,1.86,4.91,1.82,4.81,1.68Z"/><path class="cls-1" d="M4.85,1.51c.06,0,0,.05-.15,0C5,1.56,5.15,1.55,4.85,1.51Z"/><path class="cls-1" d="M3.1,1.87c.07,0,0,0,0,0S3,1.85,3.1,1.87Z"/><path class="cls-1" d="M4.42,1.88l-.14.06h.53A1,1,0,0,0,4.42,1.88Z"/><path class="cls-1" d="M1.17,4.39c.7,0,1.05,0,.93,0a10.13,10.13,0,0,1,1.25.16c.61,0,1.09.06,2,.08.09-.08-1.11-.17-.85-.24l1,0c-.58-.13-1.39-.34-.62-.41.34-.08-.07-.17-.44-.29.46-.33-.26-.72.49-1.06L3.53,2.51c.7,0,0-.08.91,0-.17,0,0,0,0,.06,1.21,0,0-.21.39-.29-.22,0-1.34,0-1.52-.07,1.4.07.05-.11,1.62-.07C5.3,2,3.72,2.05,4,2c-.77-.05-.42.07-1,.06s.34-.07-.49-.11c-.57.14.9.5,1.42.77L3,2.62c.56.16.57.36-1,.39.91,0-.61.15,1.49.23a2,2,0,0,0-.62.06l.67,0c0,.06-1.08,0-1,.08a18.43,18.43,0,0,1,2,.12l-2.94.12c.32,0,.68,0,1.1,0-.36,0,.56.07.89.1a16.15,16.15,0,0,1-1.85,0c-.43.07,2,.22,1.14.25l1,0c.23.1-.92.13-.59.25A6.46,6.46,0,0,1,1.43,4c-.31,0-.4,0-.88,0l2.36.29C1.25,4.23,1.29,4.36,1.17,4.39Z"/><path class="cls-1" d="M.55,4.07,0,4c.08,0,.17,0,.1,0Z"/><path class="cls-1" d="M1.17,4.39H1A.34.34,0,0,0,1.17,4.39Z"/><path class="cls-1" d="M4.94,4H4.85l0,0Z"/><path class="cls-1" d="M.41,3.69l1.1,0A6.25,6.25,0,0,0,.41,3.69Z"/><path class="cls-1" d="M1.86,3.13c-.15,0-.43,0-.72-.06C1.08,3.11,1.37,3.14,1.86,3.13Z"/><polygon class="cls-1" points="0.23 4.17 0.52 4.26 0.79 4.3 0.23 4.17"/><path class="cls-1" d="M5.63,6c1.33,0,.53-.14.8-.21-.68-.19-2.9-.16-3-.31l2.73.15c-.15-.16.4-.34-2-.57a7.31,7.31,0,0,1,1.12.05c-.1-.1-3.83-.23-2.91-.32,1.64.2,1.58,0,3.23.15l.19,0c-.17-.09-1-.24-.93-.29a11.61,11.61,0,0,1-1.79-.11c-.14,0-.9,0-1.58-.06a9.11,9.11,0,0,0,1.15.22c-.91,0-.29,0-1.18,0l.81.1c-.22,0-.89-.09-1.09,0,.52,0,1.08.12,1,.16l-.31,0c.35.06-.1.1,1.4.15L1.71,5l1,0c-.42.1-2.89,0-1.62.23a6.48,6.48,0,0,1,1.06.07c.72,0-.77-.12-.9-.18,1,0,2.25.2,2.87.15a11,11,0,0,1-2.43.07c-.17.09,1.09.18.49.25l-.38,0c1.7.1-.77,0,1,.19l.38,0a2.43,2.43,0,0,1,.85.1,5.72,5.72,0,0,0-.61,0,15.28,15.28,0,0,1,1.79.21c.21,0-.8-.13-1.12-.2A12.56,12.56,0,0,1,5.63,6Z"/><path class="cls-1" d="M1.23,4.83l.58,0Z"/><path class="cls-1" d="M3.49,6.33c-.27,0-1-.06-1.57,0,.84.1,1.72,0,3,.13-.73,0,.53.12.55.14-.71-.06-2.3-.12-2.63-.12.45,0-.33.06-.37.1,1,0,.6.11,1.66.07s1.62.17.9.18-.53-.06-.56-.09c-1.27-.08-.68,0-1.83,0A25.32,25.32,0,0,0,7,7.21c.53,0-.12-.06-.24-.1A12.3,12.3,0,0,1,4.81,7c.44,0-.44-.13.56-.07l1,.11c.56-.18.42-.47,0-.73l-.07.1a7.51,7.51,0,0,1-1.22-.16l-1.92,0c.14,0-.14-.07.55,0a17.87,17.87,0,0,0-2-.09C1.45,6,2.2,6,.93,5.92c-1.57,0,1.33.17,0,.25Z"/><polygon class="cls-1" points="2.42 6 3.4 6.08 2.91 6.01 2.42 6"/><path class="cls-1" d="M6.69,6.25l-1-.07C5.36,6.23,6,6.25,6.69,6.25Z"/><path class="cls-1" d="M2.54,6.78l.34.09.35,0C2.82,6.82,2.64,6.79,2.54,6.78Z"/><path class="cls-1" d="M7.23,7.54c-.15-.11-1-.2-.05-.27C6,7.15,5,7.19,3.9,7.12c-.25,0,1.74.13,2.11.21-1,0,.21.1,0,.15C6.39,7.49,6.85,7.51,7.23,7.54Z"/><path class="cls-1" d="M3.48,7.74s.73.13.28.15-.82-.07-.66-.09c-1.35,0,.21.06-.67.07.14,0,.37,0,.66,0-.29.12,1.1.13.36.27a11.1,11.1,0,0,0,1.22.1c-1.09.05-1.08,0-2,.07l2.7.09c-1.5.09.19.17-.91.23,0,0-.33,0-.18-.06-1.46-.06.26.1,0,.14L3,8.67c.21.06,1,.2.13.22l-.61,0c.94.18.52.32,1,.46l-.72,0c.9.21.4-.14,2.16.06-2.17-.08.7.12-.17.17s-.44-.11-1.41-.11c1.09.07.32.06.63.13-1-.06-.13.1-1.29,0l1.89.26c-.57,0-.47.06-.33.1s1.49.1,2,0c-.46-.18-.8-.45-.22-.62-1.45-.08,0-.12-1.16-.2l1.34,0a6.45,6.45,0,0,0-1.34-.07c-.19-.06.69-.06,1.23,0,.09-.09-.4,0-1.2-.11H6.53C6.09,8.71,4.94,8.29,6,8L4.86,8c.64-.11-2.53-.35-.08-.37l-1-.09c.56,0,1.74.06,2.52.14-.39-.06.06-.08-.29-.14l-.57,0c-1-.1-.37-.13.51-.1a24,24,0,0,0-3-.06c2.15.25-2.07.06-1.13.25A10.58,10.58,0,0,0,3.48,7.74Z"/><path class="cls-1" d="M6.62,7.7l-.31,0Z"/><path class="cls-1" d="M4.27,10s0,0,.06,0C4.57,10,4.4,10,4.27,10Z"/><path class="cls-1" d="M6,7.48H6Z"/><polygon class="cls-1" points="3.08 7.27 3.05 7.31 3.58 7.33 3.08 7.27"/><path class="cls-1" d="M3.13,10.33l.48,0Z"/><path class="cls-1" d="M5.1,9.24l0,0C5.13,9.2,5.12,9.21,5.1,9.24Z"/><path class="cls-1" d="M2.69,9.3a6,6,0,0,0-.46.46l.17-.22a3.48,3.48,0,0,0-.72.76l.17-.17c.29-.22-.29.45-.38.7.12,0,.77-.83.63-.53a2.33,2.33,0,0,1-.27.43c0,.17.44-.53.5-.57-.59,1-.48.94-.34.8s.37-.46.11.29c.15-.12.2.14.48-.3-.28.6.08.1-.18.8.52-1.47,0,.79.67-1.1-.06.58,0-.13,0,.37a.7.7,0,0,1-.11.25c-.08.43.35-.81.1.12.06.19.2-.54.44-1.05a4.94,4.94,0,0,1-.29,1.4c.33-1,.24-.47.46-1a1.39,1.39,0,0,1,.16-.64c.09.2.33-.62.55-.88-.3,1.14-.14,0-.31.92a6.73,6.73,0,0,0-.6,1.21c.08.1.27,0,.54-.46,0,.18-.21.53-.19.65-.06.57.56-1.11.49-.57l-.22.6c.32-.79.14.27.4-.15a7.58,7.58,0,0,1,.23-.74c-.26.79-.16.6,0,.35a1.43,1.43,0,0,1,.19-.3s0,0,0,0,0,.06,0,.1l0,.08v0h0l-.13.09h0A6,6,0,0,1,3,10.9c.29,0,.76,0,1,0-.63.08,1.07.16,1.63.26l-1,.72,0,.05,0-.05,1-.72c-.47-.09.07-.18-.7-.28l.86.06c.15-.09-2-.18-1.12-.25l.64,0c-.08-.22,1.16-.42-.35-.66-.56,0-1.87,0-2.31,0,.5.13,1.48.23,2,.33l-1-.05a12.35,12.35,0,0,0,1.69.14c.52.09-.91,0-.33.11l-2.08-.15.53.09c-.41,0-.35,0-.77,0,1.3.18-.48.14.12.29l.17-.06a2.28,2.28,0,0,1,.7.1,4,4,0,0,0-1,.07c.36.06,1.09.12,1.36.18l1.21-.83c0,.07-.06.1-.07.1.35-1,.06-.58.32-1.43-.34,1-.26.33-.46.9-.1.2-.12.08,0-.44l.09-.17,0,0c0-.12.07-.2.08-.22s-.26.68-.15.2a1.13,1.13,0,0,1,.16-.36c0-.16-.64,1.44-.44.56a10.81,10.81,0,0,0-.58,1.47c.08-.36.35-1.15.23-1-.32.82,0-.33-.22.19.36-.85.08-.24.42-1,0-.35-.39.75-.43.58l.18-.63c-.12.28-.38.93-.19.26l-.19.57c0-.3-.11-.14,0-.75l-.42,1c.25-1.11-.22-.14-.59.71a1,1,0,0,1,0-.47l.16-.34s.06-.61-.22.18c-.14.22.15-.57.18-.71-.25.54-.24.3-.23.17s0-.18-.43.59c0,.05,0,.37.08.35a3.66,3.66,0,0,1-.28.51c-.06,0,0-.14,0-.26s0-.2,0-.14l.51-.95c.26-.56.07-.26-.08-.06S2.34,9.92,2.69,9.3Z"/><path class="cls-1" d="M3.31,9.81l.11-.58-.15.48C3.32,9.64,3.34,9.64,3.31,9.81Z"/><path class="cls-1" d="M3.27,9.71l-.11.22s0,0,.08-.1Z"/><path class="cls-1" d="M2.58,9.23s0-.11,0-.06S2.51,9.32,2.58,9.23Z"/><polygon class="cls-1" points="2.43 9.36 2.36 9.5 2.41 9.43 2.43 9.36"/><path class="cls-1" d="M1.84,7.54l-.33-.09c.17,0,0-.14.26-.12-.36,0,0-.21-.5-.12a1.27,1.27,0,0,1-.09.55.79.79,0,0,0,0,.17,1.23,1.23,0,0,0,0,.27.54.54,0,0,0,.25.41H1.16c.26.07.1.23,0,.39s-.14.31.47,0L1,9.41c-.21.32.91-.35.28.24l.25-.2s-.11.13-.1.16l.11-.1c.26-.11.23,0,.08.17s-.09,0-.14.05c-.18.21.23-.08.23,0a1.38,1.38,0,0,1-.34.31c.29-.06-.25.65.56-.1.15-.15.27-.34.34-.36.22-.36-.06-.11-.31,0v0c-.84.7.18-.24-.2,0,.35-.27.35-.22.53-.37S2.41,9,2.35,9s-.12,0,.14-.24h0c.05-.06-.06,0-.11,0s-.07.1-.17.19-.48.32-.65.43c.39-.34-.21.09,0-.13a2.21,2.21,0,0,1,.56-.31L1.85,9s.09-.12.22-.21l.31-.24c-.16.05-.14.12-.52.32.47-.38.3-.52,0-.59,0,0,.37-.11.31,0s-.1-.06-.36,0S1.74,8,2,7.91L1.72,8c-.4-.09.31-.22.08-.34h0c-.05,0-.58,0-.45-.11A3.93,3.93,0,0,0,1.84,7.54Z"/><path class="cls-1" d="M1.44,7.13l.25,0c.06,0-.26-.08-.42-.06,0,0-.08.07.07.07S1.47,7.15,1.44,7.13Z"/><path class="cls-1" d="M1.62,6.29H1.49c-.05.18,0,.39-.23.48s.23,0,.3.12l-.25,0c.14,0-.17.17.26.1,0,0-.19,0-.11-.06H1.6l0-.08.16,0c.25-.13-.47,0-.28-.2h.3c0-.09-.05-.13.12-.22,0,0-.13,0-.08,0a.51.51,0,0,1-.21,0c-.18-.12.16,0,.28-.09-.18-.1-.22-.31-.05-.39-.13.06-.24,0-.2-.08s.1,0,.16,0,.07,0,.05-.08-.24,0-.26,0C1.37,6,1.67,6.13,1.62,6.29Z"/><path class="cls-1" d="M1.44,6.26a.06.06,0,0,0,.05,0V6.22Z"/></g></g></svg>