<svg xmlns="http://www.w3.org/2000/svg" viewBox="0 0 7.19 60.72"><defs><style>.cls-1{fill:#fff;}</style></defs><g id="Camada_2" data-name="Camada 2"><g id="Camada_1-2" data-name="Camada 1"><path class="cls-1" d="M1.66,60.72l0-.17-.12,0Z"/><path class="cls-1" d="M2.32,59.94a1.43,1.43,0,0,0,0-.29c-.65.15-.5-.07-.87.37.12.16.26.51.4.47s-.15-.28-.09-.45c.14.08.11.26.24.34.21-.26-.07-.17.06-.46Z"/><path class="cls-1" d="M1.78,59.58a1.39,1.39,0,0,0,.31.06C2,59.61,1.86,59.47,1.78,59.58Z"/><path class="cls-1" d="M1.72,59.41c0-.18.26,0,.3,0l-.47-.22C1.61,59.26,1.67,59.33,1.72,59.41Z"/><path class="cls-1" d="M1.77,58.65l-.06-.08C1.62,58.6,1.7,58.62,1.77,58.65Z"/><path class="cls-1" d="M1.7,58.28c-.23.07-.08.17,0,.29h0c.19-.1.63,0,.48.17,0,.17-.33.15-.1.31l.36-.2C2.53,58.56,1.89,58.39,1.7,58.28Z"/><path class="cls-1" d="M1.77,58.65a.36.36,0,0,1,0,.1C1.86,58.71,1.82,58.68,1.77,58.65Z"/><polygon class="cls-1" points="1.71 59.03 1.79 59.13 1.94 59.11 1.71 59.03"/><path class="cls-1" d="M1.66,57.66c.72.06-.08.44.44.5,0-.24.54-.43.93-.37l-.15-.27A2.22,2.22,0,0,0,1.66,57.66Z"/><path class="cls-1" d="M3.72,57.17c-.06,0-.1,0-.11-.07A.15.15,0,0,0,3.72,57.17Z"/><path class="cls-1" d="M2.48,55.78a10.45,10.45,0,0,1,.85.64c-.28-.06-.57,0-.66-.19-.16.28.41.33.27.55-.82.06,0-.4-.76-.28,0,.16,0,.4.67.55l-.56.24.84-.07c.27-.1-.62-.22,0-.27.39,0,.42.08.48.15-.12-.17.85-.44.89-.78S2.94,56,2.48,55.78Z"/><polygon class="cls-1" points="3.62 55.77 4.03 55.74 3.48 55.76 3.62 55.77"/><path class="cls-1" d="M2.32,55.06,3,55.4a3.87,3.87,0,0,1-.52.07c.25,0,.65.09.86.08,1-.14-.22-.41-.4-.59.55-.46.55,0,1.57-.13-.07.13-.32.13-.43.31,1.23-.26.3-.64,0-.83-.12,0-.46.06-.39.16l-.32-.2C2.45,54.45,2.23,54.62,2.32,55.06Z"/><path class="cls-1" d="M2.29,55.65c-.06-.13,0-.17.15-.18C2.17,55.5,2,55.54,2.29,55.65Z"/><path class="cls-1" d="M4.05,54.21c-.08,0-.06,0,0,.1S4.13,54.26,4.05,54.21Z"/><path class="cls-1" d="M2.72,54.37l.14-.23-.53.09A.53.53,0,0,0,2.72,54.37Z"/><path class="cls-1" d="M6,45.61c-.7,0-1,.09-.93.27-.92,0-.73-.27-1.25-.39-.61.23-1.09,0-2,0-.09.26,1.1.4.84.68a6.49,6.49,0,0,0-1,0c.58.35,1.38.93.61,1.25-.34.31.07.56.44.91-.47,1.14.25,2.36-.51,3.58l1.37.2c-.69,0,0,.29-.91.24.17-.06,0-.13,0-.21-1.21.24,0,.7-.39,1a6,6,0,0,1,1.53,0c-1.41-.06,0,.37-1.63.43-.41.31,1.18,0,.93.36.77.05.43-.3,1.05-.35.62.11-.35.29.49.29.59-.52-.93-1.53-1.42-2.35l.86.1c-.56-.43-.55-1.1,1-1.4-.91.06.61-.6-1.5-.58.49-.09.42-.12.62-.27l-.67-.05c0-.22,1.08-.16,1-.41a5.44,5.44,0,0,1-2-.12c1-.26,2-.57,2.95-.8a8.16,8.16,0,0,0-1.1.11C4.93,48,4,48,3.68,48c0-.17,1.22-.13,1.85-.11.43-.29-2-.47-1.14-.67l-1,0c-.24-.31.92-.54.6-.89,1.44-.14,1.21.3,1.8.45a4.09,4.09,0,0,1,.88-.24C5.93,46.41,5,46.15,4.28,46,5.94,46.16,5.9,45.73,6,45.61Z"/><path class="cls-1" d="M6.64,46.57l.55.11c-.08,0-.17-.07-.1-.12A3.14,3.14,0,0,0,6.64,46.57Z"/><path class="cls-1" d="M6,45.61h.17C6.1,45.57,6.05,45.58,6,45.61Z"/><path class="cls-1" d="M2.23,47.49l.09,0s0,0,0-.06Z"/><path class="cls-1" d="M6.77,47.83c-.36.06-.73.15-1.1.24A2.06,2.06,0,0,0,6.77,47.83Z"/><path class="cls-1" d="M5.32,49.88A4.86,4.86,0,0,0,6,50C6.11,49.83,5.81,49.78,5.32,49.88Z"/><polygon class="cls-1" points="6.96 46.2 6.67 45.94 6.4 45.84 6.96 46.2"/><path class="cls-1" d="M1.57,40.87c-1.32.2-.52.55-.8.82.68.53,2.9.12,3.05.62l-2.73-.14c.15.49-.41,1.17,2,1.63a2.66,2.66,0,0,1-1.12,0c.1.33,3.83.24,2.92.66-1.65-.44-1.59.1-3.24,0l-.19-.07c.17.28,1,.66.92.84.68,0,1.73-.12,1.8.13a6.16,6.16,0,0,1,1.58,0c-.73-.27-.25-.4-1.15-.57.91-.12.29.1,1.18,0l-.81-.22c.22-.14.89.17,1.09-.06-.51,0-1.08-.23-.95-.41l.31.06c-.35-.15.1-.34-1.4-.3l1.51-.13h-1c.41-.38,2.89-.47,1.62-1A2.15,2.15,0,0,1,5,42.58c-.72.19.77.26.9.46-1,0-2.25-.34-2.87-.12,1.23-.23-.15-.49,2.43-.55.17-.31-1.09-.45-.49-.76l.39,0c-1.7-.09.77-.24-1-.51L4,41.28c-.69,0-.71-.11-.84-.22a2.53,2.53,0,0,0,.61,0A4.82,4.82,0,0,1,2,40.58c-.21.14.8.35,1.11.53C2.39,41,1.36,41,1.57,40.87Z"/><path class="cls-1" d="M6,44.17l-.58-.11A2.22,2.22,0,0,0,6,44.17Z"/><path class="cls-1" d="M3.73,39.49c.27-.19,1,.08,1.57-.1-.84-.22-1.72.2-3,0,.73-.11-.52-.33-.54-.41a18.59,18.59,0,0,0,2.63,0c-.45-.09.33-.25.37-.38-1,.31-.6-.28-1.66,0-1,0-1.62-.35-.9-.46s.53.12.56.2c1.27.09.68-.19,1.83-.22C2.84,37.8,3,36.82.22,37.05c-.54.09.12.2.24.31.57-.31,1.46,0,2,.06-.45.13.43.38-.57.31l-1-.24a2.22,2.22,0,0,0,0,2.44l.07-.34a2.59,2.59,0,0,1,1.21.35L4,39.81c-.14.09.15.19-.54.17a6.56,6.56,0,0,0,2,0c.35.27-.41.29.86.52,1.57-.4-1.32-.39,0-.85Z"/><polygon class="cls-1" points="4.79 40.45 3.81 40.33 4.3 40.49 4.79 40.45"/><path class="cls-1" d="M.52,40.2c.43,0,.62.07,1,.08C1.85,40.08,1.26,40.1.52,40.2Z"/><path class="cls-1" d="M4.68,37.88l-.33-.26L4,37.78A1.89,1.89,0,0,1,4.68,37.88Z"/><path class="cls-1" d="M0,36c.14.36,1,.52,0,.91,1.17.22,2.22,0,3.29.06.25-.2-1.74-.21-2.11-.43,1-.06-.21-.31,0-.5A7.33,7.33,0,0,1,0,36Z"/><path class="cls-1" d="M3.76,34.83c0-.17-.73-.34-.28-.47.59,0,.82.14.66.23,1.35,0-.21-.18.67-.34a2,2,0,0,1-.66,0c.29-.43-1.09-.26-.36-.82a2.9,2.9,0,0,0-1.21-.17,13.36,13.36,0,0,0,2-.51c-.49,0-1.63.11-2.7.09,1.5-.53-.19-.57.92-.9,0,0,.32.09.18.18,1.46,0-.27-.3,0-.48l1.23,0c-.2-.19-1-.51-.12-.72l.61.06c-.94-.48-.52-1-1-1.41l.72-.2c-.9-.55-.4.53-2.16.1,2.16,0-.7-.29.16-.58.86-.13.45.32,1.42.18-1.1-.09-.32-.17-.63-.34,1,0,.13-.34,1.29-.22L2.67,28c.57-.08.47-.25.33-.38,0,.31-1.49-.11-2,.23a1.47,1.47,0,0,1,.21,2c1.45.1,0,.41,1.16.54l-1.34.05c.3.41.81-.08,1.34,0,.19.18-.7.31-1.23.28-.09.29.4,0,1.19.21l-1.63.16c.43.92,1.58,2.15.53,3.18l1.12-.06c-.65.46,2.53.84.07,1.21l1,.16c-.57-.09-1.75.05-2.53-.09.39.13-.06.26.29.4l.57-.22c1,.18.38.35-.51.39,1.18.37,2.05-.17,3-.23-2.16-.54,2.08-.46,1.14-.95C4.74,34.54,4.37,34.86,3.76,34.83Z"/><path class="cls-1" d="M.61,35.38l.31.08A1.91,1.91,0,0,0,.61,35.38Z"/><path class="cls-1" d="M3,27.57a.26.26,0,0,0,0-.14C2.71,27.38,2.87,27.46,3,27.57Z"/><path class="cls-1" d="M1.25,36h0Z"/><polygon class="cls-1" points="4.16 36.32 4.19 36.19 3.65 36.2 4.16 36.32"/><path class="cls-1" d="M4.16,26.2H3.67A2.64,2.64,0,0,0,4.16,26.2Z"/><path class="cls-1" d="M4.32,22.44l0,.08C4.36,22.49,4.35,22.46,4.32,22.44Z"/><path class="cls-1" d="M3.29,13.37a1.88,1.88,0,0,0-.84-.77l.29,0a1,1,0,0,0-1.1-.3l.24.07c.41.32-.49.22-.7.46.1.29,1.23.48,1,.74,0,.11-.28.09-.51.05-.1.26.79.38.91.56-2.42,0,.64.81-.95,1.17.2.25-.05.57.45.89-.65-.18-.07.29-.82.21,1.56.12-.76.88,1.24,1-.58.41.13,0-.36.49-.23,0-.23-.08-.27-.12-.44.19.87.32-.08.46-.18.39.56.08,1.12.32-.25.4-.54.28-1.44.49,1,.05.52.29,1.06.5a.51.51,0,0,1,.65-.14c-.16.47.69.4,1,.84-1.18.2,0-.44-1-.07-.55-.29-.49-.5-1.33-.67a1.33,1.33,0,0,0,.58,1.26c-.17.22-.56-.13-.68.05-.56.39,1.23.65.68,1l-.64-.08c.85.22-.22.72.25,1.1a2.05,2.05,0,0,1,.78,0c-1.68,0,.87.54-.33.89a2.24,2.24,0,0,1,1.83.59,4.19,4.19,0,0,1-1.06,0c.65-.36-1.19-.38-1.68-.69.56.26-.05.66.75.89l-.87-.11c-.14.34,2,.34,1.13.68l-.65,0c.09.72-1.16,1.54.35,2.14A22.24,22.24,0,0,0,4.58,27c-.5-.35-1.48-.57-1.95-.84l1,0C3,26.12,2.54,25.79,2,26c-.52-.23.91-.15.33-.4,1.07,0,1.19.19,2.09.21l-.54-.23c.42.08.36-.12.78-.05-1.3-.42.48-.54-.11-1l-.18.22c-.59,0-.53-.14-.7-.24a1.53,1.53,0,0,0,1.05-.37c-.47-.19-1.49-.31-1.48-.55,1.07.07.57-.4,1.47-.43-1.06-.07-.4-.48-1-.53-.22-.13-.11-.31.45-.3a1.46,1.46,0,0,1,.18.11l0-.14.22,0c0-.11-.72-.13-.22-.27.27,0,.27.09.38.16.15-.31-1.56-.58-.65-.82C3.6,21.34,3.56,21,2.5,21c.38-.09,1.21,0,1.06-.3-.87-.17.32-.29-.25-.5.92.28.25,0,1.13.26.35-.18-.82-.46-.67-.77.2,0,.46,0,.66-.05-.31-.12-1-.27-.3-.37h-.6c.3-.21.11-.51.73-.72l-1.1-.29c1.14-.33.09-.83-.84-1.13a.55.55,0,0,1,.47-.31l.38.15c0-.19.61-.42-.23-.54-.26-.2.57-.13.7-.28-1.14-.42.79-1.16-.9-1.31,0,.16-.36.47-.29.78-.21-.09-.55,0-.58-.15-.06-.31.57-.46.3-.77l1.06.05C4.26,14.29,1.84,13.76,3.29,13.37Z"/><path class="cls-1" d="M3.32,17.35l.59-.21h-.5C3.49,17.22,3.49,17.29,3.32,17.35Z"/><path class="cls-1" d="M3.41,17.15A1.08,1.08,0,0,0,3.17,17c0,.05,0,.09.11.14Z"/><path class="cls-1" d="M3.11,12.47a.17.17,0,0,0,0-.25C3,12.29,3,12.42,3.11,12.47Z"/><polygon class="cls-1" points="2.83 12.2 2.68 12.31 2.79 12.33 2.83 12.2"/><path class="cls-1" d="M2.38,5.59l-.31-.37c.18-.06,0-.47.28-.33-.36-.22,0-.69-.49-.52.08,1.06-.51,2.52,0,3.76l-.28-.21c.55.65-.79.87.42,1.4l-.65-.08c-.23.29.92.58.17.87l.29,0c0,.08-.14.11-.15.19l.13,0c.27.22.23.35,0,.55-.24,0-.09-.1-.15-.16-.24.09.23.26.22.43-.21.12-.33,0-.43,0,.29.5-.55.7.59,1.07.21,0,.4-.12.49.07.38-.32-.08-.59-.36-.89v.08c-1.06-.26.25-.18-.19-.56.42.11.41.27.65.34.8-.42-.59-.64.42-.9l0,0c.09-.06-.1-.18-.19-.28a.91.91,0,0,0-.29.19,2.21,2.21,0,0,0-.71-.2c.45-.1-.2-.15,0-.33.4-.05.36.16.57.23l-.26-.22c0-.2.44-.18.65-.28-.3-.17-.22.1-.63-.05.5-.2.36-1.1,0-1.53,0,.15.37.06.31.24.08-.07-.1-.3-.36-.31-.21-.29,0-.67.22-.94l-.26.08c-.38-.24.34-.58.13-1h0c0-.13-.56-.25-.43-.49C2.15,5.47,2.12,5.6,2.38,5.59Z"/><path class="cls-1" d="M2,4.15l.25.13C2.35,4.14,2,4,1.88,4c0,.1-.09.22.06.24S2.07,4.21,2,4.15Z"/><path class="cls-1" d="M2.33,1.41c0-.06-.1,0-.14-.07a4.16,4.16,0,0,1-.28,1.53c-.1.19.22.23.28.48l-.25.11c.14.13-.19.53.24.4,0,0-.18-.12-.09-.24l.13,0,0-.26.16.09c.26-.35-.47-.26-.26-.7h.31c0-.29,0-.44.14-.69,0,0-.13,0-.08,0a.21.21,0,0,1-.22.08c-.16-.45.16.07.3-.24a1.64,1.64,0,0,1,0-1.31C2.4.84,2.31.57,2.36.36s.1.07.15.11A.72.72,0,0,0,2.58.19c-.11.13-.25,0-.26-.19C2.1.5,2.39.9,2.33,1.41Z"/><path class="cls-1" d="M2.15,1.25c0,.06,0,.08,0,.09l0-.2Z"/></g></g></svg>