<svg xmlns="http://www.w3.org/2000/svg" viewBox="0 0 7.29 36.16"><defs><style>.cls-1{fill:#fff;}</style></defs><g id="Camada_2" data-name="Camada 2"><g id="Camada_1-2" data-name="Camada 1"><path class="cls-1" d="M1.89,36.16l0-.1L1.8,36Z"/><path class="cls-1" d="M2.55,35.7a1,1,0,0,0,0-.17c-.64.08-.5-.05-.86.22.12.09.27.3.4.28s-.15-.17-.09-.27.1.15.24.2c.21-.16-.07-.1.06-.28Z"/><path class="cls-1" d="M2,35.49l.31,0C2.21,35.5,2.08,35.42,2,35.49Z"/><path class="cls-1" d="M1.94,35.38c0-.11.27,0,.3,0l-.47-.14Z"/><path class="cls-1" d="M2,34.93s0,0-.05,0S1.91,34.91,2,34.93Z"/><path class="cls-1" d="M1.91,34.71c-.23,0-.08.1,0,.17H2c.18-.06.62,0,.47.11.06.1-.32.09-.09.18L2.7,35C2.74,34.88,2.11,34.78,1.91,34.71Z"/><path class="cls-1" d="M2,34.93A.09.09,0,0,1,2,35C2.08,35,2,35,2,34.93Z"/><polygon class="cls-1" points="1.93 35.16 2.01 35.21 2.16 35.2 1.93 35.16"/><path class="cls-1" d="M1.87,34.34c.72,0-.08.26.44.3,0-.15.54-.26.93-.22l-.16-.16A3.65,3.65,0,0,0,1.87,34.34Z"/><path class="cls-1" d="M3.92,34.06,3.8,34Z"/><path class="cls-1" d="M2.66,33.22c.32.13.6.26.86.39-.28,0-.57,0-.66-.12-.16.17.41.2.28.33-.83,0,0-.24-.77-.17,0,.09,0,.24.68.33l-.56.14.84,0c.27,0-.62-.13,0-.16.38,0,.42,0,.48.1-.12-.11.85-.26.87-.46S3.12,33.37,2.66,33.22Z"/><polygon class="cls-1" points="3.79 33.22 4.2 33.21 3.65 33.21 3.79 33.22"/><path class="cls-1" d="M2.5,32.79l.65.21a5,5,0,0,1-.52,0c.25,0,.65.05.85.05,1-.08-.21-.25-.39-.35.54-.27.55,0,1.57-.07-.07.07-.32.07-.44.18,1.24-.15.3-.38,0-.5-.12,0-.46,0-.38.1l-.33-.12C2.62,32.43,2.4,32.53,2.5,32.79Z"/><path class="cls-1" d="M2.47,33.14c-.06-.07,0-.1.15-.1C2.36,33.05,2.17,33.07,2.47,33.14Z"/><path class="cls-1" d="M4.22,32.3c-.07,0-.06,0,0,.05S4.3,32.33,4.22,32.3Z"/><path class="cls-1" d="M2.89,32.39,3,32.25l-.53,0A.86.86,0,0,0,2.89,32.39Z"/><path class="cls-1" d="M6.11,27.18c-.7,0-1.05.05-.93.16a4.14,4.14,0,0,1-1.25-.24,11.88,11.88,0,0,1-2,0c-.09.16,1.1.25.85.41-.26,0-.66,0-1,0,.58.21,1.39.57.62.75-.34.18.08.33.45.55-.46.67.27,1.4-.48,2.12l1.37.13c-.69,0,0,.17-.91.14.18,0,0-.08,0-.13-1.21.14.06.42-.38.6A11,11,0,0,1,4,31.7c-1.41,0,0,.23-1.62.26-.41.18,1.18,0,.92.21.78,0,.43-.18,1-.2s-.34.17.5.17c.58-.3-.94-.91-1.45-1.4l.87.06c-.56-.26-.56-.65,1-.83-.91,0,.6-.35-1.5-.35.49-.05.42-.07.61-.16l-.67,0c0-.13,1.08-.09,1-.24a9.46,9.46,0,0,1-2-.08l2.94-.46c-.32,0-.67,0-1.1.05.36-.09-.56-.09-.89-.12a7.7,7.7,0,0,1,1.85,0c.43-.17-2-.29-1.15-.41l-1,0c-.23-.19.92-.32.59-.53,1.45-.08,1.22.19,1.81.28a5.4,5.4,0,0,1,.88-.14c-.71-.1-1.68-.26-2.37-.38C6,27.51,6,27.25,6.11,27.18Z"/><path class="cls-1" d="M6.74,27.76l.55.06c-.08,0-.17,0-.1-.07Z"/><path class="cls-1" d="M6.11,27.18h.17A.31.31,0,0,0,6.11,27.18Z"/><path class="cls-1" d="M2.34,28.29l.09,0,0,0Z"/><path class="cls-1" d="M6.88,28.51c-.36,0-.73.08-1.1.14A3.2,3.2,0,0,0,6.88,28.51Z"/><path class="cls-1" d="M5.44,29.72c.15,0,.44,0,.73.06C6.23,29.7,5.94,29.67,5.44,29.72Z"/><polygon class="cls-1" points="7.06 27.54 6.77 27.38 6.49 27.32 7.06 27.54"/><path class="cls-1" d="M1.62,24.34c-1.32.11-.52.32-.79.49.68.31,2.9.08,3.05.37l-2.73-.09c.15.29-.4.7,2,1a4.23,4.23,0,0,1-1.12,0c.1.2,3.83.16,2.92.41-1.65-.27-1.59.05-3.24,0l-.19,0c.17.17,1,.4.93.5.68,0,1.72-.06,1.79.09a10.64,10.64,0,0,1,1.58,0c-.72-.16-.25-.23-1.14-.34.9-.07.28.06,1.17,0L5,26.5c.22-.09.89.11,1.09,0-.51,0-1.08-.15-.95-.25l.31,0c-.35-.08.1-.19-1.41-.18L5.56,26h-1c.41-.22,2.89-.27,1.61-.58a3.27,3.27,0,0,1-1.06-.05c-.72.11.77.16.91.28a23.09,23.09,0,0,0-2.88-.08c1.23-.14-.15-.3,2.43-.32.17-.18-1.09-.27-.49-.45h.38c-1.7-.06.77-.14-1-.31l-.39.09c-.69,0-.72-.06-.84-.13a4.12,4.12,0,0,0,.6,0,6.8,6.8,0,0,1-1.78-.29c-.22.09.79.22,1.11.33C2.44,24.42,1.41,24.42,1.62,24.34Z"/><path class="cls-1" d="M6,26.32l-.58-.07A2.28,2.28,0,0,0,6,26.32Z"/><path class="cls-1" d="M3.76,23.53c.27-.12,1,0,1.57-.06-.84-.13-1.72.12-3,0,.73-.06-.52-.2-.54-.25.71.06,2.3.06,2.62,0-.44,0,.34-.14.37-.22-1,.18-.59-.17-1.66,0-.94,0-1.62-.22-.9-.28s.53.07.56.12a14.41,14.41,0,0,0,1.83-.12c-1.78-.21-1.65-.8-4.4-.67-.53.05.13.11.24.18a6.39,6.39,0,0,1,2,.05c-.45.07.44.23-.56.18l-1-.15c-.56.41-.42,1,0,1.45l.07-.2a4,4,0,0,1,1.22.22L4,23.72c-.14.05.15.11-.55.1a12.13,12.13,0,0,0,2,0c.35.16-.41.17.86.31,1.57-.23-1.32-.24,0-.51Z"/><polygon class="cls-1" points="4.83 24.1 3.85 24.03 4.34 24.13 4.83 24.1"/><path class="cls-1" d="M.56,23.94l1,0C1.89,23.87,1.3,23.88.56,23.94Z"/><path class="cls-1" d="M4.7,22.57l-.34-.16-.35.1A3.05,3.05,0,0,1,4.7,22.57Z"/><path class="cls-1" d="M0,21.42c.15.22,1,.32.05.55,1.17.13,2.21,0,3.28.05.26-.12-1.73-.14-2.11-.27,1,0-.21-.18,0-.3C.84,21.46.37,21.45,0,21.42Z"/><path class="cls-1" d="M3.75,20.75c0-.1-.74-.21-.28-.28s.82.09.66.14c1.34,0-.22-.11.67-.2a3.45,3.45,0,0,1-.67,0c.29-.26-1.09-.17-.36-.5a5,5,0,0,0-1.22-.1c1.09-.18,1.08-.08,2-.3-.49,0-1.63.06-2.7,0,1.5-.3-.2-.34.91-.53,0,0,.32.06.18.11,1.46,0-.27-.18,0-.29l1.23,0c-.2-.11-1-.31-.13-.43l.61,0c-.94-.29-.53-.6-1-.84l.72-.11c-.9-.34-.4.31-2.16,0,2.16,0-.71-.17.16-.34s.44.19,1.42.11c-1.1-.06-.32-.1-.64-.21,1,0,.13-.2,1.29-.12l-1.9-.37c.58,0,.47-.15.33-.23,0,.19-1.49-.07-2,.13.47.31.81.82.24,1.19,1.45.06,0,.24,1.16.32L1,18.09c.3.25.81-.05,1.34,0,.19.11-.7.18-1.23.16-.09.18.4,0,1.2.13l-1.64.09c.44.55,1.6,1.29.56,1.9l1.12,0c-.64.27,2.54.51.09.72l1,.1c-.56-.06-1.74,0-2.53-.07.39.09-.06.16.3.24l.57-.13c1,.12.38.22-.51.23a11.38,11.38,0,0,0,3-.12c-2.16-.33,2.07-.26,1.12-.56A5.46,5.46,0,0,0,3.75,20.75Z"/><path class="cls-1" d="M.61,21.06l.3.05Z"/><path class="cls-1" d="M2.92,16.42s0,0-.06-.08C2.63,16.31,2.79,16.36,2.92,16.42Z"/><path class="cls-1" d="M1.25,21.45h0Z"/><polygon class="cls-1" points="4.16 21.64 4.19 21.57 3.65 21.57 4.16 21.64"/><path class="cls-1" d="M4.06,15.61h0Z"/><path class="cls-1" d="M4.19,13.37l0,.05C4.23,13.41,4.22,13.39,4.19,13.37Z"/><path class="cls-1" d="M3.07,8a1.87,1.87,0,0,0-.84-.47l.29,0a1.43,1.43,0,0,0-1.11-.19l.25,0c.41.19-.49.12-.7.27.11.17,1.24.29,1,.44,0,.07-.28.05-.51,0-.1.15.79.23.91.34-2.41,0,.65.49-.93.69.19.15,0,.34.45.53-.65-.11-.06.18-.81.13,1.56.07-.76.52,1.24.58-.58.24.14,0-.35.3-.23,0-.23-.06-.27-.08-.44.11.88.19-.08.27-.17.23.56,0,1.13.2-.25.24-.54.17-1.44.28,1,0,.53.18,1.06.31A.76.76,0,0,1,3,11.59c-.17.28.69.24,1,.5-1.18.12,0-.26-1,0a4.19,4.19,0,0,0-1.33-.41c-.08.23.09.5.59.75-.17.14-.57-.07-.68,0-.56.23,1.23.39.69.58L1.64,13c.85.13-.22.42.26.65a3.27,3.27,0,0,1,.77,0c-1.67,0,.88.32-.31.53a3.14,3.14,0,0,1,1.82.36,9.16,9.16,0,0,1-1,0c.65-.21-1.19-.24-1.68-.42.55.16-.05.39.75.53l-.86-.07c-.15.21,2,.21,1.13.41l-.65,0c.09.43-1.15.92.36,1.28.57,0,1.88-.11,2.31-.11-.5-.21-1.48-.35-1.95-.51l1,0a7.08,7.08,0,0,0-1.69-.15c-.53-.14.91-.08.32-.24,1.07,0,1.19.12,2.09.14l-.54-.14c.42,0,.36-.07.78,0-1.3-.25.47-.32-.12-.57l-.18.13c-.58,0-.53-.08-.7-.15a2.13,2.13,0,0,0,1-.21c-.46-.12-1.49-.19-1.48-.34,1.08,0,.57-.23,1.46-.24-1.06-.05-.39-.29-1-.32-.21-.08-.11-.19.45-.18l.18.06,0-.08.22,0c0-.07-.72-.08-.22-.16a.63.63,0,0,1,.38.09c.15-.18-1.57-.35-.66-.49a5.75,5.75,0,0,0-1.58-.22c.38,0,1.21,0,1.06-.17-.88-.11.31-.17-.26-.3.92.17.25,0,1.14.16.34-.1-.83-.28-.68-.46l.65,0c-.3-.07-1-.16-.3-.22h-.6c.3-.12.1-.3.73-.42L3,10.91c1.13-.19.07-.49-.85-.68a.6.6,0,0,1,.46-.18l.38.09c0-.11.6-.25-.24-.32-.25-.12.58-.08.7-.16-1.14-.26.79-.69-.91-.79,0,.1-.35.28-.28.46-.21-.05-.55,0-.59-.09S2.24,9,2,8.78L3,8.82C4.06,8.52,1.63,8.19,3.07,8Z"/><path class="cls-1" d="M3.14,10.34l.6-.13H3.23C3.31,10.26,3.32,10.31,3.14,10.34Z"/><path class="cls-1" d="M3.23,10.22A1,1,0,0,0,3,10.14s0,.06.11.08Z"/><path class="cls-1" d="M2.89,7.43s.11-.09,0-.15S2.75,7.4,2.89,7.43Z"/><polygon class="cls-1" points="2.61 7.27 2.46 7.33 2.57 7.34 2.61 7.27"/><path class="cls-1" d="M2.1,3.33l-.31-.22c.17,0,0-.28.27-.2-.36-.13,0-.41-.5-.31.09.63-.48,1.5,0,2.24l-.27-.12c.55.39-.79.51.43.83l-.65,0c-.23.17.92.35.18.52l.28,0s-.13.07-.14.12l.13,0c.27.13.23.21,0,.33s-.09-.06-.15-.1c-.24.06.24.16.23.26a.75.75,0,0,1-.44,0c.3.3-.54.42.6.64.22,0,.4-.07.5,0,.37-.18-.09-.35-.38-.53v0c-1.07-.16.25-.1-.2-.33.42.06.42.16.65.2.8-.24-.59-.38.41-.53l0,0c.1,0-.09-.11-.18-.17a.83.83,0,0,0-.29.11A3.16,3.16,0,0,0,1.65,6c.44-.06-.21-.09,0-.2.4,0,.36.1.58.14L2,5.76c0-.12.44-.11.65-.16-.3-.11-.22.05-.63,0,.49-.11.35-.65,0-.91.05.09.38,0,.31.14.09,0-.09-.17-.36-.18-.21-.18,0-.4.21-.56l-.25,0c-.39-.15.33-.35.12-.59h0c0-.08-.57-.15-.43-.3C1.87,3.26,1.84,3.34,2.1,3.33Z"/><path class="cls-1" d="M1.74,2.47,2,2.55c.06-.09-.25-.2-.41-.18,0,.06-.09.13.06.14S1.77,2.51,1.74,2.47Z"/><path class="cls-1" d="M2,.84s-.09,0-.14,0c-.06.34-.07.77-.27.91s.23.14.29.28l-.25.07c.14.08-.18.31.25.24,0,0-.18-.08-.1-.14h.14L1.9,2l.16.06c.25-.21-.47-.16-.27-.42H2.1c0-.18-.05-.27.13-.42,0,0-.13,0-.08,0a.25.25,0,0,1-.22,0c-.16-.26.16.05.3-.14C2.06,1,2,.52,2.21.4,2.07.5,2,.34,2,.22s.1,0,.15.06.09-.11.07-.17A.16.16,0,0,1,2,0C1.77.3,2.06.54,2,.84Z"/><path class="cls-1" d="M1.82.75s0,0,0,.05l0-.12Z"/></g></g></svg>