<svg xmlns="http://www.w3.org/2000/svg" viewBox="0 0 6.96 54.42"><defs><style>.cls-1{fill:#fff;}</style></defs><g id="Camada_2" data-name="Camada 2"><g id="Camada_1-2" data-name="Camada 1"><path class="cls-1" d="M5.85,0l0,.15L5.93.2A1.67,1.67,0,0,1,5.85,0Z"/><path class="cls-1" d="M5.16.68a1.13,1.13,0,0,0,0,.26C5.8.82,5.64,1,6,.63,5.91.48,5.77.16,5.64.2s.14.26.07.4C5.57.53,5.62.37,5.48.29c-.22.23.07.16-.07.42Z"/><path class="cls-1" d="M5.69,1A.87.87,0,0,0,5.38,1C5.49,1,5.62,1.12,5.69,1Z"/><path class="cls-1" d="M5.75,1.17c0,.17-.26,0-.3,0l.47.21Z"/><path class="cls-1" d="M5.69,1.85a.35.35,0,0,0,0,.08C5.84,1.91,5.75,1.88,5.69,1.85Z"/><path class="cls-1" d="M5.75,2.19c.22-.06.09-.15,0-.26h0c-.19.08-.62,0-.47-.17-.05-.16.33-.13.1-.28L5,1.66C4.93,1.91,5.56,2.08,5.75,2.19Z"/><path class="cls-1" d="M5.69,1.85a.1.1,0,0,1,0-.09C5.59,1.8,5.63,1.82,5.69,1.85Z"/><polygon class="cls-1" points="5.75 1.51 5.68 1.42 5.52 1.44 5.75 1.51"/><path class="cls-1" d="M5.77,2.74c-.72-.07.09-.39-.43-.46,0,.22-.55.37-.94.31l.15.25A2.61,2.61,0,0,0,5.77,2.74Z"/><path class="cls-1" d="M3.7,3.12l.12.06A.27.27,0,0,0,3.7,3.12Z"/><path class="cls-1" d="M4.92,4.41C4.61,4.2,4.33,4,4.08,3.8c.28.07.57.06.65.19.17-.24-.4-.3-.26-.5.83,0,0,.37.76.28,0-.14,0-.37-.66-.51l.57-.21-.84,0c-.28.08.61.22,0,.25-.38,0-.41-.08-.47-.15.12.15-.86.37-.89.67S4.46,4.18,4.92,4.41Z"/><polygon class="cls-1" points="3.79 4.38 3.37 4.4 3.92 4.4 3.79 4.38"/><path class="cls-1" d="M5.05,5.06l-.64-.33a4.79,4.79,0,0,1,.53-.05c-.25,0-.65-.09-.85-.09-1,.09.2.37.37.54-.56.39-.54,0-1.57.07.07-.12.32-.11.45-.27-1.25.2-.32.57,0,.75.13,0,.46,0,.39-.14L4,5.73C4.91,5.59,5.14,5.45,5.05,5.06Z"/><path class="cls-1" d="M5.1,4.53c.06.11,0,.15-.15.15C5.21,4.67,5.4,4.64,5.1,4.53Z"/><path class="cls-1" d="M3.31,5.77c.07,0,.06,0,0-.09S3.23,5.72,3.31,5.77Z"/><path class="cls-1" d="M4.64,5.66l-.14.2L5,5.8A.61.61,0,0,0,4.64,5.66Z"/><path class="cls-1" d="M1.15,13.42c.69,0,1.05-.05.94-.21.91.06.71.26,1.23.38.62-.19,1.09.05,2,0,.1-.23-1.09-.39-.83-.63a7.76,7.76,0,0,0,1,0c-.57-.33-1.36-.88-.58-1.14.35-.27-.06-.5-.41-.83.49-1-.21-2.12.58-3.19L3.69,7.64c.69,0,0-.27.92-.2-.18.06,0,.12,0,.19,1.22-.18,0-.63.42-.89a6.41,6.41,0,0,1-1.53-.08c1.4.09,0-.33,1.63-.34.42-.27-1.18-.07-.91-.35-.77-.07-.44.26-1.06.29S3.47,6,2.63,6c-.6.45.9,1.4,1.37,2.15L3.14,8c.55.4.53,1-1.07,1.23.91,0-.61.52,1.49.56-.5.07-.43.1-.63.23l.67.06c0,.19-1.08.11-1.05.33a6.11,6.11,0,0,1,2,.17l-3,.63a7.4,7.4,0,0,0,1.1-.06c-.36.13.57.15.89.21,0,.14-1.22.07-1.85,0-.44.25,2,.48,1.12.64l1,0c.23.29-.93.47-.61.79-1.46.08-1.21-.31-1.79-.46a4.2,4.2,0,0,1-.89.19c.7.16,1.67.43,2.34.62C1.24,12.93,1.27,13.32,1.15,13.42Z"/><path class="cls-1" d="M.55,12.54,0,12.43c.08,0,.17.06.1.1A2.34,2.34,0,0,0,.55,12.54Z"/><path class="cls-1" d="M1.15,13.42H1A.21.21,0,0,0,1.15,13.42Z"/><path class="cls-1" d="M5,11.84c-.05,0-.06,0-.1,0s0,0,0,0Z"/><path class="cls-1" d="M.44,11.4a10.68,10.68,0,0,0,1.11-.18A2.36,2.36,0,0,0,.44,11.4Z"/><path class="cls-1" d="M2,9.61a6.31,6.31,0,0,0-.72-.09C1.16,9.63,1.45,9.68,2,9.61Z"/><polygon class="cls-1" points="0.22 12.86 0.5 13.11 0.77 13.2 0.22 12.86"/><path class="cls-1" d="M5.49,17.8c1.32-.14.53-.48.81-.72-.67-.49-2.89-.19-3-.63l2.72.2c-.13-.45.44-1-1.91-1.53a3.08,3.08,0,0,1,1.12.06c-.09-.3-3.82-.33-2.9-.68,1.64.44,1.59,0,3.24.13l.18.07c-.16-.26-1-.62-.9-.78-.68,0-1.73.06-1.79-.17a6.89,6.89,0,0,1-1.58,0c.72.26.24.36,1.13.54-.91.08-.28-.1-1.18,0l.81.22c-.22.13-.89-.18-1.1,0,.52,0,1.08.24.94.4l-.3-.06c.35.14-.11.3,1.39.31l-1.5.07,1,0c-.42.33-2.9.34-1.64.84a2.19,2.19,0,0,1,1,.1c.73-.15-.76-.26-.88-.44a15.73,15.73,0,0,0,2.87.19c-1.24.17.13.44-2.45.42-.17.27,1.08.44.47.69L1.7,17c1.7.13-.78.19,1,.48L3,17.36c.7,0,.72.12.84.22a3,3,0,0,0-.6,0,4.87,4.87,0,0,1,1.77.47c.22-.12-.79-.34-1.1-.51C4.67,17.65,5.7,17.68,5.49,17.8Z"/><path class="cls-1" d="M1.17,14.71l.58.12A2.57,2.57,0,0,0,1.17,14.71Z"/><path class="cls-1" d="M3.3,19c-.28.17-1-.1-1.57.05.83.22,1.72-.13,3,.1-.73.08.52.31.54.39a20.3,20.3,0,0,0-2.63-.12c.45.09-.34.2-.38.32,1-.24.59.27,1.66.06.94.06,1.61.36.89.44s-.53-.12-.55-.19c-1.28-.12-.69.15-1.84.14,1.76.35,1.6,1.23,4.36,1.1.54-.07-.12-.18-.23-.28-.58.26-1.46-.07-2-.12.45-.1-.42-.35.58-.25l1,.24a1.82,1.82,0,0,0,.08-2.19L6.17,19A2.9,2.9,0,0,1,5,18.62L3,18.68c.15-.08-.14-.18.55-.14a7.5,7.5,0,0,0-2-.09c-.34-.24.42-.24-.85-.48-1.58.31,1.32.38-.06.76Z"/><polygon class="cls-1" points="2.26 18.08 3.23 18.22 2.75 18.06 2.26 18.08"/><path class="cls-1" d="M6.52,18.43c-.43,0-.61-.09-1-.1C5.19,18.5,5.78,18.5,6.52,18.43Z"/><path class="cls-1" d="M2.31,20.39l.33.24L3,20.5A2.05,2.05,0,0,1,2.31,20.39Z"/><path class="cls-1" d="M7,22.22c-.14-.32-1-.5,0-.82-1.16-.23-2.22,0-3.28-.14-.27.16,1.73.23,2.09.44-1,0,.2.28,0,.45A7.25,7.25,0,0,1,7,22.22Z"/><path class="cls-1" d="M3.16,23.15c0,.15.73.33.27.43s-.81-.15-.65-.23c-1.35,0,.21.17-.68.29a2.09,2.09,0,0,1,.66,0c-.3.38,1.09.27.34.74a3.07,3.07,0,0,0,1.21.2,14.22,14.22,0,0,0-2,.39c.49,0,1.63-.05,2.7,0-1.51.43.18.52-.94.78,0,0-.32-.09-.17-.17-1.46,0,.26.28,0,.44L2.61,26c.2.17,1,.49.11.65l-.61-.07c.93.45.5.92.94,1.29L2.32,28c.89.52.42-.47,2.17,0-2.17-.05.69.28-.18.52s-.44-.3-1.41-.2c1.09.11.31.16.62.32-1-.08-.14.3-1.3.16l1.88.6c-.57.06-.48.21-.34.33,0-.28,1.49.14,2-.15a1.23,1.23,0,0,1-.16-1.79c-1.45-.13,0-.37-1.15-.51H5.76c-.29-.38-.81.05-1.34-.07-.18-.17.71-.25,1.24-.21.1-.26-.4-.05-1.19-.22l1.64-.1c-.41-.84-1.53-2-.46-2.86H4.53c.66-.39-2.51-.82,0-1.08l-1-.18c.56.1,1.75,0,2.53.16-.39-.13.07-.24-.29-.37l-.57.18c-1-.19-.37-.33.52-.33-1.17-.37-2,.09-3,.11,2.15.55-2.08.36-1.15.83C2.17,23.38,2.55,23.11,3.16,23.15Z"/><path class="cls-1" d="M6.32,22.75,6,22.67Z"/><path class="cls-1" d="M3.76,29.68a.24.24,0,0,0,.05.13C4.05,29.86,3.88,29.78,3.76,29.68Z"/><path class="cls-1" d="M5.7,22.15h0Z"/><polygon class="cls-1" points="2.8 21.8 2.77 21.92 3.31 21.92 2.8 21.8"/><path class="cls-1" d="M2.58,30.87l.48,0A3.64,3.64,0,0,0,2.58,30.87Z"/><path class="cls-1" d="M2.33,34.25l0-.08C2.29,34.19,2.3,34.22,2.33,34.25Z"/><path class="cls-1" d="M3.16,42.4a1.77,1.77,0,0,0,.81.72l-.29,0a1,1,0,0,0,1.1.31l-.24-.08c-.41-.29.49-.18.71-.39-.09-.26-1.22-.47-.93-.69,0-.1.28-.07.51,0,.11-.23-.78-.36-.9-.53,2.42,0-.62-.75,1-1-.19-.23.06-.51-.43-.81.64.18.08-.26.82-.17-1.55-.15.79-.76-1.21-.91.59-.35-.14,0,.37-.43.23,0,.22.08.26.11.44-.15-.86-.3.1-.4C5,37.7,4.25,38,3.7,37.73c.26-.36.54-.24,1.45-.4-1-.08-.52-.27-1.05-.48a.52.52,0,0,1-.65.1c.18-.41-.68-.37-1-.78,1.18-.14,0,.4,1,.09.54.28.48.47,1.31.64a1.14,1.14,0,0,0-.55-1.14c.17-.2.56.13.68,0,.57-.33-1.21-.61-.66-.88l.64.09c-.85-.22.23-.63-.23-1a2.15,2.15,0,0,1-.77,0c1.67.08-.86-.51.34-.79-1.08,0-1.69-.37-1.81-.59a5.36,5.36,0,0,1,1.06,0c-.66.3,1.18.38,1.66.67-.55-.25.07-.59-.73-.82l.87.12c.15-.3-2-.36-1.11-.64l.64.06C4.72,31.3,6,30.6,4.49,30c-.56-.07-1.88.13-2.32.13.49.33,1.46.55,1.93.81l-1-.05c.71.08,1.12.39,1.68.26.52.21-.91.1-.33.35-1.08-.07-1.19-.21-2.09-.25l.53.21c-.41-.08-.36.1-.78,0,1.29.42-.49.48.1.87l.18-.19c.58,0,.52.14.69.24a1.57,1.57,0,0,0-1,.3c.46.18,1.48.32,1.47.54-1.08-.1-.59.33-1.48.33,1,.1.38.45,1,.51.21.12.1.28-.45.25a1.5,1.5,0,0,1-.18-.09l0,.11a.71.71,0,0,1-.23,0c0,.11.73.14.22.25a.48.48,0,0,1-.38-.15c-.15.27,1.55.56.64.75.47.07.51.39,1.56.37-.38.07-1.21,0-1.06.24.87.18-.32.25.24.45C2.38,36,3,36.23,2.16,36c-.35.15.81.44.65.71l-.65,0c.3.12,1,.27.29.34l.6,0c-.31.17-.12.44-.75.62L3.39,38c-1.14.26-.1.74.81,1a.53.53,0,0,1-.47.27l-.37-.14c0,.17-.62.35.22.49.25.19-.58.1-.71.22,1.13.41-.82,1,.87,1.21,0-.15.36-.41.31-.69.2.08.55,0,.58.14,0,.29-.59.4-.33.69l-1-.08C2.2,41.55,4.61,42.1,3.16,42.4Z"/><path class="cls-1" d="M3.21,38.83l-.6.18h.51C3,38.94,3,38.88,3.21,38.83Z"/><path class="cls-1" d="M3.12,39a1.29,1.29,0,0,0,.24.13s0-.09-.11-.13Z"/><path class="cls-1" d="M3.31,43.22a.14.14,0,0,0,0,.22C3.41,43.38,3.45,43.27,3.31,43.22Z"/><polygon class="cls-1" points="3.59 43.47 3.74 43.37 3.63 43.35 3.59 43.47"/><path class="cls-1" d="M3.88,49.4l.31.34c-.18,0,0,.43-.29.29.36.21-.06.62.48.49-.06-1,.57-2.25.08-3.37l.27.19c-.53-.6.81-.75-.39-1.27l.65.09c.23-.25-.9-.54-.15-.78H4.55c0-.07.14-.09.15-.17l-.13,0c-.26-.21-.22-.32,0-.5.23,0,.09.09.14.15.25-.07-.23-.25-.21-.39.22-.11.34,0,.43,0-.28-.46.56-.62-.56-1-.22,0-.41.1-.5-.06-.38.27.07.53.35.8v-.07c1,.26-.26.15.18.51-.42-.11-.41-.26-.64-.33-.81.36.57.59-.44.8l0,0c-.1,0,.09.17.18.26s.19-.11.29-.16a2.41,2.41,0,0,0,.71.2c-.45.08.2.14,0,.29-.4,0-.35-.15-.57-.22l.27.2c0,.18-.45.15-.66.23.29.16.21-.08.62.06-.5.17-.38,1-.08,1.38,0-.14-.37-.07-.3-.22-.09,0,.09.26.35.28.2.27,0,.6-.24.84l.25-.06c.38.22-.34.5-.14.88h0c0,.12.56.25.42.46C4.11,49.52,4.15,49.4,3.88,49.4Z"/><path class="cls-1" d="M4.2,50.71,4,50.58c-.07.13.24.31.4.29,0-.09.1-.2,0-.23S4.17,50.65,4.2,50.71Z"/><path class="cls-1" d="M3.85,53.16c0,.05.09,0,.13.06.09-.52.12-1.16.32-1.36s-.22-.22-.27-.44l.25-.09c-.13-.12.2-.47-.23-.36,0,0,.18.11.09.21l-.14,0,0,.24-.16-.08c-.27.31.46.24.24.63l-.3,0c0,.26,0,.4-.16.62,0,0,.13,0,.08,0a.22.22,0,0,1,.22-.06c.15.41-.15-.07-.3.2a1.37,1.37,0,0,1,0,1.18c.15-.16.24.09.19.27S3.7,54,3.65,54a.43.43,0,0,0-.08.24c.12-.11.25,0,.25.18C4.05,54,3.77,53.61,3.85,53.16Z"/><path class="cls-1" d="M4,53.3s0-.07,0-.08l0,.18Z"/></g></g></svg>