<svg xmlns="http://www.w3.org/2000/svg" viewBox="0 0 62.55 6.44"><defs><style>.cls-1{fill:#fff;}</style></defs><g id="Camada_2" data-name="Camada 2"><g id="Camada_1-2" data-name="Camada 1"><line class="cls-1" x1="0.01" y1="3.21" x2="62.53" y2="3.21"/><path class="cls-1" d="M62.53,3.21h-.14Z"/><path class="cls-1" d="M61.92,3.22c-.11,0-.23.06-.16.09L62,3.24a.47.47,0,0,1,.14,0h.19a1.58,1.58,0,0,0-.43,0S61.91,3.23,61.92,3.22Z"/><path class="cls-1" d="M53.06,2.69l0,.05A.08.08,0,0,0,53.06,2.69Z"/><path class="cls-1" d="M47.56,2.22a.1.1,0,0,0,.06-.1S47.55,2.18,47.56,2.22Z"/><path class="cls-1" d="M46.62,1.61l.06,0S46.64,1.57,46.62,1.61Z"/><path class="cls-1" d="M53.06,2.69l-.15-.13C52.9,2.69,53,2.66,53.06,2.69Z"/><path class="cls-1" d="M60.7,3.46l.08,0-.08,0Z"/><path class="cls-1" d="M55.48,2.55h0s0-.07,0-.11Z"/><path class="cls-1" d="M57.34,2.66c-.05,0-.06.19-.08.27,0-.08.06-.12.09-.13A.76.76,0,0,0,57.34,2.66Z"/><path class="cls-1" d="M60.28,3.12l0,0Z"/><path class="cls-1" d="M54.15,2.39a.87.87,0,0,0,0-.1A.36.36,0,0,0,54.15,2.39Z"/><path class="cls-1" d="M2.16,3.65v0S2.15,3.65,2.16,3.65Z"/><polygon class="cls-1" points="0.01 3.21 0.04 3.21 0.04 3.21 0.01 3.21"/><path class="cls-1" d="M44.91.91h0C45,.87,44.93.88,44.91.91Z"/><path class="cls-1" d="M29.15.9c.18.5-.29.64,0,1.2C29.1,1.88,29.37,1.22,29.15.9Z"/><path class="cls-1" d="M60.65,3.45h0Z"/><path class="cls-1" d="M29.13,2.1h0l0,0Z"/><path class="cls-1" d="M41,1c0,.09,0,.16,0,.23A.84.84,0,0,0,41,1Z"/><path class="cls-1" d="M43.9,1.83l-.07-.07A.12.12,0,0,0,43.9,1.83Z"/><path class="cls-1" d="M39.42,1.69s-.05-.11-.11,0l0,.06C39.35,1.64,39.38,1.61,39.42,1.69Z"/><path class="cls-1" d="M37.83,1.66l0,.11,0,0Z"/><path class="cls-1" d="M7,4.28A2.17,2.17,0,0,1,6.93,4C7,4.22,6.72,4.26,7,4.28Z"/><path class="cls-1" d="M60.7,3.41a.07.07,0,0,1-.05,0h.05A0,0,0,0,0,60.7,3.41Z"/><path class="cls-1" d="M39.36,5.89l-.26-.07A.46.46,0,0,0,39.36,5.89Z"/><path class="cls-1" d="M18.43,5.17l-.06.06S18.41,5.23,18.43,5.17Z"/><path class="cls-1" d="M38.35,5.92a1,1,0,0,0-.14-.36,1.06,1.06,0,0,0,0,.14Z"/><path class="cls-1" d="M6.93,4Z"/><path class="cls-1" d="M5.26,4.35c.24.05.12-.24.17-.39.28,0,.13.22.23.38.18,0,.31-.3.45-.27s0,.07,0,.13c.19-.22.57.06.79-.24a.26.26,0,0,1,0,.08,1.91,1.91,0,0,1,0-.45c.11,0,.2-.21.25,0-.07,0-.08.07-.11.14l.12-.09C7.25,4,7,3.76,7,4c.22-.08.48-.33.65-.23,0,.33-.4.08-.17.38L7.21,4c.2.51-.16-.06,0,.49.35.14.39-.11.73,0,.08-.18,0-.28,0-.46.49-.32.39.91.75.48.09-.23.13-.69.38-.43l-.09.41c.34.08.19-.59.54-.27-.06.16-.26.12-.21.17.23.37.16-.23.34-.21l0,.39c.36,0,.75-.28,1.14-.33,0,.12-.09.25,0,.38a1.9,1.9,0,0,1,1.54.47l.18-.39c.05,0,.08.19,0,.27.18.17,0-.26.1-.41s.14.24.07.36c.33-.31.94-.7,1.28-.22L14,4.85c.27.2.3-.87.55-.45l-.05.08c.59.23,1.24-.17,1.68.56.09-.67.58.34.62-.62.34.5.24.66.71,1,.13.06.19-.6.34-.7v.52l.21-.54.11.64.15-.13a.57.57,0,0,1-.12-.39c.23-.24.56.39.56.66l.54-.42a.77.77,0,0,1-.17.42c.29-.54.05.57.32.08a1.54,1.54,0,0,1,0-.43.42.42,0,0,0,.65.22l0,.38c.4.12.84-.14,1.29-.11-.16-.19-.12-.86,0-.92l.05.6c.09-.37-.13-.23,0-.68.17.07.11.69,0,.88l.2-.2a3.37,3.37,0,0,1,0,.5c.09-.37.35.62.48,0V6c.45,0,.65-.17,1-.19,0-.53.16-.41.26-.83.27.17.57.6.89.57.23-.27.07-.46.17-.78,0,.49.34.46.18.81a1.66,1.66,0,0,0,1-.48,1.06,1.06,0,0,1-.08-.47c.09-.08.2.21.19.45l0,.06c.55-.75,1.27,1.48,1.71.44l0,0,.45-.54c.21.09-.13.38,0,.69.49-.84.78.14,1.18-.42.31,1.5,1.11-.1,1.53.86l0-.35c.11-.35.13.2.21.28,0-.28-.12-.32,0-.51.93-.43,1.91.52,2.86.83.35.09.2-1.84.64-1l-.13.66c.7-.79,1.43,0,2.12-.67,0,.15,0,.34-.11.34.14.47.54,0,.54-.37.1,0,0,.35.09.54s.36-.61.44-.14a.25.25,0,0,1-.07.18c.1-.22.44,0,.35-.48.26.24.5-.25.7.06.13-.6.44.27.48-.57,0,.87.45.68.62.27-.06.26.14.27.08.63.18,0,.35-.19.32-.62.34,1,.69-.84.88.45a5.49,5.49,0,0,1,1.56-1c0,.81-.55.1-.53,1,.47-.37.74-1.07,1.21-.89.12.11-.07.35-.11.49.47-.35.91,0,1.33-.42a.47.47,0,0,1-.09.22c.08,0,.19.1.18-.25l-.08.1c-.13-.51.33-1.08.34-1.34-.14,1,.42.24.19,1.5a.64.64,0,0,0,.11-.46c.08.06.11.19,0,.46.29-.2.19-.56.46-.57A4.15,4.15,0,0,1,45.1,5c.14-.33.27-.65.5-.52,0,.1,0,.22-.05.22.38-.07.66-.86,1.08-.57-.12.69.15.22.17.81L47,4.7l-.09-.28c.2,0,.38-.43.55-.24l-.15.24.38-.13-.22-.2c.21-.31,0-.73.25-.57-.06,0,.2,0,.3.33h0c.1-.18.2-.37.35-.23s0,.61,0,.73c.09-.47.47-.15.59-.64a1.53,1.53,0,0,0,0,.46L49,3.8c.1.11.11.17.09.39.28.06-.08-.67.25-.39,0,0,0,.08-.07.14.33.14.64-.25.95-.08.09.5-.27.13-.16.56.44-.13.91-.65,1.34-.55l-.08-.05c.06-.67.32.32.53,0,0,.05-.07.37,0,.29.29.09.6-.2,1-.4l-.06.16c.18.13.46,0,.65.11.05-.15.16-.13.09-.35.58.79,1.1-.45,1.61.16-.06,0-.15.12-.1.12l.44-.14c0-.21-.06-.13-.15-.29a.33.33,0,0,1,.28-.22c-.19.14,0,.33.09.44a.66.66,0,0,1,0-.2c.22.35,0-.4.34-.17v.1c.11-.05.22-.19.34-.16.06.22-.12.11-.13.29.18,0,.35-.42.51-.21-.08.06-.18.06-.26.12.18.25.2.18.32.21h0l.3.09-.08-.06c.22-.52.45-.12.75-.44-.29.3-.05.17-.07.37s.19.1.15.16c.14-.17.24.09.43-.14,0,.05.15,0,.12.13.18-.06,0-.09,0-.16.28-.2.65.15,1.06-.12.34-.11.41-.24.73-.3.11,0-.09.13-.09.13a1,1,0,0,0,.48,0s0,0,0,.07.09-.1.26-.07a.5.5,0,0,1-.13.11,4.05,4.05,0,0,1,.47-.12s-.1.06-.15.09a3.62,3.62,0,0,0,.53-.12h-.12c.06,0,0,0,0,0s-.22,0-.23,0h.11c-.11-.11-.46,0-.69,0l.1-.12-.24.11s-.09-.11,0-.13c-.17-.07-.15.05-.29,0s0,0,0,0l-.16,0s0-.1.07-.08c-.29-.11-.47.11-.58,0h0c-.41.05,0,.13-.35.3L59.09,3l0,.15s-.13,0-.11-.09c-.16.11,0,.07-.06.18-.21-.16-.56.07-.6-.22-.08.14.19.11,0,.2-.06-.32-.25,0-.43-.1.06-.17.23-.07,0-.24-.11.3-.36-.08-.52,0,0,.26-.33.09-.59.17,0-.09-.49-.17-.73-.3v0c0,.31-.29.24-.48.3,0-.2,0-.28.14-.36h-.17a.26.26,0,0,1-.2.19l0-.25c-.23,0-.46.28-.75.08,0,.26.23.71-.08.88,0-.13,0-.37.06-.43s-.09.12-.15.06l.13-.24c-.14-.1-.07.2-.18.17,0-.2-.08-.14-.06-.3s.09.09.13,0a.51.51,0,0,1-.31-.33c0,.12,0,.28-.09.3s-.08-.25-.21-.37c-.06.14-.2,0-.21.3-.06,0-.07-.16-.1-.24-.12.13-.55,0-.42.36l0,0h0c-.38.33-.8-.22-1.18-.09V2.57c-.23.13-.51.06-.67.33-.07,0-.16-.24-.13-.39-.18.09-.2.24-.45,0,.18-.22-.06-.2.18-.15-.23-.13-.28-.34-.52,0,.08-.34-.17-.45-.28-.35l.16.26a.5.5,0,0,1-.34,0L50,1.81c-.46-.62-.84.92-1.19-.07-.12.33.25.25.14.64-.21-.07-.43-.79-.5-.79-.29-.3-.27.7-.58.5,0,.19.08.66-.15.83-.22-.07-.27-.77-.13-.91s.07.05.07.11a.26.26,0,0,0,.08-.34l0,.18c-.11-.19-.4-.19-.33-.49-.16.17-.07.3,0,.4-.27-.28-.43,0-.71-.22,0,.1.08.33,0,.32-.41-.25-.18.35-.46.43-.16-.3.05-.7-.23-.46-.17-.21,0-.52,0-.67-.25.36-.48-.27-.62-.36l.13-.14a.22.22,0,0,1-.21.07l.07.4c-.08-.08-.14-.08-.14-.25-.08.26.06.66-.1,1-.11-.21-.32.21-.36-.33.33.2,0-.53.24-.6,0,.06-.12.05-.2,0a.2.2,0,0,1,0-.14c-.32-.5-.15.59-.48.56,0-.3-.08-.57-.13-.51.13,0,.06.51-.06.73-.21-.24-.23.17-.34.14L44,2c-.05.3-.15.26-.3.35,0-.24.13-.16.08-.27-.16.54-.37-.57-.6-.21-.11-.22,0-.59-.1-.74-.26.4-.28-.44-.55-.12.08.43.09.32-.1.73l.44-.28L42.62,2c.13,0,.28-.26.36-.19-.13.34-.12.24-.06.59-.18-.64-.36.37-.57-.07V1.29c-.32-.49-.57.53-1,.25l.13.19c-.06.43-.26.05-.39.22A1.93,1.93,0,0,0,41,1.23c0,.27-.3,0-.34.69l-.18-.49c-.34-.21-.38,1-.7.92.09-.41-.05-.67.16-1-.11,0-.2-.07-.2.19-.07-.24-.3.49-.4.13,0,.17-.06.56-.18.53a1.09,1.09,0,0,1,0-.19c0,.19-.19.25-.08.67-.33-1.18-.92.08-1.21-1a2.11,2.11,0,0,1-.73.27c0-.11,0-.19,0-.15-.29-.36-.18,1.1-.51.7-.17-.62.18-.33.07-.57,0-1.27-.4.17-.63-.58l.06-.07c-.17-.44-.42.48-.7.38a1.09,1.09,0,0,0,0-.19,1.69,1.69,0,0,1-.82,1c.08-.51.12-.27.07-.78-.12.07,0,.82-.21,1a3.31,3.31,0,0,1-.27-1.06l.23,0c-.12-.71-.3,0-.42-.1l0-.31c-.35.1-.36.88-.73.82l0,.24c-.21.77-.17-.44-.38.14l-.06-.79a4,4,0,0,1-.71.91,4.27,4.27,0,0,1,.59-1.23.5.5,0,0,0-.52.44c.05-.07.12-.27.17-.14-.16.62-.38.92-.64.91,0-1.53-.7-.39-.89-1.58-.47.57-.94-.24-1.49-.14.2,1.18-.16,0-.12,1.25-.13.08-.18.06-.19,0l-.39-.72c-.09-.36.12-.27.11-.55-.28-.09-.12-.51-.3-.83,0,.43-.1.62-.26.46l.22.56c-.39.65-.33-1-.73-.37l.13-.38c-.21.22-.75,0-.95,1,0-.14-.08-.46,0-.55-.49-.14-1.08,1-1.46.46l0-.29c-.09.08-.16.54-.27.26,0-.12,0-.29,0-.31s-.24.51-.36.35L25,.83c-.48-.36-.73.81-1.13,1A1.28,1.28,0,0,0,23.34.61V.49c-.55-.08-.94.72-1.45,1.06-.31-.87-1.07-.33-1.58-.79a1,1,0,0,1-.1.7c-.12-.16-.33.55-.31-.17l0,0c-.09-.7-.33-.5-.52-.51l0,.93c-.5-1.31-1.31.53-1.58-.62-.12.23-.27.23-.39.46V1.1a1.21,1.21,0,0,0-.92,0L16.6.76c-.24,0-.3,1.33-.51,1.37L16,1.46c-.41,0-.82-.51-1.22.1,0-.09,0-.28.08-.31-.19,0-.74-.36-.67.49,0-.56-.42,0-.64.23l0-.4c-.19.52-.19.66-.45.81-.06,0-.06-.31,0-.22-.2-.19-.15.38-.4.19l.09-.26c-.21,0-.19.12-.31.41s-.4-.08-.43-.42c0,.21-.14.49-.27.4a.44.44,0,0,1,.05-.25c-.35-.22-.52.45-.76.11a.52.52,0,0,0,0-.21,1.43,1.43,0,0,1,.48,0c0-.33-.22-.37-.05-.85-.18.28-.49.84-.71.7a.81.81,0,0,1,0-.11l0,0c-.05,0-.1,0-.14.07a.31.31,0,0,0-.18-.08c0-.26-.26-.11-.38-.12,0,.34-.13.3,0,.56,0,0,0,0,.1-.06a.1.1,0,0,0,0,0v0l.28,0c-.09.18-.18.33-.31.15-.05.22-.12.44-.15.54-.16-.46-.45-.68-.5-.95-.34.21-.81.21-1,.77-.1.07-.11-.15-.15-.24s.12,0,.15-.13c-.19.15-.58.1-.62.46-.25-.15.14-.34-.2-.26l0-.11c-.33-.26-.6,0-.88.21S6.34,3,6,2.7c0,0,.08,0,.09.1-.84-.18-1.74.28-2.57,0-.23,0-.26.09-.4.18l0-.13-.25.17c-.35.09-.6-.22-1,0l.06,0c-.16,0-.5.06-.48,0a.1.1,0,0,1-.11,0v0l-.39.07c-.3,0,0-.09-.39,0A2.71,2.71,0,0,1,0,3.21H0s-.14,0,.22.06l.26,0,.08,0-.21,0a.78.78,0,0,0,.28,0l.11,0,.25,0s-.11,0,.06.09-.11-.09.08-.09.09.09.23.07,0,0-.06,0c.12,0,.34,0,.4,0,.13.1.44,0,.42.18a1.13,1.13,0,0,1,.35-.08c-.22.17.44.07.38.3.16-.17.58,0,.86-.09,0,0,0,.06-.07,0,.16,0,.2.13.3.2,0-.22.27-.24.41-.38.19.26-.12.27-.06.5,0-.2.34-.15.27-.33.15.17.13.09.21.31,0-.32.13,0,.26-.22.21.19,0,.33.29.25C5.47,4.26,5.26,4.35,5.26,4.35Zm5.63-.2h-.11Zm.48,0a1.18,1.18,0,0,0-.21,0c0-.12,0-.24.05-.24S11.29,4.06,11.37,4.17Zm-1-2.4c.08-.06.1,0,.11.07l-.13.06v0A.72.72,0,0,1,10.36,1.77Z"/><path class="cls-1" d="M10.23,2.22l0,0,0,.07,0-.11Z"/><path class="cls-1" d="M53.12,2.74h0a.05.05,0,0,1,0,0Z"/><polygon class="cls-1" points="17.9 5.38 17.9 5.26 17.86 5.36 17.9 5.38"/><path class="cls-1" d="M55.73,3.7a.09.09,0,0,0,0,.06A.09.09,0,0,0,55.73,3.7Z"/><path class="cls-1" d="M56.85,3.68l.16.06Z"/><path class="cls-1" d="M57.72,3.71s0-.06,0-.08h0Z"/><path class="cls-1" d="M44,5.08l0,0C43.85,5.2,43.9,5.16,44,5.08Z"/><path class="cls-1" d="M48.05,3.85a.84.84,0,0,1-.13.21C48,4.09,48.05,4.09,48.05,3.85Z"/><path class="cls-1" d="M39.38,5.9h0Z"/><path class="cls-1" d="M47.73,4.05c.07.09.13.07.19,0S47.79,4,47.73,4.05Z"/><polygon class="cls-1" points="61.47 3.36 61.51 3.36 61.52 3.35 61.47 3.36"/><path class="cls-1" d="M61.52,3.35h0Z"/><path class="cls-1" d="M61.66,3.32l-.1,0Z"/><path class="cls-1" d="M60.32,3.47v0A0,0,0,0,0,60.32,3.47Z"/><path class="cls-1" d="M60,3.51c.08,0,.21.06.32,0v0C60.26,3.56,60.06,3.44,60,3.51Z"/><path class="cls-1" d="M58.52,2.94l.3.06c-.06-.06-.12-.15,0-.15C58.46,2.64,58.91,3,58.52,2.94Z"/><path class="cls-1" d="M57.62,2.78c.16,0,0-.11,0-.15S57.5,2.71,57.62,2.78Z"/><path class="cls-1" d="M51.08,2.38l0-.33C51,2.09,51.1,2.18,51.08,2.38Z"/><polygon class="cls-1" points="49.83 4.16 49.95 4.37 50.01 4.05 49.83 4.16"/><polygon class="cls-1" points="49.09 1.57 49.15 1.52 48.94 1.64 49.09 1.57"/><path class="cls-1" d="M38.11,1.19l0,.61C38.23,1.69,38.25,1,38.11,1.19Z"/><path class="cls-1" d="M33.37,1.76c0-.32-.18-.52-.26-.21C33.21,1.59,33.32,1.84,33.37,1.76Z"/><polygon class="cls-1" points="19.16 1.04 19.25 0.85 19.07 1.02 19.16 1.04"/></g></g></svg>