<svg xmlns="http://www.w3.org/2000/svg" viewBox="0 0 7.27 32.02"><defs><style>.cls-1{fill:#fff;}</style></defs><g id="Camada_2" data-name="Camada 2"><g id="Camada_1-2" data-name="Camada 1"><path class="cls-1" d="M5.42,0a.32.32,0,0,1,0,.09l.13,0Z"/><path class="cls-1" d="M4.77.41a.38.38,0,0,0,0,.15c.64-.08.5,0,.86-.19C5.5.28,5.36.1,5.22.12s.16.15.09.24S5.21.22,5.07.17c-.21.14.07.09-.06.25Z"/><path class="cls-1" d="M5.31.6A2,2,0,0,0,5,.56C5.1.58,5.23.66,5.31.6Z"/><path class="cls-1" d="M5.37.69c0,.1-.26,0-.3,0l.47.12Z"/><path class="cls-1" d="M5.33,1.09l0,0C5.48,1.12,5.4,1.11,5.33,1.09Z"/><path class="cls-1" d="M5.4,1.29c.22,0,.08-.09,0-.16h0c-.18.05-.6,0-.46-.1C4.82,1,5.2,1,5,.88L4.62,1C4.59,1.13,5.21,1.23,5.4,1.29Z"/><path class="cls-1" d="M5.33,1.09A.09.09,0,0,1,5.3,1C5.24,1.06,5.27,1.07,5.33,1.09Z"/><polygon class="cls-1" points="5.38 0.89 5.3 0.84 5.15 0.85 5.38 0.89"/><path class="cls-1" d="M5.44,1.61c-.71,0,.08-.23-.44-.26,0,.12-.53.22-.91.18a1.06,1.06,0,0,0,.15.15A4.19,4.19,0,0,0,5.44,1.61Z"/><path class="cls-1" d="M3.39,1.85l.12,0Z"/><path class="cls-1" d="M4.64,2.6l-.86-.35a1.81,1.81,0,0,1,.67.11c.15-.15-.42-.18-.28-.3.82,0,0,.22.76.16,0-.08,0-.21-.67-.3l.56-.12L4,1.83C3.71,1.88,4.6,2,4,2c-.39,0-.42,0-.48-.08.12.09-.85.22-.87.4S4.18,2.46,4.64,2.6Z"/><polygon class="cls-1" points="3.51 2.59 3.1 2.6 3.65 2.6 3.51 2.59"/><path class="cls-1" d="M4.8,3l-.65-.19c.1,0,.33,0,.52,0-.25,0-.65,0-.85,0-1,.06.22.22.39.31-.54.24-.54,0-1.56.06C2.72,3,3,3,3.08,2.92c-1.24.12-.3.33,0,.43.12,0,.46,0,.38-.08l.32.11C4.68,3.3,4.9,3.21,4.8,3Z"/><path class="cls-1" d="M4.84,2.67c.06.07,0,.09-.15.09C5,2.75,5.13,2.73,4.84,2.67Z"/><path class="cls-1" d="M3.09,3.41c.07,0,.05,0,0-.06S3,3.38,3.09,3.41Z"/><path class="cls-1" d="M4.41,3.34l-.14.11.53,0A.75.75,0,0,0,4.41,3.34Z"/><path class="cls-1" d="M1.18,7.92c.7,0,1.05,0,.93-.13A4.79,4.79,0,0,1,3.36,8a13.25,13.25,0,0,1,2,0c.09-.14-1.1-.22-.85-.37.26,0,.66,0,1,0C4.9,7.47,4.09,7.15,4.86,7c.34-.16-.07-.29-.44-.48.46-.6-.28-1.25.48-1.88L3.53,4.5c.69,0,0-.15.91-.11-.18,0,0,.07,0,.11,1.21-.12,0-.37.39-.53a11,11,0,0,1-1.53,0c1.4,0,0-.19,1.62-.21.4-.16-1.18,0-.93-.2-.77,0-.42.16-1,.18s.34-.15-.49-.16c-.57.26.91.81,1.43,1.25L3,4.73c.56.23.56.58-1,.72.91,0-.59.31,1.5.33a1.35,1.35,0,0,0-.61.13l.67,0c0,.11-1.08.07-1,.2a11,11,0,0,1,2,.09l-2.93.39c.31,0,.67,0,1.09,0-.36.08.57.09.89.12a8.67,8.67,0,0,1-1.84,0c-.44.15,2,.27,1.14.37l1,0c.23.17-.92.28-.59.47a3.84,3.84,0,0,1-1.81-.26,7.52,7.52,0,0,1-.88.12c.71.09,1.68.24,2.37.35C1.25,7.63,1.3,7.86,1.18,7.92Z"/><path class="cls-1" d="M.55,7.41,0,7.34c.08,0,.17,0,.1.07Z"/><path class="cls-1" d="M1.18,7.92H1C1.1,7.94,1.15,7.94,1.18,7.92Z"/><path class="cls-1" d="M5,7,4.86,7s0,0,0,0Z"/><path class="cls-1" d="M.41,6.74l1.11-.11A3.65,3.65,0,0,0,.41,6.74Z"/><path class="cls-1" d="M1.85,5.68c-.15,0-.43,0-.72-.06C1.06,5.69,1.36,5.72,1.85,5.68Z"/><polygon class="cls-1" points="0.23 7.6 0.52 7.74 0.8 7.8 0.23 7.6"/><path class="cls-1" d="M5.66,10.47c1.32-.09.52-.28.79-.42-.68-.29-2.89-.1-3.05-.36l2.73.1c-.15-.26.4-.61-2-.88a5.31,5.31,0,0,1,1.12,0c-.1-.17-3.83-.17-2.92-.38a21.91,21.91,0,0,0,3.24.06l.19,0c-.18-.15-1-.36-.93-.46a6.93,6.93,0,0,1-1.8-.08,11.69,11.69,0,0,1-1.58,0c.73.15.26.21,1.15.31-.91.06-.28-.06-1.18,0l.82.12c-.22.08-.89-.1-1.1,0,.52,0,1.09.14,1,.23l-.31,0c.35.08-.1.17,1.4.17L1.73,9h1c-.41.19-2.88.21-1.61.5a3.92,3.92,0,0,1,1.06,0c.72-.09-.77-.15-.9-.25a27.92,27.92,0,0,0,2.87.09c-1.23.11.15.26-2.43.27-.17.16,1.09.25.5.4H1.85c1.7.07-.77.12,1,.28l.38-.08c.69,0,.72.06.84.12h-.6a8.52,8.52,0,0,1,1.78.27c.22-.07-.79-.19-1.11-.29C4.84,10.39,5.88,10.4,5.66,10.47Z"/><path class="cls-1" d="M1.25,8.68l.58.07A3,3,0,0,0,1.25,8.68Z"/><path class="cls-1" d="M3.52,11.17c-.27.1-1-.05-1.57,0,.84.13,1.72-.09,3,0-.73,0,.53.18.55.22-.71-.06-2.3-.07-2.63-.06.45.05-.33.13-.37.2,1-.15.6.15,1.67,0,.94,0,1.61.21.89.26s-.52-.07-.55-.12a17,17,0,0,0-1.84.1c1.78.2,1.65.71,4.4.62.54,0-.12-.1-.24-.16a7.07,7.07,0,0,1-2-.06c.45-.06-.43-.2.57-.15l1,.13c.56-.35.41-.85,0-1.28l-.07.18A5,5,0,0,1,5.17,11L3.25,11c.14,0-.15-.11.54-.09a13.32,13.32,0,0,0-2,0c-.35-.14.41-.15-.86-.28-1.57.19,1.32.22,0,.45Z"/><polygon class="cls-1" points="2.44 10.66 3.43 10.73 2.94 10.64 2.44 10.66"/><path class="cls-1" d="M6.72,10.83l-1-.05C5.39,10.88,6,10.88,6.72,10.83Z"/><path class="cls-1" d="M2.58,12l.33.15.35-.08A3.32,3.32,0,0,1,2.58,12Z"/><path class="cls-1" d="M7.27,13.07c-.15-.19-1-.29,0-.49-1.18-.13-2.22,0-3.29-.06-.26.1,1.74.13,2.11.24-1,0,.21.17,0,.27A10.18,10.18,0,0,1,7.27,13.07Z"/><path class="cls-1" d="M3.52,13.63c0,.09.73.19.28.25s-.82-.08-.66-.13c-1.34,0,.22.1-.67.18a2.84,2.84,0,0,1,.66,0c-.29.22,1.1.15.37.44a5.56,5.56,0,0,0,1.22.1c-1.09.15-1.09.06-2,.25.49,0,1.63,0,2.7,0-1.5.26.19.3-.91.46,0,0-.33-.05-.18-.1-1.46,0,.27.17,0,.26l-1.23,0c.2.09,1,.28.12.38l-.61,0c.94.26.53.53,1,.75l-.72.1c.91.3.4-.28,2.17,0-2.17,0,.7.16-.17.3s-.44-.17-1.41-.1c1.09.05.31.09.63.18-1,0-.13.18-1.29.1l1.9.35c-.58,0-.48.12-.33.19,0-.16,1.49.08,2-.1-.46-.27-.8-.73-.22-1.05-1.45-.07,0-.22-1.17-.3H6.25c-.3-.22-.81,0-1.34,0-.19-.1.7-.15,1.24-.13.08-.16-.41,0-1.2-.13l1.63-.06C6.14,15.17,5,14.5,6,14H4.91c.64-.23-2.54-.47-.09-.64l-1-.09c.56.05,1.74,0,2.53.07-.39-.07.06-.13-.3-.21l-.56.11c-1-.11-.38-.19.5-.2a12.9,12.9,0,0,0-3,.09c2.16.3-2.07.21-1.12.49A6.18,6.18,0,0,0,3.52,13.63Z"/><path class="cls-1" d="M6.66,13.38l-.3-.05Z"/><path class="cls-1" d="M4.34,17.47s0,0,0,.08C4.63,17.58,4.46,17.53,4.34,17.47Z"/><path class="cls-1" d="M6,13H6Z"/><polygon class="cls-1" points="3.11 12.84 3.08 12.91 3.62 12.91 3.11 12.84"/><path class="cls-1" d="M3.19,18.18h0Z"/><path class="cls-1" d="M3.06,20.17l0-.05C3,20.14,3,20.15,3.06,20.17Z"/><path class="cls-1" d="M4.16,25a2.08,2.08,0,0,0,.84.42l-.29,0a1.56,1.56,0,0,0,1.11.17l-.25,0c-.41-.17.49-.11.7-.23-.1-.16-1.23-.27-1-.4,0-.06.28-.05.51,0,.11-.14-.79-.21-.91-.31,2.42,0-.64-.44.94-.61-.2-.13.05-.3-.45-.47.65.1.06-.16.81-.1-1.56-.08.76-.46-1.24-.53.58-.21-.14,0,.35-.26.23,0,.23.05.27.07.44-.1-.87-.18.08-.24.17-.21-.56-.05-1.12-.18C4.79,22,5.08,22.06,6,22c-1,0-.52-.15-1.06-.27a.8.8,0,0,1-.65.06c.16-.24-.7-.21-1-.45,1.17-.09,0,.23,1,.05a4.52,4.52,0,0,0,1.34.36c.07-.19-.09-.44-.59-.67.16-.11.56.08.68,0,.56-.21-1.23-.36-.69-.52l.64,0c-.85-.12.22-.37-.26-.58a3.92,3.92,0,0,1-.77,0c1.67,0-.88-.3.31-.47a3.58,3.58,0,0,1-1.82-.33,7.36,7.36,0,0,1,1.05,0c-.65.18,1.19.21,1.68.38-.55-.14,0-.34-.75-.47l.87.06c.14-.18-2-.2-1.13-.37l.64,0c-.08-.38,1.16-.8-.36-1.14-.56,0-1.87.09-2.3.09.49.19,1.47.32,1.95.47l-1,0a8.31,8.31,0,0,0,1.7.14c.52.13-.91.07-.33.21-1.07,0-1.19-.11-2.08-.13l.53.12c-.42,0-.36.06-.78,0,1.31.23-.47.28.13.51L3,18.94a1.18,1.18,0,0,1,.7.14,2.42,2.42,0,0,0-1,.18c.46.11,1.49.18,1.48.31-1.07-.05-.57.2-1.46.21,1.06,0,.39.26,1,.29.21.07.11.16-.45.15l-.18,0,0,.06H2.8c0,.06.73.07.23.14a.75.75,0,0,1-.38-.08c-.15.16,1.56.32.66.43a5.75,5.75,0,0,0,1.58.21c-.38,0-1.21,0-1.06.15.88.1-.31.15.25.26-.92-.16-.25,0-1.13-.14-.35.08.83.25.68.41l-.66,0c.31.07,1,.15.31.19h.59c-.29.11-.1.26-.72.37l1.1.16c-1.14.17-.08.44.84.61a.6.6,0,0,1-.46.16L4.25,23c0,.1-.6.21.24.28.25.11-.58.07-.71.14,1.15.24-.78.6.92.7,0-.08.35-.24.28-.4.21,0,.55,0,.58.08s-.56.24-.29.41L4.21,24.2C3.18,24.46,5.6,24.77,4.16,25Z"/><path class="cls-1" d="M4.1,22.86l-.6.1H4C3.93,22.92,3.92,22.89,4.1,22.86Z"/><path class="cls-1" d="M4,23l.24.08s0-.05-.11-.08Z"/><path class="cls-1" d="M4.34,25.44s-.1.07,0,.13S4.49,25.47,4.34,25.44Z"/><polygon class="cls-1" points="4.63 25.58 4.77 25.52 4.67 25.51 4.63 25.58"/><path class="cls-1" d="M5.12,29.07l.31.2c-.17,0,0,.25-.27.17.36.13,0,.36.5.28-.09-.56.49-1.32,0-2l.28.11c-.55-.35.78-.44-.43-.74l.65.05c.22-.15-.92-.32-.18-.46H5.65s.14-.06.15-.1H5.67c-.27-.12-.24-.18,0-.29s.09.05.15.09c.24-.05-.24-.14-.23-.23a.8.8,0,0,1,.43,0c-.29-.27.54-.37-.59-.57-.22,0-.4.05-.5,0-.37.16.09.31.37.47v0c1.06.14-.25.09.19.3a5.6,5.6,0,0,1-.64-.19c-.8.21.59.34-.41.47l0,0c-.1,0,.09.1.18.15a1.1,1.1,0,0,0,.29-.09,3.94,3.94,0,0,0,.71.11c-.44,0,.21.08,0,.17-.4,0-.36-.09-.58-.13l.27.12c0,.11-.44.1-.65.14.3.1.21,0,.63,0-.49.1-.35.58,0,.81,0-.08-.37,0-.31-.13s.1.16.36.17,0,.35-.21.49l.25,0c.39.13-.33.3-.11.52h0c0,.07.57.15.43.27C5.35,29.14,5.38,29.07,5.12,29.07Z"/><path class="cls-1" d="M5.48,29.84l-.25-.08c-.06.08.25.18.41.17,0-.05.09-.12-.06-.13S5.45,29.8,5.48,29.84Z"/><path class="cls-1" d="M5.21,31.28s.1,0,.14,0c.07-.31.07-.69.27-.8s-.23-.13-.28-.26l.24-.06c-.13-.07.19-.28-.24-.21,0,0,.18.07.1.12H5.3l0,.14-.16,0c-.25.19.47.15.27.37H5.12c0,.16,0,.24-.14.37,0,0,.14,0,.09,0a.26.26,0,0,1,.21,0c.17.24-.16,0-.29.12.17.2.19.58,0,.69a.13.13,0,0,1,.19.16c-.07.05-.1,0-.15,0s-.09.09-.07.14a.16.16,0,0,1,.26.1C5.44,31.76,5.15,31.55,5.21,31.28Z"/><path class="cls-1" d="M5.39,31.36a0,0,0,0,0,0,0l0,.1Z"/></g></g></svg>