<svg xmlns="http://www.w3.org/2000/svg" viewBox="0 0 6.85 38.32"><defs><style>.cls-1{fill:#fff;}</style></defs><g id="Camada_2" data-name="Camada 2"><g id="Camada_1-2" data-name="Camada 1"><path class="cls-1" d="M6,0l0,.1.12,0A1.09,1.09,0,0,1,6,0Z"/><path class="cls-1" d="M5.28.45a1.1,1.1,0,0,0,0,.18c.66-.05.5.08.88-.18C6,.34,5.9.11,5.76.13s.14.19.07.29C5.7.36,5.74.25,5.61.19c-.22.15.06.11-.08.29Z"/><path class="cls-1" d="M5.81.71,5.5.65C5.6.68,5.73.78,5.81.71Z"/><path class="cls-1" d="M5.87.82c0,.12-.27,0-.3,0L6,1Z"/><path class="cls-1" d="M5.79,1.3l.06.06C5.94,1.35,5.86,1.32,5.79,1.3Z"/><path class="cls-1" d="M5.85,1.54c.23,0,.09-.1,0-.18h0c-.19,0-.62-.05-.47-.14,0-.12.33-.08.1-.19l-.36.1C5,1.3,5.66,1.45,5.85,1.54Z"/><path class="cls-1" d="M5.79,1.3a.14.14,0,0,1,0-.07C5.7,1.26,5.74,1.28,5.79,1.3Z"/><polygon class="cls-1" points="5.86 1.06 5.79 1 5.63 1 5.86 1.06"/><path class="cls-1" d="M5.87,1.93c-.72-.08.09-.27-.43-.34,0,.15-.55.23-.94.17l.15.18A3.58,3.58,0,0,0,5.87,1.93Z"/><path class="cls-1" d="M3.8,2.1c.06,0,.1,0,.11,0A.19.19,0,0,0,3.8,2.1Z"/><path class="cls-1" d="M5,3.07c-.31-.16-.59-.32-.84-.47.28.06.58.07.66.17.17-.17-.4-.24-.26-.37.83,0,0,.25.75.23,0-.1,0-.26-.65-.39l.57-.12H4.39c-.27,0,.61.18,0,.17C4,2.27,4,2.2,3.91,2.15c.12.12-.86.22-.89.43S4.55,2.88,5,3.07Z"/><polygon class="cls-1" points="3.87 2.99 3.46 2.98 4 3.01 3.87 2.99"/><path class="cls-1" d="M5.13,3.53l-.64-.26H5c-.25,0-.64-.1-.84-.1-1,0,.2.27.36.39C4,3.8,4,3.5,3,3.53c.07-.08.32-.06.44-.17-1.24.08-.32.39,0,.52.12,0,.46,0,.39-.07L4.07,4C5,3.9,5.2,3.82,5.13,3.53Z"/><path class="cls-1" d="M5.18,3.16c.06.08,0,.11-.15.1C5.29,3.26,5.47,3.25,5.18,3.16Z"/><path class="cls-1" d="M3.38,4c.07,0,.05,0,0-.07S3.3,3.91,3.38,4Z"/><path class="cls-1" d="M4.71,3.94l-.15.13h.53A.58.58,0,0,0,4.71,3.94Z"/><path class="cls-1" d="M1.14,9.25c.69,0,1,0,.93-.11.92.09.71.22,1.23.33a10.81,10.81,0,0,1,2,.13c.1-.16-1.08-.33-.82-.49a9.37,9.37,0,0,0,1,.06c-.57-.26-1.35-.69-.57-.83.35-.18,0-.36-.41-.61C5,7,4.3,6.23,5.1,5.51L3.74,5.29c.69,0,0-.19.91-.09-.17,0,0,.08,0,.13,1.21-.07,0-.45.42-.61a10.37,10.37,0,0,1-1.52-.13c1.4.13,0-.24,1.63-.17.42-.16-1.18-.1-.91-.29-.77-.08-.44.17-1.06.16s.35-.17-.48-.22c-.61.28.87,1,1.34,1.58l-.86-.12c.55.3.52.73-1.08.81.91,0-.62.34,1.48.47A1,1,0,0,0,3,6.94L3.62,7c0,.13-1.08,0-1.05.18a9.42,9.42,0,0,1,2,.21l-3,.31c.31,0,.67,0,1.09,0-.36.08.56.14.89.19A7.16,7.16,0,0,1,1.7,7.85c-.45.15,2,.43,1.11.51l1,0c.22.21-.94.28-.62.52C1.77,8.9,2,8.64,1.43,8.5a5.24,5.24,0,0,1-.88.1c.7.15,1.66.38,2.33.55C1.23,8.91,1.26,9.18,1.14,9.25Z"/><path class="cls-1" d="M.55,8.6,0,8.49c.08,0,.17.06.09.08Z"/><path class="cls-1" d="M1.14,9.25H1A.28.28,0,0,0,1.14,9.25Z"/><path class="cls-1" d="M5,8.32l-.09,0,0,0Z"/><path class="cls-1" d="M.45,7.79c.37,0,.74,0,1.12-.07A3,3,0,0,0,.45,7.79Z"/><path class="cls-1" d="M2,6.6c-.15,0-.44,0-.72-.11C1.19,6.57,1.48,6.62,2,6.6Z"/><polygon class="cls-1" points="0.21 8.81 0.49 8.99 0.76 9.08 0.21 8.81"/><path class="cls-1" d="M5.42,12.55c1.32,0,.54-.31.82-.47-.66-.38-2.89-.27-3-.59l2.72.27c-.14-.32.44-.71-1.9-1.17a4,4,0,0,1,1.12.1c-.09-.22-3.81-.42-2.88-.62,1.62.39,1.58,0,3.23.25l.18,0c-.16-.19-1-.49-.89-.59-.68-.06-1.73,0-1.79-.21a9.86,9.86,0,0,1-1.58-.09c.72.22.24.26,1.13.43-.91,0-.28-.08-1.18-.06l.8.19c-.22.08-.88-.17-1.09,0,.52.06,1.07.23.93.33l-.3-.06c.34.12-.11.21,1.39.28H1.6l1,.06c-.43.21-2.9.1-1.65.51a3.3,3.3,0,0,1,1,.12c.73-.07-.76-.22-.88-.35A22.36,22.36,0,0,0,4,11.15c-1.23.06.13.32-2.44.18-.18.19,1.07.36.46.51l-.39,0c1.7.17-.77.1,1,.39L3,12.12c.69.06.71.12.83.2a5,5,0,0,0-.61,0A7.86,7.86,0,0,1,5,12.7c.22-.07-.78-.27-1.09-.41C4.6,12.41,5.64,12.47,5.42,12.55Z"/><path class="cls-1" d="M1.15,10.16l.57.11A3.48,3.48,0,0,0,1.15,10.16Z"/><path class="cls-1" d="M3.23,13.27c-.28.1-1-.12-1.58,0,.83.19,1.73,0,3,.21-.73,0,.51.25.53.3-.7-.11-2.29-.21-2.62-.21.44.08-.34.13-.38.21,1-.12.58.22,1.65.12.94.09,1.6.34.88.36s-.52-.11-.54-.17a16,16,0,0,0-1.84,0c1.76.34,1.59.95,4.34,1,.54,0-.11-.14-.22-.22a5.72,5.72,0,0,1-2-.17c.45-.05-.42-.27.58-.16l1,.22c.58-.39.48-1,.1-1.53l-.08.21a4.08,4.08,0,0,1-1.2-.31L3,13.05c.14-.05-.14-.13.55-.07a11.07,11.07,0,0,0-2-.16c-.33-.19.42-.15-.84-.38-1.58.14,1.31.34-.07.54Z"/><polygon class="cls-1" points="2.19 12.59 3.17 12.74 2.69 12.6 2.19 12.59"/><path class="cls-1" d="M6.44,13c-.42,0-.61-.09-1-.12S5.7,13.06,6.44,13Z"/><path class="cls-1" d="M2.22,14.22l.32.19.36-.08A2.85,2.85,0,0,1,2.22,14.22Z"/><path class="cls-1" d="M6.83,15.74c-.13-.24-1-.4,0-.58-1.16-.22-2.21-.12-3.28-.26-.26.11,1.73.25,2.09.41-1,0,.2.21,0,.32A12.11,12.11,0,0,1,6.83,15.74Z"/><path class="cls-1" d="M3,16.22c0,.1.72.26.26.31s-.81-.14-.65-.19c-1.34-.07.21.13-.68.17a3.26,3.26,0,0,1,.66,0c-.3.26,1.09.25.33.55a4.7,4.7,0,0,0,1.21.19c-1.09.12-1.08,0-2,.19.49,0,1.63,0,2.69.13-1.51.22.18.37-.94.5,0,0-.32-.08-.17-.13-1.46-.09.25.21,0,.31l-1.23-.11c.2.13,1,.39.1.46L2,18.55c.92.36.49.67.93,1l-.73.07c.88.41.42-.31,2.16.09-2.16-.14.69.23-.18.35s-.44-.23-1.41-.21c1.09.14.31.13.62.26-1-.1-.15.21-1.3.05l1.87.52c-.58,0-.48.12-.34.21,0-.19,1.48.18,2,0-.44-.35-.75-.92-.15-1.27-1.44-.16,0-.26-1.14-.42l1.34.06c-.28-.28-.81,0-1.34-.11C4.07,19,5,19,5.49,19c.1-.18-.4-.06-1.18-.22l1.64,0c-.41-.62-1.51-1.47-.43-2l-1.12,0c.66-.25-2.5-.7,0-.77l-1-.17c.55.1,1.74.09,2.52.23-.39-.11.07-.16-.28-.27l-.58.1c-1-.18-.36-.25.52-.21a10.68,10.68,0,0,0-3-.07c2.14.49-2.08.15-1.16.53A5.63,5.63,0,0,0,3,16.22Z"/><path class="cls-1" d="M6.2,16.08,5.9,16A1.94,1.94,0,0,0,6.2,16.08Z"/><path class="cls-1" d="M3.57,20.85s0,0,.05.09C3.85,21,3.69,20.93,3.57,20.85Z"/><path class="cls-1" d="M5.58,15.63h0Z"/><polygon class="cls-1" points="2.69 15.24 2.66 15.32 3.19 15.35 2.69 15.24"/><path class="cls-1" d="M2.37,21.64l.48,0A3.45,3.45,0,0,0,2.37,21.64Z"/><path class="cls-1" d="M2.09,24l0-.05C2,24,2.05,24,2.09,24Z"/><path class="cls-1" d="M2.82,29.81a1.82,1.82,0,0,0,.81.54l-.29,0a1.35,1.35,0,0,0,1.1.26l-.25-.06c-.4-.23.5-.1.72-.24-.09-.19-1.21-.39-.93-.53,0-.08.29,0,.51,0,.12-.16-.77-.29-.88-.42,2.41.15-.62-.56,1-.67-.19-.17.07-.36-.42-.59.64.15.08-.18.82-.08-1.55-.18.8-.5-1.2-.7.6-.22-.13,0,.38-.29.23,0,.22.07.26.09.44-.09-.86-.26.1-.28.18-.23-.56-.09-1.12-.28.27-.24.55-.14,1.46-.21-1-.11-.51-.22-1-.39a.68.68,0,0,1-.66,0c.18-.28-.67-.29-1-.6,1.18,0,0,.29,1,.12A4,4,0,0,0,4.48,26c.08-.23-.06-.54-.54-.83.17-.13.56.12.67,0,.58-.21-1.2-.49-.64-.65l.63.09c-.84-.19.25-.44-.21-.71a3.55,3.55,0,0,1-.78-.05c1.67.14-.85-.4.36-.54a2.92,2.92,0,0,1-1.8-.5,7.31,7.31,0,0,1,1.05.05c-.66.18,1.18.32,1.65.55-.54-.2.07-.41-.71-.61l.86.13c.15-.21-2-.35-1.1-.51l.64.07c-.06-.46,1.21-.89-.27-1.38-.56-.07-1.88,0-2.31,0,.48.26,1.45.46,1.91.66l-1-.08a7,7,0,0,0,1.68.26c.51.18-.91,0-.34.23C3.12,22.07,3,22,2.12,21.9l.52.17c-.41-.07-.36.06-.78,0,1.29.36-.49.31.09.62l.18-.13a1.11,1.11,0,0,1,.69.2,2.15,2.15,0,0,0-1,.16c.45.16,1.47.3,1.45.46-1.07-.12-.59.21-1.48.16,1.06.12.38.33,1,.4.21.11.1.21-.46.16A1,1,0,0,1,2.09,24l0,.08a.83.83,0,0,1-.22,0c0,.08.72.14.21.19a.65.65,0,0,1-.37-.12c-.16.18,1.54.47.62.56A5,5,0,0,0,3.85,25c-.38,0-1.21-.06-1.06.12.87.17-.33.16.23.33-.91-.24-.25,0-1.12-.24-.35.09.81.35.64.53H1.89c.3.1,1,.24.29.25l.59,0c-.3.11-.12.31-.75.41l1.09.25c-1.15.13-.12.52.8.77a.6.6,0,0,1-.48.17l-.37-.12c0,.12-.62.22.21.36.25.14-.58,0-.71.12,1.13.35-.83.68.86.89,0-.1.37-.27.31-.47.21.07.55.06.58.13s-.59.25-.33.47l-1-.11C1.88,29.16,4.28,29.66,2.82,29.81Z"/><path class="cls-1" d="M2.92,27.29l-.6.09.5,0C2.74,27.36,2.74,27.31,2.92,27.29Z"/><path class="cls-1" d="M2.82,27.41a1.45,1.45,0,0,0,.24.1s0-.06-.11-.1Z"/><path class="cls-1" d="M3,30.39s-.12.08,0,.15S3.11,30.43,3,30.39Z"/><polygon class="cls-1" points="3.24 30.58 3.39 30.52 3.28 30.5 3.24 30.58"/><path class="cls-1" d="M3.47,34.78l.3.26c-.17,0,0,.29-.29.19.35.16-.06.43.48.36,0-.68.59-1.56.11-2.37l.27.14c-.52-.44.82-.49-.37-.91l.64.1c.24-.17-.89-.43-.14-.56H4.18c0-.05.14-.06.15-.11H4.2c-.25-.16-.22-.24,0-.35s.09.07.14.11c.24,0-.23-.18-.21-.28a.67.67,0,0,1,.43,0c-.27-.33.57-.4-.55-.72-.21,0-.4.05-.49-.07-.39.18.06.38.33.59v-.05c1,.23-.25.09.17.36-.41-.09-.4-.2-.63-.26-.81.22.57.45-.45.55l0,0c-.09,0,.09.12.18.19a1.1,1.1,0,0,0,.29-.09,4.37,4.37,0,0,0,.71.17c-.45,0,.19.11,0,.2-.4,0-.35-.12-.57-.18l.26.16c0,.12-.44.08-.66.13.29.13.22-.05.63.07-.5.09-.39.67-.1,1,0-.1-.37-.07-.3-.17-.08,0,.08.19.35.21.2.21,0,.43-.25.58l.25,0c.38.18-.35.34-.15.62h0c0,.08.56.2.41.34C3.7,34.87,3.73,34.79,3.47,34.78Z"/><path class="cls-1" d="M3.77,35.72l-.24-.1c-.07.08.23.22.4.22,0-.07.09-.14-.05-.16S3.74,35.68,3.77,35.72Z"/><path class="cls-1" d="M3.39,37.43s.1,0,.14,0c.09-.36.12-.81.33-.94s-.22-.17-.26-.33l.25-.05c-.13-.09.2-.32-.23-.27,0,0,.18.09.09.16l-.14,0v.17l-.15-.06c-.27.2.46.19.23.45l-.3,0c0,.18,0,.28-.17.43,0,0,.14,0,.09,0a.25.25,0,0,1,.22,0c.14.29-.16,0-.31.13.16.25.15.71,0,.83.15-.11.24.07.18.2S3.24,38,3.18,38s-.09.11-.07.17a.16.16,0,0,1,.25.14C3.59,38,3.31,37.74,3.39,37.43Z"/><path class="cls-1" d="M3.57,37.54a.07.07,0,0,0,0-.06l0,.13Z"/></g></g></svg>