<svg xmlns="http://www.w3.org/2000/svg" viewBox="0 0 6.86 31.33"><defs><style>.cls-1{fill:#fff;}</style></defs><g id="Camada_2" data-name="Camada 2"><g id="Camada_1-2" data-name="Camada 1"><path class="cls-1" d="M5.93,0a.2.2,0,0,1,0,.08L6,.12A.94.94,0,0,1,5.93,0Z"/><path class="cls-1" d="M5.25.35a.77.77,0,0,0,0,.15c.65,0,.5.07.88-.12C6,.28,5.86.09,5.73.1s.14.16.07.24S5.7.2,5.57.14c-.22.12.06.1-.08.24Z"/><path class="cls-1" d="M5.77.58,5.47.52C5.57.54,5.7.63,5.77.58Z"/><path class="cls-1" d="M5.83.67c0,.09-.26,0-.3,0L6,.8Z"/><path class="cls-1" d="M5.76,1.06s0,0,0,.05S5.83,1.08,5.76,1.06Z"/><path class="cls-1" d="M5.81,1.26c.23,0,.09-.08,0-.15h0c-.18,0-.6-.05-.45-.13-.05-.09.32,0,.1-.15L5.07.9C5,1,5.63,1.18,5.81,1.26Z"/><path class="cls-1" d="M5.76,1.06a.17.17,0,0,1,0-.05C5.67,1,5.71,1,5.76,1.06Z"/><polygon class="cls-1" points="5.83 0.87 5.76 0.81 5.6 0.81 5.83 0.87"/><path class="cls-1" d="M5.84,1.58c-.71-.09.09-.22-.42-.29,0,.12-.55.17-.93.11l.14.15A4.37,4.37,0,0,0,5.84,1.58Z"/><path class="cls-1" d="M3.78,1.66l.11,0A.32.32,0,0,0,3.78,1.66Z"/><path class="cls-1" d="M5,2.49l-.83-.41a2.21,2.21,0,0,1,.65.15c.17-.13-.4-.2-.25-.3.82,0,0,.21.75.21,0-.09,0-.22-.65-.34l.56-.08-.83,0c-.28,0,.6.17,0,.15-.38,0-.41-.08-.47-.12C4,1.8,3,1.86,3,2S4.52,2.32,5,2.49Z"/><polygon class="cls-1" points="3.84 2.39 3.43 2.37 3.98 2.41 3.84 2.39"/><path class="cls-1" d="M5.1,2.87l-.63-.23a4.89,4.89,0,0,1,.52,0c-.25,0-.65-.1-.85-.12-1,0,.2.23.37.34C4,3.06,4,2.81,3,2.81c.07-.07.32,0,.44-.13-1.24,0-.32.31,0,.43.13,0,.46,0,.39,0l.32.13C5,3.17,5.18,3.11,5.1,2.87Z"/><path class="cls-1" d="M5.16,2.57c0,.07,0,.08-.16.08C5.26,2.66,5.45,2.65,5.16,2.57Z"/><path class="cls-1" d="M3.36,3.16c.08,0,.06,0,0-.05S3.28,3.13,3.36,3.16Z"/><path class="cls-1" d="M4.69,3.19l-.15.11h.53A.78.78,0,0,0,4.69,3.19Z"/><path class="cls-1" d="M1.14,7.44c.69,0,1,0,.93-.06a4.75,4.75,0,0,1,1.23.31,13.32,13.32,0,0,1,2,.15c.1-.12-1.09-.3-.82-.42.25,0,.65.07,1,.08-.56-.23-1.35-.6-.57-.7.35-.13,0-.29-.4-.51.5-.55-.19-1.23.61-1.8L3.72,4.27c.69,0,0-.15.92,0-.18,0,0,.07,0,.11,1.21,0,0-.37.42-.49a10.3,10.3,0,0,1-1.51-.15c1.39.15.05-.19,1.62-.09.41-.12-1.17-.12-.91-.26-.76-.09-.43.12-1,.09s.35-.12-.48-.19c-.58.22.86.87,1.34,1.34l-.86-.13c.54.27.52.61-1.08.63.91,0-.62.26,1.48.43A1.3,1.3,0,0,0,3,5.6l.66.08c0,.11-1.08,0-1,.12a10.82,10.82,0,0,1,2,.24l-3,.16c.32,0,.68,0,1.1,0-.36,0,.56.12.88.18A9.5,9.5,0,0,1,1.7,6.31c-.45.12,1.94.41,1.11.45l1,.06c.23.18-.93.2-.62.41a3.84,3.84,0,0,1-1.78-.39,6.41,6.41,0,0,1-.88,0c.7.14,1.65.36,2.33.52C1.23,7.16,1.26,7.39,1.14,7.44Z"/><path class="cls-1" d="M.55,6.89,0,6.79c.08,0,.17,0,.09.07Z"/><path class="cls-1" d="M1.14,7.44H1A.39.39,0,0,0,1.14,7.44Z"/><path class="cls-1" d="M5,6.79h-.1s0,0,0,0Z"/><path class="cls-1" d="M.45,6.23l1.11,0A3.6,3.6,0,0,0,.45,6.23Z"/><path class="cls-1" d="M2,5.29c-.15,0-.43,0-.72-.1C1.18,5.25,1.47,5.3,2,5.29Z"/><polygon class="cls-1" points="0.21 7.05 0.49 7.21 0.76 7.29 0.21 7.05"/><path class="cls-1" d="M5.42,10.27c1.33,0,.54-.24.82-.36-.66-.33-2.88-.31-3-.58l2.71.31c-.13-.27.44-.58-1.9-1a4.91,4.91,0,0,1,1.12.1c-.09-.17-3.81-.45-2.88-.58a23.07,23.07,0,0,0,3.22.29l.19.05c-.16-.16-1-.43-.9-.51A7.51,7.51,0,0,1,3,7.76a11.16,11.16,0,0,1-1.57-.12c.71.2.23.22,1.12.39C1.65,8,2.28,8,1.38,7.94l.8.18C2,8.18,1.3,8,1.09,8.06c.52.06,1.08.21.94.29l-.31,0c.35.1-.11.16,1.39.27l-1.5-.06,1,.08C2.2,8.75-.26,8.59,1,9A4,4,0,0,1,2,9.09c.72,0-.76-.2-.89-.31A25.52,25.52,0,0,0,4,9.08c-1.24,0,.13.27-2.45.08-.17.15,1.07.33.47.43l-.39,0c1.7.19-.77.06,1,.35L3,9.85c.69.07.71.11.84.18a5.35,5.35,0,0,0-.61,0A8.77,8.77,0,0,1,5,10.38c.21-.05-.78-.24-1.09-.37C4.61,10.13,5.64,10.21,5.42,10.27Z"/><path class="cls-1" d="M1.15,8.19l.57.11A3.25,3.25,0,0,0,1.15,8.19Z"/><path class="cls-1" d="M3.24,10.8c-.28.07-1-.13-1.57-.08.83.18,1.72,0,3,.26-.73,0,.51.22.53.26-.7-.11-2.29-.24-2.61-.25.44.08-.35.1-.39.16,1-.07.58.2,1.66.15s1.59.32.88.31-.53-.1-.55-.15a16.73,16.73,0,0,0-1.84,0c1.76.33,1.59.82,4.34.94.54,0-.11-.12-.22-.18A7.25,7.25,0,0,1,4.48,12c.45,0-.42-.24.57-.11l1,.21c.58-.31.47-.81.1-1.26L6.1,11a4.65,4.65,0,0,1-1.2-.28L3,10.61c.14,0-.14-.11.55,0a13.57,13.57,0,0,0-2-.19c-.33-.16.42-.11-.84-.33-1.58.07,1.31.31-.07.43Z"/><polygon class="cls-1" points="2.2 10.21 3.18 10.36 2.69 10.23 2.2 10.21"/><path class="cls-1" d="M6.45,10.7l-1-.13C5.12,10.65,5.71,10.69,6.45,10.7Z"/><path class="cls-1" d="M2.24,11.55l.32.16.36-.05A4.44,4.44,0,0,1,2.24,11.55Z"/><path class="cls-1" d="M6.84,12.93c-.13-.2-1-.36,0-.48-1.16-.21-2.21-.16-3.27-.31-.26.08,1.72.26,2.09.4-1-.06.2.18-.05.26A11.79,11.79,0,0,1,6.84,12.93Z"/><path class="cls-1" d="M3.06,13.2c0,.09.72.24.27.27s-.82-.14-.66-.18c-1.34-.09.21.12-.67.13a3.51,3.51,0,0,1,.66,0c-.31.2,1.08.23.33.46a5,5,0,0,0,1.2.19c-1.09.07-1.08,0-2,.1.5,0,1.63.08,2.7.18-1.51.14.17.31-.94.38-.05,0-.32-.07-.18-.11-1.45-.11.26.18,0,.25l-1.23-.12c.2.11,1,.35.1.38L2,15.09c.92.32.49.56.93.81l-.73,0c.88.36.42-.24,2.16.13-2.16-.18.69.21-.18.29s-.43-.21-1.41-.22c1.09.14.31.12.62.23-1-.11-.14.17-1.29,0l1.86.47c-.57,0-.48.09-.34.17,0-.16,1.48.18,2,.05-.44-.31-.75-.78-.15-1.05-1.44-.17,0-.21-1.14-.37l1.34.08c-.29-.24-.81,0-1.34-.13-.18-.11.71-.1,1.24,0,.1-.14-.4-.05-1.19-.2L6,15.41c-.4-.51-1.51-1.25-.43-1.69l-1.12-.06c.66-.18-2.5-.65,0-.63l-1-.17c.55.09,1.73.12,2.51.26-.38-.1.07-.13-.28-.23L5.06,13c-1-.17-.36-.21.52-.16a13.18,13.18,0,0,0-3-.13c2.14.46-2.08.06-1.16.39A6,6,0,0,0,3.06,13.2Z"/><path class="cls-1" d="M6.22,13.19l-.31-.07Z"/><path class="cls-1" d="M3.6,17s0,0,0,.08C3.89,17.14,3.72,17.09,3.6,17Z"/><path class="cls-1" d="M5.6,12.8h0Z"/><polygon class="cls-1" points="2.71 12.4 2.68 12.46 3.21 12.5 2.71 12.4"/><path class="cls-1" d="M2.41,17.63l.48.05Z"/><path class="cls-1" d="M2.14,19.56l0,0C2.09,19.53,2.1,19.55,2.14,19.56Z"/><path class="cls-1" d="M2.89,24.34a2,2,0,0,0,.81.47l-.29,0A1.61,1.61,0,0,0,4.5,25L4.26,25c-.4-.2.49-.07.71-.17-.09-.17-1.21-.36-.92-.47,0-.06.28,0,.51,0,.11-.13-.78-.26-.89-.37,2.41.19-.61-.47,1-.52-.19-.15.07-.29-.42-.5.64.15.08-.15.82,0-1.55-.19.79-.39-1.2-.61.59-.16-.14,0,.37-.23.23,0,.23.07.26.09.45-.06-.85-.24.1-.23.19-.19-.56-.09-1.11-.26.26-.19.55-.1,1.45-.13-1-.12-.51-.2-1-.35a.77.77,0,0,1-.65,0c.18-.22-.68-.26-1-.51,1.18,0,0,.23,1,.12a4.77,4.77,0,0,0,1.31.45c.09-.18-.06-.44-.54-.69.17-.11.56.11.67,0,.58-.16-1.2-.44-.64-.56l.63.1c-.84-.19.24-.35-.21-.59a4.11,4.11,0,0,1-.78-.06c1.67.16-.85-.35.35-.43a3.7,3.7,0,0,1-1.8-.46,7.31,7.31,0,0,1,1,.06c-.65.13,1.18.3,1.66.5-.55-.18.07-.33-.72-.52l.86.13c.15-.17-1.95-.34-1.1-.45l.64.08c-.06-.38,1.21-.7-.28-1.14-.56-.08-1.87-.05-2.31-.08.49.22,1.45.42,1.92.6l-1-.1a8.22,8.22,0,0,0,1.68.26c.51.16-.91,0-.34.18-1.07-.11-1.18-.2-2.07-.29l.52.17c-.41-.08-.36,0-.77,0,1.28.32-.5.24.08.5l.19-.1c.58.06.52.12.68.19a2.36,2.36,0,0,0-1,.1c.46.14,1.47.29,1.46.41-1.07-.13-.59.16-1.48.1,1,.12.38.28,1,.35.21.09.09.18-.46.12a1,1,0,0,1-.17-.07l0,.07-.22,0c0,.06.72.13.21.16a.66.66,0,0,1-.37-.11c-.16.15,1.54.43.62.48a6.36,6.36,0,0,0,1.56.32c-.38,0-1.2-.08-1.06.07.87.16-.32.12.23.27-.9-.22-.25,0-1.12-.22-.35.05.81.3.65.45L2,21c.3.09,1,.22.28.21l.6,0c-.31.08-.12.25-.75.31l1.08.24c-1.14.08-.11.42.8.66a.65.65,0,0,1-.47.12l-.37-.11c0,.1-.62.16.21.3.25.13-.57,0-.71.08,1.13.32-.82.53.86.76,0-.09.37-.21.32-.38.2.06.54.06.57.12s-.58.19-.32.38L3,23.6C2,23.78,4.34,24.26,2.89,24.34Z"/><path class="cls-1" d="M3,22.28l-.6.06.5,0C2.8,22.33,2.8,22.29,3,22.28Z"/><path class="cls-1" d="M2.88,22.37l.24.09s0-.05-.11-.08Z"/><path class="cls-1" d="M3,24.82s-.11.06,0,.12S3.18,24.86,3,24.82Z"/><polygon class="cls-1" points="3.31 24.98 3.46 24.93 3.35 24.92 3.31 24.98"/><path class="cls-1" d="M3.56,28.43l.29.22c-.17,0,0,.24-.28.15.35.14-.06.35.47.31,0-.56.59-1.26.11-1.94l.27.13c-.52-.39.81-.38-.38-.76l.64.09c.24-.13-.89-.37-.14-.46H4.25s.14-.05.15-.09H4.27c-.25-.14-.21-.2,0-.29s.08.06.14.1c.24,0-.23-.16-.21-.25a.81.81,0,0,1,.43.06c-.28-.29.56-.32-.55-.61-.22,0-.41,0-.5-.07-.37.13.07.31.34.49v0c1.05.22-.25.06.17.3a4.3,4.3,0,0,1-.63-.23c-.81.15.57.38-.44.43l0,0c-.1,0,.09.1.17.16a1.2,1.2,0,0,0,.3-.07,3.47,3.47,0,0,0,.7.16c-.45,0,.2.1,0,.17-.4,0-.35-.11-.56-.17l.26.14c0,.1-.45.06-.66.09.29.11.22,0,.62.08-.5.06-.39.53-.09.78,0-.08-.37-.06-.3-.14-.08,0,.08.16.34.18.21.17,0,.35-.24.47l.25,0c.38.16-.35.27-.15.51h0c0,.07.55.18.41.29C3.78,28.51,3.82,28.45,3.56,28.43Z"/><path class="cls-1" d="M3.86,29.21l-.24-.09c-.07.07.23.19.39.19,0,0,.1-.11,0-.13S3.83,29.17,3.86,29.21Z"/><path class="cls-1" d="M3.49,30.6s.09,0,.13,0c.09-.3.12-.67.33-.77s-.22-.14-.27-.27l.26,0c-.13-.09.2-.27-.23-.23,0,0,.17.08.08.13l-.13,0v.14l-.15-.06c-.27.16.45.18.23.38l-.3,0c-.05.15,0,.24-.16.35,0,0,.13,0,.08,0a.29.29,0,0,1,.22,0c.14.25-.16-.05-.3.1.15.21.15.59,0,.68.15-.08.23.06.18.17s-.1-.05-.15-.07-.09.09-.08.14.25,0,.25.12C3.68,31.09,3.41,30.86,3.49,30.6Z"/><path class="cls-1" d="M3.66,30.69a0,0,0,0,0,0,0l0,.1Z"/></g></g></svg>