<svg xmlns="http://www.w3.org/2000/svg" viewBox="0 0 7.29 23.49"><defs><style>.cls-1{fill:#fff;}</style></defs><g id="Camada_2" data-name="Camada 2"><g id="Camada_1-2" data-name="Camada 1"><path class="cls-1" d="M5.38,0l0,.06.12,0Z"/><path class="cls-1" d="M4.72.29a.4.4,0,0,0,0,.11c.64,0,.5,0,.86-.13-.12-.06-.27-.2-.4-.18s.15.11.09.17S5.17.16,5,.12,5.1.19,5,.3Z"/><path class="cls-1" d="M5.27.44,5,.41C5.06.42,5.19.48,5.27.44Z"/><path class="cls-1" d="M5.33.51c0,.07-.26,0-.3,0L5.5.6Z"/><path class="cls-1" d="M5.29.8l0,0C5.44.82,5.36.81,5.29.8Z"/><path class="cls-1" d="M5.36.94c.22,0,.08-.06,0-.11h0c-.18,0-.61,0-.47-.08,0-.07.32-.05.09-.12L4.59.72C4.56.82,5.17.9,5.36.94Z"/><path class="cls-1" d="M5.29.8a.08.08,0,0,1,0,0C5.2.77,5.24.79,5.29.8Z"/><polygon class="cls-1" points="5.34 0.65 5.27 0.61 5.11 0.62 5.34 0.65"/><path class="cls-1" d="M5.41,1.18C4.7,1.15,5.48,1,5,1c0,.1-.53.16-.92.13l.15.11A5.58,5.58,0,0,0,5.41,1.18Z"/><path class="cls-1" d="M3.36,1.34l.11,0Z"/><path class="cls-1" d="M4.61,1.9l-.86-.26a2.79,2.79,0,0,1,.67.08c.15-.1-.42-.13-.28-.22.82,0,0,.16.76.13,0-.07-.05-.16-.67-.23l.56-.08H4c-.27,0,.61.1,0,.11-.38,0-.41,0-.47-.07.11.07-.85.16-.87.29S4.15,1.8,4.61,1.9Z"/><polygon class="cls-1" points="3.48 1.88 3.07 1.89 3.62 1.89 3.48 1.88"/><path class="cls-1" d="M4.77,2.18,4.12,2l.52,0L3.79,2c-1,0,.22.16.39.23-.54.17-.54,0-1.56,0,.07-.05.32-.05.43-.12-1.24.09-.29.25,0,.32.12,0,.46,0,.38,0l.33.08C4.66,2.41,4.87,2.35,4.77,2.18Z"/><path class="cls-1" d="M4.81,2c.06.05,0,.07-.15.07C4.92,2,5.1,2,4.81,2Z"/><path class="cls-1" d="M3.06,2.48c.08,0,.06,0,0,0S3,2.46,3.06,2.48Z"/><path class="cls-1" d="M4.39,2.44l-.14.09.53,0A1.12,1.12,0,0,0,4.39,2.44Z"/><path class="cls-1" d="M1.18,5.78c.69,0,1,0,.93-.09a7.11,7.11,0,0,1,1.25.17,19.47,19.47,0,0,1,2,0c.08-.1-1.11-.17-.86-.27s.66,0,1,0c-.58-.14-1.39-.38-.62-.49.34-.12-.08-.22-.44-.36.45-.44-.27-.92.47-1.38l-1.37-.1c.69,0,0-.11.91-.08-.18,0,0,0,0,.08,1.2-.07-.06-.27.38-.38a15,15,0,0,1-1.52,0c1.4,0,0-.14,1.61-.14.4-.12-1.17,0-.92-.16-.77,0-.43.11-1,.12s.33-.1-.5-.12c-.56.2.92.61,1.44.93L3,3.45c.56.18.57.44-1,.53.91,0-.6.22,1.49.24a1.76,1.76,0,0,0-.61.1l.67,0c0,.08-1.08.05-1,.14a13.35,13.35,0,0,1,2,.08l-2.93.26c.31,0,.67,0,1.09,0-.36.06.57.07.89.09a12.51,12.51,0,0,1-1.84,0c-.44.11,2,.21,1.14.28h1c.24.13-.91.2-.59.34a5,5,0,0,1-1.8-.2c-.31,0-.4.07-.88.08l2.36.27C1.25,5.57,1.3,5.74,1.18,5.78Z"/><path class="cls-1" d="M.55,5.4,0,5.35c.08,0,.17,0,.1.05Z"/><path class="cls-1" d="M1.18,5.78h0Z"/><path class="cls-1" d="M4.94,5.11l-.09,0,0,0Z"/><path class="cls-1" d="M.4,4.91l1.11-.08A5.09,5.09,0,0,0,.4,4.91Z"/><path class="cls-1" d="M1.85,4.14c-.15,0-.43,0-.72,0C1.06,4.14,1.35,4.17,1.85,4.14Z"/><polygon class="cls-1" points="0.23 5.54 0.52 5.64 0.79 5.69 0.23 5.54"/><path class="cls-1" d="M5.67,7.68c1.32,0,.52-.2.79-.3-.69-.22-2.9-.09-3-.29l2.72.1c-.15-.2.4-.45-2-.67a7.17,7.17,0,0,1,1.12,0c-.1-.13-3.83-.15-2.92-.3a29.2,29.2,0,0,0,3.24.07l.18,0c-.17-.11-1-.28-.93-.34a9.43,9.43,0,0,1-1.79-.08c-.14,0-.9,0-1.58,0,.73.12.26.16,1.15.24-.91,0-.29,0-1.18,0l.81.1c-.21,0-.89-.08-1.09,0,.52,0,1.09.11,1,.18l-.31,0c.35.06-.1.13,1.4.14l-1.5,0h1c-.41.14-2.88.14-1.61.35A5.7,5.7,0,0,1,2.2,7c.72-.06-.77-.12-.9-.19,1,0,2.26.16,2.87.09A8.91,8.91,0,0,1,1.74,7c-.16.12,1.1.19.5.3H1.85c1.71.06-.76.08,1,.21l.38,0c.7,0,.72,0,.85.1a4,4,0,0,0-.61,0,10.33,10.33,0,0,1,1.79.21c.22,0-.79-.15-1.11-.22A9.58,9.58,0,0,1,5.67,7.68Z"/><path class="cls-1" d="M1.25,6.34l.58,0A3.75,3.75,0,0,0,1.25,6.34Z"/><path class="cls-1" d="M3.53,8.18c-.27.07-1,0-1.57,0,.84.1,1.72,0,3,.05-.72,0,.53.14.55.17-.71-.05-2.3-.07-2.62-.06.44,0-.34.09-.37.14,1-.1.59.12,1.66,0s1.62.16.9.19-.53-.05-.56-.08c-1.28-.06-.68.06-1.83,0,1.78.16,1.65.54,4.4.49.53,0-.13-.08-.24-.12a9,9,0,0,1-2-.06c.45,0-.44-.15.56-.11l1,.11c.56-.25.41-.62,0-.94l-.07.13A6.78,6.78,0,0,1,5.18,8l-1.92,0C3.4,8,3.11,8,3.8,8a14.85,14.85,0,0,0-2,0c-.35-.11.41-.11-.87-.22-1.56.13,1.33.17,0,.33Z"/><polygon class="cls-1" points="2.45 7.8 3.44 7.86 2.95 7.79 2.45 7.8"/><path class="cls-1" d="M6.72,8l-1,0C5.4,8,6,8,6.72,8Z"/><path class="cls-1" d="M2.59,8.79l.34.11.35-.06A3.36,3.36,0,0,1,2.59,8.79Z"/><path class="cls-1" d="M7.29,9.6c-.15-.14-1-.22,0-.36C6.07,9.14,5,9.23,4,9.17c-.26.07,1.73.11,2.11.2-1,0,.21.12,0,.19C6.45,9.56,6.91,9.57,7.29,9.6Z"/><path class="cls-1" d="M3.54,10c0,.06.74.14.29.18s-.82-.06-.67-.1c-1.34,0,.22.08-.66.13a3.52,3.52,0,0,1,.66,0c-.29.16,1.1.12.36.32a6.9,6.9,0,0,0,1.22.09c-1.08.1-1.08,0-2,.17.49,0,1.63,0,2.69,0-1.49.18.2.23-.9.34,0,0-.33,0-.18-.08-1.46,0,.27.12,0,.19l-1.23,0c.2.07,1,.21.12.28l-.61,0c1,.2.53.4,1,.56l-.72.07c.9.23.4-.2,2.16,0-2.16,0,.7.13-.16.23s-.45-.13-1.42-.09c1.1.05.32.07.64.14-1,0-.13.13-1.29.06l1.9.27c-.58,0-.48.09-.33.14,0-.12,1.49.06,2-.06-.46-.21-.8-.54-.23-.78-1.45-.06,0-.15-1.16-.22H6.29c-.3-.16-.81,0-1.34,0-.19-.07.69-.11,1.23-.09.08-.11-.4,0-1.2-.1l1.64,0c-.45-.36-1.61-.86-.57-1.23H4.93c.64-.17-2.54-.36-.09-.47l-1-.08c.56,0,1.74,0,2.53.08-.39-.06.06-.1-.3-.16l-.56.08c-1-.09-.38-.15.5-.15a18.52,18.52,0,0,0-3,0c2.16.24-2.07.15-1.13.36A9.32,9.32,0,0,0,3.54,10Z"/><path class="cls-1" d="M6.68,9.82l-.3,0Z"/><path class="cls-1" d="M4.38,12.81s0,0,0,0C4.67,12.89,4.51,12.85,4.38,12.81Z"/><path class="cls-1" d="M6,9.56H6Z"/><polygon class="cls-1" points="3.13 9.4 3.1 9.45 3.64 9.46 3.13 9.4"/><path class="cls-1" d="M3.24,13.32h0Z"/><path class="cls-1" d="M3.11,14.78l0,0C3.07,14.75,3.08,14.76,3.11,14.78Z"/><path class="cls-1" d="M4.24,18.3a2.23,2.23,0,0,0,.84.31H4.79a2,2,0,0,0,1.1.13l-.24,0c-.41-.13.49-.08.7-.17-.11-.11-1.24-.2-1-.3,0,0,.28,0,.51,0S5.11,18.06,5,18c2.41,0-.65-.33.93-.44-.19-.1,0-.22-.45-.35.65.08.06-.11.81-.07-1.56-.07.76-.33-1.24-.4.57-.15-.14,0,.35-.18.23,0,.23,0,.27.05.43-.07-.88-.14.08-.18.17-.14-.57,0-1.13-.14.25-.15.54-.1,1.43-.17-1,0-.52-.12-1.06-.2a1.1,1.1,0,0,1-.65,0c.16-.18-.7-.16-1-.34,1.18-.06.05.17,1,0a6.36,6.36,0,0,0,1.34.28c.07-.15-.09-.33-.59-.5.16-.08.56.06.67,0,.56-.14-1.23-.26-.68-.38l.64,0c-.86-.09.21-.27-.26-.43a6.68,6.68,0,0,1-.78,0c1.67,0-.88-.23.31-.34a4.79,4.79,0,0,1-1.82-.26c.29,0,.76,0,1,0-.65.13,1.19.17,1.68.29-.55-.11.05-.25-.75-.35L6,14c.15-.13-2-.16-1.13-.28l.65,0c-.09-.28,1.15-.58-.37-.84-.56,0-1.87.05-2.3.05.5.15,1.48.24,1.95.36l-1,0a12.15,12.15,0,0,0,1.69.12c.53.09-.91,0-.32.15C4,13.57,3.9,13.51,3,13.48l.54.1c-.42,0-.36,0-.78,0,1.3.18-.47.2.13.37l.17-.08a1.58,1.58,0,0,1,.7.1,3.35,3.35,0,0,0-1,.13,7.49,7.49,0,0,1,1.48.24c-1.07,0-.57.14-1.46.14,1.06,0,.4.19,1,.22.22,0,.11.12-.44.11l-.19,0,0,.05-.23,0s.73.06.23.11a1.06,1.06,0,0,1-.39-.07c-.14.12,1.57.25.66.33a8.06,8.06,0,0,0,1.58.16c-.37,0-1.21,0-1.05.1.88.08-.31.11.25.2-.92-.12-.25,0-1.13-.12-.35.07.83.19.68.31H3c.31.05,1,.12.31.15h.59c-.29.08-.1.2-.72.27l1.1.13c-1.13.11-.08.32.85.45a.75.75,0,0,1-.47.11l-.37-.06c0,.07-.6.15.24.21.25.08-.58,0-.71.1,1.15.18-.78.43.92.52,0-.06.35-.18.28-.3a3.76,3.76,0,0,1,.59.07c.06.12-.57.17-.3.29l-1.06,0C3.25,17.93,5.68,18.17,4.24,18.3Z"/><path class="cls-1" d="M4.16,16.76l-.59.07h.51C4,16.8,4,16.78,4.16,16.76Z"/><path class="cls-1" d="M4.08,16.83l.24.06s0,0-.11-.06Z"/><path class="cls-1" d="M4.42,18.65s-.11.06,0,.1S4.57,18.67,4.42,18.65Z"/><polygon class="cls-1" points="4.71 18.76 4.85 18.72 4.74 18.71 4.71 18.76"/><path class="cls-1" d="M5.22,21.32l.31.15c-.17,0,0,.18-.27.13.36.09,0,.26.5.2-.1-.41.48-1,0-1.45l.28.08c-.55-.26.78-.32-.44-.54l.65,0c.23-.11-.92-.24-.18-.34H5.74s.13,0,.14-.07H5.75c-.27-.09-.23-.14,0-.21s.09,0,.15.06c.24,0-.24-.11-.23-.17a1.13,1.13,0,0,1,.44,0c-.3-.2.53-.27-.6-.43-.22,0-.4,0-.5,0-.37.12.09.23.38.35v0c1.06.12-.25.06.2.22-.42,0-.42-.11-.65-.14-.8.15.59.25-.41.34h0c-.09,0,.1.07.19.11A1.23,1.23,0,0,0,5,19.54a5.22,5.22,0,0,0,.71.09c-.45,0,.2.06,0,.12-.4,0-.36-.06-.57-.09l.27.09c0,.07-.44.06-.65.09.29.08.21,0,.63,0-.5.07-.35.42,0,.6,0-.06-.37,0-.31-.1s.1.12.36.12,0,.26-.2.36l.24,0c.39.1-.32.22-.11.38h0c0,.05.56.1.43.2S5.48,21.32,5.22,21.32Z"/><path class="cls-1" d="M5.58,21.89l-.25-.06c-.06.06.25.13.41.13,0,0,.09-.09-.06-.1S5.55,21.86,5.58,21.89Z"/><path class="cls-1" d="M5.31,22.94a.7.7,0,0,0,.14,0c.07-.22.07-.5.27-.58s-.22-.1-.28-.2l.24,0c-.13-.06.19-.21-.24-.16,0,0,.18.05.1.09H5.4l0,.1-.16,0c-.25.13.47.1.27.27H5.22c0,.11,0,.17-.13.27,0,0,.13,0,.08,0a.32.32,0,0,1,.21,0c.17.17-.15,0-.29.08.17.15.19.43,0,.51.14-.07.25,0,.2.12s-.1,0-.16,0-.08.06-.06.1.24,0,.26.08C5.55,23.3,5.25,23.14,5.31,22.94Z"/><path class="cls-1" d="M5.49,23s0,0,0,0l0,.08Z"/></g></g></svg>