<svg xmlns="http://www.w3.org/2000/svg" viewBox="0 0 8.52 11.24"><defs><style>.cls-1{fill:#fff;}</style></defs><g id="Camada_2" data-name="Camada 2"><g id="Camada_1-2" data-name="Camada 1"><path class="cls-1" d="M8.48,1.26H8.43l.08.1Z"/><path class="cls-1" d="M7.91,1l0,.05c.47.37.33.31.65.47a1.19,1.19,0,0,0-.22-.33s.07.14,0,.13,0-.11-.13-.21,0,.07-.1,0Z"/><path class="cls-1" d="M8.24,1.37,8,1.17C8.1,1.24,8.17,1.35,8.24,1.37Z"/><path class="cls-1" d="M8.26,1.44s-.18-.16-.21-.18l.3.33Z"/><path class="cls-1" d="M8.13,1.54l0,.05C8.23,1.65,8.17,1.59,8.13,1.54Z"/><path class="cls-1" d="M8.13,1.65c.17.13.08,0,0-.06l0,0c-.15-.1-.44-.4-.31-.33,0-.06.25.18.11,0l-.28-.19C7.58,1.08,8,1.5,8.13,1.65Z"/><path class="cls-1" d="M8.13,1.54s0,0,0,0S8.09,1.5,8.13,1.54Z"/><polygon class="cls-1" points="8.22 1.51 8.18 1.45 8.06 1.35 8.22 1.51"/><path class="cls-1" d="M8.08,1.78c-.52-.48.11,0-.26-.37,0,.05-.45-.28-.72-.54L7.17,1A9.37,9.37,0,0,0,8.08,1.78Z"/><path class="cls-1" d="M6.49.5l.08.09Z"/><path class="cls-1" d="M7.24,1.57,6.68.89a5,5,0,0,1,.47.47C7.3,1.42,6.88,1,7,1.08c.62.54,0,.07.54.56,0,0,0-.1-.43-.54l.45.33L6.94.89c-.22-.17.42.44,0,0C6.61.68,6.6.64,6.57.59c0,.1-.69-.49-.75-.44S6.93,1.22,7.24,1.57Z"/><polygon class="cls-1" points="6.41 0.83 6.1 0.56 6.51 0.92 6.41 0.83"/><path class="cls-1" d="M7.26,1.79l-.43-.48.39.33-.61-.57c-.75-.63.1.21.21.36a9.68,9.68,0,0,1-1.16-1c.07,0,.25.19.36.23-.93-.75-.3-.08-.12.13s.34.29.3.23l.21.24C7.09,1.82,7.27,1.93,7.26,1.79Z"/><path class="cls-1" d="M7.36,1.72c0,.06,0,0-.13-.07C7.42,1.82,7.57,1.93,7.36,1.72Z"/><path class="cls-1" d="M5.89.82c.06,0,.05,0,0,0S5.84.76,5.89.82Z"/><path class="cls-1" d="M6.88,1.65l-.13,0,.4.33A2.34,2.34,0,0,0,6.88,1.65Z"/><path class="cls-1" d="M3.28,1c.52.46.79.68.73.57.68.62.5.53.88.9s.81.73,1.49,1.32c.1,0-.77-.8-.54-.68l.72.65c-.38-.44-.9-1.07-.29-.62.3.17,0-.14-.2-.44.49.11.11-.57.83-.28l-1-1c.52.46.07,0,.71.57-.14-.1,0,0,0,0,.93.76.06-.15.43.09-.17-.15-1-.88-1.12-1,1,.93.09,0,1.25,1,.34.21-.86-.78-.63-.66C6,.91,6.15,1.19,5.68.79S6,1,5.37.42c-.5-.29.43.82.71,1.31l-.63-.59c.36.45.28.56-1-.44.69.59-.53-.3,1,1.09a4,4,0,0,0-.49-.37l.49.46c-.06,0-.83-.7-.84-.63.72.6.9.81,1.46,1.33L3.87.77l.83.71c-.29-.21.4.4.64.63,0,.05-.92-.79-1.39-1.21-.36-.24,1.41,1.39.76.87l.77.67c.13.21-.75-.52-.56-.24A9.24,9.24,0,0,1,3.64.93C3.41.74,3.32.69,3,.38L4.62,2.05C3.42.91,3.39,1,3.28,1Z"/><path class="cls-1" d="M3,.38,2.56,0c.06.06.12.13.06.08Z"/><path class="cls-1" d="M3.28,1,3.15.83Z"/><path class="cls-1" d="M6.35,3.15l-.08-.06h0Z"/><path class="cls-1" d="M3,.08l.85.69A9.27,9.27,0,0,0,3,.08Z"/><path class="cls-1" d="M4.36.69C4.26.58,4.05.4,3.84.2,3.77.17,4,.38,4.36.69Z"/><polygon class="cls-1" points="2.66 0.23 2.84 0.46 3.03 0.66 2.66 0.23"/><path class="cls-1" d="M6,4.72c1,.85.47.26.71.39C6.25,4.57,4.54,3.16,4.49,3l2,1.83c0-.18.46.08-1.24-1.57A10.82,10.82,0,0,1,6.1,4C6.07,3.86,3.27,1.4,4,1.93,5.18,3.1,5.21,3,6.42,4.1l.13.13c-.09-.16-.69-.8-.58-.76A17,17,0,0,1,4.65,2.26c-.12-.08-.68-.59-1.18-1,.51.53.14.24.78.86-.69-.59-.2-.21-.88-.78l.57.57c-.18-.11-.64-.62-.82-.71.38.35.78.76.66.7l-.22-.21c.24.26-.12,0,1,1l-1.14-1,.77.68C3.83,2.11,2,.48,2.85,1.41a8.36,8.36,0,0,1,.78.72c.57.45-.54-.56-.61-.68C3.79,2.13,4.66,3,5.15,3.39A16.31,16.31,0,0,1,3.26,1.86c-.16-.06.76.8.27.45l-.29-.26c1.26,1.15-.6-.47.66.74L4.21,3a2.87,2.87,0,0,1,.6.6l-.45-.41c.91.83,1,1,1.27,1.27s-.55-.59-.76-.83C5.39,4.15,6.16,4.84,6,4.72Z"/><path class="cls-1" d="M3.14,1.23l.42.41C3.49,1.57,3.37,1.44,3.14,1.23Z"/><path class="cls-1" d="M4.2,3.52C4,3.37,3.44,2.82,3,2.5c.6.59,1.3,1.1,2.21,2-.55-.47.35.4.35.43-.51-.49-1.7-1.54-1.94-1.76C4,3.47,3.35,3,3.31,3c.77.6.4.44,1.24,1.11s1.15,1.13.6.67-.38-.37-.39-.4c-.93-.87-.53-.42-1.39-1.19A36.41,36.41,0,0,0,6.5,6.27c.41.34-.07-.11-.14-.21A18.79,18.79,0,0,1,4.91,4.75c.35.27-.27-.36.46.32l.75.73c.51.26.52,0,.33-.4l-.1,0a11.46,11.46,0,0,1-.85-.87L4,3.29c.12.08-.08-.13.43.33-.59-.56-1-.88-1.46-1.32-.23-.27.34.23-.58-.66-1.22-1,.94,1-.14.12Z"/><polygon class="cls-1" points="3.53 2.65 4.25 3.32 3.9 2.97 3.53 2.65"/><path class="cls-1" d="M6.68,5.53l-.76-.7C5.67,4.67,6.12,5.06,6.68,5.53Z"/><path class="cls-1" d="M3.28,3.16l.22.27.28.21C3.47,3.36,3.35,3.23,3.28,3.16Z"/><path class="cls-1" d="M6.53,6.6c-.06-.16-.66-.74.09-.18C5.77,5.6,5,5,4.18,4.22,4,4.09,5.44,5.41,5.69,5.7c-.76-.66.12.19-.09.06C5.91,6,6.26,6.34,6.53,6.6Z"/><path class="cls-1" d="M3.57,4.3s.51.54.15.26S3.13,4,3.26,4.08c-1-.89.14.18-.54-.38.1.09.28.23.49.43-.27-.12.78.78.16.38a10.73,10.73,0,0,0,.89.84c-.85-.67-.83-.69-1.57-1.25l2,1.78c-1.19-.91.07.23-.8-.45,0,0-.23-.24-.11-.15-1.1-1,.16.22-.08.06l-.92-.83c.13.17.68.76,0,.21L2.36,4.3c.64.71.26.52.55.89l-.57-.44c.6.69.37.17,1.63,1.42-1.62-1.44.48.51-.2,0s-.29-.35-1-1c.8.74.21.24.43.48-.76-.7-.15,0-1-.83L3.51,6.21c-.44-.37-.39-.28-.3-.16,0,0,1.09,1,1.49,1.27-.27-.39-.41-.76.11-.48-1.07-1,.07,0-.8-.87l1,.89A9,9,0,0,0,4,6c-.12-.16.56.41,1,.77.1,0-.3-.27-.87-.83L5.36,7c-.21-.45-.91-1.43,0-.91l-.84-.73c.54.35-1.78-1.83.1-.26L3.9,4.38c.41.39,1.31,1.16,1.88,1.7-.28-.28.08,0-.17-.26l-.45-.34c-.71-.69-.24-.31.42.27C4.76,4.9,4,4.42,3.31,3.78c1.54,1.53-1.61-1.3-1-.59C2.81,3.69,3.12,3.89,3.57,4.3Z"/><path class="cls-1" d="M6,6.3l-.21-.22Z"/><path class="cls-1" d="M3.21,6.05s0,0,0,.06S3.29,6.15,3.21,6.05Z"/><path class="cls-1" d="M5.6,5.76h0Z"/><polygon class="cls-1" points="3.48 3.78 3.43 3.78 3.84 4.14 3.48 3.78"/><path class="cls-1" d="M2.18,5.52l.35.32Z"/><path class="cls-1" d="M1.57,6.05h0C1.54,6,1.55,6,1.57,6.05Z"/><path class="cls-1" d="M1.17,8.3A4,4,0,0,0,1.69,9l-.21-.2a3.38,3.38,0,0,0,.78.78l-.18-.17c-.26-.32.39.29.59.39,0-.12-.85-.9-.62-.76,0,0,.23.17.39.33s-.54-.59-.6-.69c1.8,1.6-.37-.57.86.42-.12-.17.11-.06-.22-.45.46.47.09,0,.63.51-1.14-1.05.69.36-.79-1,.48.32-.1-.09.33.15.17.16.16.17.18.2.35.26-.61-.63.12,0,.18,0-.41-.39-.79-.8a6.71,6.71,0,0,1,1.13.87c-.76-.69-.35-.39-.72-.79a1.66,1.66,0,0,1-.5-.41c.18,0-.46-.52-.63-.8.9.75,0,.11.71.65a9.23,9.23,0,0,0,.9,1c.1,0,0-.2-.27-.6.15.07.4.4.51.44.47.31-.83-.92-.38-.61l.47.44c-.61-.61.25,0,0-.36L2.75,7c1.24,1.12-.58-.67.36.06A8.12,8.12,0,0,1,1.83,5.75c.23.18.57.49.79.69-.54-.37.83.86,1.16,1.23C3.4,7.26,3.9,7.6,3.33,7L4,7.62c.16,0-1.42-1.37-.74-.86l.47.43c0-.18,1.06.51,0-.59C3.3,6.21,2.29,5.39,2,5.1c.32.39,1,1.08,1.33,1.43l-.77-.69c.53.49.79.82,1.23,1.16s-.7-.58-.3-.15L1.94,5.43l.37.39c-.3-.28-.28-.21-.59-.5.92.93-.42-.23,0,.24l.17.08a2.55,2.55,0,0,1,.48.5,6.79,6.79,0,0,0-.82-.63c.32.34,1.06,1,1,1.08-.8-.73-.49-.32-1.16-.91.79.72.23.35.68.76.14.16,0,.12-.37-.25l-.12-.14h0L1.36,5.9s.53.51.14.2a2.71,2.71,0,0,1-.27-.28c-.15-.05,1.09,1.13.38.57A15.08,15.08,0,0,0,2.74,7.5c-.29-.24-.9-.8-.83-.65.63.61-.27-.16.13.25-.65-.66-.19-.17-.81-.79-.28-.2.55.62.4.57l-.49-.42c.21.22.7.7.17.26l.45.4c-.25-.17-.15,0-.64-.37l.78.78c-.89-.7-.17.08.48.75A1.13,1.13,0,0,1,2,8l-.26-.27c-.06,0-.51-.34.1.24.16.21-.45-.36-.56-.42.8.83-.74-.33.5.83,0,0,.33.15.32.06.14.15.4.37.41.41S2,8.57,2.18,8.8L1.4,8.08C.56,7.49,2.29,9.19,1.17,8.3Z"/><path class="cls-1" d="M1.66,7.59l-.47-.36.38.34C1.51,7.5,1.52,7.48,1.66,7.59Z"/><path class="cls-1" d="M1.57,7.57l.16.18s0,0-.07-.1Z"/><path class="cls-1" d="M1.19,8.57s-.1-.05,0,0S1.28,8.67,1.19,8.57Z"/><polygon class="cls-1" points="1.36 8.8 1.48 8.88 1.41 8.8 1.36 8.8"/><path class="cls-1" d="M.84,10.22l.18.27c-.14-.1-.07.08-.25-.12.24.27-.12.09.3.41.07-.24.69-.1.47-.65l.18.21c-.32-.47.69.37-.13-.51l.46.44c.21.1-.59-.7,0-.26l-.21-.19s.11.07.13.07l-.1-.08c-.16-.21-.12-.21.06-.11s.06.08.09.13c.19.14-.14-.2-.11-.22a1.63,1.63,0,0,1,.32.29c-.15-.28.49.24-.29-.57-.16-.15-.32-.24-.36-.34-.32-.19,0,.16.15.39h0c.75.75-.21-.13.06.22-.29-.29-.26-.31-.43-.48-.64-.45.35.5-.42-.12l0,0c-.08-.05,0,.09.1.17l.24.15a5.57,5.57,0,0,0,.49.5c-.34-.27.13.16-.06,0a2.55,2.55,0,0,1-.39-.41l.17.21S1.13,9.37,1,9.25c.2.22.17.12.46.42C1,9.38,1,9.62,1.18,9.9c0-.05-.26-.25-.19-.24s0,.11.22.28-.07.13-.28,0l.2.15c.25.3-.32-.12-.22.09h0s.39.41.26.36S1,10.39.84,10.22Z"/><path class="cls-1" d="M.91,10.7l-.17-.18c-.06,0,.14.22.27.32,0,0,.09,0,0-.08S.9,10.67.91,10.7Z"/><path class="cls-1" d="M.34,11l.09.1c.13-.05.23-.16.41-.07s-.13-.19-.14-.27l.2.15c-.09-.11.21,0-.13-.23,0,0,.12.14,0,.1l-.1-.09,0,.06-.11-.12c-.24-.12.32.35.11.29l-.23-.21c-.07,0,0,.1-.2,0,0,0,.1.09.07,0a.69.69,0,0,1,.17.13c.06.19-.11-.11-.25-.15.07.17,0,.31-.17.22.13.07.17.18.11.18S.12,11.06.09,11,0,11,0,11s.19.16.17.21C.39,11.28.22,11,.34,11Z"/><path class="cls-1" d="M.45,11.12s0,0,0,0l0,0Z"/></g></g></svg>