<svg xmlns="http://www.w3.org/2000/svg" viewBox="0 0 8.92 11.13"><defs><style>.cls-1{fill:#fff;}</style></defs><g id="Camada_2" data-name="Camada 2"><g id="Camada_1-2" data-name="Camada 1"><path class="cls-1" d="M8.88,1.51H8.83l.08.1Z"/><path class="cls-1" d="M8.33,1.21l0,0c.45.39.32.33.63.5a1.2,1.2,0,0,0-.21-.34s.07.15,0,.13,0-.11-.12-.21,0,.07-.1,0Z"/><path class="cls-1" d="M8.64,1.61l-.2-.21C8.51,1.47,8.58,1.58,8.64,1.61Z"/><path class="cls-1" d="M8.66,1.68c-.05,0-.18-.17-.2-.19l.28.34Z"/><path class="cls-1" d="M8.52,1.77l0,.05C8.62,1.88,8.56,1.82,8.52,1.77Z"/><path class="cls-1" d="M8.52,1.88c.16.14.08,0,0-.06l0,0c-.14-.11-.42-.41-.3-.34s.24.19.11,0l-.27-.21C8,1.29,8.4,1.73,8.52,1.88Z"/><path class="cls-1" d="M8.52,1.77s0,0,0,0S8.49,1.73,8.52,1.77Z"/><polygon class="cls-1" points="8.61 1.75 8.57 1.68 8.47 1.58 8.61 1.75"/><path class="cls-1" d="M8.46,2c-.49-.5.12,0-.24-.38,0,.05-.43-.3-.7-.57l.07.14A8.71,8.71,0,0,0,8.46,2Z"/><path class="cls-1" d="M6.93.67A.36.36,0,0,1,7,.76.36.36,0,0,0,6.93.67Z"/><path class="cls-1" d="M7.63,1.77l-.52-.71a5.55,5.55,0,0,1,.44.49c.15.07-.25-.34-.12-.28.59.56-.06.07.51.58,0,0,0-.1-.41-.56L8,1.64l-.61-.57c-.21-.17.4.46,0,0C7,.85,7,.81,7,.76c.06.1-.67-.52-.72-.47S7.34,1.41,7.63,1.77Z"/><polygon class="cls-1" points="6.83 0.99 6.54 0.71 6.93 1.09 6.83 0.99"/><path class="cls-1" d="M7.64,2l-.41-.5.38.35L7,1.24c-.72-.66.1.22.2.37a10.63,10.63,0,0,1-1.11-1c.06,0,.23.2.34.25-.9-.8-.3-.1-.12.12s.33.31.29.24l.2.25C7.48,2,7.65,2.13,7.64,2Z"/><path class="cls-1" d="M7.75,1.92c0,.06,0,0-.13-.08C7.81,2,7.94,2.14,7.75,1.92Z"/><path class="cls-1" d="M6.32,1s0,0,0,0S6.27.89,6.32,1Z"/><path class="cls-1" d="M7.27,1.84l-.13-.06.39.35A1.4,1.4,0,0,0,7.27,1.84Z"/><path class="cls-1" d="M3.7,1c.5.48.77.71.71.6.65.65.48.55.84.93S6,3.28,6.68,3.9c.1,0-.73-.83-.51-.7l.7.68C6.5,3.42,6,2.77,6.6,3.25c.29.18,0-.14-.18-.46.48.13.14-.56.84-.24l-1-1c.5.48.07,0,.69.6-.14-.11,0,0,0,0,.9.81.06-.14.42.11-.17-.15-1-.91-1.08-1,1,1,.09,0,1.21,1,.33.23-.82-.81-.6-.69-.53-.53-.34-.24-.79-.66s.29.19-.3-.38c-.48-.32.4.84.66,1.34l-.6-.62c.34.46.25.58-.93-.48.66.62-.52-.33,1,1.13a3.17,3.17,0,0,0-.48-.38L5.92,2c-.06,0-.8-.73-.81-.66.7.63.86.84,1.4,1.39L4.3.83l.8.74c-.28-.22.38.42.61.65,0,0-.89-.82-1.33-1.26C4,.7,5.72,2.4,5.1,1.86l.74.7c.12.22-.73-.55-.55-.27A8,8,0,0,1,4.07,1C3.84.77,3.75.72,3.41.4L5,2.13C3.84,1,3.81,1,3.7,1Z"/><path class="cls-1" d="M3.41.4,3,0c.05.06.11.13.05.09Z"/><path class="cls-1" d="M3.7,1,3.58.86A.64.64,0,0,0,3.7,1Z"/><path class="cls-1" d="M6.68,3.3l-.08,0,0,0Z"/><path class="cls-1" d="M3.48.1,4.3.83A7.89,7.89,0,0,0,3.48.1Z"/><path class="cls-1" d="M4.8.77C4.7.65,4.49.46,4.29.25,4.23.23,4.43.44,4.8.77Z"/><polygon class="cls-1" points="3.12 0.23 3.28 0.47 3.46 0.68 3.12 0.23"/><path class="cls-1" d="M6.25,4.86c1,.89.45.28.68.42-.41-.56-2.06-2-2.1-2.23L6.77,5c0-.19.45.09-1.18-1.63.24.22.54.49.8.78,0-.12-2.71-2.7-2-2.14C5.51,3.21,5.54,3.08,6.71,4.26l.12.14c-.08-.17-.65-.83-.54-.78A17.74,17.74,0,0,1,5,2.35c-.12-.09-.66-.63-1.14-1.1.49.55.13.24.74.89-.66-.61-.19-.22-.84-.82l.55.6c-.18-.13-.62-.65-.79-.75.36.37.74.79.62.73L4,1.68c.23.27-.12,0,1,1l-1.09-1,.73.71c-.35-.23-2.13-1.94-1.29-1A10.17,10.17,0,0,1,4,2.17c.55.47-.51-.58-.58-.7.74.71,1.57,1.63,2.05,2a16.18,16.18,0,0,1-1.82-1.6c-.17-.07.72.83.24.46l-.27-.27c1.21,1.2-.59-.5.63.76l.29.24a3.6,3.6,0,0,1,.58.63l-.44-.42A16.9,16.9,0,0,1,5.9,4.61c.17.12-.52-.61-.72-.86C5.68,4.27,6.42,5,6.25,4.86Z"/><path class="cls-1" d="M3.55,1.26l.4.42A5.38,5.38,0,0,0,3.55,1.26Z"/><path class="cls-1" d="M4.52,3.59c-.22-.16-.74-.73-1.14-1.08C4,3.13,4.63,3.67,5.5,4.59,5,4.1,5.83,5,5.84,5,5.35,4.52,4.2,3.42,4,3.2c.3.32-.28-.2-.32-.2.74.63.38.46,1.19,1.16s1.1,1.18.57.7S5.05,4.47,5,4.44C4.14,3.53,4.53,4,3.7,3.2a35.57,35.57,0,0,0,3,3.23c.39.36-.07-.11-.13-.21a18.33,18.33,0,0,1-1.4-1.38c.34.29-.26-.36.45.35L6.33,6c.5.28.53,0,.35-.39H6.59C6,5,6,5,5.76,4.67L4.37,3.35c.11.08-.08-.13.41.35-.56-.59-.92-.93-1.41-1.38-.21-.28.34.24-.55-.68-1.17-1,.9,1-.14.11Z"/><polygon class="cls-1" points="3.88 2.69 4.57 3.39 4.24 3.02 3.88 2.69"/><path class="cls-1" d="M6.91,5.7,6.17,5C5.94,4.79,6.36,5.2,6.91,5.7Z"/><path class="cls-1" d="M3.61,3.19l.21.28.27.21C3.8,3.4,3.68,3.26,3.61,3.19Z"/><path class="cls-1" d="M6.71,6.76c-.06-.16-.63-.77.1-.17C6,5.73,5.21,5.05,4.46,4.29c-.21-.15,1.21,1.24,1.45,1.54-.73-.7.11.19-.09.06C6.12,6.17,6.45,6.49,6.71,6.76Z"/><path class="cls-1" d="M3.86,4.34s.47.56.13.27-.56-.59-.44-.5c-1-.93.13.18-.53-.41a5.88,5.88,0,0,1,.48.46c-.27-.13.75.81.14.38.25.27.23.28.85.88C3.67,4.71,3.7,4.69,3,4.1L4.93,6C3.78,5,5,6.2,4.15,5.48c0,0-.22-.24-.1-.16-1-1,.15.24-.09.07l-.88-.87c.12.17.65.79,0,.21l-.43-.44c.61.73.24.53.51.91l-.54-.47c.57.72.36.2,1.56,1.49-1.55-1.5.46.54-.2,0s-.27-.36-1-1c.78.78.21.25.41.5-.73-.73-.14,0-1-.87L3.71,6.24c-.43-.39-.38-.29-.29-.17.05,0,1,1.06,1.44,1.33C4.6,7,4.48,6.62,5,6.93c-1-1,.08,0-.76-.9l1,.92a8.74,8.74,0,0,0-1-.93c-.11-.17.54.43.92.81.11,0-.28-.29-.83-.87l1.2,1.12c-.18-.46-.84-1.46.05-.9l-.81-.77c.52.37-1.7-1.91.11-.25l-.69-.72c.39.4,1.26,1.2,1.8,1.77-.26-.29.08,0-.16-.27l-.43-.36c-.68-.71-.22-.32.41.29C5,5,4.31,4.47,3.61,3.81c1.47,1.59-1.55-1.37-.94-.64A13,13,0,0,0,3.86,4.34Z"/><path class="cls-1" d="M6.19,6.44,6,6.21Z"/><path class="cls-1" d="M3.42,6.07s0,0,0,.06S3.49,6.18,3.42,6.07Z"/><path class="cls-1" d="M5.82,5.89l0,0,0,0Z"/><polygon class="cls-1" points="3.78 3.81 3.74 3.81 4.13 4.19 3.78 3.81"/><path class="cls-1" d="M2.41,5.5l.34.33Z"/><path class="cls-1" d="M1.78,6h0C1.75,6,1.76,6,1.78,6Z"/><path class="cls-1" d="M1.29,8.23a3.61,3.61,0,0,0,.48.7l-.2-.2a4,4,0,0,0,.74.81l-.16-.18c-.25-.33.38.31.57.42,0-.12-.81-.94-.58-.79,0,0,.21.18.37.35S2,8.73,1.94,8.62c1.73,1.67-.35-.58.84.46-.11-.17.11-.05-.2-.46.44.48.09,0,.61.53-1.1-1.1.67.39-.75-1,.47.33-.1-.1.32.16a.69.69,0,0,1,.18.21c.33.27-.58-.66.12,0,.18.06-.39-.4-.76-.83a6.31,6.31,0,0,1,1.09.91c-.73-.72-.33-.41-.68-.81a1.89,1.89,0,0,1-.49-.43c.18,0-.44-.55-.6-.83.87.78,0,.1.69.68a10.53,10.53,0,0,0,.85,1c.11,0,.06-.19-.24-.61.15.08.39.42.49.47.46.32-.79-1-.35-.63l.45.45c-.58-.62.25,0,0-.35-.25-.23-.41-.38-.56-.54,1.19,1.17-.55-.7.35.08A8.06,8.06,0,0,1,2.05,5.71c.22.2.55.52.76.73-.52-.4.8.89,1.11,1.28-.37-.43.12-.07-.42-.67l.61.62c.15,0-1.37-1.42-.72-.89l.46.45c0-.17,1,.56,0-.59-.39-.4-1.36-1.27-1.67-1.57.3.4,1,1.12,1.27,1.49l-.74-.73c.5.51.75.85,1.18,1.22s-.67-.61-.29-.17L2.18,5.4l.35.41c-.29-.3-.28-.23-.57-.53.88,1-.41-.24-.05.24l.16.08a2.59,2.59,0,0,1,.47.53,6.6,6.6,0,0,0-.8-.67c.3.35,1,1.09,1,1.12-.76-.76-.47-.34-1.11-1,.75.75.21.35.64.78.14.17,0,.13-.36-.26L1.78,6h0l-.16-.17s.5.53.12.21a1.74,1.74,0,0,1-.25-.29c-.15-.06,1,1.18.36.59A12.67,12.67,0,0,0,2.89,7.5c-.29-.25-.87-.83-.8-.68.6.63-.26-.17.11.25-.62-.68-.18-.17-.77-.83-.27-.21.52.65.37.6l-.47-.45c.2.23.67.74.16.27l.43.41c-.24-.17-.15,0-.62-.38L2,7.5c-.85-.74-.17.07.45.76A1.15,1.15,0,0,1,2.11,8l-.24-.28c-.06,0-.5-.36.09.25.15.21-.43-.38-.55-.45.77.87-.72-.36.47.85,0,0,.32.17.32.07.13.16.39.39.39.43s-.47-.32-.32-.08L1.52,8C.71,7.4,2.37,9.17,1.29,8.23Z"/><path class="cls-1" d="M1.8,7.54l-.45-.37.36.35C1.66,7.45,1.67,7.43,1.8,7.54Z"/><path class="cls-1" d="M1.71,7.52l.16.19s0,0-.07-.1Z"/><path class="cls-1" d="M1.29,8.5s-.1-.05,0,0S1.38,8.61,1.29,8.5Z"/><polygon class="cls-1" points="1.45 8.74 1.57 8.82 1.5 8.75 1.45 8.74"/><path class="cls-1" d="M.87,10.14l.17.28c-.13-.11-.07.07-.24-.14.23.29-.12.09.28.43.08-.23.69-.07.5-.63l.16.22c-.29-.48.68.39-.1-.52l.45.46c.2.11-.57-.73,0-.26l-.2-.2s.11.08.13.07l-.1-.08c-.15-.22-.11-.22.07-.1s0,.08.08.13-.13-.21-.1-.23a2.19,2.19,0,0,1,.31.31c-.14-.29.48.26-.27-.59-.15-.15-.31-.25-.35-.35-.31-.2,0,.16.14.4h0c.71.77-.21-.14.05.22-.28-.3-.25-.32-.41-.49-.62-.49.33.5-.42-.14v0c-.08-.05,0,.1.09.17a2.68,2.68,0,0,0,.23.17c0,.08.35.39.47.52-.32-.29.13.16-.06,0a2.47,2.47,0,0,1-.37-.42l.16.21S1.2,9.3,1,9.17c.18.23.16.14.43.44-.37-.3-.4-.06-.24.22,0-.05-.25-.26-.19-.25s0,.11.22.3-.08.12-.28,0l.18.16c.24.31-.31-.13-.22.09H1s.36.43.23.37A3.31,3.31,0,0,0,.87,10.14Z"/><path class="cls-1" d="M.92,10.62l-.16-.19c-.06,0,.13.23.26.33s.09,0,0-.08S.91,10.59.92,10.62Z"/><path class="cls-1" d="M.34,10.87A.48.48,0,0,0,.43,11c.13,0,.24-.15.41-.05s-.13-.2-.13-.28l.19.16c-.08-.12.21,0-.12-.24,0,0,.12.15,0,.11l-.1-.1,0,.06-.1-.13c-.23-.12.3.37.09.3l-.22-.22c-.06,0,0,.11-.19,0,0,0,.09.09.06.05a.74.74,0,0,1,.17.14c.05.18-.11-.12-.25-.17.07.18,0,.31-.18.22.13.07.16.18.1.18S.12,11,.09,10.91s-.09,0-.09,0,.18.16.16.21C.38,11.18.22,10.91.34,10.87Z"/><path class="cls-1" d="M.45,11l0,0,0,0Z"/></g></g></svg>