<svg xmlns="http://www.w3.org/2000/svg" viewBox="0 0 48.16 40.81"><defs><style>.cls-1{fill:#fff;}</style></defs><title>Asset 8</title><g id="Layer_2" data-name="Layer 2"><g id="Pontas"><polygon class="cls-1" points="48.16 40.81 48.04 40.69 47.95 40.7 48.16 40.81"/><path class="cls-1" d="M47.74,40l-.23-.2c-.07.36-.2.15,0,.59.16.07.48.24.49.16s-.27-.13-.38-.27c.1,0,.23.13.34.14-.15-.26-.16-.09-.35-.34Z"/><path class="cls-1" d="M47.29,40c.06,0,.12,0,.14-.09s-.21,0-.14.09"/><path class="cls-1" d="M47.13,39.91c-.13-.13.09-.1.09-.12l-.32,0Z"/><path class="cls-1" d="M46.55,39.39l-.09,0c0,.06,0,0,.09,0"/><path class="cls-1" d="M46.23,39.17c0,.13.11.14.23.18v0a.15.15,0,0,1,.28-.07c.16.1,0,.23.22.24l0-.27c-.21-.2-.54-.06-.69-.06"/><path class="cls-1" d="M46.55,39.39a.16.16,0,0,1,.08.06c0-.06,0-.07-.08-.06"/><polygon class="cls-1" points="46.83 39.66 46.93 39.7 46.97 39.62 46.83 39.66"/><path class="cls-1" d="M45.72,38.77c.27-.25.33.32.54.16a.4.4,0,0,1,0-.61L46,38.2c-.16,0-.27.34-.27.57"/><path class="cls-1" d="M46,37.63h-.09a.1.1,0,0,0,.09,0"/><path class="cls-1" d="M44.48,37.19a6.39,6.39,0,0,1,.78.1c-.14.06-.22.19-.36.13.17.25.39,0,.52.26-.21.36-.32-.27-.46.11a.55.55,0,0,0,.64.1l0,.39.2-.38c0-.17-.37.09-.22-.18s.19-.11.27-.09c-.17-.06-.09-.63-.35-.87s-.72.41-1.05.43"/><polygon class="cls-1" points="44.83 36.74 44.93 36.55 44.77 36.78 44.83 36.74"/><path class="cls-1" d="M43.86,36.77l.47,0a.73.73,0,0,1-.11.25c.07-.1.28-.19.33-.28.2-.48-.39-.19-.59-.24-.19-.52.2-.19.38-.7.08.11,0,.21.11.38.18-.66-.41-.55-.65-.56,0,.08-.1.22,0,.26h-.26c-.14.48-.07.67.31.93"/><path class="cls-1" d="M44.31,37.18c-.11-.06-.13-.12-.09-.18-.06.12-.09.22.09.18"/><path class="cls-1" d="M43.72,35.53s0,0,.08.06,0-.06-.08-.06"/><path class="cls-1" d="M43.43,36.16,43.29,36l-.1.26c.05,0,.16,0,.24-.05"/><path class="cls-1" d="M37.48,29c-.21.28-.26.47-.08.54-.32.34-.44.11-.69.24,0,.39-.36.41-.61.79.18.21.67-.16.81.12a1.5,1.5,0,0,0-.3.39c.46,0,1.17.09,1.19.6.14.34.46.34.86.44.76.94,2,1.47,2.69,2.58l.58-.4c-.17.3.23.21-.09.52,0-.11-.09-.1-.16-.15-.18.63.58.45.69.83,0-.11.37-.57.5-.58-.48.52.29.27-.16.93.13.37.4-.44.58-.12.28-.27-.11-.38,0-.65s.13.33.39,0c-.23-.58-1.51-.66-2.32-1l.35-.27A1,1,0,0,1,41,32.46c-.23.4-.29-.64-.92.2.07-.25,0-.25,0-.42l-.25.23c-.16-.16.21-.53,0-.68-.18.46-.4.44-.71.69.12-.59.18-1.17.28-1.69a1.78,1.78,0,0,0-.26.5c0-.25-.29.12-.44.22-.14-.1.28-.56.49-.8-.09-.36-1,.46-.89,0l-.27.44c-.32-.11-.15-.73-.53-.83.34-.66.62-.27.92-.41,0-.16,0-.29.08-.5-.34.17-.85.37-1.22.51.68-.51.32-.79.27-.91"/><path class="cls-1" d="M38.43,29.41l.26-.15c-.06,0-.11,0-.12,0a.7.7,0,0,0-.14.19"/><path class="cls-1" d="M37.48,29a.18.18,0,0,1,.05-.07c-.06,0-.07,0-.05.07"/><path class="cls-1" d="M37.8,31.75v-.06l0-.05Z"/><path class="cls-1" d="M39.48,30.2a2.68,2.68,0,0,0-.15.59.69.69,0,0,0,.15-.59"/><path class="cls-1" d="M40.66,32.14c.1,0,.16-.15.29-.23-.08-.12-.21,0-.29.23"/><polygon class="cls-1" points="38.24 29.03 37.94 28.97 37.77 29.01 38.24 29.03"/><path class="cls-1" d="M32.32,27.59c-.25.65.28.57.41.86.63.09,1-1.05,1.43-.78l-.95,1c.44.27.81.94,1.91.32-.08.15-.15.36-.37.42.29.18,1.38-1.34,1.43-.7-.86.35-.41.69-1,1.25L35,30c.27.12.85,0,1,.2.22-.25.43-.75.65-.62,0-.12.25-.38.47-.63-.43.11-.39-.17-.8.07.18-.44.17,0,.35-.48l-.43.18c0-.19.41-.24.29-.47-.19.18-.52.27-.62.09l.14-.08c-.22,0-.23-.26-.67.36l.36-.69-.31.41c-.17-.41.52-1.45-.28-1.29,0,.19-.28.33-.39.36-.07.42.45-.12.65,0-.31.41-1,.66-1,1.05.2-.64-.43-.27.32-1.33-.2-.27-.7.13-.76-.31l.14-.14c-.61.61,0-.47-.71,0v.26c-.24.26-.31.21-.44.18a.58.58,0,0,0,.18-.24c-.43.44-.78.28-.93.38.05.19.52-.07.77-.08-.31.22-.62.63-.67.45"/><path class="cls-1" d="M36.31,28.07l-.27.15a.62.62,0,0,0,.27-.15"/><path class="cls-1" d="M31.89,25.82c-.07-.23.38-.35.41-.68-.44.18-.38.81-.94,1.15.14-.36-.43,0-.5-.06a4.51,4.51,0,0,0,.86-1c-.21.12-.09-.29-.19-.39-.06.58-.4,0-.52.64-.32.35-.78.4-.65,0s.26-.12.33-.08c.47-.44.06-.4.4-.87-.82.47-1.56-.23-2.23,1-.09.27.19.08.32.11-.06-.43.47-.55.66-.72,0,.26.44.08.07.42l-.51.25a4.47,4.47,0,0,0,1.93,1.64L31.08,27c.29-.27.43-.18.65-.24l.49-.84c0,.12.21.07,0,.33a1.65,1.65,0,0,0,.63-.75c.32,0,.11.35.68,0,.17-.88-.72.26-.67-.58Z"/><polygon class="cls-1" points="32.98 26.04 32.58 26.35 32.87 26.27 32.98 26.04"/><path class="cls-1" d="M31.47,27.56c.13-.17.24-.2.38-.36-.07-.25-.24,0-.38.36"/><path class="cls-1" d="M30.9,24.37l-.31,0,0,.24a.55.55,0,0,1,.29-.2"/><path class="cls-1" d="M27.94,25c.34.18.73,0,.74.59.54-.31.65-.9,1.07-1.25-.08-.24-.71.54-1,.54.26-.43-.31-.12-.39-.35a1.94,1.94,0,0,1-.43.47"/><path class="cls-1" d="M28.19,22.69c-.13-.11-.5.06-.46-.2.21-.21.36-.23.39-.1.38-.56-.22,0-.07-.5a.45.45,0,0,1-.19.27c-.26-.4-.55.26-.77-.4a.79.79,0,0,0-.51.36c.09-.63.22-.52.21-1.14A9.7,9.7,0,0,1,26,22.1c0-.93-.51-.3-.43-1,0,0,.17-.07.2.05.44-.59-.32-.1-.38-.34l.41-.45c-.2-.05-.71.05-.61-.44l.24-.19c-.67,0-1-.47-1.42-.56l.07-.42c-.73,0,.29.51-.59.92.65-.86-.45.08-.42-.46s.39,0,.58-.43c-.41.37-.23,0-.46,0,.36-.37-.23-.28.22-.66l-1.07.34c.11-.28-.05-.36-.2-.38.24.21-.55.51-.43.92a2.89,2.89,0,0,1,1.66,1.25c.53-.5.31.29.78-.1-.14.19-.23.38-.37.56.42.16.18-.37.44-.5.2,0,0,.48-.16.67.2.23.16-.13.53-.33l-.38.75c.87.45,2.21.82,2.7,1.91l.3-.48c.17.56,1.45-.43,1,.78l.44-.28c-.25.16-.51.72-.86.93.23-.06.19.2.41.16V24c.45-.26.4.09.15.46.67-.21.5-.91.76-1.34-1.1.49.27-1.12-.41-1.08-.46.06-.32.42-.53.64"/><path class="cls-1" d="M27.65,24.3a.46.46,0,0,0,.16-.07l-.16.07"/><path class="cls-1" d="M22.17,18.15a.32.32,0,0,0-.13-.07c-.11.05,0,0,.13.07"/><path class="cls-1" d="M28.37,24.48h0Z"/><polygon class="cls-1" points="29.5 23.54 29.41 23.44 29.25 23.66 29.5 23.54"/><path class="cls-1" d="M21.44,16.78l-.16.18a.71.71,0,0,0,.16-.18"/><path class="cls-1" d="M18.49,14.2l.06.06a.06.06,0,0,0-.06-.06"/><path class="cls-1" d="M11,8.55a1.87,1.87,0,0,0-.87-.19l.1-.1c-.15,0-.63-.15-.58.24l.13-.05c.39.05,0,.33.15.58s.77-.16.88.12c.1.06,0,.17-.11.23.17.22.54-.05.73,0-.73,1,.84.3.63,1.16.26.09.44.4.85.42-.34.13.21.22-.08.46.57-.54.46.89,1.16.16.14.51.05,0,.28.48-.07.08-.14,0-.18,0,0,.3.52-.13.34.34.25.33.24-.17.6-.23.24.37.06.4-.05.89.36-.37.39,0,.72-.08,0,0-.18-.32.1-.35.32.38.52,0,1,.17-.2.6-.36-.27-.35.34-.4,0-.55-.15-1,.07a2.23,2.23,0,0,0,1.18.61c.13.22-.27.14-.17.3.14.49.9-.05,1,.38l-.26.2c.43-.19.5.56,1,.63.07-.16.12-.26.23-.31-.55.63.7,0,.61.72a.88.88,0,0,1,1-.32,1.15,1.15,0,0,1-.3.44c-.08-.49-.67.21-1.07.2.38,0,.51.46.94.3l-.35.27c.23.28.88-.55.89,0l-.24.22c.6.45.87,1.49,1.82,1.3.22-.18.41-.87.54-1.05a10.93,10.93,0,0,0-1.27.2l.34-.39c-.28.23-.66.18-.71.51-.34.06.17-.45-.22-.4.37-.39.52-.34.82-.68l-.35.06c.19-.11,0-.22.21-.34-.74.23-.29-.55-.81-.59l.12.22c-.19.22-.27.11-.41.11.18-.39.09-.39,0-.66-.29.05-.7.38-.9.21.4-.37-.13-.49.12-.86-.38.37-.5-.17-.73,0-.17,0-.28-.17-.1-.38h.14l-.1-.1c.05,0,.08-.07.1-.07s-.33.2-.29-.09c.09-.1.15,0,.24,0-.2-.26-.94.23-.85-.29-.19.15-.49-.07-.77.38,0-.21.34-.5.08-.62-.4.24-.13-.31-.47-.23.51-.17.08-.1.55-.28,0-.25-.62,0-.82-.24,0-.1.13-.2.17-.29-.19,0-.52.21-.39-.13l-.18.24c-.07-.26-.37-.38-.35-.77l-.56.24c.08-.67-.64-.59-1.16-.43-.09-.1-.18-.31-.11-.39l.24-.05c-.14-.14-.15-.51-.5-.27-.24,0,.07-.31,0-.46-.68.17-.67-1.08-1.32-.52.13.11.26.45.53.63-.13,0-.19.2-.3.14C12,10.36,12,10,11.7,9.91l.37-.38c-.09-.75-1.26-.15-1.12-1"/><path class="cls-1" d="M14.13,11.2v-.38L14,11a.14.14,0,0,1,.13.17"/><path class="cls-1" d="M14,11h-.18a.14.14,0,0,0,.14.05Z"/><path class="cls-1" d="M10.18,8a.35.35,0,0,0-.2-.17c0,.09.11.19.2.17"/><polygon class="cls-1" points="9.88 7.95 9.92 8.08 9.97 8.05 9.88 7.95"/><path class="cls-1" d="M4.47,3.71l-.39-.12c0-.11-.37-.32-.18-.34-.28,0-.53-.47-.56-.15a24,24,0,0,0,3,2.51l-.24,0c.68.22.44.88,1.24.77l-.27.2c.16.28.75,0,.75.51l.07-.13c.06.06,0,.13.11.19V7.05a.51.51,0,0,1,.45.36c-.06.1-.11,0-.18,0,0,.16.29.09.41.2s-.11.13-.15.15c.48.22.39.69,1,.49.09-.06,0-.24.2-.16-.14-.35-.5-.36-.82-.45L9,7.65c-.53.25-.06-.21-.51-.3.22-.09.35,0,.48,0-.09-.6-.69-.2-.59-.77h0c0-.08-.17-.09-.28-.12s0,.16.06.24-.29.1-.38.15c.06-.24-.18,0-.25-.23s.24,0,.36-.07l-.26,0c-.16-.13,0-.3,0-.45-.22,0,0,.15-.23.22,0-.33-.76-.88-1.21-1,.14.09.17-.1.29,0,0-.07-.27-.16-.35-.06a1.49,1.49,0,0,1-.69-.71v.15c-.31,0-.36-.52-.76-.72h0c-.12-.07-.38,0-.53-.16.14,0,.23,0,.3-.06"/><path class="cls-1" d="M3.21,2.88H3.4c-.09-.12-.34-.12-.37,0s.15.19.22.14,0-.06,0-.09"/><path class="cls-1" d="M1.12.94C1.07.91,1.06,1,1,1A7.63,7.63,0,0,1,2.15,2.08c.13.17.26.07.48.21v.17c.15,0,.37.43.4.17,0,0-.15,0-.22-.12l.06,0-.21-.16h.11c-.2-.34-.35,0-.63-.36l.1-.12a2.5,2.5,0,0,1-.51-.52s0,.05,0,.07.05.12,0,.13c-.41-.23.1,0-.1-.27A3.36,3.36,0,0,1,.6.35C.69.53.45.39.3.23s.09,0,.13,0A1,1,0,0,0,.23,0C.3.15.19.15,0,0A10.13,10.13,0,0,0,1.12.94"/><path class="cls-1" d="M1,.9S1,1,1,1L.88.8Z"/></g></g></svg>