<svg xmlns="http://www.w3.org/2000/svg" viewBox="0 0 33.12 17.84"><defs><style>.cls-1{fill:#fff;}</style></defs><title>Asset 7</title><g id="Layer_2" data-name="Layer 2"><g id="Pontas"><path class="cls-1" d="M33.12,17.84,33,17.78l-.06,0,.15,0"/><path class="cls-1" d="M32.84,17.32l-.16-.09c-.06.34-.15.21,0,.5.12,0,.34,0,.35,0s-.19,0-.27-.09c.08-.05.17,0,.24,0-.09-.17-.11,0-.24-.16Z"/><path class="cls-1" d="M32.53,17.46a.53.53,0,0,0,.1-.12s-.15.05-.1.12"/><path class="cls-1" d="M32.41,17.44c-.09-.07.07-.12.07-.14l-.23.15Z"/><path class="cls-1" d="M32,17.2H32c0,.05,0,0,.06,0"/><path class="cls-1" d="M31.79,17.12c0,.12.07.09.16.08v0c0-.11.15-.28.21-.16s0,.18.14.13l0-.22c-.15-.1-.38.14-.49.19"/><path class="cls-1" d="M32,17.2l.06,0s0,0-.06,0"/><polygon class="cls-1" points="32.21 17.33 32.27 17.33 32.3 17.25 32.21 17.33"/><path class="cls-1" d="M31.44,17c.2-.3.23.16.38-.05-.14-.07-.11-.37,0-.52h-.19a1,1,0,0,0-.2.58"/><path class="cls-1" d="M31.65,15.9l-.07,0s.05,0,.07,0"/><path class="cls-1" d="M30.6,16.06a4.61,4.61,0,0,1,.55-.2c-.1.11-.16.24-.26.24.12.15.27-.09.37,0-.16.38-.23-.12-.34.25.09.05.24.1.46-.14v.33l.15-.4c0-.15-.26.21-.15-.08s.14-.16.19-.16c-.12,0,0-.51-.23-.62s-.51.6-.75.74"/><polygon class="cls-1" points="30.85 15.55 30.93 15.36 30.81 15.61 30.85 15.55"/><path class="cls-1" d="M30.17,15.92l.33-.19a.87.87,0,0,1-.08.25c.06-.11.2-.26.24-.36.16-.48-.27,0-.41,0-.12-.38.14-.24.29-.74.05.07,0,.18.07.29.14-.63-.28-.33-.45-.25,0,.07-.08.22,0,.22l-.19.08c-.1.46-.06.6.2.69"/><path class="cls-1" d="M30.48,16.1c-.08,0-.09-.05-.06-.12-.05.13-.07.22.06.12"/><path class="cls-1" d="M30.1,14.9s0,0,.06,0,0,0-.06,0"/><path class="cls-1" d="M29.88,15.54l-.09-.13-.08.26a.21.21,0,0,0,.17-.13"/><path class="cls-1" d="M25.84,11.55c-.16.31-.19.49-.07.49-.23.4-.31.25-.5.45,0,.33-.26.47-.44.89.12.11.47-.38.56-.18a2.45,2.45,0,0,0-.22.43c.33-.15.83-.34.83.09.09.25.32.13.6.07.52.54,1.35.57,1.84,1.26l.43-.55c-.14.32.15.1-.08.47,0-.09-.06-.05-.11-.07-.15.61.4.18.46.46a2.63,2.63,0,0,1,.37-.66c-.35.6.2.12-.13.84.08.27.29-.51.41-.3.2-.33-.07-.28.05-.57s.08.23.27-.14c-.15-.41-1.05,0-1.61,0l.25-.36c-.36.13-.73-.07-.53-.86-.17.42-.19-.44-.66.5.06-.25,0-.23,0-.36l-.18.29c-.11-.08.16-.53,0-.58a2.31,2.31,0,0,1-.52.84c.08-.55.16-1.08.24-1.54a2.86,2.86,0,0,0-.2.51c0-.2-.21.21-.31.34-.1,0,.21-.57.36-.85-.06-.27-.7.74-.63.31l-.2.48c-.23,0-.09-.57-.35-.53.25-.68.44-.45.66-.67a1.75,1.75,0,0,1,.06-.46c-.24.27-.61.63-.87.87.49-.68.24-.78.21-.87"/><path class="cls-1" d="M26.5,11.55l.19-.21s-.08.06-.08,0a2.19,2.19,0,0,0-.11.2"/><path class="cls-1" d="M25.84,11.55a.3.3,0,0,1,0-.08c-.05,0-.05.06,0,.08"/><path class="cls-1" d="M26,13.78v-.06s0,0,0,0Z"/><path class="cls-1" d="M27.23,11.86a4.61,4.61,0,0,0-.12.56.91.91,0,0,0,.12-.56"/><path class="cls-1" d="M28,13.1c.08,0,.12-.19.22-.3-.06-.07-.15,0-.22.3"/><polygon class="cls-1" points="26.38 11.3 26.17 11.36 26.05 11.45 26.38 11.3"/><path class="cls-1" d="M22.22,12.16c-.19.65.18.39.27.6.45-.16.73-1.26,1-1.18l-.69,1.17c.3.08.54.52,1.34-.4a1,1,0,0,1-.27.49c.2.05,1-1.63,1-1.1-.62.6-.31.73-.77,1.43l-.08.06c.19,0,.6-.27.67-.17.17-.29.33-.8.48-.76a2.86,2.86,0,0,1,.35-.71c-.31.25-.27,0-.57.35.14-.44.12-.1.26-.53l-.3.3c0-.14.29-.35.21-.51-.13.22-.37.42-.44.31l.1-.12c-.16.11-.16-.14-.48.54l.27-.71-.23.46c-.11-.3.4-1.42-.17-1a.85.85,0,0,1-.28.45c-.06.38.32-.26.46-.27-.23.46-.71.91-.73,1.25.16-.62-.3-.08.26-1.24-.13-.17-.5.35-.53,0l.1-.17c-.44.73,0-.41-.5.28v.22c-.17.3-.22.29-.32.31a.76.76,0,0,0,.14-.27c-.32.53-.56.51-.67.66s.37-.26.54-.34c-.22.29-.45.75-.48.61"/><path class="cls-1" d="M25,11.16l-.2.23a.83.83,0,0,0,.2-.23"/><path class="cls-1" d="M22,10.81c0-.18.28-.44.3-.73-.31.31-.28.82-.69,1.32.11-.36-.3.13-.35.12a7.76,7.76,0,0,0,.63-1.15c-.15.17-.06-.22-.12-.28-.06.53-.29.19-.39.74s-.56.61-.46.26.19-.2.24-.19c.34-.54.05-.35.3-.87-.59.69-1.09.34-1.6,1.63-.07.27.14,0,.22,0,0-.35.35-.64.49-.86,0,.24.3-.08,0,.34l-.36.4a1.62,1.62,0,0,0,1.33.71l-.18-.13c.21-.33.32-.31.48-.44l.36-.89c0,.09.14,0,0,.29a2.68,2.68,0,0,0,.46-.86c.23-.08.07.26.48-.24.15-.81-.51.48-.45-.26Z"/><polygon class="cls-1" points="22.73 10.61 22.44 11.01 22.64 10.84 22.73 10.61"/><path class="cls-1" d="M21.62,12.44c.1-.19.18-.26.28-.44s-.17.08-.28.44"/><path class="cls-1" d="M21.3,9.92l-.22.07v.2a.76.76,0,0,1,.22-.27"/><path class="cls-1" d="M19.19,11.46c.23,0,.51-.29.51.24a13.64,13.64,0,0,0,.78-1.44c-.05-.17-.51.71-.72.81.2-.46-.21,0-.26-.16a4.14,4.14,0,0,1-.31.55"/><path class="cls-1" d="M19.41,9.45c-.08,0-.35.23-.31,0s.25-.33.27-.23c.29-.61-.15,0,0-.4a.83.83,0,0,1-.15.3c-.17-.25-.39.41-.53-.07a1.15,1.15,0,0,0-.37.49,6.32,6.32,0,0,0,.18-1c-.11.22-.31.75-.57,1.22.06-.82-.36-.08-.28-.66,0,0,.12-.12.14,0,.32-.66-.23,0-.26-.15l.3-.54c-.14,0-.51.3-.42-.15l.17-.25c-.47.27-.67-.06-1,0l.06-.38c-.51.24.2.34-.44,1,.48-1-.32.23-.29-.24s.28-.1.43-.58c-.3.47-.17.1-.34.19.27-.44-.15-.16.18-.64L15.39,8c.09-.27,0-.28-.13-.25.17.09-.4.63-.32.94a1.07,1.07,0,0,1,1.14.48c.38-.62.21.13.56-.36-.1.21-.19.4-.28.61.29,0,.14-.39.32-.59.14,0,0,.4-.13.63.14.12.12-.17.39-.47l-.29.77c.61.08,1.55-.08,1.87.68l.22-.51c.1.42,1-.89.68.31l.32-.39c-.18.22-.38.79-.63,1.1.16-.14.13.1.29,0v-.32c.33-.38.28-.06.1.34.48-.41.38-1,.57-1.41-.79.81.22-1.05-.27-.77-.32.21-.23.47-.39.73"/><path class="cls-1" d="M19,11l.12-.11A.54.54,0,0,0,19,11"/><path class="cls-1" d="M15.26,7.7a.17.17,0,0,0-.09,0c-.08.09,0,0,.09,0"/><path class="cls-1" d="M19.5,10.91h0Z"/><polygon class="cls-1" points="20.32 9.7 20.26 9.65 20.14 9.9 20.32 9.7"/><path class="cls-1" d="M14.78,6.79,14.66,7a2,2,0,0,0,.12-.21"/><path class="cls-1" d="M12.75,5.63l0,0s0,0,0,0"/><path class="cls-1" d="M7.55,3.48a1.07,1.07,0,0,0-.62.15L7,3.51c-.1,0-.44.09-.42.4l.1-.09c.27-.09,0,.28.09.45s.55-.41.62-.21c.07,0,0,.15-.09.24.12.12.39-.24.52-.24-.54,1.08.59,0,.42.75.18,0,.3.19.59.06-.24.24.15.12-.07.43.42-.66.31.59.82-.27.09.37,0-.06.19.3-.06.1-.1.08-.13.09,0,.24.37-.3.23.16.17.19.17-.22.43-.4.17.22,0,.32-.06.78.27-.44.28-.15.52-.33a.22.22,0,0,1,.08-.33c.21.21.37-.19.68-.2-.16.58-.25-.11-.26.41-.28.16-.39.07-.67.4a.93.93,0,0,0,.82.1c.09.14-.2.22-.13.32.09.36.64-.36.69,0l-.19.27c.31-.32.34.3.66.2a.82.82,0,0,1,.17-.35c-.41.74.49-.23.41.4.24-.48.59-.65.74-.64a1.49,1.49,0,0,1-.21.48c-.05-.39-.49.42-.77.55.27-.17.35.21.66-.08l-.26.36c.16.16.64-.78.63-.31l-.17.28c.41.17.58,1,1.25.46a8.82,8.82,0,0,0,.42-1.08,9.05,9.05,0,0,0-.91.62L14.66,7c-.2.3-.48.39-.51.69-.25.16.13-.45-.15-.27.27-.46.38-.47.59-.86l-.24.17c.13-.16,0-.19.15-.36-.53.46-.19-.37-.56-.23l.09.15c-.14.25-.2.19-.3.24a.68.68,0,0,0,0-.57c-.21.15-.51.57-.64.49.28-.45-.09-.37.1-.77-.28.45-.35,0-.52.29-.12.06-.19,0-.06-.28l.1-.06-.06,0s.05-.09.06-.09-.24.29-.2,0c.07-.12.11-.09.17-.12-.13-.16-.67.53-.59.05-.14.2-.35.11-.56.6,0-.19.26-.55.08-.56-.3.34-.09-.22-.33,0,.36-.33.06-.11.4-.43,0-.2-.44.23-.58.08,0-.1.09-.21.12-.31-.13.1-.37.37-.26,0l-.14.27c0-.2-.25-.2-.23-.54l-.4.41c.07-.6-.44-.28-.81,0a.29.29,0,0,1-.07-.3l.17-.13c-.1-.07-.09-.39-.35,0-.17.06.06-.29,0-.39-.49.39-.45-.69-.93,0,.09,0,.18.29.36.36-.09.06-.14.23-.21.21s-.12-.38-.35-.36l.27-.45c-.05-.61-.89.32-.77-.44"/><path class="cls-1" d="M9.74,4.61l0-.32-.11.23c.06,0,.09,0,.09.09"/><path class="cls-1" d="M9.65,4.52a.38.38,0,0,0-.13.06s.05,0,.1,0Z"/><path class="cls-1" d="M7,3.3a.13.13,0,0,0-.13-.08c0,.07.07.13.13.08"/><polygon class="cls-1" points="6.8 3.35 6.83 3.44 6.86 3.4 6.8 3.35"/><path class="cls-1" d="M3.08,1.64l-.27,0c0-.09-.26-.14-.12-.22-.21.1-.37-.21-.4.07.6.27,1.26,1,2.06,1.08l-.17.06c.48-.05.29.6.86.22l-.2.27c.11.18.53-.24.52.17l0-.13s0,.09.07.12l0-.07c.18-.05.24,0,.3.15s-.07,0-.12,0,.2,0,.29,0-.09.14-.12.18c.34,0,.26.45.73,0,.07-.08,0-.21.14-.2-.09-.26-.34-.14-.57-.1l0,0c-.38.4,0-.16-.35-.08.16-.15.25-.1.34-.19,0-.47-.48.08-.4-.44h0c0-.06-.13,0-.2,0a.41.41,0,0,0,0,.19c-.08,0-.21.19-.28.26,0-.23-.12,0-.17-.11s.17-.11.26-.19l-.18.06c-.11-.05,0-.25,0-.37-.16.08,0,.12-.17.26,0-.28-.52-.47-.83-.46.1,0,.12-.15.21-.07s-.19,0-.25.07c-.22,0-.37-.18-.47-.37l0,.14c-.21.1-.24-.32-.51-.34h0c-.08,0-.27.18-.37.05.1-.09.16,0,.22-.16"/><path class="cls-1" d="M2.21,1.38l.13-.07c-.07-.07-.24,0-.26.09s.1.11.15.05,0-.07,0-.07"/><path class="cls-1" d="M.77.46s0,0-.06,0a3,3,0,0,1,.77.57c.08.1.18,0,.32,0v.14c.1,0,.25.24.27,0,0,0-.11.05-.15,0l0-.06-.14-.06L1.91,1c-.13-.22-.25.13-.44-.08L1.55.82C1.39.72,1.29.71,1.19.56s0,.06,0,0a.09.09,0,0,1,0,.12c-.28-.06.08,0-.06-.2A1.3,1.3,0,0,1,.42.15C.48.26.31.23.21.15S.27.12.3.11.22,0,.16,0,.13.12,0,.06C.22.3.51.29.77.46"/><path class="cls-1" d="M.65.5A.06.06,0,0,0,.71.5.41.41,0,0,1,.6.43Z"/></g></g></svg>