<svg xmlns="http://www.w3.org/2000/svg" viewBox="0 0 39.76 7.99"><defs><style>.cls-1{fill:#fff;}</style></defs><title>Asset 2</title><g id="Layer_2" data-name="Layer 2"><g id="Pontas"><path class="cls-1" d="M.26,4.38h0Z"/><path class="cls-1" d="M0,4.38H.26C.29,4.31.21,4.31,0,4.38Z"/><path class="cls-1" d="M1.05,4.31c-.12,0,0,0,0,0Z"/><path class="cls-1" d="M3.19,4.58c.14,0-.08-.2,0,0Z"/><path class="cls-1" d="M21.18,5.29c0,.31-.17.65,0,1C21.08,5.91,21.31,5.63,21.18,5.29Z"/><path class="cls-1" d="M14.62,5.28Z"/><path class="cls-1" d="M35.3,1.23c0,.22,0,.45,0,.67C35.34,1.8,35.46,1.17,35.3,1.23Z"/><path class="cls-1" d="M28,2c0-.07,0-.11,0,0Z"/><path class="cls-1" d="M15.3,2.75l.09.21C15.42,2.84,15.36,2.85,15.3,2.75Z"/><path class="cls-1" d="M39.59.86l-.16.86c0-.2,0-.41,0-.62,0,0,.09-.43,0-.37a2.09,2.09,0,0,0-.1.6A3.54,3.54,0,0,0,39.26.6c0,.44-.1.88-.16,1.32a4.43,4.43,0,0,0,0-1.36A9.6,9.6,0,0,1,39,2.17c0-.25,0-.54-.07-.79a.05.05,0,0,0-.07,0,2.16,2.16,0,0,1,0-.57,5.42,5.42,0,0,0-.26.92c0-.43-.27-.5-.27-1.06,0,.23,0,.92-.22,1.07.07-.71-.26-1-.24-1.69-.05.68-.42.84-.55,1.4a2.76,2.76,0,0,0-.15-1A20.12,20.12,0,0,1,37,2.53c-.1-.78.06-1.53,0-2.3,0,.55-.2,1.08-.17,1.63-.06-.41-.11-.79-.13-1.2a9.26,9.26,0,0,1-.17,1.07c0-.12-.06-1.2-.19-.83a2.11,2.11,0,0,1,.07-.9c-.24,0,0,1.65-.17,1.64a6,6,0,0,1-.09-1.3c0,.1-.24,1.19-.28,1.17a2,2,0,0,1,0-.43c0,.29-.18.3-.28.49s-.19.64-.22.48c0,.43.16,1.15-.1,1.48a6.25,6.25,0,0,1,0-.73c0,.1-.06.19-.08.28,0-.38.1-.64.1-1-.07.16-.16.81-.35.88,0,0,.07-1,0-1.16,0,.12.12.22.17.33,0-.15,0-1.49-.12-1.46s-.19.48-.37.29c-.31,3.19,0,0-.41-.06-.22,0-.05,1.44-.25,1.56A5.29,5.29,0,0,1,34,1.3c-.17-.06-.16,1-.26.94-.3-.08.22-.66,0-.85a4.74,4.74,0,0,1-.14.81l0-.86c-.33.23-.39.73-.72,1a2.83,2.83,0,0,0,0-.77c-.34.48-.8-.24-1-.5l-.11.71c-.07,0,0-.53-.07-.5a4.88,4.88,0,0,0,0,.78c-.05,0-.05-.57,0-.61-.06.16-.31,1-.6.89s-.21-.54-.22-.53c-.17,0-.11,1-.25,1s-.08-.21-.05-.2-.32-.15-.27-.13c-.45-.18-.58.15-.79-.54,0,.6-.37.1-.39.92a4.21,4.21,0,0,0-.45-1.26s-.19.89-.22.94V1.79c-.05.24-.09.47-.14.7,0-.26-.05-.52-.07-.78-.07.13,0,.73-.1.73s-.28-.7-.28-.83l-.34.58a1.51,1.51,0,0,1,.11-.52.56.56,0,0,1-.07.18s-.07-.4-.07-.41-.08.57-.08.68c0-.23-.22-.43-.42-.19.05-.13,0-.3,0-.43-.29-.1-.54.26-.82.28.09.17.15.85,0,1l0-.64c0,.26,0,.47,0,.73-.18-.11-.06-.78,0-.94,0,.08-.1.16-.13.24a4.89,4.89,0,0,1,0-.54c0,.28-.15-.19-.23-.17a.36.36,0,0,0-.08.25V1.51c-.64.06-.73.64-.82,1.16-.63-.57-.5-.57-.67.27,0-.27-.2-.49-.11-.75-.54.21-.52.45-.58.93-.06.08-.12-.41-.11-.45-.26.51-.59-.44-.8-.5s-.41.41-.56.67c-.09,0,0-.53,0-.58-.24.54-.55,0-.76.43-.16-1-.74,0-1-.58,0,0,0,.37,0,.36s-.06-.26-.09-.29c0,1.29-1.53-.4-1.92.17-.07.1,0,.62-.16.65s-.05-.56,0-.59c-.37.47-1,.14-1.35.55.12-.45-.27-.37-.28,0-.05,0,0-.42-.11-.36s-.13.22-.19.22a.15.15,0,0,1,0-.21c-.09.22-.29,0-.23.32-.2-.18-.74.13-.75.35,0-.31-.24-.5-.39-.14,0-.13-.08-.22,0-.36-.17,0-.22.23-.21.37-.18-.49-.45.42-.56-.22a3.85,3.85,0,0,1-1,.6c0-.32.35-.2.34-.54-.21.15-.46.61-.78.52a.3.3,0,0,1,.07-.27c-.12.08-.94.33-.79.14,0,0,.09-.1,0,0h0c-.09,0-.12,0-.11.14l.05-.06c.09.29-.2.45-.22.7.06-.34-.2-.39-.12-.77a.3.3,0,0,0-.07.24.17.17,0,0,1,0-.23c-.1.06-.15.29-.29.29A1.6,1.6,0,0,1,11,3.52a.3.3,0,0,1-.31.27.09.09,0,0,1,0-.11c-.24,0-.41.43-.69.29.06-.25-.1-.16-.11-.38-.11.16-.12,0-.09.22-.1,0-.24.21-.35.13l.1-.12-.24.06c.2.18.08.28-.05.35.14-.08-.47-.1-.27,0-.21-.08,0-.11-.12-.33-.06.2-.3.09-.38.29a.34.34,0,0,0,0-.2l0,.16A.14.14,0,0,1,8.42,4c-.14,0,0,.15-.06.2s-.12,0,0-.09c-.21,0-.4.12-.61.05,0-.2.17-.08.11-.25-.27.06-.56.29-.86.25q.12,0,0,.12c-.09,0-.17-.21-.29-.09A.2.2,0,0,0,6.7,4,1.76,1.76,0,0,0,6,4.19c0-.16-.51-.13-.43,0-.33-.27-.71.18-1,0a.07.07,0,0,0,.07,0,2.3,2.3,0,0,0-.28.06c0,.09.29.19-.09.19.07-.07.05-.13,0-.16s-.37.16-.44.16a.15.15,0,0,1,.08-.11.46.46,0,0,1-.32.08c.29-.13,0-.14-.22-.15-.06.15-.24.07-.43.18.23-.13-.35-.21-.39-.12a5.93,5.93,0,0,1-1.14.14s0,0,0,0a2.07,2.07,0,0,0-.72,0,.19.19,0,0,1,.1,0l-.33,0a.88.88,0,0,1,.23,0H.61a2.26,2.26,0,0,0,.45,0L1,4.39s.27,0,.13,0a2.81,2.81,0,0,0,.29,0s0,0,0,0l.35,0c.06,0,.83-.12.87,0,0,0,0,0,0,0h.33c-.1.17.29,0,.43.05A2.63,2.63,0,0,1,4,4.61a.32.32,0,0,1,.31-.11c0,.23-.12.11.15.06,0,.2.2,0,.45.07,0-.12-.14-.27.05-.34,0,.09,0,.11,0,.12l.07,0L5,4.53a.19.19,0,0,0,.11-.07c0,.19,0,0,0,.12a.3.3,0,0,1,.2.13.09.09,0,0,1,0-.12s.26.3.27,0c.11,0,1.64-.11,1.59.06a.21.21,0,0,1,.28,0c-.1.08,0,.09-.11.07.14,0,.19.13.33,0q0,.21.18.15l-.1-.11c.23,0,.18.19.39.27s.35-.41.54,0c.08-.14-.15-.13-.09-.29.28.07.17.4.47.33s.12-.46.32-.57.18.36.08.43-.2-.09-.09.11c0,0,.3-.09.23.15.08-.08.07-.15,0-.19.14.11.29,0,.45.12A.18.18,0,0,1,10,5c.27.13.1-.16.3-.2.1.15.23.37.12.55.15-.15.42.12.31.27.19-.15.11,0,.09-.23a.14.14,0,0,1,.1.12,1.71,1.71,0,0,1,.06-.5s.44.42.07.47c.15-.13.08.17.2.15s0-.36.21-.34a.25.25,0,0,0,.06.24,1.84,1.84,0,0,1,.39-.65l0,.14c.09-.24.61.77.8.6a.37.37,0,0,1,.06-.39,2.44,2.44,0,0,0-.28.14c.07-.1.11-.22.18-.32a1.09,1.09,0,0,1-.23.09.29.29,0,0,0,0-.31c.12.33.2-.11.29,0s0,.25.08.35-.12.24.11.36.29-.32.51-.18c0-.32,0,0,.16-.23a1,1,0,0,0,.09.41c0-.11.2-.19.21-.38.14.76.39-.3.57-.23-.05.17,0,.4-.11.55.06,0,.35-.28.39-.17.05-.17,0-.38.11-.2,0-.17.11-.17.05-.39.13.42.26.19.52.32,0,0,.26.18.21.17a2.93,2.93,0,0,0,.51,0s0,.14,0,.13,0-.51.2-.51.06.51.09.69c0-.07.4.13.41.2s.17-.34.33-.28v.13a1.17,1.17,0,0,1,.53-.68,1.51,1.51,0,0,0-.05.52c.16-.1-.07-.53.13-.65a3,3,0,0,1,.18.73l-.15,0c.1.6.13-.08.27.08v.21c.13,0,.61-.85.52-.9.07,0,.07.37.16.09l0,.57a2,2,0,0,1,.45-.64,3.71,3.71,0,0,1-.38.87.34.34,0,0,0,.34-.3c0,.08-.05.12-.11.1,0-.17.14-.67.41-.65,0,.7.48.6.57,1.21.28-.4.62.23.94.19,0-.11,0-1.06.17-1l0,0a1.83,1.83,0,0,1,.26.63c.07.4-.06.71.12,1.14,0,.09,0-.62.17-.35,0-.11-.24-.77,0-.51.08.07.12.75.3.39,0,.09,0,.21-.08.31.26-.35.51-.14.61-.76,0,.1.07.38,0,.48.12.06,1.22-1,.91,0,0,0,.06-.3.12-.31s0,.35.05.37.16-.45.23-.29c-.11.23-.05.45.2.28s.19-.68.45-.86c0,.25.06,1.16.35,1.3s.65-.62.92-.89c.15.72.71.5,1,1-.08-.28.25-.91.24-.93.17.34-.19.85.33,1,0-.37,0-.73,0-1.09.24,1.22.88-.17,1,.93.06-.2.2-.34.25-.54,0,.36,0,1,.58.76a3.49,3.49,0,0,1-.05.44c.11,0,.17-1.79.32-1.82a3.13,3.13,0,0,0,0,.92c.19.39.63.55.78,0,0,.88.41.72.38-.18a.73.73,0,0,0,.05.39c.09.08.34-.62.35-.66,0,.21,0,.43,0,.65a2.93,2.93,0,0,1,.29-1.28c.07.16,0,.38,0,.43s.11-.45.17-.42,0,.41,0,.5c.21.09.12-.73.26-.74s.21.79.22.87a1.52,1.52,0,0,1,.11-.7c0,.07,0,.51.17.54s.14-.42.25-.38.09.48.12.61a.35.35,0,0,1-.31-.12A12.33,12.33,0,0,1,32.4,8c0-.11.21-1.24.4-1.23s.06.26.06.35S33,7.11,33,7a1.66,1.66,0,0,0,.18.36,3,3,0,0,1,0-.32c0,.11,0,.23,0,.35.24.28.22-.52.15-1a.76.76,0,0,0-.09.18c0-.1,0-.11-.18,0,0-.09.1-.73.2-.26,0-.38.07-.76.1-1.14.07.73.28,1.44.31,2.16.11-.18.29-.3.39-.48a2.68,2.68,0,0,0,.3-1.12c.16.29,0,.65,0,.94.16-.43.39-.54.4-1.08.1.26.06,2.06.54,1,.23-.48.45-1.63.72-.42a1.49,1.49,0,0,1-.05-.36c.28.5.49.16.87.1.2,0,.25-.08.44,0s.23.61.39.64.18-.89.19-.95c0,.29,0,.58,0,.87.08-.56.15-1.64.42-.55,0,.1.1.71.26.71s.11-.86.1-1c.18.2.33-.36.31.34,0,0,0-.37,0-.41s0,.51,0,.57l.25-.79c.2.36-.15,1.8.25,2,.42-.68.17-1.57.16-2.29A18.37,18.37,0,0,0,39.59.86Zm-7,2.19a1.38,1.38,0,0,0-.1-.49A.75.75,0,0,1,32.61,3.05Zm.21-.52Z"/><path class="cls-1" d="M33.15,7.4h0l0,0S33.13,7.43,33.15,7.4Z"/><path class="cls-1" d="M33.24,6.48a.22.22,0,0,0,0-.21A.6.6,0,0,0,33.24,6.48Z"/><path class="cls-1" d="M28.35,1.64v.15C28.38,1.72,28.35,1.68,28.35,1.64Z"/><path class="cls-1" d="M9.11,4.09,9.2,4Q9.1,4,9.11,4.09Z"/><path class="cls-1" d="M1.29,4.3h.22C1.4,4.23,1.33,4.23,1.29,4.3Z"/><path class="cls-1" d="M2.24,4.51c.23.07-.05,0,.19,0l-.18,0S2.3,4.5,2.24,4.51Z"/><path class="cls-1" d="M3,4.54c-.16,0,.2.07,0,0Z"/><path class="cls-1" d="M7.17,4.88a.1.1,0,0,0,0-.14Z"/><path class="cls-1" d="M7.87,4,8,4C7.9,4,7.88,3.81,7.87,4Z"/><path class="cls-1" d="M15.45,5.62c0-.13,0-.25,0-.37C15.37,5.32,15.41,5.66,15.45,5.62Z"/><path class="cls-1" d="M18.48,5.41a.29.29,0,0,0,.11.26C18.79,5.65,18.49,5.38,18.48,5.41Z"/><path class="cls-1" d="M27.48,7.19A.18.18,0,0,0,27.54,7Z"/></g></g></svg>