<svg xmlns="http://www.w3.org/2000/svg" viewBox="0 0 27.86 20.23"><defs><style>.cls-1{fill:#fff;}</style></defs><title>Asset 3</title><g id="Layer_2" data-name="Layer 2"><g id="Pontas"><path class="cls-1" d="M0,20.2l.09,0,0-.07L0,20.2"/><path class="cls-1" d="M.56,20.2l.13-.09c-.26-.21-.12-.22-.43-.22,0,.1-.15.27-.09.31s.08-.15.17-.18-.08.12-.08.21c.19,0,.06-.09.23-.13Z"/><path class="cls-1" d="M.56,19.87A.59.59,0,0,0,.62,20c0-.05,0-.15-.06-.14"/><path class="cls-1" d="M.62,19.78c.09-.05.07.11.09.12l0-.26Z"/><path class="cls-1" d="M1,19.55s0,0,0-.05,0,0,0,.05"/><path class="cls-1" d="M1.13,19.4c-.1-.07-.11,0-.13.1H1c.1,0,.18.24.06.24s-.16-.07-.16.07l.19.07c.14-.08,0-.38,0-.49"/><path class="cls-1" d="M1,19.55l0,0s0,0,0,0"/><polygon class="cls-1" points="0.79 19.66 0.77 19.72 0.82 19.77 0.79 19.66"/><path class="cls-1" d="M1.4,19.17c.18.3-.23.12-.1.34.11-.08.35.07.44.25l.08-.15a1,1,0,0,0-.42-.44"/><path class="cls-1" d="M2.23,19.83a.08.08,0,0,1,0-.07.08.08,0,0,0,0,.07"/><path class="cls-1" d="M2.5,18.86c0,.2,0,.39,0,.56-.06-.13-.15-.24-.11-.33-.18,0,0,.28-.17.3-.27-.31.18-.14-.1-.4-.07.05-.17.15-.05.45l-.28-.14.28.31c.13.07-.08-.32.13-.1s.09.2.07.25c0-.11.46.19.62.09s-.33-.72-.35-1"/><polygon class="cls-1" points="2.84 19.31 2.98 19.47 2.8 19.25 2.84 19.31"/><path class="cls-1" d="M2.78,18.56l0,.37a1.48,1.48,0,0,1-.19-.18c.08.09.15.29.22.36.36.36.12-.22.15-.35.37.07.15.23.53.59-.08,0-.16-.09-.27-.08.49.41.38-.09.38-.27s-.17-.17-.19-.1v-.2c-.35-.3-.49-.33-.66-.14"/><path class="cls-1" d="M2.5,18.74c0-.06.08,0,.12,0s-.16-.15-.12,0"/><path class="cls-1" d="M3.68,19s0,0,0,0,0,0,0,0"/><path class="cls-1" d="M3.21,18.48l.14,0-.19-.18a.22.22,0,0,0,0,.2"/><path class="cls-1" d="M8.19,16.85c-.21-.27-.36-.39-.4-.28-.26-.38-.1-.38-.2-.63-.29-.17-.32-.44-.61-.79-.14,0,.15.58-.05.57a2.55,2.55,0,0,0-.3-.39c0,.35,0,.87-.39.66C6,16,6,16.21,6,16.48c-.66.19-1,.89-1.78,1l.32.61c-.23-.26-.15.09-.39-.28.08.05.07,0,.11-.06-.47-.4-.31.26-.58.18a2.65,2.65,0,0,1,.44.63c-.4-.58-.18.1-.68-.51-.27-.05.33.49.11.49.21.33.27.07.47.3s-.23,0,0,.3c.4.05.42-.88.65-1.36l.21.38c0-.36.33-.59.95-.05-.3-.35.45,0-.19-.8.19.17.18.13.31.16l-.18-.29c.11-.06.4.38.5.28a2.32,2.32,0,0,1-.53-.83L7,17.54a2.73,2.73,0,0,0-.38-.4c.19.09-.1-.28-.17-.43s.42.45.6.71c.26.08-.38-1,0-.69l-.34-.39c.08-.2.53.19.59-.06.5.53.22.59.33.87.12.11.22.1.38.27-.14-.33-.31-.81-.43-1.15.41.74.59.57.68.58"/><path class="cls-1" d="M7.94,17.42c0,.11.08.19.11.26s0-.09,0-.07l-.14-.19"/><path class="cls-1" d="M8.19,16.85l.05.07a.08.08,0,0,0-.05-.07"/><path class="cls-1" d="M6.2,16l0,0h0Z"/><path class="cls-1" d="M7.4,17.9A5.67,5.67,0,0,0,7,17.54a1,1,0,0,0,.44.36"/><path class="cls-1" d="M6,18c0,.08.12.19.18.32s0-.15-.18-.32"/><polygon class="cls-1" points="8.2 17.43 8.23 17.23 8.2 17.08 8.2 17.43"/><path class="cls-1" d="M9,13.47c-.49-.46-.41,0-.62,0,0,.45.81,1.2.64,1.43l-.76-1.14c-.18.23-.66.23-.16,1.33a1.08,1.08,0,0,1-.32-.45c-.12.15,1,1.61.57,1.39-.29-.81-.52-.61-.95-1.32l0-.09c-.07.16,0,.64-.11.65.2.28.58.65.48.76a3,3,0,0,1,.49.63c-.1-.38.1-.24-.09-.65.33.32,0,.15.37.46L8.38,16c.13,0,.19.41.35.41-.13-.22-.21-.51-.09-.52l.07.15c0-.19.18-.08-.29-.67l.51.56-.31-.41c.3,0,1.08,1,.94.32a.91.91,0,0,1-.29-.45c-.3-.22.11.4.06.52-.31-.41-.52-1-.81-1.19.48.41.18-.23,1,.79.2,0-.12-.59.2-.45l.11.16c-.47-.72.34.22-.06-.56l-.19-.1c-.19-.29-.16-.33-.15-.42a1.33,1.33,0,0,0,.19.24,2.09,2.09,0,0,1-.32-.87c-.13,0,.08.43.09.62-.17-.32-.48-.73-.35-.7"/><path class="cls-1" d="M8.83,16.35l-.13-.27a1.15,1.15,0,0,0,.13.27"/><path class="cls-1" d="M10.29,13.87c.17.05.27.44.52.6-.16-.41-.61-.62-.88-1.2.26.26,0-.32,0-.36A8.49,8.49,0,0,0,10.71,14c-.09-.21.21.06.29,0-.44-.29-.05-.34-.5-.67-.26-.39-.32-.77-.05-.52s.1.25.07.29c.34.54.29.21.65.66-.38-.82.11-1.1-.82-2.12-.2-.19,0,.11-.07.2.31.12.43.59.56.8-.19-.13,0,.3-.31-.12l-.2-.5a1.43,1.43,0,0,0-1.12.81l.18-.08a1.18,1.18,0,0,1,.2.6l.64.73c-.09,0-.05.12-.25-.16a3,3,0,0,0,.58.8c0,.22-.26-.07,0,.52.65.49-.22-.66.4-.27Z"/><polygon class="cls-1" points="10.17 14.62 9.93 14.19 10 14.44 10.17 14.62"/><path class="cls-1" d="M9,12.83c.12.17.15.27.27.44s0-.18-.27-.44"/><path class="cls-1" d="M11.31,13.71l0-.22-.18-.09a1.08,1.08,0,0,1,.16.31"/><path class="cls-1" d="M10.77,11.2c-.12.18.05.57-.4.32a14.37,14.37,0,0,0,1,1.34c.17,0-.42-.77-.43-1,.32.39.07-.19.23-.15a3.38,3.38,0,0,1-.35-.52"/><path class="cls-1" d="M12.43,12.32c.07-.06-.07-.41.12-.27s.19.37.1.34c.42.53,0-.15.35.15a.89.89,0,0,1-.2-.26c.28,0-.21-.53.27-.42a1.34,1.34,0,0,0-.29-.54,6.34,6.34,0,0,0,.84.63c-.15-.2-.54-.62-.85-1,.68.42.2-.27.68.06,0,0,.05.16,0,.14.44.58.06-.21.23-.16l.35.51c0-.14-.07-.57.29-.29l.15.26c-.06-.53.31-.54.36-.86l.3.22c0-.55-.36,0-.69-.83.65.86-.08-.38.31-.13s0,.28.35.63c-.29-.47,0-.19,0-.37.29.43.2-.06.49.44l-.29-1c.21.2.26.1.27,0-.14.1-.39-.63-.69-.71a.93.93,0,0,1-.85.76c.39.61-.19.13.11.64l-.43-.52c-.1.26.28.3.39.55s-.35-.17-.5-.4c-.16.06.1.18.27.55l-.57-.6c-.29.48-.51,1.36-1.28,1.28l.36.43c-.41-.1.37,1.3-.53.44l.22.45c-.13-.25-.54-.68-.71-1,.05.2-.14.06-.1.25l.27.15c.21.46-.05.27-.33-.07.18.6.69.77,1,1.14-.4-1,.83.67.77.13-.06-.38-.32-.42-.48-.67"/><path class="cls-1" d="M11.23,11.24a.47.47,0,0,0,.06.15.77.77,0,0,0-.06-.15"/><path class="cls-1" d="M15.5,9.56s0,0,.05-.06,0,0-.05.06"/><path class="cls-1" d="M11.13,11.72Z"/><polygon class="cls-1" points="11.86 12.98 11.93 12.95 11.76 12.73 11.86 12.98"/><path class="cls-1" d="M16.47,9.57l-.14-.2a1.86,1.86,0,0,0,.14.2"/><path class="cls-1" d="M18.24,8.36l0,0s0,0,0,0"/><path class="cls-1" d="M22.06,4.89a1.06,1.06,0,0,0,.1-.59l.07.12c0-.1.09-.42-.19-.54l0,.12c0,.27-.24-.12-.42-.13s.15.66-.05.63c0,0-.12-.08-.17-.18s.06.44,0,.55c-.73-1-.18.53-.81,0-.06.17-.28.17-.28.48-.11-.32-.15.07-.34-.25.41.66-.63,0-.07.82-.36-.09,0,.06-.34,0a.14.14,0,0,1,0-.15c-.22-.12.12.45-.23.12-.23.06.13.25.19.56-.26,0-.29-.13-.66-.41.29.42,0,.3.09.58a.25.25,0,0,1,.26.22c-.27.09,0,.41-.08.68-.45-.4.18-.16-.26-.41,0-.32.08-.36-.1-.76a.82.82,0,0,0-.39.66c-.16,0-.12-.27-.23-.26-.35-.09.07.71-.24.6l-.15-.28c.16.41-.39.15-.43.47a1,1,0,0,1,.24.3c-.48-.68,0,.54-.5.18a1,1,0,0,1,.27.93A2.12,2.12,0,0,1,17,8.58c.36.14-.18-.61-.19-.91,0,.31-.31.2-.18.6l-.21-.38c-.2.05.44.9,0,.68l-.17-.28c-.31.28-1.05.06-.88.86a11.36,11.36,0,0,0,.79.86A10.72,10.72,0,0,0,16,8.94l.3.43c-.18-.31-.16-.59-.4-.76,0-.28.34.32.28,0,.31.44.27.54.53.91l-.06-.29c.09.19.17.1.26.29-.2-.66.39,0,.4-.37h-.15c-.17-.23-.09-.25-.1-.36.29.3.29.23.48.3-.05-.25-.3-.7-.19-.78.29.45.36.1.64.44-.29-.44.1-.32-.06-.57s.11-.15.27.07c0,0,0,.08,0,.11l.06,0,.06.1c.06,0-.16-.34.06-.18.07.11,0,.13,0,.2.18,0-.21-.82.17-.53-.11-.21,0-.35-.3-.76.15.13.38.48.45.33-.18-.41.23,0,.15-.27.15.46.08.1.23.54.18.08,0-.49.15-.53l.21.25c0-.17-.17-.49.08-.25L19.42,7c.18,0,.26-.13.55,0l-.2-.53c.49.34.4-.25.26-.72a.3.3,0,0,1,.29.08l0,.2c.1,0,.37.11.18-.27,0-.17.23.19.33.19-.15-.6.77-.07.33-.8-.08,0-.32,0-.44.14,0-.11-.15-.23-.11-.28s.38.07.44-.14l.3.44c.54.24.06-.91.67-.46"/><path class="cls-1" d="M20.25,6.25l.28.16-.16-.19s0,.08-.12,0"/><path class="cls-1" d="M20.37,6.22a.86.86,0,0,0,0-.15s0,0,0,.1Z"/><path class="cls-1" d="M22.41,4.52a.11.11,0,0,0,.12-.08c-.06,0-.13,0-.12.08"/><polygon class="cls-1" points="22.45 4.32 22.36 4.29 22.38 4.34 22.45 4.32"/><path class="cls-1" d="M25.33,1.91l.07-.25c.08.05.22-.15.24,0,0-.22.32-.21.09-.37-.46.39-1.3.64-1.71,1.27V2.38c-.13.43-.63,0-.51.64l-.16-.29c-.2,0,0,.56-.34.36l.09.11s-.09,0-.13,0l.06,0c0,.18-.09.21-.25.19s0-.07,0-.11-.05.18-.13.23-.1-.14-.12-.18c-.14.28-.48,0-.31.59,0,.1.17.12.12.22.25,0,.24-.23.3-.44l0,0c-.21-.51.15,0,.19-.26.08.2,0,.25,0,.37.43.18.11-.45.54-.14v0c.06,0,.06-.1.08-.17a.41.41,0,0,0-.18-.05c0-.08-.08-.27-.12-.36.18.15,0-.13.16-.09s0,.19.06.3l0-.18c.09-.07.22.11.33.17,0-.18-.11-.06-.17-.27.24.13.61-.23.71-.5-.05.07.09.17,0,.21s.1-.14,0-.25.3-.23.49-.23l-.11-.07c0-.24.37-.07.49-.29h0c0-.06-.06-.31.09-.34.05.13,0,.16.06.26"/><path class="cls-1" d="M25.88,1.28l0,.15c.08,0,.07-.21,0-.27s-.13,0-.09.11,0,.05.06,0"/><path class="cls-1" d="M27.22.48s0,0,0-.08a2.73,2.73,0,0,1-.78.4c-.12,0,0,.17-.14.28L26.17,1c0,.1-.3.11-.11.23,0,0,0-.11.08-.11l0,.06.11-.1v.09c.24,0,0-.27.24-.33l.09.12c.14-.08.18-.16.36-.18,0,0,0-.05-.05,0a.1.1,0,0,1-.1-.06c.16-.22,0,.08.2,0a1.08,1.08,0,0,1,.59-.44c-.12,0,0-.12.08-.17s0,.06,0,.09.11,0,.15-.06-.09-.09,0-.17c-.29.08-.39.33-.64.48"/><path class="cls-1" d="M27.24.35a.05.05,0,0,0,0,.05l.1-.06Z"/></g></g></svg>