<svg xmlns="http://www.w3.org/2000/svg" viewBox="0 0 3.7 34.38"><defs><style>.cls-1{fill:#fff;}</style></defs><title>Asset 6</title><g id="Layer_2" data-name="Layer 2"><g id="Pontas"><path class="cls-1" d="M1.06,34.38l0-.09-.06,0,0,.12"/><path class="cls-1" d="M1.39,33.93v-.16c-.32.09-.25,0-.43.22.06.09.14.28.2.26s-.07-.16,0-.26,0,.15.12.2c.1-.16,0-.1,0-.27Z"/><path class="cls-1" d="M1.12,33.74a.41.41,0,0,0,.15,0c-.05,0-.12-.09-.15,0"/><path class="cls-1" d="M1.08,33.64c0-.11.13,0,.15,0L1,33.51Z"/><path class="cls-1" d="M1.1,33.21l0-.05s0,0,0,.05"/><path class="cls-1" d="M1.06,33c-.11,0,0,.09,0,.16h0c.09,0,.3,0,.23.1s-.15.09,0,.17l.17-.11c0-.16-.29-.25-.39-.31"/><path class="cls-1" d="M1.1,33.21a.13.13,0,0,1,0,.06s0-.05,0-.06"/><polygon class="cls-1" points="1.08 33.42 1.11 33.48 1.19 33.47 1.08 33.42"/><path class="cls-1" d="M1,32.65c.35,0,0,.25.22.28,0-.14.26-.25.46-.22l-.08-.16a1,1,0,0,0-.6.1"/><path class="cls-1" d="M2.06,32.35a.09.09,0,0,1-.06,0,.09.09,0,0,0,.06,0"/><path class="cls-1" d="M1.43,31.57c.15.12.3.24.43.36-.14,0-.29,0-.33-.1-.08.16.21.18.14.31-.41,0,0-.23-.39-.16,0,.1,0,.23.34.31l-.27.14.41,0c.14-.05-.3-.12,0-.15s.21,0,.24.08.42-.26.43-.45-.77-.15-1-.29"/><polygon class="cls-1" points="1.99 31.56 2.2 31.54 1.92 31.55 1.99 31.56"/><path class="cls-1" d="M1.34,31.17l.33.19a1.3,1.3,0,0,1-.26,0c.12,0,.33,0,.43,0,.49-.09-.12-.23-.2-.33.27-.27.27,0,.78-.09,0,.07-.16.07-.22.17.62-.16.15-.36,0-.46s-.23,0-.19.09l-.16-.11c-.45.11-.56.21-.51.46"/><path class="cls-1" d="M1.33,31.5c0-.07,0-.09.07-.1-.13,0-.22,0-.07.1"/><path class="cls-1" d="M2.19,30.67s0,0,0,.06,0,0,0-.06"/><path class="cls-1" d="M1.53,30.78l.07-.13-.26.05a.28.28,0,0,0,.19.08"/><path class="cls-1" d="M3.1,25.78c-.35,0-.52.06-.46.16-.46,0-.37-.14-.63-.2-.3.13-.55,0-1,0-.05.15.55.21.42.37a2.82,2.82,0,0,0-.49,0c.3.19.7.51.32.7-.17.18,0,.32.23.51-.23.65.15,1.33-.22,2l.68.1c-.34,0,0,.17-.45.15.09,0,0-.08,0-.12-.6.15,0,.4-.18.57a2.41,2.41,0,0,1,.76,0c-.7,0,0,.21-.81.26-.2.18.59,0,.47.2.38,0,.21-.18.52-.22s-.17.17.24.17c.28-.3-.46-.86-.72-1.32l.43.05c-.28-.24-.29-.62.51-.8-.46,0,.29-.35-.76-.32.25-.06.21-.07.31-.16L2,28c0-.12.54-.1.52-.24a2.46,2.46,0,0,1-1-.05L3,27.18a3.06,3.06,0,0,0-.55.07c.18-.1-.28-.08-.45-.11,0-.09.61-.08.92-.07.22-.17-1-.25-.57-.37l-.51,0c-.12-.17.45-.32.29-.51.72-.1.61.15.9.23s.2-.12.44-.14c-.35-.09-.84-.22-1.19-.33.84.1.81-.14.87-.21"/><path class="cls-1" d="M3.42,26.32l.28.05c-.05,0-.09,0-.05-.06a.83.83,0,0,0-.23,0"/><path class="cls-1" d="M3.1,25.78h.09s-.07,0-.09,0"/><path class="cls-1" d="M1.23,26.89l0,0,0,0Z"/><path class="cls-1" d="M3.5,27a5.62,5.62,0,0,0-.55.15A1,1,0,0,0,3.5,27"/><path class="cls-1" d="M2.79,28.2a1.56,1.56,0,0,0,.36,0c0-.07-.12-.1-.36,0"/><polygon class="cls-1" points="3.58 26.11 3.43 25.96 3.29 25.91 3.58 26.11"/><path class="cls-1" d="M.83,23.14c-.66.13-.26.32-.39.48.35.29,1.45,0,1.53.31l-1.36,0c.07.27-.2.66,1,.9a1.18,1.18,0,0,1-.56,0c.05.18,1.91.09,1.46.34-.83-.23-.79.07-1.62,0l-.1,0c.09.15.53.36.47.46.34,0,.87-.08.9.05a3.25,3.25,0,0,1,.79,0c-.36-.14-.13-.22-.58-.3.46-.08.15.05.59,0l-.4-.11c.1-.09.44.08.54,0-.26,0-.54-.12-.48-.22l.16,0c-.18-.08,0-.19-.71-.15l.75-.1-.51,0c.21-.22,1.44-.3.8-.58a.85.85,0,0,1-.53,0c-.36.12.39.15.46.26a6,6,0,0,0-1.44,0C2.2,24.14,1.51,24,2.8,24c.08-.18-.55-.24-.25-.42h.19c-.85,0,.39-.14-.49-.28l-.19.1c-.35,0-.36-.05-.42-.12a1,1,0,0,0,.3,0A2.16,2.16,0,0,1,1,23c-.1.09.4.19.56.29-.36-.05-.87,0-.77-.12"/><path class="cls-1" d="M3.06,25l-.29-.05a.94.94,0,0,0,.29.05"/><path class="cls-1" d="M1.9,22.34c.13-.11.51,0,.78-.07-.42-.12-.86.13-1.49,0,.37-.07-.26-.19-.27-.23a8.09,8.09,0,0,0,1.31,0c-.22,0,.17-.14.18-.22-.48.19-.3-.15-.83,0-.47,0-.81-.19-.45-.26s.27.06.28.11c.64,0,.34-.12.92-.14-.89-.18-.83-.73-2.21-.57-.27.05.06.11.12.17.29-.18.73,0,1,0-.22.08.22.21-.28.18l-.52-.12a1.39,1.39,0,0,0,0,1.38l0-.2a1.31,1.31,0,0,1,.61.19l1-.09c-.07.05.08.11-.27.1a3,3,0,0,0,1,0c.17.14-.2.17.43.28.79-.24-.66-.2,0-.48Z"/><polygon class="cls-1" points="2.44 22.87 1.95 22.81 2.19 22.9 2.44 22.87"/><path class="cls-1" d="M.3,22.78c.22,0,.31,0,.52,0s-.15-.1-.52,0"/><path class="cls-1" d="M2.36,21.42l-.17-.15-.18.1a.89.89,0,0,1,.35.05"/><path class="cls-1" d="M0,20.4c.08.2.5.29,0,.51a12.81,12.81,0,0,0,1.64,0c.13-.11-.87-.1-1.06-.22.51,0-.1-.17,0-.28a4.37,4.37,0,0,1-.63,0"/><path class="cls-1" d="M1.87,19.7c0-.09-.37-.19-.14-.26s.41.07.33.12c.67,0-.11-.1.33-.2a.8.8,0,0,1-.33,0c.14-.25-.55-.14-.19-.46a1.23,1.23,0,0,0-.61-.09,5.9,5.9,0,0,0,1-.31c-.24,0-.81.08-1.34.08.74-.31-.11-.32.44-.52,0,0,.17.05.1.1.73,0-.14-.16,0-.27h.62c-.1-.1-.51-.28-.07-.41l.31,0c-.48-.26-.27-.57-.5-.79l.36-.12c-.46-.3-.2.31-1.08.08,1.08,0-.35-.15.07-.33s.23.18.72.09c-.55,0-.17-.1-.33-.19.52,0,.07-.19.65-.14l-.95-.32c.28-.06.23-.15.16-.22,0,.18-.75,0-1,.15a.92.92,0,0,1,.12,1.13c.73,0,0,.23.59.29l-.67,0c.15.23.4-.05.67,0,.09.1-.35.19-.62.18,0,.16.21,0,.6.1l-.81.11c.22.52.81,1.2.29,1.79l.56,0c-.32.26,1.28.44.05.68l.5.08c-.28,0-.87.05-1.27,0,.2.07,0,.15.16.22l.28-.13c.49.09.19.2-.25.23.59.2,1-.12,1.5-.16-1.08-.29,1-.29.56-.56s-.52,0-.83,0"/><path class="cls-1" d="M.3,20.05l.15,0a.39.39,0,0,0-.15,0"/><path class="cls-1" d="M1.42,15.6a.2.2,0,0,0,0-.08c-.12,0,0,0,0,.08"/><path class="cls-1" d="M.63,20.41h0Z"/><polygon class="cls-1" points="2.08 20.54 2.1 20.47 1.83 20.48 2.08 20.54"/><path class="cls-1" d="M2,14.81H2"/><path class="cls-1" d="M2,12.68v0s0,0,0,0"/><path class="cls-1" d="M1.43,7.56A1,1,0,0,0,1,7.13h.15C1.07,7.07.85,6.83.59,7L.72,7c.21.17-.24.13-.35.26,0,.17.62.27.48.41,0,.07-.14.06-.25,0,0,.15.4.2.46.31-1.21,0,.32.45-.47.67.1.14,0,.32.24.5-.33-.09,0,.16-.41.13.78.05-.37.5.63.53-.29.24.07,0-.18.29-.11,0-.11-.05-.13-.06-.22.11.44.16,0,.25-.08.23.28,0,.57.17-.13.23-.27.17-.72.3.52,0,.26.15.53.27A.25.25,0,0,1,1.41,11c-.08.27.35.22.5.47-.58.12,0-.25-.48,0-.28-.16-.25-.28-.67-.36a.78.78,0,0,0,.3.7c-.08.13-.28-.07-.34,0-.27.23.62.36.35.54l-.32,0c.43.12-.1.41.14.62a1,1,0,0,1,.38,0c-.83,0,.44.29-.15.5a1.06,1.06,0,0,1,.92.32,1.9,1.9,0,0,1-.53,0c.32-.22-.6-.21-.85-.38.28.14,0,.37.39.49l-.44,0c-.07.19,1,.17.57.37l-.32,0c.05.41-.57.88.19,1.21.28,0,.94-.14,1.15-.14a9.53,9.53,0,0,0-1-.46h.52c-.36,0-.57-.21-.84-.11-.27-.12.45-.09.16-.23.53,0,.59.09,1,.09l-.27-.12c.21,0,.18-.07.39,0-.65-.23.23-.32-.07-.55L2.07,14c-.3,0-.27-.07-.35-.13a.69.69,0,0,0,.51-.22c-.23-.1-.74-.16-.74-.3.54,0,.29-.23.73-.25-.53,0-.2-.27-.5-.29-.11-.08-.06-.18.22-.18l.09.06V12.6l.12,0c0-.07-.37-.07-.12-.15a.2.2,0,0,1,.19.08c.08-.18-.78-.31-.33-.45-.24,0-.26-.24-.79-.19.19-.06.6,0,.52-.18-.43-.09.16-.17-.12-.28.46.15.12,0,.56.13.18-.1-.41-.25-.34-.43l.33,0c-.16-.07-.5-.14-.16-.21H1.61c.14-.12,0-.28.35-.41l-.55-.15c.57-.2,0-.47-.43-.63a.28.28,0,0,1,.23-.19l.19.08c0-.11.3-.24-.12-.3-.13-.11.29-.08.35-.16-.57-.23.39-.67-.46-.74,0,.1-.17.27-.14.45-.1,0-.27,0-.29-.08S1,8.53.88,8.35l.53,0c.51-.3-.7-.58,0-.81"/><path class="cls-1" d="M1.48,9.81l.3-.13-.26,0c.05,0,.05.08,0,.11"/><path class="cls-1" d="M1.52,9.7a.41.41,0,0,0-.12-.08.08.08,0,0,0,.06.08Z"/><path class="cls-1" d="M1.33,7.05a.1.1,0,0,0,0-.14c-.05,0-.07.11,0,.14"/><polygon class="cls-1" points="1.19 6.9 1.12 6.96 1.17 6.97 1.19 6.9"/><path class="cls-1" d="M.9,3.17.75,3c.08,0,0-.27.13-.19-.18-.12,0-.39-.25-.29a7,7,0,0,0,0,2.13L.53,4.49c.28.37-.39.5.22.79l-.32,0c-.11.17.46.32.09.49H.66s-.06.06-.07.11l.07,0c.13.12.12.19,0,.31S.62,6.07.6,6s.11.15.11.24-.17,0-.22,0c.15.28-.26.4.31.6.1,0,.2-.07.25,0,.18-.18-.05-.33-.2-.5v.05c-.53-.14.13-.1-.1-.32.21.06.21.15.33.19.39-.25-.3-.35.2-.52v0c.05,0-.05-.1-.09-.16s-.1.08-.14.11a1.18,1.18,0,0,0-.36-.1c.22-.06-.1-.08,0-.18s.18.08.29.12L.86,5.48c0-.12.22-.11.32-.17-.14-.09-.1.06-.31,0,.25-.12.17-.63,0-.87,0,.09.19,0,.16.13S1,4.39.86,4.39A.48.48,0,0,1,1,3.85l-.13,0c-.19-.13.16-.33.05-.56h0c0-.08-.28-.14-.22-.28.13,0,.11.11.24.11"/><path class="cls-1" d="M.72,2.35l.12.07c0-.08-.12-.18-.21-.16s0,.13,0,.14.06,0,0,0"/><path class="cls-1" d="M.83.8s0,0-.06,0a2.84,2.84,0,0,1-.13.87c-.05.11.11.13.14.27L.66,2c.07.08-.09.3.12.22,0,0-.09-.06-.05-.13l.07,0V1.92L.87,2C1,1.76.63,1.82.73,1.57H.89c0-.17,0-.26.06-.4s-.07,0,0,0a.1.1,0,0,1-.11,0C.72,1,.88,1.29,1,1.11a1,1,0,0,1,0-.74C.87.47.82.32.84.21S.89.24.92.26A.4.4,0,0,0,1,.11C.89.18.83.13.82,0,.71.29.86.51.83.8"/><path class="cls-1" d="M.75.71s0,.05,0,.05a.37.37,0,0,1,0-.11Z"/></g></g></svg>