<svg xmlns="http://www.w3.org/2000/svg" viewBox="0 0 3.55 33.28"><defs><style>.cls-1{fill:#fff;}</style></defs><title>Asset 10</title><g id="Layer_2" data-name="Layer 2"><g id="Pontas"><path class="cls-1" d="M2.83,0l0,.09.07,0a.61.61,0,0,1,0-.12"/><path class="cls-1" d="M2.49.43V.59c.32-.09.25,0,.43-.21C2.87.29,2.8.1,2.73.12s.07.16,0,.25,0-.14-.12-.19c-.11.15,0,.1,0,.26Z"/><path class="cls-1" d="M2.76.62l-.15,0c.05,0,.12.09.15,0"/><path class="cls-1" d="M2.79.72c0,.1-.13,0-.15,0l.24.12Z"/><path class="cls-1" d="M2.77,1.13s0,0,0,.05,0,0,0-.05"/><path class="cls-1" d="M2.8,1.34c.11,0,0-.09,0-.16h0c-.09.05-.3,0-.23-.1S2.7,1,2.59.92L2.41,1c0,.15.29.24.39.31"/><path class="cls-1" d="M2.77,1.13a.08.08,0,0,1,0,0s0,0,0,0"/><polygon class="cls-1" points="2.79 0.93 2.76 0.87 2.68 0.88 2.79 0.93"/><path class="cls-1" d="M2.81,1.68c-.35,0,0-.24-.21-.28,0,.14-.27.24-.46.2l.07.15a1,1,0,0,0,.6-.07"/><path class="cls-1" d="M1.78,1.94a.09.09,0,0,1,.06,0s0,0-.06,0"/><path class="cls-1" d="M2.4,2.71A5.44,5.44,0,0,1,2,2.35c.15,0,.29,0,.33.11.09-.15-.2-.18-.13-.31.41,0,0,.23.38.16,0-.08,0-.22-.33-.3l.28-.13-.42,0c-.14.06.31.13,0,.16S1.87,2,1.84,2s-.42.24-.44.42.77.17,1,.31"/><polygon class="cls-1" points="1.83 2.71 1.63 2.73 1.9 2.71 1.83 2.71"/><path class="cls-1" d="M2.47,3.1l-.32-.19a1.43,1.43,0,0,1,.26,0c-.12,0-.32,0-.42,0-.5.07.1.23.19.32-.28.25-.28,0-.79.07,0-.07.16-.07.22-.17-.62.14-.15.35,0,.46s.23,0,.19-.09L2,3.53c.45-.1.56-.19.51-.43"/><path class="cls-1" d="M2.49,2.78c0,.07,0,.09-.07.1.13,0,.22,0,.07-.1"/><path class="cls-1" d="M1.61,3.56s0,0,0-.05,0,0,0,.05"/><path class="cls-1" d="M2.27,3.48,2.2,3.6l.27,0a.27.27,0,0,0-.2-.08"/><path class="cls-1" d="M.58,8.27c.35,0,.53,0,.47-.14.46,0,.36.15.62.21.31-.12.55,0,1,0,0-.15-.55-.23-.42-.38a2.66,2.66,0,0,0,.49,0c-.29-.19-.69-.52-.3-.69.17-.17,0-.3-.22-.5.24-.62-.11-1.29.27-2L1.81,4.7c.35,0,0-.16.46-.13-.09,0,0,.07,0,.11.61-.12,0-.38.2-.55a2.75,2.75,0,0,1-.76,0c.7,0,0-.21.81-.24.21-.17-.59,0-.46-.2-.38,0-.21.17-.52.2s.17-.16-.24-.17C1,4,1.72,4.54,2,5l-.43-.06c.27.23.27.6-.53.76.46,0-.3.33.75.32-.25.05-.21.07-.31.15l.33,0c0,.12-.54.09-.52.22a2.86,2.86,0,0,1,1,.07L.77,6.92a2.87,2.87,0,0,0,.55,0C1.14,7,1.6,7,1.76,7S1.15,7,.84,7c-.22.16,1,.26.56.38l.52,0c.11.17-.46.3-.3.49C.89,7.94,1,7.7.72,7.61a1.75,1.75,0,0,1-.44.14c.35.08.83.23,1.17.34C.62,8,.64,8.21.58,8.27"/><path class="cls-1" d="M.28,7.75,0,7.68s.09,0,.05.07H.28"/><path class="cls-1" d="M.58,8.27H.49c.05,0,.07,0,.09,0"/><path class="cls-1" d="M2.48,7.25l0,0,0,0Z"/><path class="cls-1" d="M.22,7.05a4,4,0,0,0,.55-.13.94.94,0,0,0-.55.13"/><path class="cls-1" d="M1,5.93a2.27,2.27,0,0,0-.36,0c0,.07.12.09.36,0"/><polygon class="cls-1" points="0.11 7.95 0.26 8.09 0.39 8.15 0.11 7.95"/><path class="cls-1" d="M2.78,10.88c.67-.1.27-.3.41-.45-.34-.29-1.45-.07-1.53-.34L3,10.17c-.07-.27.21-.64-1-.9a1.07,1.07,0,0,1,.56,0c-.05-.18-1.91-.15-1.45-.37C2,9.16,2,8.86,2.79,9l.09,0c-.08-.15-.52-.36-.46-.46-.34,0-.86.06-.89-.07a3.1,3.1,0,0,1-.79,0c.36.14.12.21.56.31-.45.06-.14-.06-.59,0l.41.12C1,9,.68,8.8.57,8.93c.26,0,.54.13.48.23l-.16,0c.18.08-.05.18.7.16l-.75.07h.51c-.21.2-1.45.25-.81.53a.92.92,0,0,1,.53,0c.36-.11-.39-.15-.45-.26a6.16,6.16,0,0,0,1.43.07c-.61.13.08.27-1.22.3-.08.17.55.25.25.42H.88c.85,0-.39.13.49.28l.19-.09c.35,0,.36.06.42.12a1,1,0,0,0-.3,0,2.14,2.14,0,0,1,.89.26c.1-.08-.4-.19-.56-.29.36.06.88.05.77.13"/><path class="cls-1" d="M.6,9.06l.29.06A1.22,1.22,0,0,0,.6,9.06"/><path class="cls-1" d="M1.7,11.63c-.14.11-.52,0-.79,0,.42.12.86-.1,1.49,0-.37.06.26.18.27.23a7.49,7.49,0,0,0-1.31,0c.22,0-.17.13-.19.2.49-.16.29.16.83,0,.47,0,.81.2.45.26s-.27-.07-.28-.11c-.64-.06-.34.1-.92.11.89.19.81.73,2.19.61.27-.05-.06-.11-.12-.17-.29.16-.73,0-1,0,.23-.07-.21-.21.29-.17l.52.13a1.31,1.31,0,0,0,0-1.33l0,.19a1.41,1.41,0,0,1-.6-.2l-1,.07c.07-.05-.07-.11.27-.1a3.32,3.32,0,0,0-1,0c-.17-.14.21-.16-.42-.28-.79.21.66.21,0,.46Z"/><polygon class="cls-1" points="1.17 11.1 1.66 11.17 1.42 11.08 1.17 11.1"/><path class="cls-1" d="M3.3,11.25c-.21,0-.3,0-.52,0s.15.1.52,0"/><path class="cls-1" d="M1.21,12.51l.17.15.18-.09a.81.81,0,0,1-.35-.06"/><path class="cls-1" d="M3.55,13.56c-.07-.19-.49-.29,0-.5a15.27,15.27,0,0,0-1.64,0c-.13.11.86.12,1.05.24-.51,0,.1.17,0,.27a4.29,4.29,0,0,1,.63,0"/><path class="cls-1" d="M1.66,14.19c0,.09.36.19.14.25s-.41-.07-.33-.12c-.67,0,.11.1-.34.18a1.19,1.19,0,0,1,.33,0c-.15.23.55.15.18.45a1.41,1.41,0,0,0,.6.1,6,6,0,0,0-1,.27c.24,0,.81-.06,1.35,0-.76.28.09.31-.46.49,0,0-.17,0-.09-.1-.73,0,.13.16,0,.26l-.61,0c.1.1.5.28.05.39l-.3,0c.47.26.25.55.48.77l-.36.11c.44.31.2-.29,1.08,0-1.08,0,.35.16-.09.32s-.22-.18-.71-.1c.55.05.16.09.32.19-.51,0-.07.18-.65.11l1,.34c-.29.05-.24.14-.17.21,0-.17.74.06,1-.12A.88.88,0,0,1,2.9,17c-.73-.05,0-.22-.58-.29l.67,0c-.15-.22-.41.05-.67,0-.09-.1.35-.16.62-.15,0-.16-.2,0-.6-.11l.82-.09c-.21-.5-.78-1.18-.25-1.74l-.56,0c.32-.25-1.26-.47,0-.67l-.5-.09c.28.05.87,0,1.27.06-.2-.08,0-.15-.15-.22l-.28.12c-.5-.1-.19-.2.25-.21-.59-.21-1,.08-1.51.11,1.08.3-1,.25-.57.52s.52,0,.83,0"/><path class="cls-1" d="M3.24,13.89l-.15,0,.15,0"/><path class="cls-1" d="M2,18.17a.08.08,0,0,0,0,.07c.11,0,0,0,0-.07"/><path class="cls-1" d="M2.92,13.53h0Z"/><polygon class="cls-1" points="1.47 13.37 1.45 13.44 1.72 13.43 1.47 13.37"/><path class="cls-1" d="M1.42,18.92h.25a1,1,0,0,0-.25,0"/><path class="cls-1" d="M1.33,21v0s0,0,0,0"/><path class="cls-1" d="M1.8,26a1,1,0,0,0,.41.43l-.14,0c.07.08.29.32.55.17l-.12,0c-.21-.17.24-.11.35-.25-.05-.16-.61-.27-.47-.4,0-.07.14-.05.25,0,.06-.14-.39-.21-.45-.31,1.21,0-.31-.45.48-.64-.09-.14,0-.31-.22-.49.33.1,0-.16.41-.11-.78-.07.39-.48-.61-.54.29-.22-.07,0,.18-.27.12,0,.11.05.13.06.22-.1-.43-.17.05-.25.09-.21-.28,0-.56-.17.12-.22.27-.16.72-.27-.52,0-.26-.16-.53-.27a.25.25,0,0,1-.33.07c.09-.26-.34-.22-.49-.46.59-.11,0,.24.48,0,.28.16.25.27.67.37a.76.76,0,0,0-.29-.69c.09-.13.28.07.34,0,.28-.21-.61-.36-.33-.53l.32.05c-.43-.12.11-.39-.12-.61a.87.87,0,0,1-.39,0c.83,0-.44-.3.16-.49-.54,0-.84-.2-.9-.33a2.27,2.27,0,0,1,.52,0c-.32.2.6.22.84.38-.28-.14,0-.35-.37-.48l.43.06c.08-.19-1-.19-.56-.38l.32,0c0-.4.59-.84-.16-1.18-.28,0-.94.11-1.15.11a8.61,8.61,0,0,0,1,.47l-.53,0c.36,0,.57.22.85.13.26.13-.46.08-.17.22-.53,0-.59-.1-1-.12l.27.13c-.21,0-.18.06-.39,0,.65.24-.24.3.05.53l.09-.12c.29,0,.26.08.35.14-.41,0-.35.08-.52.19.23.11.74.18.73.31-.54,0-.29.22-.74.23.53,0,.2.27.5.29.11.08.05.18-.22.17L1.33,21l0,.07H1.2c0,.06.36.07.11.15s-.13-.05-.19-.09c-.08.17.78.32.32.45.24,0,.26.23.79.2-.19.05-.61,0-.53.16.43.1-.16.16.12.28-.46-.16-.13,0-.56-.15-.18.1.4.26.33.43l-.33,0c.15.07.49.15.15.2h.3c-.15.11-.06.28-.37.39l.54.16c-.57.18,0,.46.42.62a.29.29,0,0,1-.24.18L1.88,24c0,.11-.31.23.11.3.13.11-.29.07-.35.15.57.23-.41.63.44.72,0-.09.18-.25.15-.43.1,0,.27,0,.29.09s-.29.25-.16.42l-.53,0c-.51.28.69.57,0,.78"/><path class="cls-1" d="M1.8,23.77l-.3.12h.26s-.05-.08,0-.11"/><path class="cls-1" d="M1.76,23.88l.12.07s0-.05-.06-.07Z"/><path class="cls-1" d="M1.88,26.45s0,.08,0,.13.08-.1,0-.13"/><polygon class="cls-1" points="2.02 26.59 2.1 26.53 2.04 26.52 2.02 26.59"/><path class="cls-1" d="M2.22,30.22l.15.2c-.09,0,0,.26-.14.18.18.13,0,.38.24.29a6.44,6.44,0,0,0,0-2.06l.13.11c-.26-.36.4-.47-.2-.77l.32,0c.12-.16-.45-.32-.08-.48l-.14,0c0-.05.07-.06.07-.11l-.06,0c-.13-.12-.12-.19,0-.31s0,.06.08.09-.12-.14-.11-.23.16,0,.21,0c-.14-.27.28-.38-.29-.59-.1,0-.2.07-.24,0-.19.17,0,.32.17.49v-.05c.53.14-.13.1.09.31-.21-.06-.2-.15-.32-.19-.4.23.29.35-.21.5l0,0s.05.1.09.15.1-.07.15-.1a1,1,0,0,0,.35.11c-.22.05.1.08,0,.18s-.18-.09-.29-.13l.13.12c0,.11-.22.1-.32.15.14.1.11-.05.31,0-.25.11-.18.6,0,.84,0-.08-.19,0-.16-.13s.05.16.18.17c.11.16,0,.37-.11.51l.13,0c.19.14-.17.32-.07.55h0c0,.08.28.14.21.27-.12,0-.1-.11-.23-.1"/><path class="cls-1" d="M2.38,31l-.12-.07c0,.08.12.18.2.16s0-.12,0-.13-.06,0-.05,0"/><path class="cls-1" d="M2.23,32.51s0,0,.06,0a2.58,2.58,0,0,1,.15-.84c.05-.1-.11-.13-.14-.26l.13-.06c-.07-.07.1-.29-.12-.22,0,0,.09.07,0,.13H2.29v.14l-.08-.05c-.13.19.23.15.12.38H2.19c0,.16,0,.24-.07.38s.06,0,0,0a.09.09,0,0,1,.11,0c.08.25-.08,0-.15.13a1,1,0,0,1,0,.72c.08-.1.12,0,.1.17s0,0-.08-.06a.25.25,0,0,0,0,.15c0-.07.12,0,.12.1.11-.27,0-.49,0-.77"/><path class="cls-1" d="M2.31,32.6s0-.05,0-.05,0,.07,0,.11Z"/></g></g></svg>