<svg xmlns="http://www.w3.org/2000/svg" viewBox="0 0 9.99 15.56"><defs><style>.cls-1{fill:#fff;}</style></defs><title>Asset 5</title><g id="Layer_2" data-name="Layer 2"><g id="Pontas"><path class="cls-1" d="M0,15.55l0,0,0,0v.08"/><path class="cls-1" d="M.41,15.53l.05-.07c-.3-.14-.2-.15-.43-.14,0,.08,0,.21.09.23s0-.11,0-.14,0,.1,0,.15,0-.06.11-.1Z"/><path class="cls-1" d="M.24,15.29a.53.53,0,0,0,.12.1s-.08-.11-.12-.1"/><path class="cls-1" d="M.24,15.23s.11.07.12.08L.2,15.13Z"/><path class="cls-1" d="M.38,15.05s0,0,0,0,0,0,0,0"/><path class="cls-1" d="M.41,14.94c-.11,0-.06,0,0,.07h0c.09,0,.25.16.16.17s-.15,0-.08.06l.17,0c.06-.07-.17-.28-.23-.35"/><path class="cls-1" d="M.38,15.05a0,0,0,0,1,0,0s0,0,0,0"/><polygon class="cls-1" points="0.29 15.13 0.31 15.18 0.38 15.21 0.29 15.13"/><path class="cls-1" d="M.49,14.76c.29.21-.1.1.11.25,0-.07.29,0,.44.15l0-.11a1.78,1.78,0,0,0-.53-.29"/><path class="cls-1" d="M1.43,15.19a.09.09,0,0,1,0,0s0,0,0,0"/><path class="cls-1" d="M1.13,14.49l.26.4c-.11-.09-.24-.16-.25-.22s.12.19,0,.21c-.36-.21.06-.1-.28-.28,0,.05,0,.12.2.32l-.28-.08.36.2c.14.05-.22-.22.05-.07s.16.13.17.17.43.12.5,0-.6-.5-.76-.69"/><polygon class="cls-1" points="1.61 14.8 1.79 14.9 1.55 14.76 1.61 14.8"/><path class="cls-1" d="M1.18,14.27l.22.26-.23-.12.34.25c.45.23,0-.17-.06-.26.3,0,.22.16.68.39,0,0-.16,0-.24,0,.57.27.23-.08.14-.21s-.2-.11-.19-.06l-.1-.14c-.41-.2-.53-.21-.56-.07"/><path class="cls-1" d="M1.07,14.41c0-.05,0,0,.09,0-.11-.06-.19-.1-.09,0"/><path class="cls-1" d="M2,14.51s0,0,0,0,0,0,0,0"/><path class="cls-1" d="M1.46,14.2l.09,0-.23-.13s0,.08.14.15"/><path class="cls-1" d="M4.24,12.82c-.3-.19-.46-.27-.44-.19-.38-.25-.26-.26-.46-.43a6.09,6.09,0,0,1-.84-.53c-.08,0,.4.4.24.4l-.41-.26c.19.24.43.61.06.49-.19,0-.06.16,0,.35-.38.17-.27.68-.78.79l.54.42c-.3-.17-.06.07-.42-.18.08,0,0,0,0,0-.54-.26-.09.2-.32.16a4.06,4.06,0,0,1,.63.42c-.58-.39-.07.08-.75-.33-.22,0,.49.33.33.35.32.22.23,0,.5.18s-.19,0,.16.21c.32,0-.13-.64-.22-1l.35.26c-.17-.26-.07-.43.65-.08-.39-.23.35,0-.53-.55.22.1.19.08.3.09l-.27-.19c0-.05.48.25.5.18a4.57,4.57,0,0,1-.81-.57l1.37.59c-.14-.08-.29-.18-.48-.27.17.05-.22-.19-.34-.29s.53.29.79.47-.75-.65-.37-.48l-.44-.27c0-.14.47.11.39-.07.63.36.46.41.68.61a2,2,0,0,1,.41.17c-.26-.24-.63-.57-.89-.79.67.49.72.37.79.38"/><path class="cls-1" d="M4.34,13.23l.22.18s-.06-.07,0-.06l-.19-.12"/><path class="cls-1" d="M4.24,12.82l.07,0s0,0-.07,0"/><path class="cls-1" d="M2.34,12.28l.05,0H2.34Z"/><path class="cls-1" d="M4.2,13.59l-.5-.23a1.68,1.68,0,0,0,.5.23"/><path class="cls-1" d="M3.26,13.73a2.49,2.49,0,0,0,.29.21c.05,0-.07-.1-.29-.21"/><polygon class="cls-1" points="4.54 13.22 4.46 13.08 4.36 12.98 4.54 13.22"/><path class="cls-1" d="M3.12,10.39c-.59-.31-.31,0-.47,0,.2.32,1.2.81,1.19,1L2.71,10.6c0,.16-.36.19.56,1a3.17,3.17,0,0,1-.47-.31c0,.11,1.58,1.09,1.13.95a10.88,10.88,0,0,0-1.36-.88l-.07-.07c0,.12.33.45.25.47.29.19.75.43.74.51s.39.24.67.42c-.27-.26,0-.17-.39-.45.4.21.1.1.5.31L4,12.23c.12,0,.35.28.47.28-.21-.15-.42-.36-.33-.37l.12.1c-.13-.13.09-.06-.55-.45l.66.37-.44-.28c.24,0,1.3.66.84.19a1.7,1.7,0,0,1-.43-.31c-.34-.14.28.28.3.36a11.27,11.27,0,0,0-1.19-.8c.56.27,0-.17,1.12.51.12,0-.39-.41-.09-.33l.16.11c-.7-.48.36.15-.33-.39l-.19-.06c-.28-.2-.28-.23-.32-.29L4,11a4.13,4.13,0,0,1-.68-.6c-.11,0,.28.3.39.44-.29-.23-.73-.5-.61-.48"/><path class="cls-1" d="M4.44,12.43l-.23-.19.23.19"/><path class="cls-1" d="M4.24,10.61c.15,0,.43.3.68.4-.32-.28-.76-.41-1.25-.81C4,10.37,3.5,10,3.51,10c.28.22,1,.64,1.09.72-.17-.14.19,0,.22,0-.46-.18-.2-.23-.7-.45s-.62-.52-.3-.36.2.17.2.2c.52.37.32.14.81.44C4.14,9.93,4.35,9.72,3.15,9c-.24-.12,0,.08.05.14A3.43,3.43,0,0,1,4,9.72c-.21-.08.12.22-.29-.07l-.4-.34c-.34,0-.44.31-.4.62L3,9.86a2.1,2.1,0,0,1,.45.42l.83.48c-.07,0,0,.1-.25-.1a4.79,4.79,0,0,0,.82.54c.11.17-.22,0,.28.37.73.32-.49-.46.16-.21Z"/><polygon class="cls-1" points="4.54 11.15 4.15 10.85 4.33 11.03 4.54 11.15"/><path class="cls-1" d="M2.78,9.93c.17.13.25.18.43.3s-.1-.13-.43-.3"/><path class="cls-1" d="M4.9,10.45l-.1-.16-.17,0a2.09,2.09,0,0,1,.27.21"/><path class="cls-1" d="M3.23,8.7c0,.13.33.4-.13.25.46.37.94.58,1.38.9.14,0-.7-.52-.82-.68.43.26,0-.14.09-.12L3.23,8.7"/><path class="cls-1" d="M5,9.41s-.26-.28,0-.19.33.25.25.23c.57.36-.07-.1.33.1a2,2,0,0,1-.28-.18c.19,0-.42-.36,0-.31a2.37,2.37,0,0,0-.48-.37c.5.21.48.25.93.41C5.47,9,5,8.69,4.52,8.39c.72.27,0-.19.53,0,0,0,.12.11,0,.1.62.38-.07-.15.09-.12l.51.34c-.06-.1-.34-.41.06-.22L6,8.69c-.32-.38-.06-.4-.19-.63l.34.15c-.29-.39-.26,0-.93-.56.92.58-.25-.26.16-.11s.14.2.57.43c-.45-.32-.1-.13-.21-.26.42.29.11,0,.58.29l-.7-.66c.25.13.24.06.2,0S5.22,6.9,5,6.85c.11.26.12.57-.22.58.59.42-.08.1.4.45l-.57-.35c.06.19.35.2.56.37,0,.1-.35-.11-.57-.26-.08.05.16.12.47.38l-.71-.4c0,.35.32,1-.28,1l.48.29c-.35,0,.93.9-.16.33l.39.31c-.22-.17-.74-.45-1-.7.14.14-.07,0,.06.18l.27.1c.39.31.11.19-.27,0a5.59,5.59,0,0,0,1.31.76c-.83-.72.94.44.63.06s-.45-.29-.7-.46"/><path class="cls-1" d="M3.58,8.71l.12.1-.12-.1"/><path class="cls-1" d="M5.83,7.33s0,0,0,0,0,0,0,0"/><path class="cls-1" d="M3.75,9.05h0Z"/><polygon class="cls-1" points="4.92 9.91 4.96 9.88 4.73 9.74 4.92 9.91"/><path class="cls-1" d="M6.53,7.28l-.2-.13a1.37,1.37,0,0,0,.2.13"/><path class="cls-1" d="M7.2,6.35l0,0s0,0,0,0"/><path class="cls-1" d="M8.2,3.72A.88.88,0,0,0,8,3.3l.12.08A.69.69,0,0,0,7.68,3l.09.08c.12.2-.24-.07-.37-.07s.44.46.28.45c0,0-.13-.05-.22-.12s.27.31.29.39c-1-.65.14.38-.58,0,0,.12-.12.14,0,.35C7,3.91,7.14,4.19,6.84,4c.63.45-.47,0,.36.58-.31,0,.06,0-.23,0-.09-.07-.08-.09-.09-.11-.22-.07.32.32-.11.1-.13,0,.22.17.42.38C7,5,6.92,4.89,6.51,4.7c.42.3.17.22.37.42a.33.33,0,0,1,.29.14c-.14.08.23.29.29.49-.53-.27,0-.13-.4-.28a2,2,0,0,0-.45-.54c-.09.08-.1.24,0,.49-.1,0-.21-.19-.29-.17-.3,0,.41.49.13.43l-.25-.19c.32.28-.21.12-.07.35A2.84,2.84,0,0,1,6.5,6c-.7-.46.28.38-.28.15.45.29.66.55.67.64a3.35,3.35,0,0,1-.45-.27c.33.08-.44-.42-.6-.63.2.21-.12.15.18.43L5.67,6.1c-.12.05.77.62.37.48l-.27-.19c-.08.21-.73.09-.2.65.23.17.83.45,1,.57-.15-.23-.53-.55-.68-.74l.43.28c-.29-.21-.41-.41-.67-.52s.4.21.2,0c.44.3.47.37.84.62L6.51,7c.17.14.17.07.34.2-.48-.46.29,0,.1-.28H6.84c-.24-.16-.2-.18-.25-.25a1.08,1.08,0,0,0,.5.18c-.17-.17-.58-.48-.54-.54.44.31.31.06.69.29-.44-.31-.09-.23-.34-.41-.07-.09,0-.11.24,0l.06.07,0,0,.09.06S7,6.16,7.27,6.26a.43.43,0,0,1,.14.15c.11,0-.57-.57-.15-.39-.19-.14-.15-.25-.6-.52.17.08.51.32.49.21-.34-.28.18,0,0-.2.34.32.11.07.44.37.17,0-.28-.34-.16-.38l.28.17c-.11-.12-.37-.34-.07-.18l-.25-.16c.16,0,.13-.1.42,0L7.37,5c.53.22.16-.19-.18-.52a.32.32,0,0,1,.25,0l.13.14s.33.05,0-.2c-.07-.13.27.12.34.11-.41-.41.52-.08-.17-.58,0,0-.22,0-.25.12-.07-.07-.22-.15-.22-.19s.32,0,.25-.12l.44.3c.52.15-.42-.64.25-.36"/><path class="cls-1" d="M7.58,4.77l.29.1-.22-.13s0,.06-.07,0"/><path class="cls-1" d="M7.65,4.74a.24.24,0,0,0-.08-.1s0,0,0,.06Z"/><path class="cls-1" d="M8.27,3.44s.07,0,0-.06-.09,0,0,.06"/><polygon class="cls-1" points="8.2 3.3 8.12 3.29 8.16 3.32 8.2 3.3"/><path class="cls-1" d="M9.06,1.47,9,1.29c.09,0,.08-.12.17,0C9,1.12,9.28,1.11,9,1c-.14.3-.61.51-.59,1l-.09-.12c.13.31-.47,0,0,.47l-.26-.19c-.14,0,.29.39-.07.27l.13.07s-.08,0-.1,0l.06,0c.08.12,0,.15-.08.14s0-.05,0-.08,0,.13,0,.17-.14-.09-.18-.12c0,.21-.34,0,.08.44.08.06.19.07.2.15.21,0,.06-.18,0-.33h0c-.4-.35.13,0,0-.19.16.14.13.18.22.26.4.11-.15-.32.32-.12v0c.05,0,0-.08,0-.13l-.15,0a1.68,1.68,0,0,0-.27-.24c.2.1-.06-.09.07-.07s.12.13.2.21l-.08-.13s.22.07.32.1c-.1-.12-.1,0-.26-.18.24.08.33-.19.27-.38,0,0,.15.11.09.14s0-.1-.1-.17.1-.18.24-.19l-.12-.05c-.12-.16.23-.06.21-.22H9c0-.05-.2-.22-.1-.24s.06.11.17.18"/><path class="cls-1" d="M9.14,1l.08.1S9.17,1,9.1.91,9,1,9.08,1s.06,0,.06,0"/><path class="cls-1" d="M9.7.37l0-.06c-.12.13-.24.32-.36.32s.06.12,0,.2l-.12,0c0,.07-.17.09,0,.17,0,0-.06-.08,0-.08l.06,0,0-.07.05.06c.17,0-.15-.19,0-.25l.12.09c.06-.07.06-.13.17-.15s0,0,0,0-.07,0-.1,0,.05.06.16,0,.1-.33.21-.34c-.09,0-.09-.09,0-.13s0,0,.05.07S10,.15,10,.12A.08.08,0,0,1,9.92,0c-.17.07-.11.26-.22.37"/><path class="cls-1" d="M9.65.28s0,0,0,0l0,0Z"/></g></g></svg>