<svg xmlns="http://www.w3.org/2000/svg" viewBox="0 0 20.15 21.91"><defs><style>.cls-1{fill:#fff;}</style></defs><title>Asset 4</title><g id="Layer_2" data-name="Layer 2"><g id="Pontas"><path class="cls-1" d="M0,21.91l.08-.05,0-.07L0,21.91"/><path class="cls-1" d="M.57,21.81l.12-.11c-.29-.17-.15-.21-.47-.15,0,.11-.12.31,0,.34s.06-.17.16-.22-.07.14-.06.22c.19,0,0-.09.22-.17Z"/><path class="cls-1" d="M.52,21.48a.73.73,0,0,0,.09.13c0-.05,0-.16-.09-.13"/><path class="cls-1" d="M.57,21.38c.09-.07.1.1.12.1l-.08-.25Z"/><path class="cls-1" d="M.91,21.08s0,0,0-.06,0,0,0,.06"/><path class="cls-1" d="M1,20.9c-.11,0-.1,0-.11.12H1c.1,0,.22.22.09.24s-.18-.05-.16.1l.21,0c.13-.11,0-.4-.05-.51"/><path class="cls-1" d="M.91,21.08l0,.05s0,0,0-.05"/><polygon class="cls-1" points="0.73 21.22 0.72 21.29 0.78 21.33 0.73 21.22"/><path class="cls-1" d="M1.29,20.62c.23.28-.21.16-.05.37.09-.11.37,0,.48.17L1.78,21a.94.94,0,0,0-.49-.36"/><path class="cls-1" d="M2.23,21.13s0-.05,0-.06a0,0,0,0,0,0,.06"/><path class="cls-1" d="M2.37,20.11c0,.2,0,.39,0,.57-.08-.13-.19-.22-.16-.31-.17.06,0,.28-.13.33-.32-.27.17-.17-.15-.39-.07.07-.16.19,0,.47l-.3-.1L2,21c.14.05-.13-.31.11-.12s.12.18.11.23c0-.11.49.11.64,0s-.42-.67-.49-.93"/><polygon class="cls-1" points="2.78 20.5 2.94 20.63 2.74 20.45 2.78 20.5"/><path class="cls-1" d="M2.62,19.75l.09.37A1.44,1.44,0,0,1,2.49,20a3.58,3.58,0,0,1,.27.33c.42.29.1-.25.11-.39.39,0,.19.21.62.5-.08,0-.17-.06-.29,0,.55.33.38-.16.36-.34-.07,0-.19-.14-.21-.07l0-.19c-.4-.24-.55-.25-.7,0"/><path class="cls-1" d="M2.36,20c0-.07.08-.06.13,0-.11-.08-.19-.13-.13,0"/><path class="cls-1" d="M3.59,20s0,0,0,.05,0,0,0-.05"/><path class="cls-1" d="M3.05,19.6l.15-.05L3,19.4a.28.28,0,0,0,.08.2"/><path class="cls-1" d="M7.92,17c-.25-.24-.41-.33-.45-.21-.31-.34-.14-.37-.28-.6-.31-.12-.38-.39-.72-.69-.14.08.23.55,0,.58a2.85,2.85,0,0,0-.35-.34c.05.35.09.88-.31.75s-.21.26-.23.54c-.65.31-.9,1.08-1.69,1.33l.4.57c-.26-.23-.13.11-.42-.22.09,0,.07,0,.1-.08-.54-.32-.28.31-.57.29a2.49,2.49,0,0,1,.53.55c-.48-.51-.17.15-.76-.38-.28,0,.41.43.18.47.25.3.28,0,.52.22s-.24,0,0,.3c.43,0,.32-1,.49-1.5l.26.35c0-.38.27-.66,1-.23-.35-.29.47,0-.29-.77.22.13.2.09.33.1l-.21-.26c.1-.07.45.32.54.2-.39-.27-.41-.44-.65-.74L6.76,18a3.57,3.57,0,0,0-.44-.34c.2.06-.14-.26-.23-.4s.48.38.7.61c.28,0-.51-.89-.12-.69l-.39-.33c0-.22.56.09.59-.17.57.45.3.55.45.82.14.08.23.05.42.2-.19-.31-.42-.76-.59-1.08.51.67.68.47.77.46"/><path class="cls-1" d="M7.74,17.66l.15.24s0-.09,0-.08a1.2,1.2,0,0,0-.16-.16"/><path class="cls-1" d="M7.92,17,8,17.1c0-.05,0-.06-.06-.06"/><path class="cls-1" d="M5.77,16.51l.05,0H5.77Z"/><path class="cls-1" d="M7.25,18.25A4,4,0,0,0,6.76,18a.9.9,0,0,0,.49.29"/><path class="cls-1" d="M5.87,18.6a2.78,2.78,0,0,0,.22.29c.08,0,0-.15-.22-.29"/><polygon class="cls-1" points="8.01 17.62 8.01 17.41 7.96 17.27 8.01 17.62"/><path class="cls-1" d="M8.33,13.48c-.56-.38-.42,0-.63.07,0,.46,1,1.06.83,1.32l-.92-1c-.16.26-.64.35,0,1.38a1.18,1.18,0,0,1-.39-.41c-.1.18,1.26,1.45.76,1.3-.4-.76-.61-.51-1.14-1.15l0-.09c0,.17.1.64,0,.68.23.24.66.55.58.68.1,0,.35.3.58.54-.15-.37.07-.25-.17-.64.37.27.06.14.43.4L8,16.18c.14,0,.25.38.41.36-.16-.2-.28-.48-.16-.51l.09.13c-.07-.18.17-.11-.38-.62l.59.47-.37-.35c.31,0,1.23.81,1,.15a.87.87,0,0,1-.35-.4c-.34-.17.16.38.13.51-.37-.36-.66-.94-1-1.06.54.33.16-.26,1.1.62.19-.07-.2-.57.15-.49l.13.14c-.57-.63.38.17-.13-.56L9,14.51c-.24-.25-.21-.3-.21-.39a1.5,1.5,0,0,0,.22.21c-.41-.46-.33-.68-.44-.83s.14.43.18.62c-.22-.3-.59-.66-.45-.64"/><path class="cls-1" d="M8.51,16.41l-.16-.25a.72.72,0,0,0,.16.25"/><path class="cls-1" d="M9.68,13.65c.17,0,.33.39.6.5-.21-.38-.7-.51-1-1.05.3.21-.05-.32,0-.36a7.56,7.56,0,0,0,.91.94c-.12-.19.22,0,.29,0-.47-.21-.09-.32-.59-.58-.31-.35-.42-.72-.12-.51s.14.23.11.28c.42.48.33.15.75.55-.49-.77,0-1.14-1.11-2-.23-.15,0,.12,0,.21.33.07.51.52.67.71-.21-.1,0,.32-.33-.06l-.27-.47a1.56,1.56,0,0,0-1,1l.17-.12a1.22,1.22,0,0,1,.29.58l.74.61c-.09,0,0,.14-.27-.11a2.87,2.87,0,0,0,.69.7c0,.23-.27,0,.09.52.73.38-.31-.63.38-.34Z"/><polygon class="cls-1" points="9.65 14.43 9.36 14.03 9.46 14.27 9.65 14.43"/><path class="cls-1" d="M8.23,12.83c.15.15.19.24.34.39s0-.18-.34-.39"/><path class="cls-1" d="M10.7,13.3v-.23l-.2-.05a.74.74,0,0,1,.21.28"/><path class="cls-1" d="M9.82,10.86c-.1.2.13.57-.37.4.33.5.81.75,1.15,1.17.18,0-.53-.69-.57-.91.38.32.05-.21.22-.2a3.67,3.67,0,0,1-.43-.46"/><path class="cls-1" d="M11.65,11.68c.07-.06-.11-.4.1-.29s.23.34.14.33c.49.45,0-.16.38.09a1,1,0,0,1-.24-.23c.29-.08-.28-.49.22-.47a1.26,1.26,0,0,0-.36-.5,6,6,0,0,0,.93.49c-.18-.17-.63-.53-1-.91.75.3.17-.31.7-.06,0,0,.08.15,0,.14.53.51,0-.22.21-.2l.43.45c0-.15-.15-.56.26-.35l.19.24c-.14-.53.24-.6.24-.93l.34.17c-.08-.55-.36.08-.81-.72.78.75-.13-.37.3-.19s0,.29.44.58c-.36-.43,0-.19-.09-.37.35.38.19-.1.56.36l-.42-.92c.24.16.27.06.28-.05-.14.13-.49-.56-.8-.59a1,1,0,0,1-.77.92c.48.55-.18.16.19.63l-.5-.44c-.07.27.33.24.47.48s-.38-.12-.56-.32c-.16.1.12.16.34.51L12.16,9c-.24.55-.35,1.47-1.15,1.54l.42.36c-.42,0,.55,1.25-.48.54l.29.42c-.17-.23-.65-.59-.87-.92.08.19-.13.09-.06.27l.29.1c.28.43,0,.29-.34,0,.26.57.8.65,1.17,1-.54-1,.94.53.81,0-.12-.37-.38-.37-.59-.6"/><path class="cls-1" d="M10.3,10.82a.61.61,0,0,0,.07.14.9.9,0,0,0-.07-.14"/><path class="cls-1" d="M14.44,8.34a.09.09,0,0,0,0-.07c-.06-.11,0,0,0,.07"/><path class="cls-1" d="M10.25,11.32h0Z"/><polygon class="cls-1" points="11.16 12.46 11.23 12.41 11.03 12.23 11.16 12.46"/><path class="cls-1" d="M15.43,8.17,15.26,8l.17.17"/><path class="cls-1" d="M17.07,6.63l0,0s0,0,0,0"/><path class="cls-1" d="M19.05,2a.9.9,0,0,0-.68-.06l.11-.1c-.11,0-.45,0-.51.28l.11-.06c.28,0-.07.27,0,.44.1,0,.62-.28.61-.11s-.09.09-.2.13.49,0,.63,0c-.6.15-.49.16-.26.22a1.27,1.27,0,0,1,.33.12s0,0,0,0a1.1,1.1,0,0,1-.3,0c0,.09-.17.13,0,.33-.27-.18-.13.07-.45-.12.34.19.18.23.06.24s-.23.07.11.44c-.38,0,0,.06-.34.09a.13.13,0,0,1,0-.15c-.24-.07.18.44-.22.17-.23.1.17.23.26.53-.26.08-.31-.07-.72-.3.35.38.07.3.17.58A.23.23,0,0,1,17.9,5c-.26.14.08.41,0,.71-.5-.33.17-.21-.31-.37-.08-.32,0-.39-.2-.75a.87.87,0,0,0-.32.73c-.15,0-.15-.25-.26-.21-.37,0,.16.7-.16.64l-.2-.26c.21.39-.38.23-.37.56a.89.89,0,0,1,.28.26c-.58-.6.08.54-.49.27a1,1,0,0,1,.4.89,2.21,2.21,0,0,1-.39-.35c.38.07-.27-.58-.31-.88.09.3-.29.25-.11.63l-.26-.34c-.2.09.56.83.11.68l-.21-.25c-.27.33-1.06.25-.78,1,.18.22.76.57.91.72a9.76,9.76,0,0,0-.33-1l.36.38c-.23-.29-.24-.57-.51-.7-.09-.27.39.26.29,0,.36.39.34.5.65.82l-.09-.28c.12.17.18.07.3.25-.29-.63.4-.06.36-.45l-.16,0c-.2-.21-.12-.24-.14-.35.33.25.32.18.52.21-.08-.24-.39-.65-.29-.75.35.41.37,0,.7.34-.34-.4.07-.34-.13-.58,0-.13.09-.17.29,0,0,0,0,.08,0,.11l.06,0s.07.08.07.1-.2-.31,0-.2.06.13.07.2c.18-.08-.32-.79.11-.57-.15-.19,0-.36-.41-.71.17.1.45.41.5.25-.24-.38.24,0,.12-.3.21.44.09.09.3.5.2.05-.1-.48.08-.56l.26.21c-.06-.16-.24-.46,0-.26L18.1,5c.19,0,.25-.17.56,0l-.27-.5c.55.26.38-.32.18-.77a.37.37,0,0,1,.31,0,.9.9,0,0,1,.08.19c.11-.08.51-.07.17-.33,0-.15.35,0,.51,0-.19-.22.06-.32.3-.46L20.1,3s.08-.06,0-.09a1.54,1.54,0,0,0-.58-.1s0,0,0,.07,0,0-.07.07a.79.79,0,0,0-.26.18c-.08-.06-.31-.07-.29-.11s.15-.07.27-.11,0-.09-.1-.14l.7,0c.21-.16-.2-.31-.48-.37s-.47-.09-.27-.39"/><path class="cls-1" d="M18.85,4.13a1.59,1.59,0,0,0,.33.09L19,4.06c0,.07,0,.11-.13.07"/><path class="cls-1" d="M19,4.06a.27.27,0,0,0,0-.15s0,0,0,.11Z"/><path class="cls-1" d="M18.53,1.64a.1.1,0,0,0-.1-.1c0,.06,0,.13.1.1"/><polygon class="cls-1" points="18.32 1.63 18.32 1.73 18.36 1.7 18.32 1.63"/><path class="cls-1" d="M15.54.74l0,.27c-.09,0-.2.19-.24,0,0,.22-.31.27,0,.39.2-.22.58-.49.77-.68a.59.59,0,0,1,.13-.18s.06-.11.09-.1a.47.47,0,0,0,.12,0,.47.47,0,0,0-.09.12c.1-.09.14,0,.13.08s.11.21.43.08L16.53,1c0,.2.57-.1.44.29l.09-.12s0,.1,0,.14l0-.06c.19,0,.23.05.25.22s-.08,0-.12,0,.19,0,.26.1-.12.12-.16.15c.32.09.12.48.67.22.09-.07.08-.2.19-.16,0-.27-.28-.21-.51-.23l0,0c-.47.28,0-.17-.3-.16.19-.11.26,0,.36-.1.09-.47-.47,0-.25-.52h0c0-.06-.11,0-.19-.05a.4.4,0,0,0,0,.19c-.08,0-.25.12-.33.18.11-.21-.14,0-.13-.15s.19-.06.29-.11H17c-.09-.07.07-.23.1-.35-.17,0,0,.12-.23.21.09-.26-.39-.61-.57-.54.06,0,.08-.2.14-.1,0-.07-.14-.06-.17.12-.06,0-.1.06-.15.08a.29.29,0,0,1-.16,0,.93.93,0,0,0,0,.1c0,.24-.21,0-.34.3h0c0,.07.09.31-.06.36-.05-.12,0-.16-.09-.25"/><path class="cls-1" d="M15.06,1.47l0-.14c-.09,0-.06.22,0,.27s.13-.06.09-.12-.06,0-.07,0"/><path class="cls-1" d="M13.8,2.53s0,.05,0,.07a2.9,2.9,0,0,1,.74-.54c.12-.05,0-.18.11-.3l.13,0c0-.1.29-.16.08-.25,0,0,0,.11-.06.13l0-.06-.11.12,0-.09c-.24.05.06.27-.2.38l-.1-.11c-.14.11-.17.2-.35.24,0,0,.05,0,.05,0s.1,0,.11.05c-.13.24,0-.09-.2,0s-.4.53-.56.55c.13,0,0,.13-.06.2s0-.07,0-.1a.42.42,0,0,0-.14.09c.09,0,.11.07,0,.17.29-.13.36-.4.6-.59"/><path class="cls-1" d="M13.79,2.65s0,0,0,0l-.1.08Z"/></g></g></svg>