<svg xmlns="http://www.w3.org/2000/svg" viewBox="0 0 7.6 11.01"><defs><style>.cls-1{fill:#fff;}</style></defs><title>Asset 9</title><g id="Layer_2" data-name="Layer 2"><g id="Pontas"><path class="cls-1" d="M.36,0V.05L.44,0,.36,0"/><path class="cls-1" d="M.23.39A.35.35,0,0,0,.28.47C.52.24.49.34.56.12c-.07,0-.2,0-.24,0S.43.15.43.21.35.17.27.19.33.21.33.32Z"/><path class="cls-1" d="M.51.33A.4.4,0,0,0,.38.4S.51.38.51.33"/><path class="cls-1" d="M.57.35C.59.41.46.43.45.44L.68.36Z"/><path class="cls-1" d="M.69.56h0s0,0,0,0"/><path class="cls-1" d="M.79.63C.87.55.79.57.73.56v0C.66.66.47.75.49.67S.6.54.47.56L.37.71C.41.79.69.66.79.63"/><path class="cls-1" d="M.69.56l0,0s0,0,0,0"/><polygon class="cls-1" points="0.64 0.45 0.6 0.44 0.54 0.49 0.64 0.45"/><path class="cls-1" d="M.92.78C.61,1,.87.65.65.78.7.84.51,1,.34,1.13l.11,0A2,2,0,0,0,.92.78"/><path class="cls-1" d="M.16,1.49l.06,0-.06,0"/><path class="cls-1" d="M.93,1.49c-.17,0-.33.06-.47.08.13-.06.24-.15.31-.14s-.23,0-.22-.06c.33-.25.07.1.37-.15,0,0-.1-.09-.38.06l.19-.23L.4,1.31c-.1.1.29-.12,0,.07s-.19.1-.23.09S0,1.83,0,1.92s.68-.36.92-.43"/><polygon class="cls-1" points="0.46 1.81 0.3 1.94 0.52 1.78 0.46 1.81"/><path class="cls-1" d="M1.12,1.63l-.33.1L1,1.56l-.37.23c-.38.31.16,0,.27,0C.76,2.1.67,2,.28,2.3c0,0,.1-.12.12-.2-.46.42,0,.25.15.21s.18-.14.13-.14l.17,0c.33-.3.39-.4.27-.49"/><path class="cls-1" d="M1,1.47c.05,0,0,.05,0,.09.1-.08.17-.15,0-.09"/><path class="cls-1" d="M.57,2.34s0,0,0,0,0,0,0,0"/><path class="cls-1" d="M1.09,1.92l0,.1.2-.18a.36.36,0,0,0-.18.08"/><path class="cls-1" d="M1.34,5.09c.28-.2.41-.32.33-.33.39-.26.35-.14.58-.26a5.4,5.4,0,0,1,.82-.57c0-.1-.53.21-.47.06A3.72,3.72,0,0,0,3,3.71c-.3.08-.74.16-.48-.14.08-.18-.13-.12-.35-.11,0-.42-.53-.53-.45-1.06l-.6.34c.28-.21,0-.08.34-.32-.06.07,0,.05,0,.06.45-.4-.15-.16,0-.36a5.75,5.75,0,0,1-.63.42c.58-.39,0-.11.58-.57.11-.2-.49.32-.44.17-.33.2-.12.2-.37.39s.09-.17-.25.06c-.14.3.65.14,1,.2L1,3c.3,0,.43.12-.17.65.36-.28-.14.32.72-.28-.19.16-.15.15-.21.25l.29-.18c0,.06-.42.35-.36.4a4.74,4.74,0,0,1,.83-.53L1,4.36A4.84,4.84,0,0,0,1.46,4c-.12.15.26-.12.41-.2a4,4,0,0,1-.74.55c-.13.2.89-.44.59-.15l.41-.31c.15,0-.28.4-.08.4-.57.45-.55.27-.82.4-.12.1-.13.16-.32.31L2,4.51c-.72.42-.62.51-.65.58"/><path class="cls-1" d="M.91,5l-.25.13s.09,0,.06,0L.91,5"/><path class="cls-1" d="M1.34,5.09l-.07,0s.06,0,.07,0"/><path class="cls-1" d="M2.55,3.53l0,0s0,0,0,0Z"/><path class="cls-1" d="M.62,4.74,1,4.36a1.52,1.52,0,0,0-.41.38"/><path class="cls-1" d="M.85,3.8A1.83,1.83,0,0,0,.54,4c0,.05.12,0,.31-.18"/><polygon class="cls-1" points="0.84 5.21 1.01 5.19 1.14 5.14 0.84 5.21"/><path class="cls-1" d="M4,5c.51-.43.12-.29.18-.44-.38.06-1.21.8-1.36.71L4,4.56c-.15-.08-.05-.41-1.1.14a2.13,2.13,0,0,1,.47-.31c-.11-.06-1.62,1-1.32.66.75-.36.63-.48,1.34-.91l.08,0c-.12,0-.54.13-.53.05-.28.19-.69.52-.76.48a4.79,4.79,0,0,1-.64.45c.34-.13.17,0,.57-.18-.35.29-.14.06-.48.34L2,5.07c-.06.1-.39.21-.44.33.22-.14.49-.25.47-.17l-.14.07c.17-.06,0,.12.63-.32l-.59.46.42-.29c-.1.21-1.1.94-.49.71a1.63,1.63,0,0,1,.45-.28c.26-.26-.36.15-.45.14a11.93,11.93,0,0,0,1.2-.79c-.46.41.15.08-.9.83,0,.13.53-.19.34.06l-.16.1c.72-.46-.27.28.49-.15L3,5.62c.29-.19.31-.17.39-.18a1.19,1.19,0,0,0-.25.18,3.39,3.39,0,0,1,.82-.39c.06-.1-.39.13-.55.18.31-.18.74-.48.67-.38"/><path class="cls-1" d="M1.62,5.44l.26-.14-.26.14"/><path class="cls-1" d="M3.4,6c-.08.13-.44.28-.63.48.39-.19.67-.54,1.23-.84-.28.23.28-.07.3,0-.31.17-1,.63-1.09.73.2-.1-.09.16-.08.2.34-.35.29-.09.68-.47s.73-.37.45-.13S4,6,4,6c-.54.34-.25.25-.72.58.8-.42.92-.13,2-1,.2-.18-.09,0-.16,0-.17.24-.6.4-.81.54.16-.16-.25,0,.17-.24L5,5.67c.11-.33-.12-.53-.43-.62l0,.1A2.21,2.21,0,0,1,4,5.41L3.23,6c0-.06-.09,0,.2-.2a5.82,5.82,0,0,0-.82.55c-.19,0,.11-.19-.45.12-.57.55.62-.28.14.23Z"/><polygon class="cls-1" points="2.79 6.05 3.21 5.81 2.98 5.9 2.79 6.05"/><path class="cls-1" d="M4.59,4.9l-.44.28c-.09.13.15,0,.44-.28"/><path class="cls-1" d="M3.3,6.68l.19,0,.11-.14a1.5,1.5,0,0,1-.3.17"/><path class="cls-1" d="M5.57,5.83c-.12,0-.5.14-.18-.23-.52.28-.9.65-1.36.93C4,6.65,4.78,6.09,5,6c-.4.31.15,0,.08.14.17-.12.36-.25.52-.34"/><path class="cls-1" d="M4.24,7.19s.37-.12.2,0-.36.2-.31.13c-.55.39.12,0-.21.28a1.45,1.45,0,0,1,.26-.19c0,.19.5-.25.3.1A1.92,1.92,0,0,0,5,7.25,10.06,10.06,0,0,0,4.28,8c.2-.15.65-.5,1.09-.8-.52.56.19.09-.21.49,0,0-.15.07-.11,0-.59.42.17,0,.08.13l-.51.34c.12,0,.51-.16.18.15l-.26.15c.47-.15.41.14.64,0a2.83,2.83,0,0,1-.28.2c.47-.14.1-.17.91-.54-.92.52.35-.1,0,.18s-.24,0-.64.26c.49-.22.16,0,.32-.07-.46.18,0,.07-.54.25a5.14,5.14,0,0,1,.95-.18c-.25.09-.18.1-.09.12s.15-.06.38-.1a1.31,1.31,0,0,0,.59-.16c-.39-.15-.7-.3-.6-.66-.63.37-.07-.12-.58.18.18-.14.35-.26.54-.39-.2,0-.32.25-.56.37s.23-.28.46-.42c0-.1-.18.1-.53.29l.64-.51c-.35-.11-1-.1-.8-.66L4.93,7c.18-.3-1.19.51-.25-.28l-.44.24c.25-.14.71-.51,1-.7-.18.08,0-.08-.19,0l-.19.22c-.44.24-.22,0,.13-.24a5.24,5.24,0,0,0-1.19.91c1-.47-.77.71-.3.57s.44-.3.69-.47"/><path class="cls-1" d="M5.43,6.15l-.14.07a.45.45,0,0,0,.14-.07"/><path class="cls-1" d="M5.84,8.69l0,0c.13,0,0,0,0,0"/><path class="cls-1" d="M5.05,6.17h0Z"/><polygon class="cls-1" points="3.81 6.92 3.82 6.96 4.04 6.81 3.81 6.92"/><path class="cls-1" d="M5.45,9h0"/><path class="cls-1" d="M5.37,9.31h0"/><path class="cls-1" d="M4,9.83a.86.86,0,0,0-.3.2l.07-.13a.61.61,0,0,0-.36.41l.09-.08c.19-.09-.08.29,0,.49.14,0,.4-.5.41-.3,0,0,0,.16-.07.27s.21-.31.26-.33c-.12.61,0,.58,0,.51s.17-.29.25.1c.09-.12.24,0,.3-.33,0,.34.12,0,.18.37-.07-.39,0-.32.14-.29s.24,0,0-.42c.28.21,0-.06.26.1.07.1,0,.11,0,.13.22.16-.18-.41.2,0,.23,0-.2-.26-.29-.5.18.06.25.18.74.51-.45-.41-.13-.24-.33-.47a.52.52,0,0,1-.29-.21c.18,0-.17-.27-.23-.39.56.37-.07.05.41.32.17.2,0,.19.43.53.17,0,.27-.14.07-.35.18,0,.32.21.46.23.54.13-.63-.49-.17-.34l.45.21c-.57-.29.42,0,.17-.21l-.37-.12-.2-.08a2.51,2.51,0,0,0,.43.14s-.06,0-.14-.09-.28-.17.15-.07a12,12,0,0,1-1.23-.43l.64.15c-.17,0,0,.05.32.15s.87.28,1.08.39c-.53-.22-.13-.22-.84-.45l.74.2a2.83,2.83,0,0,0-.76-.25c-.3-.09-.46-.12-.26-.13L7,9.34c-.11-.11,0-.2,0-.32s-.17-.26-.66-.3c-.29,0-.88.13-1.1.13A11,11,0,0,1,6.26,9L5.71,9c.41,0,.61.11,1,.1s-.58,0-.14.09c-.63-.08-.7-.11-1.19-.16l.31.07c-.24,0-.18,0-.43-.05C6,9.18,5,9,5.4,9.13h.09a1.53,1.53,0,0,1,.44.13,5.87,5.87,0,0,0-.61-.11,5.37,5.37,0,0,1,1,.34c-.68-.23-.45-.09-1-.29.64.24.16.11.51.25.09.06,0,.05-.32-.09l-.09,0h0l-.12-.06s.39.19.08.07l-.19-.1c-.11,0,.74.43.22.2.24.13.18.17.7.47-.21-.1-.59-.34-.58-.28.37.28-.2-.08,0,.11-.35-.31-.11-.09-.45-.37-.18-.11.28.28.15.25l-.27-.22c.11.1.33.36.06.11l.21.22c-.14-.1-.14,0-.37-.24a4.87,4.87,0,0,1,.27.45c-.39-.44-.18,0-.11.47a.3.3,0,0,1-.18-.19,1.76,1.76,0,0,0,0-.19c-.06,0-.18-.27-.1.16,0,.14-.1-.29-.14-.35,0,.31-.09.23-.14.17s-.09,0-.13.41c0,0,.13.16.22.1,0,.11,0,.28,0,.31s-.1,0-.14-.08,0,0-.06,0,0,0-.05,0l.06-.57c0-.34-.06-.16-.14-.07s-.16.15-.08-.2"/><path class="cls-1" d="M4.78,9.92a2.2,2.2,0,0,1-.15-.26l.09.23s0,0,.06,0"/><path class="cls-1" d="M4.72,9.89a.83.83,0,0,0,0,.13s0,0,0-.07Z"/><path class="cls-1" d="M3.85,9.73s0-.07,0-.06,0,.1,0,.06"/><polygon class="cls-1" points="3.73 9.78 3.72 9.86 3.75 9.82 3.73 9.78"/><path class="cls-1" d="M2.2,8.39,2,8.41c.05-.07-.1-.12,0-.17-.18.06-.13-.18-.3,0,.26.22.34.75.8.87l-.15,0c.34,0-.12.46.45.19l-.26.2c0,.14.47-.17.25.14l.1-.1s0,.07,0,.1l0-.05c.14,0,.16,0,.12.12S3,9.8,3,9.8s.14,0,.17,0A.25.25,0,0,1,3,10c.19,0,0,.47.49.11.07-.08.09-.19.16-.19.05-.22-.14-.1-.33-.09v0c-.45.28.06-.13-.19-.07.18-.11.22-.07.32-.13.21-.36-.36,0,0-.35h0s-.07,0-.12,0a.31.31,0,0,0-.07.14,1.53,1.53,0,0,0-.31.19c.14-.17-.11,0-.06-.09s.17-.08.26-.13L3,9.39s.12-.18.18-.27c-.14.05-.06.09-.24.19.14-.21-.1-.37-.31-.37.05,0,.16-.11.17,0s-.1,0-.2,0-.15-.15-.12-.29l-.07.1c-.2.07,0-.25-.17-.28h0S2,8.6,2,8.5s.12,0,.22-.11"/><path class="cls-1" d="M1.77,8.17l.12-.05c0-.06-.16,0-.22.06s0,.08.07,0,.05-.05,0-.05"/><path class="cls-1" d="M1.3,7.43l-.06,0c.09.16.24.33.21.45s.13,0,.2,0L1.58,8c.08,0,0,.18.18,0,0,0-.1,0-.09,0l.06,0-.06-.06.07,0c0-.16-.23.1-.24-.07l.12-.1c-.05-.08-.11-.09-.09-.21s-.06,0,0,0,0,.07-.06.08.07,0,.06-.15-.3-.19-.27-.3c0,.09-.11.06-.14,0s0,0,.08,0,0-.06,0-.08a.08.08,0,0,1-.14,0c0,.18.22.18.3.32"/><path class="cls-1" d="M1.2,7.45s0,0,0,0l0,0Z"/></g></g></svg>